<svg id="Layer_1" data-name="Layer 1" xmlns="http://www.w3.org/2000/svg" viewBox="0 0 607.38 616.03"><defs><style>.cls-1{fill:#331330;}.cls-2{fill:#fdeff5;}.cls-3{fill:#fbd2db;}.cls-4{fill:#2d1230;}.cls-5{fill:#ef524b;}.cls-6{fill:#f0534d;}.cls-7{fill:#ffcc57;}.cls-8{fill:#f89725;}.cls-9{fill:#f04d4e;}.cls-10{fill:#c92032;}.cls-11{fill:#fac951;}.cls-12,.cls-21{fill:#ee4c4e;}.cls-13,.cls-22{fill:#fdeaa9;}.cls-14{fill:#ffcc5b;}.cls-15{fill:#f4982b;}.cls-16{fill:#6f3018;}.cls-17{fill:#bc9560;}.cls-18{fill:none;stroke:#f6c8b3;stroke-width:4px;}.cls-18,.cls-21,.cls-22{stroke-miterlimit:10;}.cls-19{fill:#b77f6a;}.cls-20{fill:#844c32;}.cls-21{stroke:#331330;stroke-width:12px;}.cls-22{stroke:#3a1715;stroke-width:6px;}.cls-23{fill:#ffca5d;}.cls-24{fill:#ebf6f4;}.cls-25{fill:#fff8f2;}</style></defs><title>china_doll_guzheng</title><path id="hair" class="cls-1" d="M161.21,104.37s-74-21.45-26.55-85.28c0,0,39.83-34.72,77.11,14.81,0,0,95-77.62,199.66,2,0,0,31.66-57.7,81.7-9.19,0,0,40.85,47.49-31.15,77.62,0,0,35.23,79.66-24.51,154.72,0,0-172.09,20.43-251.75,0C185.72,259.09,128.91,192.85,161.21,104.37Z"/><path id="face" class="cls-2" d="M231.68,127.35V95.69L248,127.35H368l15.83-31.66v31.66h23s12.26,2,8.17,13.78c0,0-3.57,63.83-15.83,70S313.89,253,231.68,215.18c0,0-10.72-2.56-14.81-17.88s-11.74-49.84-8.68-63.22C208.19,134.08,207.68,125.3,231.68,127.35Z"/><g id="cheek"><path class="cls-3" d="M210.59,130.2s3.22,5.83,17,6.34,155.23,0,155.23,0,14.81-.51,14.81,8.68,1.53,34.72,0,37.27c0,0-13.79-14.8-26,0s5.61,31.15,17.87,24c0,0-3.25,10.53-6.07,11.62s15.65-3.92,18.66-9.7,11.34-16.86,12.14-56.62l1.63-13.72s2.75-13.28-16.66-10.72H383.85l.51-31.66L368,127.35H248L230.66,92.62l1,34.73S220.13,125.39,210.59,130.2Z"/><circle class="cls-3" cx="239.38" cy="192.75" r="14.81"/></g><path id="eyebrow" class="cls-4" d="M263.64,147.77a4.34,4.34,0,1,1-4.34-4.34A4.34,4.34,0,0,1,263.64,147.77Zm100.08-4.34a4.34,4.34,0,1,0,4.34,4.34A4.34,4.34,0,0,0,363.72,143.43Z"/><path id="eyes" class="cls-4" d="M259.52,155.44c13-.76,23.48,9.95,23.48,9.95,2,6.89-5.87,6.32-5.87,6.32,0-3.12-11.75-7.73-11.75-7.73-14.55-2.17-22.21,6.26-22.21,6.26s-4.08,3.32-6.64,0,1.53-6.26,1.53-6.26A37.31,37.31,0,0,1,259.52,155.44Zm82.75,9s-4.08,2.94-1.53,6.26,6.64,0,6.64,0,7.66-8.44,22.21-6.26c0,0,11.75,4.61,11.75,7.73,0,0,7.91.57,5.87-6.32,0,0-10.46-10.71-23.49-9.95A37.23,37.23,0,0,0,342.27,164.4Z"/><path id="mouse" class="cls-5" d="M332.86,202.24s3.86-3,1.44-6.44-6.28,0-6.28,0-7.25,8.68-21,6.44c0,0-11.11-4.75-11.11-8,0,0-7.49-.59-5.56,6.51,0,0,9.9,11,22.22,10.24A34,34,0,0,0,332.86,202.24Z"/><g id="hair_band" data-name="hair band"><path class="cls-6" d="M409.38,37.73s-9.44-10.72,2.05-9.45l33.95,43.66L474,111s24.25,24.51,55.4,7.4c0,0,20.94-11.49,18.39-35,0,0-.77-11.66,8.42-7.1,0,0,3.07,36.46-15.83,44.12,0,0-16.08,19.41-57.7,6.39,0,0,12,31.14,12.38,43.53s1,48.64-2.68,51.44c0,0-1.15,5.37-5.49,5.62s0-10.47-.38-13.4,4.72-17.75.26-49.41c0,0-9.07-37-15.45-42.76,0,0-35.75-52-39.32-54.39S409.38,37.73,409.38,37.73Z"/><path class="cls-6" d="M212.4,37.58s9.4-10.76-2.08-9.44L176.53,71.93l-28.44,39.18s-24.15,24.6-55.37,7.62c0,0-21-11.41-18.52-34.91,0,0,.72-11.66-8.46-7.07,0,0-2.92,36.48,16,44.07,0,0,16.16,19.34,57.73,6.15,0,0-11.88,31.2-12.22,43.58s-.83,48.64,2.89,51.44c0,0,1.17,5.35,5.51,5.59s0-10.46.33-13.4-4.79-17.73-.45-49.41c0,0,8.92-37.05,15.28-42.82,0,0,35.54-52.1,39.1-54.54S212.4,37.58,212.4,37.58Z"/></g><path class="cls-1" d="M437.47,259.09s38.3,47.49,59,222.89c0,0,6.89,19.15-19.92,13.79l-13,1s4.6,72.58-3.06,78.71,3.6,24.51-125.35,40.6c0,0-119,.76-165-29.88,0,0-16.09-9.95-10.72-51.31l-1.1-39.07-24.18.77s-8.17-.85-6.81-10.05,4.43-79.65,19.41-123.91,26.77-79.49,39-103.49C209.33,212.67,445.11,234.89,437.47,259.09Z"/><path class="cls-7" d="M440.35,575.41a15.5,15.5,0,0,0,3.27-2.81,57.21,57.21,0,0,1-8.18,5.38A25,25,0,0,0,440.35,575.41Z"/><path class="cls-7" d="M255.34,588.28c12.26,2.39,72.17,7.15,102.81,1,0,0,13.28.34,16.34-14.63,0,0,45-6.81,70.94-20.73-143.94,59.13-269.75-1.06-269.75-1.06C173,568.2,180.11,573,180.11,573a285.19,285.19,0,0,0,87,25.06q-9.4-1.38-19.28-3.27S243.09,585.9,255.34,588.28Z"/><path class="cls-7" d="M447.74,564.12a30.93,30.93,0,0,0,.28-11.24l-.65.26A62.52,62.52,0,0,1,447.74,564.12Z"/><path class="cls-8" d="M443.62,572.6a9.94,9.94,0,0,0,1.68-1.68c1.54-.9,2.21-3.68,2.44-6.8A18.9,18.9,0,0,1,443.62,572.6Z"/><path class="cls-8" d="M447.34,552.88c-.62.36-1.26.71-1.91,1.06l1.94-.8C447.35,553,447.34,552.88,447.34,552.88Z"/><path class="cls-8" d="M267.13,598c89.59,13.18,146.51-7.77,168.31-20C416.24,586.41,346.5,608.09,267.13,598Z"/><path class="cls-8" d="M447.37,553.14l-1.94.8c-25.91,13.92-70.94,20.73-70.94,20.73-3.06,15-16.34,14.63-16.34,14.63-30.64,6.13-90.55,1.37-102.81-1s-7.49,6.47-7.49,6.47q9.89,1.9,19.28,3.27c79.37,10.07,149.11-11.61,168.31-20a57.21,57.21,0,0,0,8.18-5.38,18.9,18.9,0,0,0,4.12-8.48A62.52,62.52,0,0,0,447.37,553.14Z"/><path class="cls-9" d="M177.55,476.11s85.79-48.51,102.13-67.91c0,0,2.55,19.42,26.55,24.52,0,0,30.64,3.56,36.77-24.52,0,0,75.66,60.25,102.68,67.91,0,0,4.47,60.77,2.73,65.87,0,0-134.39,67.92-273.35,0C174.3,540.2,172,478.28,177.55,476.11Z"/><path class="cls-10" d="M280.23,408.2s-32.15,24.11-61,43.81c-16.53,11.28-32.63,17.8-39.68,24.14-2.11.55-2.71,2.42-4.08,4.23-1.59,2.12-1.82,14.64-1.26,21.63.25,1.57,10,9.76,23.46-2s77.53-69.85,85.25-87.14Z"/><path class="cls-10" d="M340.45,415.35s33.81,25.87,36.22,150.46c0,0,48.71-9.53,72.14-21.44V477.3s-95.25-54.46-105.26-69.78A26.85,26.85,0,0,1,340.45,415.35Z"/><path class="cls-11" d="M275.77,244.79s49.36,6.47,70.81,0c0,0-23.83,36.09-38.47,43.92C308.11,288.71,279.17,260.79,275.77,244.79Z"/><path class="cls-8" d="M275.77,244.79s51.74,3.53,70.81,0c0,0-15.32,25.41-22.47,28.94,0,0-29.28-2.82-33.36-2.82C290.75,270.91,275.77,248,275.77,244.79Z"/><circle class="cls-2" cx="311.84" cy="403.35" r="19.26"/><path class="cls-12" d="M398.32,262.15s-.68-6.46,7.83-5.78c0,0,16-3.07,14.64,4.42,0,0,53.44,102.13,54.47,184.17,0,0-62-27.91-105.88-73.53,0,0,9.2-4.42,14-12.59Z"/><path class="cls-10" d="M441.31,305.39s2.82,85.79-12.69,114.39l47.94,27.57C480.67,447.22,467.45,359.42,441.31,305.39Z"/><path class="cls-12" d="M368,240.74s-31.32,70.47-115.4,94l1.7,15.69s-.68,4.39,13.62,7.79,33,8.18,36.08,10.22,18-1.36,18-1.36l39.83-10.22s8.52-2.38,9.54-9.87,10.89-92.47,13.95-93.89c0,0-5.71-15.18-6.71-15.33S368,240.74,368,240.74Z"/><path class="cls-10" d="M368.09,241.13s-8,17.63-26.85,38.27c16.49,13,20.72,61.45,22.21,77.42,5.47-2.68,8.95-5.56,8.17-8.38-2-7.37,11.29-93.43,14.47-94.86,0,0-5.93-15.34-7-15.49S368.09,241.13,368.09,241.13Z"/><path class="cls-13" d="M481.17,457s2.21,16.44,2.58,19.94-132.48-70.69-147.22-96.51c0,0,21.87-6.42,24-7.48C360.48,372.91,420.16,431.39,481.17,457Z"/><path class="cls-14" d="M412.81,439.18s-58-38.28-61.47-44.89l12.16-17.92s46.62,43.15,63.42,50.37C426.92,426.74,417,439.18,412.81,439.18Z"/><path class="cls-15" d="M481.17,457s2.21,16.44,2.58,19.94c.18,1.79-34.52-16.77-70.43-38.78,12.91-6.43,11.78-12.7,12.11-12.47C442.64,437.45,461.83,448.86,481.17,457Z"/><path class="cls-16" d="M17.59,463.48S-23,444.14,19.11,379.69c0,0,3-8.56,23.34-10.12s212.06-32.14,212.06-32.14l263.33-40.64,89.54,66.58-2.18,8.37L216.61,504.06s-39.38,15.68-100.31-15.47c0,0-32.19-30.6-41.24-53.14,0,0-13.4-42.44-24.85-32.64s-11.52,25.57-11.52,25.57,5.77,6.79,26.47,4.7c0,0,6,2,1.64,7.88s-9.14,19-11.53,22.23S23.86,468.05,17.59,463.48Z"/><path class="cls-17" d="M24.91,374.4c7.59-2.76,20.21-6.64,32.49-7.13,49.81-4.15,193.65-29.55,195.68-31.1l263.19-39.31,89.86,66.81S480.73,408.87,356.55,446c-114.27,34.14-160.63,80.41-241,40.31,0,0-32.34-30.67-41.5-53.19,0,0-13.6-42.39-25-32.67s-11.4,25.45-11.4,25.45c-3.35,9.13,26.67,11.55,29.56,7.61.76-1,.25,2.87-1.38,5.07-3,4.08-6.24,11.65-8.7,16.95-.37.79-15.34,2-31.37-.27C5.54,442,4.83,441.5,16.5,383.79,16.93,381.68,20.54,376,24.91,374.4Z"/><line class="cls-18" x1="534.23" y1="365.28" x2="181.89" y2="480.75"/><line class="cls-18" x1="526.91" y1="352.42" x2="144.55" y2="469.63"/><line class="cls-18" x1="519.48" y1="339.37" x2="120.99" y2="443.79"/><line class="cls-18" x1="510.9" y1="333" x2="100.32" y2="420.09"/><line class="cls-18" x1="507.81" y1="318.87" x2="82.56" y2="390.23"/><path class="cls-19" d="M96.57,370.69S79.71,428.08,180,483.52c0,0-30.3,8.27-66.64-22.91,0,0-41.54-60-41.15-63.9,0,0-10-22.41-32.5-6.68s-4.89,44.65-4.89,44.65,13.4,10,22.06,3.91l-3.83,9.64-31,3.6s-16-60.19,6.65-71.64S96.57,370.69,96.57,370.69Z"/><polygon class="cls-19" points="497.26 298.72 544.91 382.44 537.45 386.88 491.25 300.08 497.26 298.72"/><circle class="cls-20" cx="182.59" cy="481.27" r="6.68"/><circle class="cls-20" cx="144.55" cy="469.63" r="6.68"/><circle class="cls-20" cx="119" cy="446.47" r="6.68"/><circle class="cls-20" cx="100.32" cy="420.09" r="6.68"/><circle class="cls-20" cx="82.56" cy="390.23" r="6.68"/><circle class="cls-1" cx="395.12" cy="447.19" r="30.32"/><circle class="cls-2" cx="395.21" cy="445.43" r="22.52"/><circle class="cls-1" cx="236" cy="410.41" r="30.32"/><circle class="cls-2" cx="236.09" cy="410.65" r="22.52"/><path class="cls-21" d="M224.25,260.85s.57-6.55-8.5-5.65c0,0-17.17-2.68-15.53,4.84,0,0-54.64,104.46-53.77,187.31,0,0,65.51-29.76,111.33-76.92,0,0-9.93-4.24-15.22-12.36Z"/><path class="cls-10" d="M220.94,266.24s.43-6.05-6.67-5.25c0,0-13.42-2.54-12.12,4.42-10.8,21.07-15.44,50-14.52,75.2,1.14,28.33,6.66,81.84,14.18,68.72A175.06,175.06,0,0,0,219,394c7.48-5.11,16.84-13.63,28.55-26.37,0,0-7.77-3.95-11.93-11.48Z"/><path class="cls-22" d="M145.5,454.56s-2.13,16.37-2.48,19.85,132.36-71.05,147-96.83c0,0-21.94-6.27-24-7.31C266,370.27,206.49,428.78,145.5,454.56Z"/><path class="cls-23" d="M267.13,372.91s-30.43,30.63-49.61,41c-2.54,1.38,0,13.61,0,13.61s56.56-32,66.06-47.45Z"/><g id="button"><circle class="cls-24" cx="265.57" cy="345.94" r="4.1"/><circle class="cls-24" cx="287.68" cy="336.56" r="4.1"/><circle class="cls-24" cx="307.79" cy="326.17" r="4.1"/><circle class="cls-24" cx="327.55" cy="311.86" r="4.1"/><circle class="cls-24" cx="346.32" cy="297.54" r="4.1"/><circle class="cls-24" cx="363.08" cy="279.22" r="4.1"/><circle class="cls-24" cx="377.72" cy="259.85" r="4.1"/></g><path class="cls-12" d="M245.47,238.09s-6.81,10.79-6.81,12.49,9.87,53.11,10.55,68.43c0,0,43.24-16.34,44.6-19.75,0,0-38.47-52.42-37.79-57.87Z"/><path class="cls-10" d="M239,251.26s12.63,13.28,30.67,15.49c0,0-13-23-13-26,0,0-8.83-.59-11.54-2.62Z"/><g id="button-2" data-name="button"><circle class="cls-25" cx="267.66" cy="295.52" r="4.09"/><circle class="cls-25" cx="252.62" cy="277.81" r="4.09"/><circle class="cls-25" cx="244.45" cy="258.82" r="4.09"/></g></svg>