<svg id="Layer_1" data-name="Layer 1" xmlns="http://www.w3.org/2000/svg" viewBox="0 0 490.79 616.03"><defs><style>.cls-1{fill:#331330;}.cls-2{fill:#fdeff5;}.cls-3{fill:#fbd2db;}.cls-4{fill:#2d1230;}.cls-5{fill:#ef524b;}.cls-6{fill:#f0534d;}.cls-7{fill:#ffcc57;}.cls-8{fill:#f89725;}.cls-9{fill:#f04d4e;}.cls-10{fill:#c92032;}.cls-11{fill:#fac951;}.cls-12{fill:#ee4c4e;}.cls-13{fill:#fdeaa9;}.cls-14{fill:#ffca5d;}.cls-15{fill:#ffcc5b;}.cls-16{fill:#f4982b;}.cls-17{fill:#ebf6f4;}.cls-18{fill:#fff8f2;}</style></defs><title>china_doll_origin</title><path id="hair" class="cls-1" d="M95.63,104.37s-74-21.45-26.55-85.28c0,0,39.83-34.72,77.1,14.81,0,0,95-77.62,199.66,2,0,0,31.66-57.7,81.71-9.19,0,0,40.85,47.49-31.15,77.62,0,0,35.23,79.66-24.51,154.72,0,0-172.09,20.43-251.75,0C120.14,259.09,63.33,192.85,95.63,104.37Z"/><path id="face" class="cls-2" d="M166.1,127.35V95.69l16.34,31.66h120l15.83-31.66v31.66h23s12.25,2,8.17,13.78c0,0-3.58,63.83-15.83,70S248.31,253,166.1,215.18c0,0-10.72-2.56-14.81-17.88s-11.74-49.84-8.68-63.22C142.61,134.08,142.1,125.3,166.1,127.35Z"/><g id="cheek"><path class="cls-3" d="M145,130.2s3.23,5.83,17,6.34,155.24,0,155.24,0,14.81-.51,14.81,8.68,1.53,34.72,0,37.27c0,0-13.79-14.8-26.05,0s5.62,31.15,17.88,24c0,0-3.25,10.53-6.08,11.62s15.66-3.92,18.67-9.7,11.34-16.86,12.14-56.62l1.63-13.72s2.74-13.28-16.66-10.72H318.27l.51-31.66-16.34,31.66h-120L165.08,92.62l1,34.73S154.55,125.39,145,130.2Z"/><circle class="cls-3" cx="173.8" cy="192.75" r="14.81"/></g><path id="eyes" class="cls-4" d="M298.15,172.08c-13,.76-23.49-9.94-23.49-9.94-2.05-6.89,5.86-6.33,5.86-6.33,0,3.12,11.75,7.73,11.75,7.73,14.56,2.16,22.21-6.27,22.21-6.27s4.09-3.33,6.64,0-1.53,6.26-1.53,6.26A37.27,37.27,0,0,1,298.15,172.08Zm-82.77-8.92s4.09-2.94,1.53-6.26-6.64,0-6.64,0-7.65,8.43-22.21,6.27c0,0-11.74-4.61-11.74-7.73,0,0-7.92-.56-5.87,6.33,0,0,10.46,10.7,23.49,9.94A37.27,37.27,0,0,0,215.38,163.16Z"/><path id="mouse" class="cls-5" d="M267.27,202.24s3.87-3,1.45-6.44-6.28,0-6.28,0-7.25,8.68-21,6.44c0,0-11.12-4.75-11.12-8,0,0-7.49-.59-5.55,6.51,0,0,9.9,11,22.22,10.24A34,34,0,0,0,267.27,202.24Z"/><g id="hair_band" data-name="hair band"><path class="cls-6" d="M343.8,37.73s-9.44-10.72,2-9.45l34,43.66L408.4,111s24.25,24.51,55.4,7.4c0,0,20.94-11.49,18.38-35,0,0-.76-11.66,8.43-7.1,0,0,3.06,36.46-15.83,44.12,0,0-16.08,19.41-57.7,6.39,0,0,12,31.14,12.38,43.53s1,48.64-2.68,51.44c0,0-1.15,5.37-5.49,5.62s0-10.47-.38-13.4,4.72-17.75.25-49.41c0,0-9.06-37-15.44-42.76,0,0-35.75-52-39.32-54.39S343.8,37.73,343.8,37.73Z"/><path class="cls-6" d="M146.82,37.58s9.4-10.76-2.08-9.44L111,71.93,82.51,111.11s-24.16,24.6-55.37,7.62c0,0-21-11.41-18.52-34.91,0,0,.72-11.66-8.46-7.07,0,0-2.92,36.48,16,44.07,0,0,16.16,19.34,57.72,6.15,0,0-11.87,31.2-12.21,43.58s-.83,48.64,2.89,51.44c0,0,1.17,5.35,5.51,5.59s0-10.46.33-13.4-4.8-17.73-.45-49.41c0,0,8.91-37.05,15.28-42.82,0,0,35.53-52.1,39.1-54.54S146.82,37.58,146.82,37.58Z"/></g><path class="cls-1" d="M371.89,259.09s38.29,47.49,59,222.89c0,0,6.89,19.15-19.92,13.79l-13,1s4.6,72.58-3.06,78.71,3.6,24.51-125.35,40.6c0,0-119,.76-164.95-29.88,0,0-16.09-9.95-10.73-51.31l-1.09-39.07-24.18.77s-8.17-.85-6.81-10.05,4.42-79.65,19.4-123.91,26.77-79.49,39-103.49C143.75,212.67,379.53,234.89,371.89,259.09Z"/><path class="cls-7" d="M374.77,575.41A15.19,15.19,0,0,0,378,572.6a56.4,56.4,0,0,1-8.17,5.38A25.67,25.67,0,0,0,374.77,575.41Z"/><path class="cls-7" d="M189.76,588.28c12.25,2.39,72.17,7.15,102.81,1,0,0,13.27.34,16.34-14.63,0,0,45-6.81,70.94-20.73-143.94,59.13-269.75-1.06-269.75-1.06-2.72,15.32,4.43,20.08,4.43,20.08a285.11,285.11,0,0,0,87,25.06q-9.41-1.38-19.28-3.27S177.5,585.9,189.76,588.28Z"/><path class="cls-7" d="M382.16,564.12a30.93,30.93,0,0,0,.28-11.24l-.65.26A63.55,63.55,0,0,1,382.16,564.12Z"/><path class="cls-8" d="M378,572.6a9.72,9.72,0,0,0,1.69-1.68c1.54-.9,2.2-3.68,2.44-6.8A18.82,18.82,0,0,1,378,572.6Z"/><path class="cls-8" d="M381.76,552.88c-.62.36-1.27.71-1.91,1.06l1.94-.8C381.77,553,381.76,552.88,381.76,552.88Z"/><path class="cls-8" d="M201.55,598c89.59,13.18,146.51-7.77,168.31-20C350.66,586.41,280.92,608.09,201.55,598Z"/><path class="cls-8" d="M381.79,553.14l-1.94.8c-25.91,13.92-70.94,20.73-70.94,20.73-3.07,15-16.34,14.63-16.34,14.63-30.64,6.13-90.56,1.37-102.81-1s-7.49,6.47-7.49,6.47q9.89,1.9,19.28,3.27c79.37,10.07,149.11-11.61,168.31-20A56.4,56.4,0,0,0,378,572.6a18.82,18.82,0,0,0,4.13-8.48A63.55,63.55,0,0,0,381.79,553.14Z"/><path class="cls-9" d="M112,476.11S197.76,427.6,214.1,408.2c0,0,2.55,19.42,26.55,24.52,0,0,30.64,3.56,36.77-24.52,0,0,75.65,60.25,102.68,67.91,0,0,4.47,60.77,2.72,65.87,0,0-134.38,67.92-273.34,0C108.72,540.2,106.4,478.28,112,476.11Z"/><path class="cls-10" d="M214.65,408.2s-32.15,24.11-61,43.81C137.12,463.29,121,469.81,114,476.15c-2.12.55-2.72,2.42-4.08,4.23-1.6,2.12-1.83,14.64-1.26,21.63.25,1.57,10,9.76,23.46-2s77.52-69.85,85.24-87.14Z"/><path class="cls-10" d="M274.87,415.35s33.81,25.87,36.22,150.46c0,0,48.71-9.53,72.14-21.44V477.3S288,422.84,278,407.52A26.85,26.85,0,0,1,274.87,415.35Z"/><path class="cls-11" d="M210.18,244.79s49.37,6.47,70.81,0c0,0-23.83,36.09-38.46,43.92C242.53,288.71,213.59,260.79,210.18,244.79Z"/><path class="cls-8" d="M210.18,244.79s51.75,3.53,70.81,0c0,0-15.32,25.41-22.46,28.94,0,0-29.28-2.82-33.37-2.82C225.16,270.91,210.18,248,210.18,244.79Z"/><circle class="cls-2" cx="246.26" cy="403.35" r="19.26"/><path class="cls-12" d="M332.74,262.15s-.68-6.46,7.83-5.78c0,0,16-3.07,14.64,4.42,0,0,53.44,102.13,54.46,184.17,0,0-61.95-27.91-105.87-73.53,0,0,9.19-4.42,14-12.59Z"/><path class="cls-10" d="M375.73,305.39s2.82,85.79-12.69,114.39L411,447.35C415.09,447.22,401.87,359.42,375.73,305.39Z"/><path class="cls-12" d="M158.67,260.85s.57-6.55-8.51-5.65c0,0-17.16-2.68-15.53,4.84,0,0-54.63,104.46-53.76,187.31,0,0,65.51-29.76,111.32-76.92,0,0-9.92-4.24-15.21-12.36Z"/><path class="cls-10" d="M159.5,259.27s.59-6.7-8.8-5.77c0,0-17.76-2.74-16.07,5-14.41,23.38-20.7,55.41-19.62,83.34,1.37,31.36,8.4,90.59,18.43,76a226.28,226.28,0,0,0,22.79-17.06c9.93-5.7,22.36-15.18,37.93-29.35,0,0-10.27-4.33-15.74-12.64Z"/><path class="cls-13" d="M80.86,455.52s-2.08,16-2.42,19.4S207.8,405.47,222.1,380.28c0,0-21.45-6.13-23.49-7.15C198.61,373.13,140.47,430.32,80.86,455.52Z"/><path class="cls-14" d="M193.22,377.41,207.31,395s-47.48,37.24-68.46,47.38c0,0-12.89-13.35-11.81-13.8,7.53-3.18,25-17.56,37.66-26.53C175.82,391.94,188.25,383.94,193.22,377.41Z"/><path class="cls-13" d="M415.59,457s2.21,16.44,2.57,19.94S285.69,406.21,271,380.39c0,0,21.87-6.42,23.95-7.48C294.9,372.91,354.58,431.39,415.59,457Z"/><path class="cls-15" d="M347.23,439.18s-58-38.28-61.47-44.89l12.15-17.92s46.63,43.15,63.42,50.37C361.33,426.74,351.39,439.18,347.23,439.18Z"/><path class="cls-16" d="M415.59,457s2.21,16.44,2.57,19.94c.19,1.79-34.51-16.77-70.42-38.78,12.91-6.43,11.77-12.7,12.1-12.47C377.05,437.45,396.25,448.86,415.59,457Z"/><path class="cls-12" d="M302.44,240.74s-31.32,70.47-115.4,94l1.7,15.69s-.68,4.39,13.62,7.79,33,8.18,36.08,10.22,18-1.36,18-1.36l39.83-10.22s8.51-2.38,9.53-9.87,10.9-92.47,14-93.89c0,0-5.72-15.18-6.72-15.33S302.44,240.74,302.44,240.74Z"/><path class="cls-10" d="M302.51,241.13s-8,17.63-26.86,38.27c16.5,13,20.73,61.45,22.22,77.42,5.47-2.68,8.95-5.56,8.17-8.38-2-7.37,11.29-93.43,14.46-94.86,0,0-5.92-15.34-7-15.49S302.51,241.13,302.51,241.13Z"/><g id="button"><circle class="cls-17" cx="199.99" cy="345.94" r="4.1"/><circle class="cls-17" cx="222.1" cy="336.56" r="4.1"/><circle class="cls-17" cx="242.21" cy="326.17" r="4.1"/><circle class="cls-17" cx="261.97" cy="311.86" r="4.1"/><circle class="cls-17" cx="280.73" cy="297.54" r="4.1"/><circle class="cls-17" cx="297.5" cy="279.22" r="4.1"/><circle class="cls-17" cx="312.14" cy="259.85" r="4.1"/></g><path class="cls-12" d="M179.89,238.09s-6.81,10.79-6.81,12.49S183,303.69,183.63,319c0,0,43.24-16.34,44.6-19.75,0,0-38.47-52.42-37.79-57.87Z"/><path class="cls-10" d="M173.42,251.26s12.63,13.28,30.67,15.49c0,0-13-23-13-26,0,0-8.84-.59-11.55-2.62Z"/><g id="button-2" data-name="button"><circle class="cls-18" cx="202.08" cy="295.52" r="4.09"/><circle class="cls-18" cx="187.04" cy="277.81" r="4.09"/><circle class="cls-18" cx="178.87" cy="258.82" r="4.09"/></g></svg>