<svg id="Layer_1" data-name="Layer 1" xmlns="http://www.w3.org/2000/svg" xmlns:xlink="http://www.w3.org/1999/xlink" viewBox="0 0 110.17 158.34"><defs><style>.cls-1{fill:url(#linear-gradient);}.cls-2{fill:#8b5e3c;}.cls-3{fill:url(#linear-gradient-2);}.cls-4{fill:url(#linear-gradient-3);}.cls-5{fill:url(#linear-gradient-4);}.cls-6{fill:url(#linear-gradient-5);}.cls-7{fill:url(#linear-gradient-6);}.cls-8{fill:none;stroke:#8b5e3c;stroke-linecap:round;stroke-miterlimit:10;}</style><linearGradient id="linear-gradient" x1="1.17" y1="60.78" x2="17.76" y2="60.78" gradientUnits="userSpaceOnUse"><stop offset="0" stop-color="#c49a6c"/><stop offset="0.01" stop-color="#c8a176"/><stop offset="0.05" stop-color="#d9bea0"/><stop offset="0.1" stop-color="#e7d5c2"/><stop offset="0.14" stop-color="#f1e8dd"/><stop offset="0.19" stop-color="#f9f5f0"/><stop offset="0.23" stop-color="#fefcfb"/><stop offset="0.28" stop-color="#fff"/><stop offset="0.67" stop-color="#a97c50"/><stop offset="0.89" stop-color="#a97c50"/><stop offset="1" stop-color="#8b5e3c"/></linearGradient><linearGradient id="linear-gradient-2" x1="19.42" y1="64.49" x2="36.01" y2="64.49" xlink:href="#linear-gradient"/><linearGradient id="linear-gradient-3" x1="37.67" y1="69.15" x2="54.26" y2="69.15" xlink:href="#linear-gradient"/><linearGradient id="linear-gradient-4" x1="55.92" y1="72.42" x2="72.51" y2="72.42" xlink:href="#linear-gradient"/><linearGradient id="linear-gradient-5" x1="74.16" y1="75.69" x2="90.75" y2="75.69" xlink:href="#linear-gradient"/><linearGradient id="linear-gradient-6" x1="92.41" y1="79.11" x2="109" y2="79.11" xlink:href="#linear-gradient"/></defs><rect class="cls-1" x="1.17" y="1.45" width="16.59" height="118.66"/><ellipse class="cls-2" cx="9.46" cy="1.36" rx="8.3" ry="1.36"/><ellipse class="cls-2" cx="9.46" cy="120.29" rx="8.3" ry="1.36"/><rect class="cls-3" x="19.42" y="1.54" width="16.59" height="125.9"/><ellipse class="cls-2" cx="27.71" cy="1.44" rx="8.3" ry="1.44"/><ellipse class="cls-2" cx="27.71" cy="127.63" rx="8.3" ry="1.44"/><rect class="cls-4" x="37.67" y="1.65" width="16.59" height="135.01"/><ellipse class="cls-2" cx="45.96" cy="1.54" rx="8.3" ry="1.54"/><ellipse class="cls-2" cx="45.96" cy="136.87" rx="8.3" ry="1.54"/><rect class="cls-5" x="55.92" y="1.73" width="16.59" height="141.39"/><ellipse class="cls-2" cx="64.21" cy="1.62" rx="8.3" ry="1.62"/><ellipse class="cls-2" cx="64.21" cy="143.33" rx="8.3" ry="1.62"/><rect class="cls-6" x="74.16" y="1.81" width="16.59" height="147.77"/><ellipse class="cls-2" cx="82.46" cy="1.69" rx="8.3" ry="1.69"/><ellipse class="cls-2" cx="82.46" cy="149.8" rx="8.3" ry="1.69"/><rect class="cls-7" x="92.41" y="1.89" width="16.59" height="154.45"/><ellipse class="cls-2" cx="100.71" cy="1.77" rx="8.3" ry="1.77"/><ellipse class="cls-2" cx="100.71" cy="156.58" rx="8.3" ry="1.77"/><g id="string"><path class="cls-8" d="M120.27,269.69l2.59,2.1a13.53,13.53,0,0,0,1.8,1.23l3.18,1.87,2.69,1.63a22.25,22.25,0,0,0,4.08,1.93l1.81.66,1.77.32" transform="translate(-119.77 -238.34)"/><path class="cls-8" d="M138.19,269.69l-2.59,2.1a14.21,14.21,0,0,1-1.8,1.23l-3.18,1.87-2.69,1.63a22.25,22.25,0,0,1-4.08,1.93l-1.81.66-1.77.32" transform="translate(-119.77 -238.34)"/></g><g id="string-2" data-name="string"><path class="cls-8" d="M138.52,269.69l2.59,2.1A14.09,14.09,0,0,0,142.9,273l3.19,1.87,2.69,1.63a22.25,22.25,0,0,0,4.08,1.93l1.81.66,1.77.32" transform="translate(-119.77 -238.34)"/><path class="cls-8" d="M156.44,269.69l-2.59,2.1a14.21,14.21,0,0,1-1.8,1.23l-3.18,1.87-2.69,1.63a22.25,22.25,0,0,1-4.08,1.93l-1.81.66-1.77.32" transform="translate(-119.77 -238.34)"/></g><g id="string-3" data-name="string"><path class="cls-8" d="M156.77,269.69l2.58,2.1a15,15,0,0,0,1.8,1.23l3.19,1.87,2.69,1.63a22.25,22.25,0,0,0,4.08,1.93l1.81.66,1.77.32" transform="translate(-119.77 -238.34)"/><path class="cls-8" d="M174.69,269.69l-2.59,2.1a15,15,0,0,1-1.8,1.23l-3.18,1.87-2.69,1.63a22.25,22.25,0,0,1-4.08,1.93l-1.81.66-1.77.32" transform="translate(-119.77 -238.34)"/></g><g id="string-4" data-name="string"><path class="cls-8" d="M175,269.69l2.59,2.1a15,15,0,0,0,1.8,1.23l3.19,1.87,2.69,1.63a22.25,22.25,0,0,0,4.08,1.93l1.81.66,1.77.32" transform="translate(-119.77 -238.34)"/><path class="cls-8" d="M192.94,269.69l-2.59,2.1a15,15,0,0,1-1.8,1.23l-3.18,1.87-2.69,1.63a22.25,22.25,0,0,1-4.08,1.93l-1.81.66-1.78.32" transform="translate(-119.77 -238.34)"/></g><g id="string-5" data-name="string"><path class="cls-8" d="M193.26,269.69l2.59,2.1a15,15,0,0,0,1.8,1.23l3.19,1.87,2.68,1.63a22.67,22.67,0,0,0,4.09,1.93l1.81.66,1.77.32" transform="translate(-119.77 -238.34)"/><path class="cls-8" d="M211.19,269.69l-2.59,2.1a15,15,0,0,1-1.8,1.23l-3.19,1.87-2.68,1.63a22.57,22.57,0,0,1-4.08,1.93l-1.82.66-1.77.32" transform="translate(-119.77 -238.34)"/></g><g id="string-6" data-name="string"><path class="cls-8" d="M211.51,269.69l2.59,2.1a15,15,0,0,0,1.8,1.23l3.19,1.87,2.68,1.63a22.67,22.67,0,0,0,4.09,1.93l1.81.66,1.77.32" transform="translate(-119.77 -238.34)"/><path class="cls-8" d="M229.44,269.69l-2.59,2.1a15,15,0,0,1-1.8,1.23l-3.19,1.87-2.68,1.63a22.89,22.89,0,0,1-4.08,1.93l-1.82.66-1.77.32" transform="translate(-119.77 -238.34)"/></g><g id="string-7" data-name="string"><path class="cls-8" d="M120.27,319.46l2.59,2.1a13.53,13.53,0,0,0,1.8,1.23l3.18,1.87,2.69,1.63a22.25,22.25,0,0,0,4.08,1.93l1.81.66,1.77.32" transform="translate(-119.77 -238.34)"/><path class="cls-8" d="M138.19,319.46l-2.59,2.1a14.21,14.21,0,0,1-1.8,1.23l-3.18,1.87-2.69,1.63a22.25,22.25,0,0,1-4.08,1.93l-1.81.66-1.77.32" transform="translate(-119.77 -238.34)"/></g><g id="string-8" data-name="string"><path class="cls-8" d="M138.52,321.12l2.59,2.1a14.09,14.09,0,0,0,1.79,1.23l3.19,1.87,2.69,1.63a22.25,22.25,0,0,0,4.08,1.93l1.81.66,1.77.32" transform="translate(-119.77 -238.34)"/><path class="cls-8" d="M156.44,321.12l-2.59,2.1a14.21,14.21,0,0,1-1.8,1.23l-3.18,1.87L146.18,328a22.25,22.25,0,0,1-4.08,1.93l-1.81.66-1.77.32" transform="translate(-119.77 -238.34)"/></g><g id="string-9" data-name="string"><path class="cls-8" d="M156.77,324.44l2.58,2.1a15,15,0,0,0,1.8,1.23l3.19,1.86,2.69,1.64a23.64,23.64,0,0,0,4.08,1.93l1.81.65,1.77.33" transform="translate(-119.77 -238.34)"/><path class="cls-8" d="M174.69,324.44l-2.59,2.1a15,15,0,0,1-1.8,1.23l-3.18,1.86-2.69,1.64a23.64,23.64,0,0,1-4.08,1.93l-1.81.65-1.77.33" transform="translate(-119.77 -238.34)"/></g><g id="string-10" data-name="string"><path class="cls-8" d="M175,327.76l2.59,2.09a13.94,13.94,0,0,0,1.8,1.24l3.19,1.86,2.69,1.63a23,23,0,0,0,4.08,1.94l1.81.65,1.77.33" transform="translate(-119.77 -238.34)"/><path class="cls-8" d="M192.94,327.76l-2.59,2.09a13.94,13.94,0,0,1-1.8,1.24L185.37,333l-2.69,1.63a23,23,0,0,1-4.08,1.94l-1.81.65-1.78.33" transform="translate(-119.77 -238.34)"/></g><g id="string-11" data-name="string"><path class="cls-8" d="M193.26,331.08l2.59,2.09a15,15,0,0,0,1.8,1.24l3.19,1.86,2.68,1.63a22.67,22.67,0,0,0,4.09,1.93l1.81.66,1.77.32" transform="translate(-119.77 -238.34)"/><path class="cls-8" d="M211.19,331.08l-2.59,2.09a15,15,0,0,1-1.8,1.24l-3.19,1.86-2.68,1.63a22.57,22.57,0,0,1-4.08,1.93l-1.82.66-1.77.32" transform="translate(-119.77 -238.34)"/></g><g id="string-12" data-name="string"><path class="cls-8" d="M211.51,334.4l2.59,2.09a15,15,0,0,0,1.8,1.24l3.19,1.86,2.68,1.63a22.67,22.67,0,0,0,4.09,1.93l1.81.66,1.77.32" transform="translate(-119.77 -238.34)"/><path class="cls-8" d="M229.44,334.4l-2.59,2.09a15,15,0,0,1-1.8,1.24l-3.19,1.86-2.68,1.63a22.89,22.89,0,0,1-4.08,1.93l-1.82.66-1.77.32" transform="translate(-119.77 -238.34)"/></g></svg>