<svg id="Layer_2" data-name="Layer 2" xmlns="http://www.w3.org/2000/svg" viewBox="0 0 19.34 397.35"><defs><style>.cls-1{fill:#944922;stroke:#4b2b37;}.cls-1,.cls-2{stroke-miterlimit:10;stroke-width:3px;}.cls-2,.cls-3{fill:#4b2b37;}.cls-2{stroke:#944922;}</style></defs><title>dizi</title><rect class="cls-1" x="1.5" y="1.5" width="16.34" height="394.35"/><circle class="cls-2" cx="9.46" cy="57.81" r="4.34"/><circle class="cls-2" cx="9.67" cy="71.09" r="4.34"/><circle class="cls-2" cx="9.88" cy="84.36" r="4.34"/><circle class="cls-2" cx="10.1" cy="97.64" r="4.34"/><circle class="cls-2" cx="10.31" cy="110.91" r="4.34"/><circle class="cls-2" cx="10.52" cy="124.19" r="4.34"/><circle class="cls-2" cx="10.73" cy="137.47" r="4.34"/><circle class="cls-2" cx="9.46" cy="198.68" r="4.34"/><circle class="cls-2" cx="9.88" cy="212.46" r="4.34"/><circle class="cls-2" cx="10.1" cy="238.54" r="4.34"/><circle class="cls-2" cx="10.31" cy="226.25" r="4.34"/><rect class="cls-3" x="1.5" y="298.32" width="16.34" height="5.11"/><rect class="cls-3" x="1.29" y="17.21" width="16.34" height="5.11"/><rect class="cls-3" x="1.29" y="8.79" width="16.34" height="5.11"/><rect class="cls-3" x="1.93" y="307" width="16.34" height="5.11"/><rect class="cls-3" x="1.93" y="315.68" width="16.34" height="5.11"/><rect class="cls-3" x="1.93" y="324.36" width="16.34" height="5.11"/><rect class="cls-3" x="1.93" y="333.04" width="16.34" height="5.11"/><rect class="cls-3" x="1.93" y="341.72" width="16.34" height="5.11"/><rect class="cls-3" x="1.93" y="350.4" width="16.34" height="5.11"/><rect class="cls-3" x="1.93" y="362.66" width="16.34" height="33.19"/></svg>