<svg id="Layer_1" data-name="Layer 1" xmlns="http://www.w3.org/2000/svg" xmlns:xlink="http://www.w3.org/1999/xlink" viewBox="0 0 320.44 620.25"><defs><style>.cls-1,.cls-41{fill:none;}.cls-1,.cls-31,.cls-32{stroke:#331330;}.cls-1,.cls-32,.cls-41{stroke-linecap:round;}.cls-1,.cls-32{stroke-linejoin:round;}.cls-1{stroke-width:14px;}.cls-2{fill:#93becc;}.cls-3{fill:#1c75bc;}.cls-4{fill:#2e3192;}.cls-5{fill:url(#linear-gradient);}.cls-6{fill:url(#linear-gradient-2);}.cls-7{fill:url(#linear-gradient-3);}.cls-8{fill:url(#linear-gradient-4);}.cls-9{fill:url(#linear-gradient-5);}.cls-10,.cls-32{fill:#b2e2f6;}.cls-11{fill:url(#linear-gradient-6);}.cls-12{fill:#fac951;}.cls-13,.cls-31{fill:#fdeff5;}.cls-14{fill:#331330;}.cls-15{fill:#fbd2db;}.cls-16{fill:#2d1230;}.cls-17{fill:#ef524a;}.cls-18{fill:url(#linear-gradient-7);}.cls-19{fill:url(#linear-gradient-8);}.cls-20{fill:url(#linear-gradient-9);}.cls-21{fill:url(#linear-gradient-10);}.cls-22{fill:url(#linear-gradient-11);}.cls-23{fill:url(#linear-gradient-12);}.cls-24{fill:url(#linear-gradient-13);}.cls-25{fill:url(#linear-gradient-14);}.cls-26{fill:url(#linear-gradient-15);}.cls-27{fill:url(#linear-gradient-16);}.cls-28{fill:url(#linear-gradient-17);}.cls-29{fill:url(#linear-gradient-18);}.cls-30{fill:url(#linear-gradient-19);}.cls-31,.cls-41{stroke-miterlimit:10;}.cls-31{stroke-width:3px;}.cls-32{stroke-width:6px;}.cls-33{fill:url(#linear-gradient-20);}.cls-34{fill:url(#linear-gradient-21);}.cls-35{fill:#8b5e3c;}.cls-36{fill:url(#linear-gradient-22);}.cls-37{fill:url(#linear-gradient-23);}.cls-38{fill:url(#linear-gradient-24);}.cls-39{fill:url(#linear-gradient-25);}.cls-40{fill:url(#linear-gradient-26);}.cls-41{stroke:#8b5e3c;}</style><linearGradient id="linear-gradient" x1="33.44" y1="495.38" x2="121.19" y2="495.38" gradientUnits="userSpaceOnUse"><stop offset="0" stop-color="#2484c6" stop-opacity="0"/><stop offset="1" stop-color="#2484c6"/></linearGradient><linearGradient id="linear-gradient-2" x1="109.7" y1="508.89" x2="158.3" y2="508.89" xlink:href="#linear-gradient"/><linearGradient id="linear-gradient-3" x1="220.55" y1="494.7" x2="305.52" y2="494.7" xlink:href="#linear-gradient"/><linearGradient id="linear-gradient-4" x1="183.44" y1="508.89" x2="232.04" y2="508.89" xlink:href="#linear-gradient"/><linearGradient id="linear-gradient-5" x1="167.43" y1="496.18" x2="323.61" y2="496.18" gradientUnits="userSpaceOnUse"><stop offset="0" stop-color="#2484c6" stop-opacity="0"/><stop offset="1" stop-color="#2e3192"/></linearGradient><linearGradient id="linear-gradient-6" x1="138.65" y1="324.46" x2="290.41" y2="324.46" gradientUnits="userSpaceOnUse"><stop offset="0" stop-color="#b2e2f6" stop-opacity="0.5"/><stop offset="0.65" stop-color="#27aae1" stop-opacity="0.75"/><stop offset="1" stop-color="#1c75bc"/></linearGradient><linearGradient id="linear-gradient-7" x1="67.86" y1="50.73" x2="82.75" y2="50.73" gradientUnits="userSpaceOnUse"><stop offset="0" stop-color="#fff"/><stop offset="0.52" stop-color="#c02b31"/><stop offset="0.97" stop-color="#be1e2d"/></linearGradient><linearGradient id="linear-gradient-8" x1="79.87" y1="43.91" x2="94.76" y2="43.91" xlink:href="#linear-gradient-7"/><linearGradient id="linear-gradient-9" x1="93.24" y1="40.28" x2="108.13" y2="40.28" xlink:href="#linear-gradient-7"/><linearGradient id="linear-gradient-10" x1="106.7" y1="37.46" x2="121.59" y2="37.46" xlink:href="#linear-gradient-7"/><linearGradient id="linear-gradient-11" x1="118.65" y1="33.87" x2="133.54" y2="33.87" xlink:href="#linear-gradient-7"/><linearGradient id="linear-gradient-12" x1="187.25" y1="33.87" x2="202.14" y2="33.87" xlink:href="#linear-gradient-7"/><linearGradient id="linear-gradient-13" x1="199.9" y1="37.46" x2="214.79" y2="37.46" xlink:href="#linear-gradient-7"/><linearGradient id="linear-gradient-14" x1="211.43" y1="42.06" x2="226.31" y2="42.06" xlink:href="#linear-gradient-7"/><linearGradient id="linear-gradient-15" x1="223.85" y1="47.72" x2="238.74" y2="47.72" xlink:href="#linear-gradient-7"/><linearGradient id="linear-gradient-16" x1="234.3" y1="55.16" x2="249.19" y2="55.16" xlink:href="#linear-gradient-7"/><linearGradient id="linear-gradient-17" x1="169.18" y1="31.04" x2="191.23" y2="31.04" xlink:href="#linear-gradient-7"/><linearGradient id="linear-gradient-18" x1="129.05" y1="30.19" x2="151.1" y2="30.19" xlink:href="#linear-gradient-7"/><linearGradient id="linear-gradient-19" x1="146.88" y1="30.02" x2="172.36" y2="30.02" xlink:href="#linear-gradient-7"/><linearGradient id="linear-gradient-20" x1="141.05" y1="329.71" x2="166.53" y2="329.71" xlink:href="#linear-gradient-7"/><linearGradient id="linear-gradient-21" x1="128.17" y1="280.06" x2="138.09" y2="280.06" gradientUnits="userSpaceOnUse"><stop offset="0" stop-color="#c49a6c"/><stop offset="0.01" stop-color="#c8a176"/><stop offset="0.05" stop-color="#d9bea0"/><stop offset="0.1" stop-color="#e7d5c2"/><stop offset="0.14" stop-color="#f1e8dd"/><stop offset="0.19" stop-color="#f9f5f0"/><stop offset="0.23" stop-color="#fefcfb"/><stop offset="0.28" stop-color="#fff"/><stop offset="0.67" stop-color="#a97c50"/><stop offset="0.89" stop-color="#a97c50"/><stop offset="1" stop-color="#8b5e3c"/></linearGradient><linearGradient id="linear-gradient-22" x1="139.08" y1="282.27" x2="149" y2="282.27" xlink:href="#linear-gradient-21"/><linearGradient id="linear-gradient-23" x1="149.99" y1="285.06" x2="159.91" y2="285.06" xlink:href="#linear-gradient-21"/><linearGradient id="linear-gradient-24" x1="160.9" y1="287.02" x2="170.82" y2="287.02" xlink:href="#linear-gradient-21"/><linearGradient id="linear-gradient-25" x1="171.81" y1="288.97" x2="181.73" y2="288.97" xlink:href="#linear-gradient-21"/><linearGradient id="linear-gradient-26" x1="182.72" y1="291.02" x2="192.64" y2="291.02" xlink:href="#linear-gradient-21"/></defs><path class="cls-1" d="M317.91,543.36l0-.16h0c3.57-2.12,5.7-3.56,5.7-3.56l-22.68-61.44h0l-4.35-11.81-4.24-8.26h0l-30-58.52-22-20a4.14,4.14,0,0,0-1.66-2.91l7.49-22.14,9.1-25.24,8.14-45.91c1-.76,45.51-4.47,45.41-4.46a7.9,7.9,0,0,0-.8-3.32L295.1,248.88c-5.41-10.67-17.47-18.12-31.53-19.48l-5.12-.5c-7.27,0-16.78.59-25.33,5.09l-21.28,4-4.5,0,7.48-5s-26-1.89-85.93,0l8.07,5.41-5.67,0-22.61-4.72c-8.44-4.28-17.75-4.85-24.9-4.84l-5.12.5c-14,1.36-26.11,8.81-31.52,19.48L34.26,275.65a8.07,8.07,0,0,0-.81,3.32l-.27,0a4.13,4.13,0,1,0,3.18,6.73,4.53,4.53,0,0,0,0,.53,4.11,4.11,0,0,0,7.23,2.69h0l0,.09c0,.11,0,.22,0,.34a4.09,4.09,0,0,0,2,3.54A88.12,88.12,0,0,0,87.1,329.34L104.51,376a4.12,4.12,0,0,0-3.14,3.51l-6.07,5.39L73.6,408.47,52.34,443.85a45.56,45.56,0,0,0,1.91,5.63c-10.35,23.32-15.71,42.3-16.56,46.31-1.15,5.47-10.31,38.6-10.31,38.6s-3.81,22.24-3.16,29.47A48,48,0,0,0,27,576.52a41.26,41.26,0,0,0,6.61,12.11,8.29,8.29,0,0,0,4,5.43c7.9,4.47,22.6,10.93,28.74,12.32q2.28.79,4.62,1.53a244.65,244.65,0,0,0,29.84,7L143,620.18l25.69.6v0l.47,0h.45v0l26.91-1.11,7.15-1c6.17-.71,12.16-1.52,17-2.23h0c1-.14,1.91-.27,2.79-.41l17-2.48s6.63-1.14,15.44-3.26h0c4.8-1.15,10.24-2.59,15.61-4.3.87-.27,1.73-.56,2.59-.85h0c2.71-.49,7.78-2.58,13.23-5.13,6.31-2.73,11.45-5.31,14.16-6.71a29.65,29.65,0,0,0,10.81-10.17l0,0,0-.05a40.9,40.9,0,0,0,4.51-9.28A45.69,45.69,0,0,0,319.72,561a33.53,33.53,0,0,0-.11-4.77l.16-1.69Z" transform="translate(-17.15 -7.56)"/><polygon id="shawlBack" class="cls-2" points="77.08 223.17 114.14 230.89 194.7 230.4 236.57 222.58 154.04 327.03 77.08 223.17"/><g id="skirt"><path class="cls-3" d="M67.5,422.91c-19.13,34.16-28.65,67.41-29.81,72.88s-10.31,38.6-10.31,38.6-3.81,22.24-3.16,29.47A48,48,0,0,0,27,576.52c.73,2.24,5.06,14.07,15.07,19.24A191.42,191.42,0,0,0,71,607.91a244.65,244.65,0,0,0,29.84,7L143,620.18l26.62.63L167.35,378l-62.31.6S86.63,388.76,67.5,422.91Z" transform="translate(-17.15 -7.56)"/><path class="cls-3" d="M315.68,531.09s-10.06-32.4-11.37-37.84-11.92-38.51-32.6-72.28-40.12-43.6-40.12-43.6l-65.17.62,2.32,242.83,27.83-1.15,44-6.11A265.58,265.58,0,0,0,271.65,606a204.87,204.87,0,0,0,30-12.7C312,587.92,316.32,576,317,573.75A45.69,45.69,0,0,0,319.72,561C320.27,553.8,315.68,531.09,315.68,531.09Z" transform="translate(-17.15 -7.56)"/></g><path id="overlap" class="cls-4" d="M105.45,375.91l-10.15,9L73.6,408.47,52.34,443.85S59,471.09,87.12,487.76s41.75,24.4,64.69,27.22,40.21,12.38,57.33,22,37.69,24.21,61.91,23.09,52.56-20.4,52.56-20.4l-27-73.25L262.3,399.6l-26.09-23.69Z" transform="translate(-17.15 -7.56)"/><path id="pattern" class="cls-5" d="M107.32,384.21S73.2,429.2,67,446.83s-13,33.4-16.65,57.61S39.65,561.32,39,566.38c-.44,3.13-3.52,12.4-5.18,18.14a8.3,8.3,0,0,0,3.89,9.54c8.19,4.64,23.7,11.41,29.39,12.45,8.08,1.47,11.32-28.86,11.32-28.86l6.21-72.08,6.19-43.37a88.91,88.91,0,0,1,8.63-27.45l21.79-43.22Z" transform="translate(-17.15 -7.56)"/><path id="pattern1" class="cls-6" d="M144.08,398,132,428.81a114,114,0,0,0-12.67,40.5l-4.08,35.12.31,64.12a31,31,0,0,1-.27,4.08l-5.61,41a1.31,1.31,0,0,0,1.1,1.26c4.49.72,22.39,3.52,37.93,4.86,1,.09-1.73-12.43-4.83-25.34a143.81,143.81,0,0,1-2-57.33l4.91-29.16a18.85,18.85,0,0,0,.25-3.09V458.16a44.41,44.41,0,0,1,1.22-10.33l10-45.41Z" transform="translate(-17.15 -7.56)"/><path id="pattern2" class="cls-7" d="M234.42,384.21s34.12,45,40.34,62.62,13,33.4,16.65,57.61,10.68,56.88,11.38,61.94c.44,3.13,4.84,23.1,1.48,25-8.19,4.64-24.32,12.73-30,13.76-8.09,1.48-10.89-27.48-10.89-27.48l-6.21-72.08L251,462.2a88.91,88.91,0,0,0-8.63-27.45l-21.79-43.22Z" transform="translate(-17.15 -7.56)"/><path id="pattern3" class="cls-8" d="M197.66,398l12.06,30.81a114,114,0,0,1,12.67,40.5l4.08,35.12-.31,64.12a31,31,0,0,0,.27,4.08l5.61,41a1.31,1.31,0,0,1-1.1,1.26c-4.49.72-22.39,3.52-37.93,4.86-1,.09,1.73-12.43,4.83-25.34a143.81,143.81,0,0,0,2-57.33l-4.9-29.16a17.82,17.82,0,0,1-.26-3.09V458.16a44.41,44.41,0,0,0-1.22-10.33l-10-45.41Z" transform="translate(-17.15 -7.56)"/><path class="cls-9" d="M236.21,375.91l-68.78,12.74,10.2,18.41a109.36,109.36,0,0,1,13.3,43.77l5.18,61.52a95.28,95.28,0,0,1,.3,10.95l-1,32.19A74.14,74.14,0,0,0,210,601.93l10.77,14.52,19.82-2.89L256,610.3l18.23-5.17,17.82-7.35,12.19-6.41,8.23-8.29,5.85-13.57,1.42-14.93-1.89-11.38,5.73-3.57-22.68-61.44-8.59-20.07L271.71,421Z" transform="translate(-17.15 -7.56)"/><g id="body"><path id="Body-2" data-name="Body" class="cls-10" d="M297.67,271c20-19.2-52.39-19.17-77.77-20a1.22,1.22,0,0,0-1.14,1.69v0c1.17,3.47-7.23,12.86-8,13.66l-.09.12-7,10.27a.43.43,0,0,0,0,.07,158.81,158.81,0,0,1-14.72,20.05c-10,11.83-17.74,11.08-17.74,11.08s-7.82.75-17.8-11.08a160,160,0,0,1-14.72-20.05.16.16,0,0,0,0-.07l-7-10.27-.1-.12c-.72-.8-9.12-10.19-8-13.66a3.29,3.29,0,0,1,2.49-1.88c-21,1.1-72.79,10.21-82.36,37.55a1.25,1.25,0,0,0,0,.91c1.64,3.52,13.42,27,42.9,39.86a1.22,1.22,0,0,1,.64.68L105,377.38a1.2,1.2,0,0,0,.74.72l45,15.21a68.08,68.08,0,0,0,40.82,0l45.56-15.22a1.24,1.24,0,0,0,.76-.74l16.48-45.73C254.74,330.69,272.11,295.59,297.67,271Z" transform="translate(-17.15 -7.56)"/><path class="cls-11" d="M171,395l8.83,2.08,32.64-10,25-7s20.75-60.56,29-64.68l6.26-20.77L290.41,271l-63.13-19.15-45.86,52.87-4.23,2.92a12.73,12.73,0,0,1-15.93-1.19l-6-5.61-16.63-24.06L167.35,378Z" transform="translate(-17.15 -7.56)"/><g id="hips"><circle class="cls-12" cx="88.3" cy="372.48" r="4.13"/><circle class="cls-12" cx="94.83" cy="375.49" r="4.13"/><circle class="cls-12" cx="101.36" cy="377.49" r="4.13"/><circle class="cls-12" cx="107.89" cy="379.49" r="4.13"/><circle class="cls-12" cx="114.42" cy="381.5" r="4.13"/><circle class="cls-12" cx="120.94" cy="383.5" r="4.13"/><circle class="cls-12" cx="127.47" cy="385.5" r="4.13"/><circle class="cls-12" cx="134" cy="387.51" r="4.13"/><circle class="cls-12" cx="140.53" cy="389.51" r="4.13"/><circle class="cls-12" cx="147.06" cy="391.51" r="4.13"/><circle class="cls-12" cx="219.06" cy="372.48" r="4.13"/><circle class="cls-12" cx="212.53" cy="375.49" r="4.13"/><circle class="cls-12" cx="206" cy="377.49" r="4.13"/><circle class="cls-12" cx="199.47" cy="379.49" r="4.13"/><circle class="cls-12" cx="192.94" cy="381.5" r="4.13"/><circle class="cls-12" cx="186.42" cy="383.5" r="4.13"/><circle class="cls-12" cx="179.89" cy="385.5" r="4.13"/><circle class="cls-12" cx="173.36" cy="387.51" r="4.13"/><circle class="cls-12" cx="166.83" cy="389.51" r="4.13"/><circle class="cls-12" cx="160.3" cy="391.51" r="4.13"/><circle class="cls-12" cx="153.87" cy="392.04" r="4.61"/></g><path id="neck" class="cls-13" d="M128.89,233l26.53,17.8-28.06-.11a4.47,4.47,0,0,0-3,7.73L146,287.5c10.06,17.18,18,22.61,24.61,22.33,8.78-.38,19.52-12.83,26.28-23.45l20.75-26.77a5,5,0,0,0-3.08-8.91l-26.5.11L214.82,233S188.81,231.12,128.89,233Z" transform="translate(-17.15 -7.56)"/></g><g id="head"><path class="cls-14" d="M104.15,229.35a84.58,84.58,0,0,1-43.23-24.77c-6-6.48-11.78-14.18-15.4-22.62-11.47-26.69-2-65.27,2.61-75.76C58.31,83.12,64.41,76,80.55,61.13,88.47,53.84,106,49,107.63,43.56c4.28-14,14-26.16,28.17-30.76,7.45-2.42,24.19-4.89,35.79-5.2,14.6-.39,45.46,2.23,59.64,16.41,15.4,15.39,5.21,20.43,17.79,27.83C266.33,62,290.33,81.31,298.9,104.35c8.07,21.68,8.26,44.84-6,77.33-6.6,15-17.27,31.64-38.67,39.42-9.41,3.42-27,9.84-42.39,13.93-10.14,2.7-43.86,5.64-59.63,3.54-1.23-.16-19.74-2.67-20.92-3Z" transform="translate(-17.15 -7.56)"/><path id="face" class="cls-13" d="M84.17,107.47l9.64,7.28a62.56,62.56,0,0,0,27.38,11.74l82.49,13.62-33.6-18.75,69.26,19.14s36.13,9.16,32,20.91c0,0-4.09,32.76-14.69,55.66-17.36,10.53-85.28,41.87-167.49,4.08,0,0-10.73-2.55-14.81-17.87a134.91,134.91,0,0,1-2.87-15.07,140,140,0,0,1,10.36-75.52Z" transform="translate(-17.15 -7.56)"/><g id="cheek"><path class="cls-15" d="M234.61,147.82s27,7.14,27,16.33-4.94,21.77-6.48,24.32c0,0-13.78-14.81-26,0s5.62,31.15,17.87,24c0,0-4.11,11.8-6.94,12.89s16.52-5.19,19.53-11,11.34-16.87,12.14-56.63c-1.37-3-2.48-8-22.13-14.08-10.45-3.26-33.18-10-45.49-12.92l-34-9.4,33.6,18.75-70.39-11.63-12.09-2.2a53.45,53.45,0,0,1-10.5-3l-6-2.4a39.8,39.8,0,0,1-8.21-4.52l-12.36-8.85-1.31,3L88.47,117A52.34,52.34,0,0,0,110,132a62.31,62.31,0,0,0,7.08,2.23l19.66,3.55A77.6,77.6,0,0,0,148,139.55l57.38,4.61Z" transform="translate(-17.15 -7.56)"/><circle class="cls-15" cx="79.76" cy="191.17" r="14.81"/></g><path id="eyes" class="cls-16" d="M242.7,167s4.08,2.94,1.53,6.26-6.64,0-6.64,0-7.66-8.44-22.21-6.28c0,0-11.75,4.61-11.75,7.73,0,0-7.91.57-5.87-6.33,0,0,10.47-10.7,23.49-9.93A37.23,37.23,0,0,1,242.7,167ZM117,158.8c-13-.76-23.49,9.94-23.49,9.94-2,6.89,5.87,6.33,5.87,6.33,0-3.12,11.75-7.73,11.75-7.73,14.56-2.16,22.21,6.27,22.21,6.27s4.08,3.33,6.64,0-1.53-6.26-1.53-6.26A37.28,37.28,0,0,0,117,158.8Z" transform="translate(-17.15 -7.56)"/><path id="lips" class="cls-17" d="M190.38,208.22s3.87-3,1.45-6.45-6.28,0-6.28,0-7.25,8.68-21,6.45c0,0-11.12-4.75-11.12-8,0,0-7.49-.59-5.56,6.51,0,0,9.9,11,22.23,10.24A34,34,0,0,0,190.38,208.22Z" transform="translate(-17.15 -7.56)"/><g id="hairdress"><circle class="cls-18" cx="75.3" cy="50.73" r="7.44"/><circle class="cls-19" cx="87.31" cy="43.91" r="7.44"/><circle class="cls-20" cx="100.68" cy="40.28" r="7.44"/><circle class="cls-21" cx="114.14" cy="37.46" r="7.44"/><circle class="cls-22" cx="126.1" cy="33.87" r="7.44"/><circle class="cls-23" cx="194.7" cy="33.87" r="7.44"/><circle class="cls-24" cx="207.35" cy="37.46" r="7.44"/><circle class="cls-25" cx="218.87" cy="42.06" r="7.44"/><circle class="cls-26" cx="231.3" cy="47.72" r="7.44"/><circle class="cls-27" cx="241.74" cy="55.16" r="7.44"/><ellipse class="cls-28" cx="180.21" cy="31.04" rx="11.03" ry="10.85"/><ellipse class="cls-29" cx="140.08" cy="30.19" rx="11.03" ry="10.85"/><ellipse class="cls-30" cx="159.62" cy="30.02" rx="12.74" ry="12.54"/></g></g><ellipse id="hand" class="cls-31" cx="176.55" cy="364.96" rx="12.83" ry="14.58"/><path id="Body-3" data-name="Body" class="cls-32" d="M297.67,271c41.8,37.1,36.73,78.81,36.73,78.81s-4.6,18.11-36.73,25.48c-23.65,5.41-69.89,15.38-69.89,15.38l-27.71,9.74,8.59-51.84,22.21,15.49s23.5-11.81,41.89-23.92-24.9-46.49-24.9-46.49,8.19-9.87,24.9-11.58S292.74,266.63,297.67,271Z" transform="translate(-17.15 -7.56)"/><path class="cls-12" d="M201.28,403.25a4.12,4.12,0,0,0-.88-5.51,3.91,3.91,0,0,0,1.66-1.42,4.1,4.1,0,0,0-.1-4.71,4.2,4.2,0,0,0,.84-.89,4.12,4.12,0,0,0,.15-4.3,4.05,4.05,0,0,0,1.73-1.46,4.11,4.11,0,0,0-.75-5.4,4.26,4.26,0,0,0,.95-1,4.1,4.1,0,0,0-.33-5,4.12,4.12,0,0,0,.86-7.3l-.3-.16a4.24,4.24,0,0,0,1.28-1.22,4.13,4.13,0,0,0-.17-4.79,4,4,0,0,0,1.12-1.12,4.11,4.11,0,0,0-.77-5.42,4.07,4.07,0,0,0,2.32-1.67,4.12,4.12,0,1,0-6.09.84,4.08,4.08,0,0,0-2.16,6.45,4.12,4.12,0,0,0,0,6.85,2.19,2.19,0,0,0,.3.16,4.21,4.21,0,0,0-1.27,1.22,4.1,4.1,0,0,0,.33,5,4.1,4.1,0,0,0-1.25,7,4,4,0,0,0-1.11,5.29,4,4,0,0,0-1.73,1.45,4.12,4.12,0,0,0,.1,4.72,3.92,3.92,0,0,0-.83.89,4.11,4.11,0,0,0,.87,5.51,4,4,0,0,0-1.66,1.42,4.13,4.13,0,0,0,6.87,4.58Z" transform="translate(-17.15 -7.56)"/><path id="Body-4" data-name="Body" class="cls-32" d="M35.94,293.13c-25.7,49.63-6,86.74-6,86.74s10.8,15.26,43.43,10.6c24-3.43,70.76-10.72,70.76-10.72l29.36-.85-26.62-45.31L131.68,356s-26.17-2.59-47.68-7.29,6.56-52.34,6.56-52.34-11.19-6.27-27.4-1.87S39,287.28,35.94,293.13Z" transform="translate(-17.15 -7.56)"/><g id="Shawl"><g id="ShawlR"><path class="cls-10" d="M171.05,345.93l45.14-96.35,9.42-10.27c10-9.42,23.34-10.42,32.84-10.41l5.12.5c14.06,1.36,26.12,8.81,31.53,19.48L308,275.65a8,8,0,0,1-4.19,11Z" transform="translate(-17.15 -7.56)"/><g id="beads"><circle class="cls-12" cx="291.91" cy="275.51" r="4.13"/><circle class="cls-12" cx="284.65" cy="278.64" r="4.13"/><circle class="cls-12" cx="277.39" cy="281.76" r="4.13"/><circle class="cls-12" cx="270.13" cy="284.89" r="4.13"/><circle class="cls-12" cx="262.87" cy="288.02" r="4.13"/><circle class="cls-12" cx="255.61" cy="291.15" r="4.13"/><circle class="cls-12" cx="249.36" cy="295.28" r="4.13"/><circle class="cls-12" cx="242.1" cy="298.41" r="4.13"/><circle class="cls-12" cx="234.84" cy="301.54" r="4.13"/><circle class="cls-12" cx="227.63" cy="304.67" r="4.13"/><circle class="cls-12" cx="220.37" cy="307.8" r="4.13"/><circle class="cls-12" cx="213.11" cy="310.93" r="4.13"/><circle class="cls-12" cx="206.51" cy="314.06" r="4.13"/><circle class="cls-12" cx="199.26" cy="317.19" r="4.13"/><circle class="cls-12" cx="192" cy="320.32" r="4.13"/><circle class="cls-12" cx="185.44" cy="323.45" r="4.13"/><circle class="cls-12" cx="178.18" cy="326.58" r="4.13"/><circle class="cls-12" cx="170.92" cy="329.71" r="4.13"/><circle class="cls-12" cx="164.27" cy="332.58" r="4.13"/></g></g><g id="ShawlR-2" data-name="ShawlR"><path class="cls-10" d="M171.19,345.93,126,249.58l-9.41-10.27c-10-9.42-23.34-10.42-32.85-10.41l-5.12.5c-14,1.36-26.11,8.81-31.52,19.48L34.26,275.65a8,8,0,0,0,4.18,11Z" transform="translate(-17.15 -7.56)"/><g id="beads-2" data-name="beads"><circle class="cls-12" cx="16.03" cy="275.51" r="4.13"/><circle class="cls-12" cx="23.29" cy="278.64" r="4.13"/><circle class="cls-12" cx="30.55" cy="281.76" r="4.13"/><circle class="cls-12" cx="37.81" cy="284.89" r="4.13"/><circle class="cls-12" cx="45.07" cy="288.02" r="4.13"/><circle class="cls-12" cx="52.33" cy="291.15" r="4.13"/><circle class="cls-12" cx="58.59" cy="295.28" r="4.13"/><circle class="cls-12" cx="65.84" cy="298.41" r="4.13"/><circle class="cls-12" cx="73.1" cy="301.54" r="4.13"/><circle class="cls-12" cx="80.31" cy="304.67" r="4.13"/><circle class="cls-12" cx="87.57" cy="307.8" r="4.13"/><circle class="cls-12" cx="94.83" cy="310.93" r="4.13"/><circle class="cls-12" cx="101.43" cy="314.06" r="4.13"/><circle class="cls-12" cx="108.69" cy="317.19" r="4.13"/><circle class="cls-12" cx="115.94" cy="320.32" r="4.13"/><circle class="cls-12" cx="122.51" cy="323.45" r="4.13"/><circle class="cls-12" cx="129.76" cy="326.58" r="4.13"/><circle class="cls-12" cx="137.02" cy="329.71" r="4.13"/><circle class="cls-12" cx="143.67" cy="332.58" r="4.13"/></g></g><ellipse class="cls-33" cx="153.79" cy="329.71" rx="12.74" ry="12.54"/></g><path class="cls-32" d="M334.4,359.34" transform="translate(-17.15 -7.56)"/><rect class="cls-34" x="128.17" y="244.59" width="9.92" height="70.94"/><ellipse class="cls-35" cx="133.13" cy="244.53" rx="4.96" ry="0.81"/><ellipse class="cls-35" cx="133.13" cy="315.64" rx="4.96" ry="0.81"/><rect class="cls-36" x="139.08" y="244.64" width="9.92" height="75.26"/><ellipse class="cls-35" cx="144.04" cy="244.58" rx="4.96" ry="0.86"/><ellipse class="cls-35" cx="144.04" cy="320.02" rx="4.96" ry="0.86"/><rect class="cls-37" x="149.99" y="244.71" width="9.92" height="80.71"/><ellipse class="cls-35" cx="154.95" cy="244.65" rx="4.96" ry="0.92"/><ellipse class="cls-35" cx="154.95" cy="325.54" rx="4.96" ry="0.92"/><rect class="cls-38" x="160.9" y="244.75" width="9.92" height="84.52"/><ellipse class="cls-35" cx="165.86" cy="244.69" rx="4.96" ry="0.97"/><ellipse class="cls-35" cx="165.86" cy="329.41" rx="4.96" ry="0.97"/><rect class="cls-39" x="171.81" y="244.8" width="9.92" height="88.34"/><ellipse class="cls-35" cx="176.77" cy="244.73" rx="4.96" ry="1.01"/><ellipse class="cls-35" cx="176.77" cy="333.28" rx="4.96" ry="1.01"/><rect class="cls-40" x="182.72" y="244.85" width="9.92" height="92.33"/><ellipse class="cls-35" cx="187.68" cy="244.78" rx="4.96" ry="1.06"/><ellipse class="cls-35" cx="187.68" cy="337.33" rx="4.96" ry="1.06"/><g id="string"><path class="cls-41" d="M144.92,270l1.55,1.25a9.75,9.75,0,0,0,1.08.74l1.9,1.11,1.61,1a13.75,13.75,0,0,0,2.44,1.15l1.08.39,1.06.2" transform="translate(-17.15 -7.56)"/><path class="cls-41" d="M155.64,270l-1.55,1.25A10.63,10.63,0,0,1,153,272l-1.91,1.11-1.6,1a14.19,14.19,0,0,1-2.45,1.15l-1.08.39-1.06.2" transform="translate(-17.15 -7.56)"/></g><g id="string-2" data-name="string"><path class="cls-41" d="M155.83,270l1.55,1.25a9.75,9.75,0,0,0,1.08.74l1.9,1.11,1.61,1a13.75,13.75,0,0,0,2.44,1.15l1.08.39,1.06.2" transform="translate(-17.15 -7.56)"/><path class="cls-41" d="M166.55,270,165,271.28a10.63,10.63,0,0,1-1.07.74L162,273.13l-1.61,1a13.75,13.75,0,0,1-2.44,1.15l-1.08.39-1.06.2" transform="translate(-17.15 -7.56)"/></g><g id="string-3" data-name="string"><path class="cls-41" d="M166.74,270l1.55,1.25a9.75,9.75,0,0,0,1.08.74l1.9,1.11,1.61,1a13.75,13.75,0,0,0,2.44,1.15l1.08.39,1.06.2" transform="translate(-17.15 -7.56)"/><path class="cls-41" d="M177.46,270l-1.55,1.25a10.63,10.63,0,0,1-1.07.74l-1.91,1.11-1.61,1a13.75,13.75,0,0,1-2.44,1.15l-1.08.39-1.06.2" transform="translate(-17.15 -7.56)"/></g><g id="string-4" data-name="string"><path class="cls-41" d="M177.65,270l1.55,1.25a9.75,9.75,0,0,0,1.08.74l1.9,1.11,1.61,1a13.75,13.75,0,0,0,2.44,1.15l1.08.39,1.06.2" transform="translate(-17.15 -7.56)"/><path class="cls-41" d="M188.37,270l-1.55,1.25a10.63,10.63,0,0,1-1.07.74l-1.91,1.11-1.61,1a13.75,13.75,0,0,1-2.44,1.15l-1.08.39-1.06.2" transform="translate(-17.15 -7.56)"/></g><g id="string-5" data-name="string"><path class="cls-41" d="M188.56,270l1.55,1.25a9.75,9.75,0,0,0,1.08.74l1.9,1.11,1.61,1a13.75,13.75,0,0,0,2.44,1.15l1.08.39,1.06.2" transform="translate(-17.15 -7.56)"/><path class="cls-41" d="M199.28,270l-1.55,1.25a9.75,9.75,0,0,1-1.08.74l-1.9,1.11-1.61,1a13.75,13.75,0,0,1-2.44,1.15l-1.08.39-1.06.2" transform="translate(-17.15 -7.56)"/></g><g id="string-6" data-name="string"><path class="cls-41" d="M199.47,270l1.55,1.25a9.75,9.75,0,0,0,1.08.74l1.9,1.11,1.61,1a13.75,13.75,0,0,0,2.44,1.15l1.08.39,1.06.2" transform="translate(-17.15 -7.56)"/><path class="cls-41" d="M210.19,270l-1.55,1.25a9.75,9.75,0,0,1-1.08.74l-1.9,1.11-1.61,1a13.75,13.75,0,0,1-2.44,1.15l-1.08.39-1.06.2" transform="translate(-17.15 -7.56)"/></g><g id="string-7" data-name="string"><path class="cls-41" d="M144.92,299.78l1.55,1.25a8.55,8.55,0,0,0,1.08.74l1.9,1.12,1.61,1A13.1,13.1,0,0,0,153.5,305l1.08.39,1.06.19" transform="translate(-17.15 -7.56)"/><path class="cls-41" d="M155.64,299.78,154.09,301a9.21,9.21,0,0,1-1.07.74l-1.91,1.12-1.6,1a13.51,13.51,0,0,1-2.45,1.16l-1.08.39-1.06.19" transform="translate(-17.15 -7.56)"/></g><g id="string-8" data-name="string"><path class="cls-41" d="M155.83,300.77l1.55,1.25a7.61,7.61,0,0,0,1.08.74l1.9,1.12,1.61,1a13.1,13.1,0,0,0,2.44,1.16l1.08.39,1.06.19" transform="translate(-17.15 -7.56)"/><path class="cls-41" d="M166.55,300.77,165,302a8.12,8.12,0,0,1-1.07.74L162,303.88l-1.61,1A13.1,13.1,0,0,1,158,306l-1.08.39-1.06.19" transform="translate(-17.15 -7.56)"/></g><g id="string-9" data-name="string"><path class="cls-41" d="M166.74,302.76l1.55,1.25a9.75,9.75,0,0,0,1.08.74l1.9,1.11,1.61,1a13.75,13.75,0,0,0,2.44,1.15l1.08.39,1.06.2" transform="translate(-17.15 -7.56)"/><path class="cls-41" d="M177.46,302.76,175.91,304a10.63,10.63,0,0,1-1.07.74l-1.91,1.11-1.61,1a13.75,13.75,0,0,1-2.44,1.15l-1.08.39-1.06.2" transform="translate(-17.15 -7.56)"/></g><g id="string-10" data-name="string"><path class="cls-41" d="M177.65,304.74,179.2,306a8.55,8.55,0,0,0,1.08.74l1.9,1.11,1.61,1a12.48,12.48,0,0,0,2.44,1.15l1.08.4,1.06.19" transform="translate(-17.15 -7.56)"/><path class="cls-41" d="M188.37,304.74,186.82,306a9.21,9.21,0,0,1-1.07.74l-1.91,1.11-1.61,1a12.48,12.48,0,0,1-2.44,1.15l-1.08.4-1.06.19" transform="translate(-17.15 -7.56)"/></g><g id="string-11" data-name="string"><path class="cls-41" d="M188.56,306.72l1.55,1.26a8.5,8.5,0,0,0,1.08.73l1.9,1.12,1.61,1a13.1,13.1,0,0,0,2.44,1.16l1.08.39,1.06.19" transform="translate(-17.15 -7.56)"/><path class="cls-41" d="M199.28,306.72,197.73,308a8.5,8.5,0,0,1-1.08.73l-1.9,1.12-1.61,1A13.1,13.1,0,0,1,190.7,312l-1.08.39-1.06.19" transform="translate(-17.15 -7.56)"/></g><g id="string-12" data-name="string"><path class="cls-41" d="M199.47,308.71,201,310a9.75,9.75,0,0,0,1.08.74l1.9,1.11,1.61,1a13.75,13.75,0,0,0,2.44,1.15l1.08.39,1.06.2" transform="translate(-17.15 -7.56)"/><path class="cls-41" d="M210.19,308.71,208.64,310a9.75,9.75,0,0,1-1.08.74l-1.9,1.11-1.61,1a13.75,13.75,0,0,1-2.44,1.15l-1.08.39-1.06.2" transform="translate(-17.15 -7.56)"/></g><circle id="hand-2" data-name="hand" class="cls-31" cx="153.79" cy="337.92" r="12.22"/><path class="cls-12" d="M173.37,382a4.12,4.12,0,0,1-1.16-5.46,4,4,0,0,1-2.06-.73,4.11,4.11,0,0,1-1.6-4.44,3.84,3.84,0,0,1-1.1-.53,4.11,4.11,0,0,1-1.69-3.95,4.1,4.1,0,0,1-3.37-6.06,4.43,4.43,0,0,1-1.25-.58,4.13,4.13,0,0,1-1.48-4.78,4.11,4.11,0,0,1-3.42-6.5,2.85,2.85,0,0,1,.23-.26,4.1,4.1,0,0,1-3.2-5.21,3.94,3.94,0,0,1-1.44-.64,4.12,4.12,0,0,1-1.23-5.34,4.13,4.13,0,1,1,3.22-2.13,4.09,4.09,0,0,1,4.34,5.25,4.13,4.13,0,0,1,2.43,6.4,2.85,2.85,0,0,1-.23.26A4.18,4.18,0,0,1,162,348a4.13,4.13,0,0,1,1.48,4.78,4.09,4.09,0,0,1,3.66,6.06,4.3,4.3,0,0,1,1.25.58,4.12,4.12,0,0,1,1.69,4,4.09,4.09,0,0,1,3.73,5.17,4,4,0,0,1,1.1.54,4.1,4.1,0,0,1,1.16,5.45,4.08,4.08,0,0,1,2.06.73,4.13,4.13,0,0,1-4.76,6.75Z" transform="translate(-17.15 -7.56)"/></svg>