<svg id="Layer_1" data-name="Layer 1" xmlns="http://www.w3.org/2000/svg" viewBox="0 0 567.14 690.69"><defs><style>.cls-1{fill:#331330;}.cls-2{fill:#fdeff5;}.cls-3{fill:#fbd2db;}.cls-4{fill:#2d1230;}.cls-5{fill:#ef524b;}.cls-6{fill:#f0534d;}.cls-7{fill:#ffcc57;}.cls-8{fill:#f89725;}.cls-9{fill:#f04d4e;}.cls-10{fill:#c92032;}.cls-11{fill:#fac951;}.cls-12,.cls-21{fill:#ee4c4e;}.cls-13,.cls-22{fill:#fdeaa9;}.cls-14{fill:#ffcc5b;}.cls-15{fill:#6f3018;}.cls-16{fill:#bc9560;}.cls-17{fill:none;stroke:#f6c8b3;stroke-width:4px;}.cls-17,.cls-21,.cls-22{stroke-miterlimit:10;}.cls-18{fill:#b77f6a;}.cls-19{fill:#844c32;}.cls-20{fill:#f4982b;}.cls-21{stroke:#331330;stroke-width:12px;}.cls-22{stroke:#3a1715;stroke-width:6px;}.cls-23{fill:#ffca5d;}.cls-24{fill:#ebf6f4;}.cls-25{fill:#fff8f2;}</style></defs><title>Artboard 1</title><path id="hair" class="cls-1" d="M107.18,117s-83-24-29.75-95.6c0,0,44.66-38.93,86.46,16.61,0,0,106.49-87,223.86,2.29,0,0,35.49-64.7,91.6-10.31,0,0,45.8,53.25-34.92,87,0,0,39.5,89.31-27.48,173.48,0,0-192.95,22.9-282.26,0C134.67,290.49,71,216.22,107.18,117Z"/><path id="face" class="cls-2" d="M186.19,142.77v-35.5l18.33,35.5H339.06l17.75-35.5v35.5h25.76s13.74,2.29,9.16,15.46c0,0-4,71.57-17.74,78.44s-95.62,46.94-187.8,4.58c0,0-12-2.87-16.6-20s-13.17-55.89-9.73-70.88C159.86,150.33,159.29,140.48,186.19,142.77Z"/><g id="cheek"><path class="cls-3" d="M162.54,146s3.62,6.53,19.07,7.11,174.05,0,174.05,0,16.61-.58,16.61,9.73,1.72,38.93,0,41.8c0,0-15.46-16.61-29.2,0s6.3,34.92,20,26.9c0,0-3.64,11.81-6.81,13s17.55-4.39,20.92-10.87,12.72-18.91,13.62-63.49l1.83-15.38s3.07-14.88-18.68-12H356.81l.57-35.5-18.32,35.5H204.52l-19.47-38.93,1.14,38.93S173.24,140.58,162.54,146Z"/><circle class="cls-3" cx="194.83" cy="216.1" r="16.6"/></g><path id="eyebrow" class="cls-4" d="M222,165.67a4.87,4.87,0,1,1-4.88-4.86h0A4.86,4.86,0,0,1,222,165.67Zm112.21-4.86a4.87,4.87,0,1,0,4.87,4.87h0a4.86,4.86,0,0,0-4.86-4.86Z"/><path id="eyes" class="cls-4" d="M217.43,174.27c14.61-.85,26.33,11.16,26.33,11.16,2.29,7.72-6.58,7.09-6.58,7.09,0-3.5-13.17-8.67-13.17-8.67-16.32-2.44-24.9,7-24.9,7s-4.58,3.73-7.45,0,1.72-7,1.72-7A41.73,41.73,0,0,1,217.43,174.27Zm92.79,10s-4.58,3.3-1.72,7,7.45,0,7.45,0,8.58-9.45,24.9-7c0,0,13.17,5.18,13.17,8.68,0,0,8.87.63,6.58-7.1,0,0-11.72-12-26.33-11.15a41.78,41.78,0,0,0-24.08,9.61Z"/><path id="mouse" class="cls-5" d="M299.63,226.74s4.34-3.39,1.63-7.22-7.05,0-7.05,0-8.12,9.73-23.57,7.22c0,0-12.46-5.32-12.46-8.92,0,0-8.4-.66-6.23,7.3,0,0,11.1,12.35,24.92,11.48A38.17,38.17,0,0,0,299.63,226.74Z"/><g id="hair_band" data-name="hair band"><path class="cls-6" d="M385.43,42.29s-10.6-12,2.29-10.59l38.07,49,32.06,43.8s27.2,27.48,62.12,8.3c0,0,23.47-12.88,20.61-39.22,0,0-.86-13.07,9.45-8,0,0,3.43,40.88-17.75,49.47,0,0-18,21.76-64.7,7.16,0,0,13.46,34.92,13.89,48.81s1.14,54.53-3,57.68c0,0-1.29,6-6.15,6.3s0-11.74-.43-15,5.29-19.9.28-55.39c0,0-10.16-41.51-17.31-48,0,0-40.08-58.26-44.09-61S385.43,42.29,385.43,42.29Z"/><path class="cls-6" d="M164.57,42.12s10.55-12.06-2.33-10.58l-37.88,49.1L92.43,124.56s-27,27.59-62,8.55c0,0-23.53-12.79-20.77-39.13,0,0,.81-13.08-9.48-7.93,0,0-3.27,40.9,18,49.4,0,0,18.12,21.69,64.72,6.9,0,0-13.32,35-13.69,48.86s-.93,54.54,3.23,57.68c0,0,1.32,6,6.18,6.27s0-11.74.37-15-5.37-19.88-.5-55.39c0,0,10-41.55,17.13-48,0,0,39.84-58.41,43.84-61.15S164.57,42.12,164.57,42.12Z"/></g><path class="cls-1" d="M416.93,290.49s42.94,53.24,66.12,249.91c0,0,7.73,21.47-22.33,15.45l-14.6,1.07s5.16,81.38-3.43,88.25,4,27.48-140.54,45.52c0,0-133.42.85-185-33.5,0,0-18-11.16-12-57.54l-1.23-43.8-27.11.86s-9.16-1-7.63-11.26,5-89.31,21.75-138.93,30-89.12,43.71-116C161.14,238.44,425.5,263.35,416.93,290.49Z"/><path class="cls-7" d="M420.16,645.15a17.78,17.78,0,0,0,3.66-3.15,64.55,64.55,0,0,1-9.17,6A29.35,29.35,0,0,0,420.16,645.15Z"/><path class="cls-7" d="M212.72,659.58c13.74,2.67,80.92,8,115.27,1.14,0,0,14.89.39,18.32-16.41,0,0,50.49-7.63,79.54-23.24-161.42,66.3-302.42-1.19-302.42-1.19-3.06,17.18,5,22.52,5,22.52A319.88,319.88,0,0,0,226,670.5q-10.58-1.51-21.68-3.67C193.21,664.67,199,656.91,212.72,659.58Z"/><path class="cls-7" d="M428.43,632.49a34.72,34.72,0,0,0,.32-12.61l-.73.3A71.3,71.3,0,0,1,428.43,632.49Z"/><path class="cls-8" d="M423.82,642a10.85,10.85,0,0,0,1.88-1.89c1.73-1,2.48-4.12,2.74-7.62A21.16,21.16,0,0,1,423.82,642Z"/><path class="cls-8" d="M428,619.88c-.7.4-1.41.8-2.14,1.19l2.18-.89C428,620,428,619.88,428,619.88Z"/><path class="cls-8" d="M225.94,670.5C326.43,685.27,390.2,661.78,414.65,648,393.12,657.48,314.93,681.78,225.94,670.5Z"/><path class="cls-8" d="M428,620.18l-2.18.89c-29.05,15.61-79.54,23.24-79.54,23.24-3.43,16.8-18.32,16.41-18.32,16.41-34.35,6.87-101.53,1.53-115.27-1.14s-8.4,7.25-8.4,7.25q11.12,2.16,21.62,3.67c89,11.28,167.18-13,188.71-22.47a64.55,64.55,0,0,0,9.17-6,21.15,21.15,0,0,0,4.61-9.54A71.29,71.29,0,0,0,428,620.18Z"/><path class="cls-9" d="M125.51,533.81s96.18-54.39,114.5-76.15c0,0,2.86,21.78,29.77,27.5,0,0,34.36,4,41.23-27.5,0,0,84.82,67.56,115.12,76.15,0,0,5,68.13,3.06,73.86,0,0-150.68,76.15-306.48,0C121.85,605.67,119.26,536.24,125.51,533.81Z"/><path class="cls-10" d="M240.63,457.66s-36,27-68.4,49.12c-18.53,12.66-36.59,20-44.49,27.08-2.37.61-3,2.71-4.57,4.74-1.74,2.39-2,16.39-1.41,24.25.27,1.76,11.25,10.94,26.3-2.24S235,482.29,243.64,462.9Z"/><path class="cls-10" d="M308.14,465.68s37.91,29,40.62,168.71c0,0,54.61-10.69,80.88-24V535.15s-106.8-61.07-118-78.25A30.33,30.33,0,0,1,308.14,465.68Z"/><path class="cls-11" d="M235.62,274.45s55.35,7.26,79.39,0c0,0-26.71,40.46-43.13,49.24C271.88,323.69,239.43,292.39,235.62,274.45Z"/><path class="cls-8" d="M235.62,274.45s58,4,79.39,0c0,0-17.17,28.49-25.19,32.45,0,0-32.82-3.17-37.4-3.17C252.43,303.73,235.62,278,235.62,274.45Z"/><circle class="cls-2" cx="276.07" cy="452.23" r="21.6"/><path class="cls-12" d="M373,293.92s-.76-7.25,8.78-6.49c0,0,17.94-3.43,16.41,5,0,0,59.93,114.51,61.07,206.5,0,0-69.46-31.3-118.7-82.45,0,0,10.3-5,15.65-14.12Z"/><path class="cls-10" d="M421.23,342.39s3.16,96.2-14.23,128.26l53.75,30.91C465.37,501.41,450.54,403,421.23,342.39Z"/><path class="cls-12" d="M339.06,269.91s-35.11,79-129.39,105.34l1.91,17.6s-.77,4.92,15.26,8.74,37,9.16,40.46,11.45,20.23-1.53,20.23-1.53l44.66-11.45s9.54-2.67,10.69-11.06,12.21-103.69,15.65-105.28c0,0-6.41-17-7.54-17.18S339.06,269.91,339.06,269.91Z"/><path class="cls-10" d="M339.14,270.35s-9,19.77-30.11,42.91c18.49,14.52,23.24,68.9,24.91,86.8,6.13-3,10-6.23,9.16-9.39-2.29-8.27,12.65-104.76,16.21-106.37,0,0-6.64-17.19-7.8-17.36S339.14,270.35,339.14,270.35Z"/><path class="cls-13" d="M465.92,512.34s2.48,18.43,2.89,22.35-148.53-79.26-165-108.21c0,0,24.51-7.19,26.85-8.38C330.61,418.1,397.51,483.67,465.92,512.34Z"/><path class="cls-14" d="M389.27,492.4s-65-42.92-68.91-50.33L334,422s52.27,48.38,71.1,56.48C405.09,478.46,394,492.4,389.27,492.4Z"/><path class="cls-15" d="M48.75,638S1.51,639.42,12.8,561.16c0,0-.93-9.2,17.71-20.1S218,412.71,218,412.71L450.55,252.63l114.92,18.56,1.67,8.62-310.83,302s-30.49,32.66-102.39,32.86c0,0-44.3-12.74-63-29,0,0-31.68-32.29-38.23-18s.46,28.61.46,28.61,8.52,3.46,27.29-8.11c0,0,6.62-1,5.08,6.38s-.22,21.54-1,25.57S56.77,639.21,48.75,638Z"/><path class="cls-16" d="M16,553.64c6-6.06,16.28-15.48,27.75-21.67C89.26,504.9,214.84,414.54,216.08,412.18l233-158.8,115.36,18.67s-99.19,99.71-200.84,191.47c-93.53,84.46-117,148.17-211.42,149.34,0,0-44.47-12.73-63.24-28.92,0,0-31.86-32.13-38.35-18s.49,28.49.49,28.49c.89,9.86,30.54-2,31.54-6.91.26-1.29,1.51,2.49.93,5.25-1.06,5.13-.74,13.51-.71,19.46,0,.88-13.73,9-30,14.42C27.68,624.08,26.79,624,12.16,566.1,11.65,564,12.49,557.15,16,553.64Z"/><line class="cls-17" x1="496.69" y1="307.14" x2="212.86" y2="576.82"/><line class="cls-17" x1="483.98" y1="298.88" x2="172.35" y2="584.19"/><line class="cls-17" x1="471.1" y1="290.5" x2="138.39" y2="571.73"/><line class="cls-17" x1="460.09" y1="288.73" x2="108.14" y2="559.88"/><line class="cls-17" x1="450.84" y1="277.34" x2="77.9" y2="541.06"/><path class="cls-18" d="M82.52,516.75s9.58,60,129.79,63.47c0,0-25.17,21.69-73.66,10.36,0,0-66.33-35.1-67.69-38.8,0,0-19.5-15.69-33.91,9.12s15.27,42.86,15.27,42.86S69.5,606.55,75.07,597l.65,10.54-27.9,17.73S5.67,578.1,22.17,557.08,82.52,516.75,82.52,516.75Z"/><polygon class="cls-18" points="431.81 263.97 514.52 317.73 509.4 325.25 426.69 268.01 431.81 263.97"/><ellipse class="cls-19" cx="213.75" cy="576.97" rx="7.08" ry="6.76" transform="translate(-232.54 153.4) rotate(-26.17)"/><ellipse class="cls-19" cx="172.35" cy="584.19" rx="7.08" ry="6.76" transform="translate(-239.97 135.89) rotate(-26.17)"/><ellipse class="cls-19" cx="137.69" cy="575.11" rx="7.08" ry="6.76" transform="translate(-239.51 119.67) rotate(-26.17)"/><ellipse class="cls-19" cx="108.14" cy="559.88" rx="7.08" ry="6.76" transform="translate(-235.83 105.08) rotate(-26.17)"/><ellipse class="cls-19" cx="77.9" cy="541.06" rx="7.08" ry="6.76" transform="translate(-230.63 89.81) rotate(-26.17)"/><path class="cls-20" d="M465.92,512.34s2.48,18.43,2.89,22.35c.21,2-38.7-18.8-79-43.48,14.48-7.21,13.2-14.23,13.57-14C422.72,490.47,444.24,503.26,465.92,512.34Z"/><circle class="cls-1" cx="369.44" cy="501.39" r="33.99"/><circle class="cls-2" cx="369.55" cy="499.42" r="25.25"/><circle class="cls-1" cx="191.04" cy="460.15" r="33.99"/><circle class="cls-2" cx="191.14" cy="460.41" r="25.25"/><path class="cls-21" d="M177.86,292.45s.64-7.34-9.53-6.32c0,0-19.25-3-17.42,5.42,0,0-61.26,117.12-60.27,210,0,0,73.44-33.36,124.81-86.24,0,0-11.13-4.75-17-13.86Z"/><path class="cls-10" d="M174.15,298.5s.48-6.78-7.47-5.88c0,0-15.06-2.85-13.6,4.95-12.11,23.63-17.31,56-16.28,84.32,1.28,31.76,7.47,91.75,15.9,77a193.69,193.69,0,0,0,19.24-17.19c8.39-5.73,18.88-15.28,32-29.56,0,0-8.71-4.42-13.37-12.87Z"/><path class="cls-22" d="M89.57,509.65S87.18,528,86.79,531.91s148.4-79.67,164.8-108.57c0,0-24.6-7-26.94-8.2C224.65,415.14,158,480.75,89.57,509.65Z"/><path class="cls-23" d="M225.94,418.1s-34.11,34.35-55.63,46c-2.84,1.54,0,15.25,0,15.25s63.42-35.84,74.07-53.2Z"/><g id="button"><circle class="cls-24" cx="224.19" cy="387.86" r="4.6"/><circle class="cls-24" cx="248.98" cy="377.34" r="4.6"/><circle class="cls-24" cx="271.53" cy="365.7" r="4.6"/><circle class="cls-24" cx="293.69" cy="349.65" r="4.6"/><circle class="cls-24" cx="314.72" cy="333.59" r="4.6"/><circle class="cls-24" cx="333.52" cy="313.06" r="4.6"/><circle class="cls-24" cx="349.93" cy="291.34" r="4.6"/></g><path class="cls-12" d="M201.65,267S194,279.08,194,281s11.07,59.55,11.83,76.72c0,0,48.48-18.32,50-22.14,0,0-43.13-58.78-42.37-64.88Z"/><path class="cls-10" d="M194.43,281.71s14.16,14.88,34.39,17.36c0,0-14.56-25.76-14.56-29.2,0,0-9.91-.66-12.95-2.93Z"/><g id="button-2"><circle class="cls-25" cx="226.53" cy="331.33" r="4.58"/><circle class="cls-25" cx="209.67" cy="311.48" r="4.58"/><circle class="cls-25" cx="200.51" cy="290.18" r="4.58"/></g></svg>