<svg id="Layer_1" data-name="Layer 1" xmlns="http://www.w3.org/2000/svg" viewBox="0 0 681 690.7"><defs><style>.cls-1{fill:#331330;}.cls-2{fill:#fdeff5;}.cls-3{fill:#fbd2db;}.cls-4{fill:#2d1230;}.cls-5{fill:#ef524b;}.cls-6{fill:#f0534d;}.cls-7{fill:#ffcc57;}.cls-8{fill:#f89725;}.cls-9{fill:#f04d4e;}.cls-10{fill:#c92032;}.cls-11{fill:#fac951;}.cls-12,.cls-21{fill:#ee4c4e;}.cls-13,.cls-22{fill:#fdeaa9;}.cls-14{fill:#ffcc5b;}.cls-15{fill:#f4982b;}.cls-16{fill:#6f3018;}.cls-17{fill:#bc9560;}.cls-18{fill:none;stroke:#f6c8b3;stroke-width:4px;}.cls-18,.cls-21,.cls-22{stroke-miterlimit:10;}.cls-19{fill:#b77f6a;}.cls-20{fill:#844c32;}.cls-21{stroke:#331330;stroke-width:12px;}.cls-22{stroke:#3a1715;stroke-width:6px;}.cls-23{fill:#ffca5d;}.cls-24{fill:#ebf6f4;}.cls-25{fill:#fff8f2;}</style></defs><title>doll_guzheng</title><path id="hair" class="cls-1" d="M180.75,117S97.74,93,151,21.4c0,0,44.66-38.93,86.46,16.61,0,0,106.49-87,223.86,2.29,0,0,35.49-64.7,91.6-10.31,0,0,45.8,53.25-34.92,87,0,0,39.5,89.31-27.48,173.48,0,0-192.95,22.9-282.26,0C208.24,290.5,144.54,216.23,180.75,117Z"/><path id="face" class="cls-2" d="M259.76,142.78v-35.5l18.33,35.5H412.63l17.75-35.5v35.5h25.76s13.74,2.29,9.16,15.46c0,0-4,71.57-17.74,78.44s-95.62,46.94-187.8,4.58c0,0-12-2.87-16.6-20s-13.17-55.89-9.73-70.88C233.43,150.34,232.86,140.49,259.76,142.78Z"/><g id="cheek"><path class="cls-3" d="M236.11,146s3.62,6.53,19.07,7.11,174.05,0,174.05,0,16.61-.58,16.61,9.73,1.72,38.93,0,41.8c0,0-15.46-16.61-29.2,0s6.3,34.92,20,26.9c0,0-3.64,11.81-6.81,13s17.55-4.39,20.92-10.87,12.72-18.91,13.62-63.49l1.83-15.38s3.07-14.88-18.68-12H430.38l.57-35.5-18.32,35.5H278.09l-19.47-38.93,1.14,38.93S246.81,140.59,236.11,146Z"/><circle class="cls-3" cx="268.4" cy="216.11" r="16.6"/></g><path id="eyebrow" class="cls-4" d="M295.6,165.68a4.87,4.87,0,1,1-4.87-4.86A4.87,4.87,0,0,1,295.6,165.68Zm112.21-4.86a4.87,4.87,0,1,0,4.87,4.86A4.86,4.86,0,0,0,407.81,160.82Z"/><path id="eyes" class="cls-4" d="M291,174.28c14.61-.85,26.33,11.16,26.33,11.16,2.29,7.72-6.58,7.09-6.58,7.09,0-3.5-13.17-8.67-13.17-8.67-16.32-2.44-24.9,7-24.9,7s-4.58,3.73-7.45,0,1.72-7,1.72-7A41.79,41.79,0,0,1,291,174.28Zm92.79,10s-4.58,3.3-1.72,7,7.45,0,7.45,0,8.58-9.45,24.9-7c0,0,13.17,5.18,13.17,8.68,0,0,8.87.63,6.58-7.1,0,0-11.72-12-26.33-11.15A41.81,41.81,0,0,0,383.76,184.32Z"/><path id="mouse" class="cls-5" d="M373.2,226.75s4.34-3.39,1.63-7.22-7.05,0-7.05,0-8.12,9.73-23.57,7.22c0,0-12.46-5.32-12.46-8.92,0,0-8.4-.66-6.23,7.3,0,0,11.1,12.35,24.92,11.48A38.16,38.16,0,0,0,373.2,226.75Z"/><g id="hair_band" data-name="hair band"><path class="cls-6" d="M459,42.3s-10.6-12,2.29-10.59l38.07,48.95,32.06,43.8s27.2,27.48,62.12,8.3c0,0,23.47-12.88,20.61-39.22,0,0-.86-13.07,9.45-8,0,0,3.43,40.88-17.75,49.47,0,0-18,21.76-64.7,7.16,0,0,13.46,34.92,13.89,48.81s1.14,54.53-3,57.68c0,0-1.29,6-6.15,6.3s0-11.74-.43-15,5.29-19.9.28-55.39c0,0-10.16-41.51-17.31-48,0,0-40.08-58.26-44.09-61S459,42.3,459,42.3Z"/><path class="cls-6" d="M238.14,42.13s10.55-12.06-2.33-10.58l-37.88,49.1L166,124.57S139,152.16,104,133.12c0,0-23.53-12.79-20.77-39.13,0,0,.81-13.08-9.48-7.93,0,0-3.27,40.9,18,49.4,0,0,18.12,21.69,64.72,6.9,0,0-13.32,35-13.69,48.86s-.93,54.54,3.23,57.68c0,0,1.32,6,6.18,6.27s0-11.74.37-15-5.37-19.88-.5-55.39c0,0,10-41.55,17.13-48,0,0,39.84-58.41,43.84-61.15S238.14,42.13,238.14,42.13Z"/></g><path class="cls-1" d="M490.5,290.5s42.94,53.24,66.12,249.91c0,0,7.73,21.47-22.33,15.45l-14.6,1.07s5.16,81.38-3.43,88.25,4,27.48-140.54,45.52c0,0-133.42.85-185-33.5,0,0-18-11.16-12-57.54l-1.23-43.8-27.11.86s-9.16-1-7.63-11.26,5-89.31,21.75-138.93,30-89.12,43.71-116C234.71,238.45,499.07,263.36,490.5,290.5Z"/><path class="cls-7" d="M493.73,645.16a17.93,17.93,0,0,0,3.66-3.15,64,64,0,0,1-9.17,6A29.21,29.21,0,0,0,493.73,645.16Z"/><path class="cls-7" d="M286.29,659.59c13.74,2.67,80.92,8,115.27,1.14,0,0,14.89.39,18.32-16.41,0,0,50.49-7.63,79.54-23.24C338,687.38,197,619.89,197,619.89c-3.06,17.18,5,22.52,5,22.52a319.59,319.59,0,0,0,97.57,28.1Q289,669,277.89,666.84S272.55,656.92,286.29,659.59Z"/><path class="cls-7" d="M502,632.5a34.78,34.78,0,0,0,.32-12.61l-.73.3A71.3,71.3,0,0,1,502,632.5Z"/><path class="cls-8" d="M497.39,642a10.75,10.75,0,0,0,1.88-1.89c1.73-1,2.48-4.12,2.74-7.62A21.15,21.15,0,0,1,497.39,642Z"/><path class="cls-8" d="M501.56,619.89c-.7.4-1.41.8-2.14,1.19l2.18-.89C501.58,620,501.56,619.89,501.56,619.89Z"/><path class="cls-8" d="M299.51,670.51C400,685.28,463.77,661.79,488.22,648,466.69,657.49,388.5,681.79,299.51,670.51Z"/><path class="cls-8" d="M501.6,620.19l-2.18.89c-29.05,15.61-79.54,23.24-79.54,23.24-3.43,16.8-18.32,16.41-18.32,16.41-34.35,6.87-101.53,1.53-115.27-1.14s-8.4,7.25-8.4,7.25Q289,669,299.51,670.51c89,11.28,167.18-13,188.71-22.47a64,64,0,0,0,9.17-6A21.15,21.15,0,0,0,502,632.5,71.3,71.3,0,0,0,501.6,620.19Z"/><path class="cls-9" d="M199.08,533.82s96.18-54.39,114.5-76.15c0,0,2.86,21.78,29.77,27.5,0,0,34.36,4,41.23-27.5,0,0,84.82,67.56,115.12,76.15,0,0,5,68.13,3.06,73.86,0,0-150.68,76.15-306.48,0C195.42,605.68,192.83,536.25,199.08,533.82Z"/><path class="cls-10" d="M314.2,457.67s-36.05,27-68.4,49.12c-18.53,12.66-36.59,20-44.49,27.08-2.37.61-3,2.71-4.57,4.74C195,541,194.69,555,195.33,562.86c.27,1.76,11.25,10.94,26.3-2.24s86.92-78.32,95.58-97.71Z"/><path class="cls-10" d="M381.71,465.69s37.91,29,40.62,168.71c0,0,54.61-10.69,80.88-24V535.16s-106.8-61.07-118-78.25A30.23,30.23,0,0,1,381.71,465.69Z"/><path class="cls-11" d="M309.19,274.46s55.35,7.26,79.39,0c0,0-26.71,40.46-43.13,49.24C345.45,323.7,313,292.4,309.19,274.46Z"/><path class="cls-8" d="M309.19,274.46s58,4,79.39,0c0,0-17.17,28.49-25.19,32.45,0,0-32.82-3.17-37.4-3.17C326,303.74,309.19,278,309.19,274.46Z"/><circle class="cls-2" cx="349.64" cy="452.24" r="21.6"/><path class="cls-12" d="M446.6,293.93s-.76-7.25,8.78-6.49c0,0,17.94-3.43,16.41,5,0,0,59.93,114.51,61.07,206.5,0,0-69.46-31.3-118.7-82.45,0,0,10.3-5,15.65-14.12Z"/><path class="cls-10" d="M494.8,342.4s3.16,96.2-14.23,128.26l53.75,30.91C538.94,501.42,524.11,403,494.8,342.4Z"/><path class="cls-12" d="M412.63,269.92s-35.11,79-129.39,105.34l1.91,17.6s-.77,4.92,15.26,8.74,37,9.16,40.46,11.45,20.23-1.53,20.23-1.53l44.66-11.45s9.54-2.67,10.69-11.06,12.21-103.69,15.65-105.28c0,0-6.41-17-7.54-17.18S412.63,269.92,412.63,269.92Z"/><path class="cls-10" d="M412.71,270.36s-9,19.77-30.11,42.91c18.49,14.52,23.24,68.9,24.91,86.8,6.13-3,10-6.23,9.16-9.39-2.29-8.27,12.65-104.76,16.21-106.37,0,0-6.64-17.19-7.8-17.36S412.71,270.36,412.71,270.36Z"/><path class="cls-13" d="M539.49,512.35s2.48,18.43,2.89,22.35-148.53-79.26-165-108.21c0,0,24.51-7.19,26.85-8.38C404.18,418.11,471.08,483.68,539.49,512.35Z"/><path class="cls-14" d="M462.84,492.41s-65-42.92-68.91-50.33L407.56,422s52.27,48.38,71.1,56.48C478.66,478.47,467.52,492.41,462.84,492.41Z"/><path class="cls-15" d="M539.49,512.35s2.48,18.43,2.89,22.35c.21,2-38.7-18.8-79-43.48,14.48-7.21,13.2-14.23,13.57-14C496.29,490.48,517.81,503.27,539.49,512.35Z"/><path class="cls-16" d="M19.72,519.66S-25.77,498,21.43,425.71c0,0,3.4-9.6,26.17-11.34s237.76-36,237.76-36l295.25-45.56L681,407.41l-2.44,9.39L242.86,565.16s-44.15,17.58-112.46-17.35c0,0-36.1-34.31-46.24-59.58,0,0-15-47.58-27.87-36.59s-12.91,28.67-12.91,28.67,6.47,7.61,29.68,5.27c0,0,6.75,2.22,1.84,8.83S64.65,515.72,62,519.33,26.76,524.79,19.72,519.66Z"/><path class="cls-17" d="M27.93,419.78c8.51-3.1,22.66-7.44,36.43-8,55.84-4.65,217.12-33.14,219.4-34.88l295.09-44.07L679.6,407.75S539,458.43,399.77,500c-128.12,38.28-180.11,90.15-270.22,45.2,0,0-36.26-34.39-46.52-59.65,0,0-15.25-47.52-28-36.62S42.2,477.5,42.2,477.5c-3.75,10.24,29.91,12.95,33.15,8.54.85-1.16.28,3.21-1.56,5.67-3.4,4.58-7,13.07-9.75,19-.41.88-17.2,2.2-35.17-.31C6.21,495.54,5.41,495,18.51,430.31,19,428,23,421.57,27.93,419.78Z"/><line class="cls-18" x1="598.98" y1="409.55" x2="203.94" y2="539.02"/><line class="cls-18" x1="590.77" y1="395.13" x2="162.07" y2="526.56"/><line class="cls-18" x1="582.45" y1="380.51" x2="135.66" y2="497.58"/><line class="cls-18" x1="572.83" y1="373.36" x2="112.48" y2="471.01"/><line class="cls-18" x1="569.37" y1="357.52" x2="92.56" y2="437.53"/><path class="cls-19" d="M108.28,415.62S89.37,480,201.84,542.13c0,0-34,9.27-74.72-25.69,0,0-46.57-67.3-46.14-71.65,0,0-11.19-25.12-36.43-7.49s-5.49,50.07-5.49,50.07,15,11.17,24.74,4.39l-4.3,10.8-34.74,4s-18-67.49,7.46-80.33S108.28,415.62,108.28,415.62Z"/><polygon class="cls-19" points="557.54 334.93 610.96 428.79 602.59 433.77 550.8 336.45 557.54 334.93"/><circle class="cls-20" cx="204.72" cy="539.6" r="7.49"/><circle class="cls-20" cx="162.07" cy="526.56" r="7.49"/><circle class="cls-20" cx="133.42" cy="500.59" r="7.49"/><circle class="cls-20" cx="112.48" cy="471.01" r="7.49"/><circle class="cls-20" cx="92.56" cy="437.53" r="7.49"/><circle class="cls-1" cx="443.01" cy="501.4" r="33.99"/><circle class="cls-2" cx="443.12" cy="499.43" r="25.25"/><circle class="cls-1" cx="264.61" cy="460.16" r="33.99"/><circle class="cls-2" cx="264.71" cy="460.42" r="25.25"/><path class="cls-21" d="M251.43,292.46s.64-7.34-9.53-6.32c0,0-19.25-3-17.42,5.42,0,0-61.26,117.12-60.27,210,0,0,73.44-33.36,124.81-86.24,0,0-11.13-4.75-17-13.86Z"/><path class="cls-10" d="M247.72,298.51s.48-6.78-7.47-5.88c0,0-15.06-2.85-13.6,4.95-12.11,23.63-17.31,56-16.28,84.32,1.28,31.76,7.47,91.75,15.9,77a192.94,192.94,0,0,0,19.24-17.19c8.39-5.73,18.88-15.28,32-29.56,0,0-8.71-4.42-13.37-12.87Z"/><path class="cls-22" d="M163.14,509.66s-2.39,18.35-2.78,22.26,148.4-79.67,164.8-108.57c0,0-24.6-7-26.94-8.2C298.22,415.15,231.52,480.76,163.14,509.66Z"/><path class="cls-23" d="M299.51,418.11s-34.11,34.35-55.63,46c-2.84,1.54,0,15.25,0,15.25s63.42-35.84,74.07-53.2Z"/><g id="button"><circle class="cls-24" cx="297.76" cy="387.87" r="4.6"/><circle class="cls-24" cx="322.55" cy="377.35" r="4.6"/><circle class="cls-24" cx="345.1" cy="365.71" r="4.6"/><circle class="cls-24" cx="367.26" cy="349.66" r="4.6"/><circle class="cls-24" cx="388.29" cy="333.6" r="4.6"/><circle class="cls-24" cx="407.09" cy="313.07" r="4.6"/><circle class="cls-24" cx="423.5" cy="291.35" r="4.6"/></g><path class="cls-12" d="M275.22,267s-7.63,12.09-7.63,14,11.07,59.55,11.83,76.72c0,0,48.48-18.32,50-22.14,0,0-43.13-58.78-42.37-64.88Z"/><path class="cls-10" d="M268,281.72s14.16,14.88,34.39,17.36c0,0-14.56-25.76-14.56-29.2,0,0-9.91-.66-12.95-2.93Z"/><g id="button-2" data-name="button"><circle class="cls-25" cx="300.1" cy="331.34" r="4.58"/><circle class="cls-25" cx="283.24" cy="311.49" r="4.58"/><circle class="cls-25" cx="274.08" cy="290.19" r="4.58"/></g></svg>