<?xml version="1.0" encoding="utf-8"?>
<!-- Generator: Adobe Illustrator 23.0.4, SVG Export Plug-In . SVG Version: 6.00 Build 0)  -->
<svg version="1.1" id="Layer_1" xmlns="http://www.w3.org/2000/svg" xmlns:xlink="http://www.w3.org/1999/xlink" x="0px" y="0px"
	 viewBox="0 0 490.8 616" style="enable-background:new 0 0 490.8 616;" xml:space="preserve">
<style type="text/css">
	.st0{fill:none;stroke:#32152F;stroke-width:17;stroke-linecap:round;stroke-linejoin:round;stroke-miterlimit:10;}
	.st1{fill:#93BECC;}
	.st2{fill:#1C75BC;}
	.st3{fill:#2E3192;}
	.st4{fill:url(#pattern_1_);}
	.st5{fill:url(#pattern1_1_);}
	.st6{fill:url(#pattern2_1_);}
	.st7{fill:url(#pattern3_1_);}
	.st8{fill:url(#SVGID_1_);}
	.st9{fill:#B2E2F6;stroke:#331330;stroke-width:10;stroke-linecap:round;stroke-linejoin:round;stroke-miterlimit:10;}
	.st10{fill:url(#SVGID_2_);}
	.st11{fill:#FDEFF5;stroke:#31162E;stroke-width:7;stroke-linecap:round;stroke-linejoin:round;stroke-miterlimit:10;}
	.st12{fill:#331330;}
	.st13{fill:#FBD2DB;}
	.st14{fill:#2D1230;}
	.st15{fill:#EF524A;}
	.st16{fill:url(#SVGID_3_);}
	.st17{fill:url(#SVGID_4_);}
	.st18{fill:url(#SVGID_5_);}
	.st19{fill:url(#SVGID_6_);}
	.st20{fill:url(#SVGID_7_);}
	.st21{fill:url(#SVGID_8_);}
	.st22{fill:url(#SVGID_9_);}
	.st23{fill:url(#SVGID_10_);}
	.st24{fill:url(#SVGID_11_);}
	.st25{fill:url(#SVGID_12_);}
	.st26{fill:url(#SVGID_13_);}
	.st27{fill:url(#SVGID_14_);}
	.st28{fill:url(#SVGID_15_);}
	.st29{fill:#FAC951;}
	.st30{fill:#E0BB52;stroke:#FFE2A1;stroke-miterlimit:10;}
	.st31{fill:#3C2415;}
	.st32{fill:#6D6E71;}
	.st33{fill:#754C29;}
	.st34{fill:#A97C50;}
	.st35{fill:#C49A6C;}
	.st36{fill:none;stroke:#8B5E3C;stroke-width:5;stroke-linecap:round;stroke-miterlimit:10;}
	.st37{fill:url(#SVGID_16_);stroke:#FFE2A1;stroke-miterlimit:10;}
	.st38{fill:url(#SVGID_17_);stroke:#FFE2A1;stroke-miterlimit:10;}
	.st39{fill:#FDEFF5;stroke:#331330;stroke-width:6;stroke-linecap:round;stroke-linejoin:round;stroke-miterlimit:10;}
	.st40{fill:#B2E2F6;stroke:#331330;stroke-width:8;stroke-linecap:round;stroke-linejoin:round;stroke-miterlimit:10;}
	.st41{fill:#B2E2F6;stroke:#31162E;stroke-width:8;stroke-linecap:round;stroke-linejoin:round;stroke-miterlimit:10;}
	.st42{fill:url(#SVGID_18_);}
</style>
<path class="st0" d="M155.6,398.7l-3.5,3.8l-21.3,35.4c0,0,0.5,2.2,1.9,5.7c-10.3,23.3-15.7,42.3-16.5,46.3
	c-1.1,5.5-10.3,38.6-10.3,38.6s-3.8,22.2-3.2,29.5c0.4,4.3,1.3,0.6,2.8,4.7c0.5,1.5,2.5,7,6.6,12.1c0.5,2.3,1.9,4.3,4,5.5
	c8.1,4.6,23.2,11.2,29.1,12.4c1.4,0.5,2.8,1,4.3,1.5c9.8,3,19.8,5.3,29.8,7l42.2,5.3l25.7,0.6l0,0h0.3h0.6l0,0l26.8-1.1l8.7-1.2
	c5.6-0.7,11-1.4,15.5-2l0.1,0.1L319,600l2.6-0.5c3.4-0.6,6.7-1.3,10.1-2.1l2.8-0.6l2.1-0.6c4.5-1.1,9-2.4,13.5-3.8
	c0.3-0.1,0.7-0.2,1-0.3l1.6-0.5l0.2-0.1c2.9-0.6,8.3-2.8,14-5.5c4.5-1.9,8.9-4,13.2-6.3c4.8-2.5,8.2-6.3,10.7-10l0.2-0.2l0.1-0.2
	c2.7-4.1,4.1-8,4.4-9.1c0.5-1.3,0.9-2.7,1.3-4.1V556v-0.1c0.7-2.8,1.2,2.4,1.4-0.4c0.1-1.2,0-2.8-0.1-4.7l0.2-1.7l-1.6-9.4
	c-0.1-0.7-0.2-1.3-0.3-2l0.7-0.5c2.2-1.3,3.7-2.3,4.5-2.8l0.5-0.3l0,0l0,0l-27-73.2l-30.5-59.5"/>
<polygon id="shawlBack" class="st1" points="172.7,224.8 209.8,232.5 290.3,232 332.2,224.2 249.7,328.6 "/>
<g id="skirt">
	<path class="st2" d="M146,416.9c-19.1,34.1-28.7,67.4-29.8,72.9s-10.3,38.6-10.3,38.6s-3.8,22.2-3.2,29.5c0.4,4.3,1.3,0.6,2.8,4.7
		c0.7,2.2,5.1,14.1,15.1,19.2c9.3,4.8,19,8.9,28.9,12.2c9.8,3,19.8,5.3,29.8,7l42.2,5.3l26.6,0.6L245.8,372l-62.3,0.6
		C183.5,372.6,165.1,382.8,146,416.9z"/>
	<path class="st2" d="M394.1,525.1c0,0-10.1-32.4-11.4-37.9s-11.9-38.5-32.6-72.3S310,371.3,310,371.3l-65.2,0.6l2.3,234.8l27.8-1.1
		l44-6.1c10.5-1.9,20.9-4.4,31.1-7.6c10.3-3.4,20.4-7.7,30-12.7c10.4-5.4,14.7-17.3,15.4-19.5c1.5-4.1,2.4-0.4,2.7-4.7
		C398.7,547.8,394.1,525.1,394.1,525.1z"/>
</g>
<path id="overlap" class="st3" d="M183.9,369.9l-10.1,9l-21.7,23.5l-21.3,35.4c0,0,6.6,27.2,34.8,43.9s41.8,24.4,64.7,27.2
	s40.2,12.4,57.3,22s37.7,24.2,61.9,23.1s52.6-20.4,52.6-20.4l-27-73.2l-34.3-66.8L314.7,370L183.9,369.9z"/>
<linearGradient id="pattern_1_" gradientUnits="userSpaceOnUse" x1="111.9559" y1="711.3268" x2="199.7" y2="711.3268" gradientTransform="matrix(1 0 0 1 0 -226)">
	<stop  offset="0" style="stop-color:#2484C6;stop-opacity:0"/>
	<stop  offset="1" style="stop-color:#2484C6"/>
</linearGradient>
<path id="pattern" class="st4" d="M185.8,378.2c0,0-34.1,45-40.3,62.6s-13,33.4-16.6,57.6s-10.7,48.9-11.4,54
	c-0.4,3.1-3.5,12.4-5.2,18.1c-1.1,3.7,0.5,7.7,3.9,9.5c8.2,4.6,23.7,11.4,29.4,12.4c8.1,1.5,11.3-28.9,11.3-28.9l6.2-64.1l6.2-43.4
	c1.4-9.6,4.3-18.8,8.6-27.4l21.8-43.2L185.8,378.2z"/>
<linearGradient id="pattern1_1_" gradientUnits="userSpaceOnUse" x1="188.17" y1="724.9003" x2="236.77" y2="724.9003" gradientTransform="matrix(1 0 0 1 0 -226)">
	<stop  offset="0" style="stop-color:#2484C6;stop-opacity:0"/>
	<stop  offset="1" style="stop-color:#2484C6"/>
</linearGradient>
<path id="pattern1" class="st5" d="M222.6,392l-12.1,30.8c-6.7,12.6-11,26.3-12.7,40.5l-4.1,35.1l0.3,56.1c0,1.4-0.1,2.7-0.3,4.1
	l-5.6,41c0,0.6,0.5,1.2,1.1,1.3c4.5,0.7,22.4,3.5,37.9,4.9c1,0.1-1.7-12.4-4.8-25.3c-4.5-18.8-5.2-30.3-2-49.3l4.9-29.2
	c0.2-1,0.3-2.1,0.3-3.1v-46.6c0-3.5,0.4-7,1.2-10.3l10-45.4L222.6,392z"/>
<linearGradient id="pattern2_1_" gradientUnits="userSpaceOnUse" x1="299" y1="710.7281" x2="383.9193" y2="710.7281" gradientTransform="matrix(1 0 0 1 0 -226)">
	<stop  offset="0" style="stop-color:#2484C6;stop-opacity:0"/>
	<stop  offset="1" style="stop-color:#2484C6"/>
</linearGradient>
<path id="pattern2" class="st6" d="M312.9,378.2c0,0,34.1,45,40.3,62.6s13,33.4,16.6,57.6s10.7,48.9,11.4,54
	c0.4,3.1,4.8,23.1,1.5,25c-8.2,4.6-24.3,12.7-30,13.8c-8.1,1.5-10.9-27.5-10.9-27.5l-6.2-64.1l-6.2-43.4c-1.4-9.6-4.3-18.8-8.6-27.4
	L299,385.5L312.9,378.2z"/>
<linearGradient id="pattern3_1_" gradientUnits="userSpaceOnUse" x1="261.91" y1="724.9003" x2="310.51" y2="724.9003" gradientTransform="matrix(1 0 0 1 0 -226)">
	<stop  offset="0" style="stop-color:#2484C6;stop-opacity:0"/>
	<stop  offset="1" style="stop-color:#2484C6"/>
</linearGradient>
<path id="pattern3" class="st7" d="M276.1,392l12.1,30.8c6.7,12.6,11,26.3,12.7,40.5l4.1,35.1l-0.3,56.1c0,1.4,0.1,2.7,0.3,4.1
	l5.6,41c0,0.6-0.5,1.2-1.1,1.3c-4.5,0.7-22.4,3.5-37.9,4.9c-1,0.1,1.7-12.4,4.8-25.3c4.5-18.8,5.2-30.3,2-49.3l-4.9-29.1
	c-0.2-1-0.3-2.1-0.3-3.1v-46.7c0-3.5-0.4-7-1.2-10.3l-10-45.4L276.1,392z"/>
<linearGradient id="SVGID_1_" gradientUnits="userSpaceOnUse" x1="245.9" y1="712.15" x2="402.1" y2="712.15" gradientTransform="matrix(1 0 0 1 0 -226)">
	<stop  offset="0" style="stop-color:#2484C6;stop-opacity:0"/>
	<stop  offset="1" style="stop-color:#2E3192"/>
</linearGradient>
<path class="st8" d="M314.7,369.9l-68.8,12.7l10.2,18.4c7.5,13.5,12,28.4,13.3,43.8l5.2,61.5c0.3,3.7,0.4,7.3,0.3,11l-1,32.2
	c-0.5,16.7,4.6,25,14.6,38.4l10.8,14.5l19.8-2.9l15.5-3.3l18.2-5.2l17.8-7.3l12.2-6.4l8.2-8.3l5.9-13.6l1.4-6.9l-1.9-11.4l5.7-3.6
	L379.4,472l-8.6-20.1L350.2,415L314.7,369.9z"/>
<path id="Body-2_1_" class="st9" d="M317.9,243.8c-5.2-1.2-10.1-1.9-14.1-2.1c1.1,0.2-14.8,21.3-14.8,21.3l-7.1,10.4
	c-4.4,7.1-9.3,13.8-14.7,20.1c-10,11.8-17.7,11.1-17.7,11.1s-7.8,0.8-17.8-11.1c-5.4-6.3-10.4-13-14.7-20.1c0,0-16.3-20.5-15.1-24.1
	c0.5-1-3.4-2.1-2.3-2.3c-15.9,0.8-61.3-1.9-65,21.2c-14,86.8,48.6,106.1,48.6,106.1s41.7,14,66.4,14.8c24.7,0.7,40.7-7.6,54-11.8
	l12.5-3.1C366.3,279.4,317.9,243.8,317.9,243.8z"/>
<linearGradient id="SVGID_2_" gradientUnits="userSpaceOnUse" x1="217" y1="544.5" x2="341.4019" y2="544.5" gradientTransform="matrix(1 0 0 1 0 -226)">
	<stop  offset="0" style="stop-color:#B2E2F6;stop-opacity:0.5"/>
	<stop  offset="0.65" style="stop-color:#27AAE1;stop-opacity:0.75"/>
	<stop  offset="1" style="stop-color:#1C75BC"/>
</linearGradient>
<path class="st10" d="M249.5,389l8.8,2.1l32.6-10l25-7c0,0,11.1-11.5,16.2-25.1c5.2-13.6,9-19.4,9.3-40.3s-35.8-62.8-35.8-62.8
	l-45.9,52.9l-4.2,2.9c-4.9,3.4-11.6,2.9-15.9-1.2l-6-5.6L217,270.8L245.8,372L249.5,389z"/>
<path id="neck" class="st11" d="M207.4,227l26.5,17.8l-28.1-0.1c-2.5,0-4.4,2.1-4.4,4.5c0,1.2,0.5,2.4,1.4,3.2l21.6,29.1
	c10.1,17.2,18,22.6,24.6,22.3c8.8-0.4,19.5-12.8,26.3-23.5l20.8-26.8c2.2-1.7,2.5-4.9,0.8-7c-0.9-1.2-2.4-1.9-3.9-1.9l-26.5,0.1
	l26.8-17.8C293.3,227,267.3,225.1,207.4,227z"/>
<path class="st12" d="M182.6,223.4c-16.6-3.7-31.6-12.4-43.2-24.8c-6-6.5-11.8-14.2-15.4-22.6c-11.5-26.7-2-65.3,2.6-75.8
	C136.8,77.1,142.9,70,159,55.1c7.9-7.3,25.4-12.1,27.1-17.6c4.3-14,14-26.1,28.2-30.8c7.4-2.4,24.2-4.9,35.8-5.2
	c14.6-0.4,45.5,2.2,59.6,16.4c15.4,15.4,5.2,20.4,17.8,27.8c17.3,10.2,41.3,29.5,49.9,52.5c8.1,21.7,8.3,44.9-6,77.3
	c-6.6,15-17.3,31.6-38.7,39.4c-9.4,3.4-27,9.9-42.4,13.9c-10.1,2.7-43.9,5.6-59.6,3.5c-1.2-0.2-19.7-2.7-20.9-3L182.6,223.4z"/>
<path id="face" class="st11" d="M162.6,101.5l9.6,7.3c8,6.1,17.4,10.1,27.4,11.7l82.5,13.6l-33.6-18.8l69.3,19.1
	c0,0,36.1,9.1,32,20.9c0,0-4.1,32.8-14.7,55.7c-17.4,10.5-85.3,41.9-167.5,4.1c0,0-10.7-2.6-14.8-17.9c-1.2-5-2.2-10-2.9-15.1
	c-3.6-25.6,0-51.8,10.4-75.5L162.6,101.5z"/>
<g id="cheek">
	<path class="st13" d="M313.1,141.8c0,0,27,7.1,27,16.3s-5,21.8-6.5,24.3c0,0-13.8-14.8-26,0s5.6,31.1,17.9,24c0,0-0.1,5.4-2.9,6.5
		s16.5-5.2,19.5-11s7.3-10.5,8.1-50.2c-1.4-3-2.5-8-22.1-14.1c-10.5-3.3-33.2-10-45.5-12.9l-34-9.4l33.6,18.7l-70.4-11.6l-12.1-2.2
		c-3.6-0.6-7.1-1.7-10.5-3l-5.9-2.4c-2.9-1.2-5.7-2.7-8.2-4.5l-12.4-8.9l-1.3,3l5.6,6.6c5.8,6.7,13.2,11.9,21.5,15
		c2.3,0.9,4.7,1.6,7.1,2.2l19.7,3.6c3.7,0.8,7.5,1.4,11.2,1.7l57.4,4.6L313.1,141.8z"/>
	<circle class="st13" cx="175.4" cy="192.7" r="14.8"/>
</g>
<path id="eyes" class="st14" d="M195.5,152.4c13-0.8,23.5,9.9,23.5,9.9c2,6.9-5.9,6.3-5.9,6.3c0-3.1-11.8-7.7-11.8-7.7
	c-14.5-2.2-22.2,6.3-22.2,6.3s-4.1,3.3-6.6,0s1.5-6.3,1.5-6.3C180.1,155.9,187.6,152.9,195.5,152.4z M278.2,161.3
	c0,0-4.1,2.9-1.5,6.3s6.6,0,6.6,0s7.6-8.4,22.2-6.3c0,0,11.8,4.6,11.8,7.7c0,0,7.9,0.6,5.9-6.3c0,0-10.5-10.7-23.5-9.9
	C291.8,153.3,284.3,156.3,278.2,161.3z"/>
<path id="lips" class="st15" d="M268.9,202.2c0,0,3.9-3,1.5-6.4s-6.3,0-6.3,0s-7.2,8.7-21,6.4c0,0-11.1-4.8-11.1-8
	c0,0-7.5-0.6-5.6,6.5c0,0,9.9,11,22.2,10.2C256.1,210.4,263.3,207.3,268.9,202.2z"/>
<g id="hairdress">
	
		<linearGradient id="SVGID_3_" gradientUnits="userSpaceOnUse" x1="163.48" y1="278.3" x2="178.36" y2="278.3" gradientTransform="matrix(1 0 0 1 0 -226)">
		<stop  offset="0" style="stop-color:#FFFFFF"/>
		<stop  offset="0.52" style="stop-color:#C02B31"/>
		<stop  offset="0.97" style="stop-color:#BE1E2D"/>
	</linearGradient>
	<circle class="st16" cx="170.9" cy="52.3" r="7.4"/>
	
		<linearGradient id="SVGID_4_" gradientUnits="userSpaceOnUse" x1="175.5" y1="271.5" x2="190.38" y2="271.5" gradientTransform="matrix(1 0 0 1 0 -226)">
		<stop  offset="0" style="stop-color:#FFFFFF"/>
		<stop  offset="0.52" style="stop-color:#C02B31"/>
		<stop  offset="0.97" style="stop-color:#BE1E2D"/>
	</linearGradient>
	<circle class="st17" cx="182.9" cy="45.5" r="7.4"/>
	
		<linearGradient id="SVGID_5_" gradientUnits="userSpaceOnUse" x1="188.86" y1="267.9" x2="203.74" y2="267.9" gradientTransform="matrix(1 0 0 1 0 -226)">
		<stop  offset="0" style="stop-color:#FFFFFF"/>
		<stop  offset="0.52" style="stop-color:#C02B31"/>
		<stop  offset="0.97" style="stop-color:#BE1E2D"/>
	</linearGradient>
	<circle class="st18" cx="196.3" cy="41.9" r="7.4"/>
	
		<linearGradient id="SVGID_6_" gradientUnits="userSpaceOnUse" x1="202.32" y1="265" x2="217.2" y2="265" gradientTransform="matrix(1 0 0 1 0 -226)">
		<stop  offset="0" style="stop-color:#FFFFFF"/>
		<stop  offset="0.52" style="stop-color:#C02B31"/>
		<stop  offset="0.97" style="stop-color:#BE1E2D"/>
	</linearGradient>
	<circle class="st19" cx="209.8" cy="39" r="7.4"/>
	
		<linearGradient id="SVGID_7_" gradientUnits="userSpaceOnUse" x1="214.28" y1="261.4" x2="229.16" y2="261.4" gradientTransform="matrix(1 0 0 1 0 -226)">
		<stop  offset="0" style="stop-color:#FFFFFF"/>
		<stop  offset="0.52" style="stop-color:#C02B31"/>
		<stop  offset="0.97" style="stop-color:#BE1E2D"/>
	</linearGradient>
	<circle class="st20" cx="221.7" cy="35.4" r="7.4"/>
	
		<linearGradient id="SVGID_8_" gradientUnits="userSpaceOnUse" x1="282.87" y1="261.4" x2="297.75" y2="261.4" gradientTransform="matrix(1 0 0 1 0 -226)">
		<stop  offset="0" style="stop-color:#FFFFFF"/>
		<stop  offset="0.52" style="stop-color:#C02B31"/>
		<stop  offset="0.97" style="stop-color:#BE1E2D"/>
	</linearGradient>
	<circle class="st21" cx="290.3" cy="35.4" r="7.4"/>
	
		<linearGradient id="SVGID_9_" gradientUnits="userSpaceOnUse" x1="295.53" y1="265" x2="310.41" y2="265" gradientTransform="matrix(1 0 0 1 0 -226)">
		<stop  offset="0" style="stop-color:#FFFFFF"/>
		<stop  offset="0.52" style="stop-color:#C02B31"/>
		<stop  offset="0.97" style="stop-color:#BE1E2D"/>
	</linearGradient>
	<circle class="st22" cx="303" cy="39" r="7.4"/>
	
		<linearGradient id="SVGID_10_" gradientUnits="userSpaceOnUse" x1="307.05" y1="269.6" x2="321.93" y2="269.6" gradientTransform="matrix(1 0 0 1 0 -226)">
		<stop  offset="0" style="stop-color:#FFFFFF"/>
		<stop  offset="0.52" style="stop-color:#C02B31"/>
		<stop  offset="0.97" style="stop-color:#BE1E2D"/>
	</linearGradient>
	<circle class="st23" cx="314.5" cy="43.6" r="7.4"/>
	
		<linearGradient id="SVGID_11_" gradientUnits="userSpaceOnUse" x1="319.47" y1="275.3" x2="334.35" y2="275.3" gradientTransform="matrix(1 0 0 1 0 -226)">
		<stop  offset="0" style="stop-color:#FFFFFF"/>
		<stop  offset="0.52" style="stop-color:#C02B31"/>
		<stop  offset="0.97" style="stop-color:#BE1E2D"/>
	</linearGradient>
	<circle class="st24" cx="326.9" cy="49.3" r="7.4"/>
	
		<linearGradient id="SVGID_12_" gradientUnits="userSpaceOnUse" x1="329.92" y1="282.7" x2="344.8" y2="282.7" gradientTransform="matrix(1 0 0 1 0 -226)">
		<stop  offset="0" style="stop-color:#FFFFFF"/>
		<stop  offset="0.52" style="stop-color:#C02B31"/>
		<stop  offset="0.97" style="stop-color:#BE1E2D"/>
	</linearGradient>
	<circle class="st25" cx="337.4" cy="56.7" r="7.4"/>
	
		<linearGradient id="SVGID_13_" gradientUnits="userSpaceOnUse" x1="264.8" y1="258.6" x2="286.86" y2="258.6" gradientTransform="matrix(1 0 0 1 0 -226)">
		<stop  offset="0" style="stop-color:#FFFFFF"/>
		<stop  offset="0.52" style="stop-color:#C02B31"/>
		<stop  offset="0.97" style="stop-color:#BE1E2D"/>
	</linearGradient>
	<ellipse class="st26" cx="275.8" cy="32.6" rx="11" ry="10.9"/>
	
		<linearGradient id="SVGID_14_" gradientUnits="userSpaceOnUse" x1="224.66" y1="257.8" x2="246.72" y2="257.8" gradientTransform="matrix(1 0 0 1 0 -226)">
		<stop  offset="0" style="stop-color:#FFFFFF"/>
		<stop  offset="0.52" style="stop-color:#C02B31"/>
		<stop  offset="0.97" style="stop-color:#BE1E2D"/>
	</linearGradient>
	<ellipse class="st27" cx="235.7" cy="31.8" rx="11" ry="10.9"/>
	
		<linearGradient id="SVGID_15_" gradientUnits="userSpaceOnUse" x1="242.5" y1="257.6" x2="267.98" y2="257.6" gradientTransform="matrix(1 0 0 1 0 -226)">
		<stop  offset="0" style="stop-color:#FFFFFF"/>
		<stop  offset="0.52" style="stop-color:#C02B31"/>
		<stop  offset="0.97" style="stop-color:#BE1E2D"/>
	</linearGradient>
	<ellipse class="st28" cx="255.2" cy="31.6" rx="12.7" ry="12.5"/>
</g>
<g id="hips">
	<circle class="st29" cx="189.3" cy="374.2" r="6.2"/>
	<circle class="st29" cx="199.1" cy="377.2" r="6.2"/>
	<circle class="st29" cx="208.8" cy="380.2" r="6.2"/>
	<circle class="st29" cx="218.6" cy="383.2" r="6.2"/>
	<circle class="st29" cx="228.4" cy="386.2" r="6.2"/>
	<circle class="st29" cx="238.2" cy="389.2" r="6.2"/>
	<path class="st29" d="M316.8,377.4c-3.4,0-6.2-2.8-6.2-6.2s2.8-6.2,6.2-6.2"/>
	<circle class="st29" cx="307.1" cy="374.2" r="6.2"/>
	<circle class="st29" cx="297.3" cy="377.2" r="6.2"/>
	<circle class="st29" cx="287.5" cy="380.2" r="6.2"/>
	<circle class="st29" cx="277.7" cy="383.2" r="6.2"/>
	<circle class="st29" cx="267.9" cy="386.2" r="6.2"/>
	<ellipse class="st29" cx="258.1" cy="389.2" rx="6.2" ry="6.2"/>
	<circle class="st29" cx="248.4" cy="390" r="6.9"/>
</g>
<g id="drum">
	<path class="st30" d="M252.5,555.9h41.4c6.7,0,11.8-5.2,10.8-11L271,363.8c-0.9-4.6-5.4-8-10.8-8h-18c-5.4,0-10,3.5-10.8,8.1
		l-30,181.1c-0.9,5.7,4.1,10.8,10.8,10.8L252.5,555.9z"/>
	<path class="st31" d="M310.5,547.6h-116c-2.5,0-4.5-2-4.5-4.5v-3c0-2.5,2-4.5,4.5-4.5h116c2.5,0,4.5,2,4.5,4.5v3
		C315,545.6,313,547.6,310.5,547.6z"/>
	<polygon class="st32" points="300,546.6 301.3,546.6 302,545.6 301.3,544.6 300,544.6 299.3,545.6 	"/>
	<polygon class="st32" points="298.4,538.6 299.8,538.6 300.4,537.6 299.8,536.6 298.4,536.6 297.8,537.6 	"/>
	<polygon class="st32" points="204.8,546.6 206.2,546.6 206.8,545.6 206.2,544.6 204.8,544.6 204.1,545.6 	"/>
	<polygon class="st32" points="206.4,538.6 207.7,538.6 208.4,537.6 207.7,536.6 206.4,536.6 205.7,537.6 	"/>
	<path class="st31" d="M307.3,531.6H197.6c-2.5,0-4.5-2-4.5-4.5v-3c0-2.5,2-4.5,4.5-4.5h109.8c2.5,0,4.5,2,4.5,4.5v3
		C311.8,529.6,309.8,531.6,307.3,531.6z"/>
	<polygon class="st32" points="297.6,530.6 298.9,530.6 299.5,529.6 298.9,528.6 297.6,528.6 297,529.6 	"/>
	<polygon class="st32" points="296.1,522.6 297.4,522.6 298,521.6 297.4,520.6 296.1,520.6 295.5,521.6 	"/>
	<polygon class="st32" points="207.2,530.6 208.5,530.6 209.1,529.6 208.5,528.6 207.2,528.6 206.6,529.6 	"/>
	<polygon class="st32" points="208.7,522.6 209.9,522.6 210.6,521.6 209.9,520.6 208.7,520.6 208,521.6 	"/>
	<path class="st31" d="M304.2,517H200.7c-2.5,0-4.5-2-4.5-4.5v-3c0-2.5,2-4.5,4.5-4.5h103.5c2.5,0,4.5,2,4.5,4.5v3
		C308.7,515,306.7,517,304.2,517z"/>
	<polygon class="st32" points="295.2,516 296.4,516 297,515 296.4,514 295.2,514 294.6,515 	"/>
	<polygon class="st32" points="293.8,508 295,508 295.6,507 295,506 293.8,506 293.2,507 	"/>
	<polygon class="st32" points="209.6,516 210.8,516 211.4,515 210.8,514 209.6,514 209,515 	"/>
	<polygon class="st32" points="211,508 212.2,508 212.8,507 212.2,506 211,506 210.4,507 	"/>
	<path class="st33" d="M301.1,501h-97.2c-2.5,0-4.5-2-4.5-4.5v-3c0-2.5,2-4.5,4.5-4.5h97.2c2.5,0,4.5,2,4.5,4.5v3
		C305.6,499,303.6,501,301.1,501z"/>
	<polygon class="st32" points="292.8,500 294,500 294.5,499 294,498 292.8,498 292.3,499 	"/>
	<polygon class="st32" points="291.5,492 292.7,492 293.2,491 292.7,490 291.5,490 291,491 	"/>
	<polygon class="st32" points="212,500 213.1,500 213.7,499 213.1,498 212,498 211.4,499 	"/>
	<polygon class="st32" points="213.3,492 214.4,492 215,491 214.4,490 213.3,490 212.7,491 	"/>
	<path class="st33" d="M298,486.3h-91c-2.5,0-4.5-2-4.5-4.5v-3c0-2.5,2-4.5,4.5-4.5h91c2.5,0,4.5,2,4.5,4.5v3
		C302.5,484.3,300.5,486.3,298,486.3z"/>
	<polygon class="st32" points="290.5,485.3 291.5,485.3 292.1,484.3 291.5,483.3 290.5,483.3 289.9,484.3 	"/>
	<polygon class="st32" points="289.2,477.3 290.3,477.3 290.8,476.3 290.3,475.3 289.2,475.3 288.7,476.3 	"/>
	<polygon class="st32" points="214.3,485.3 215.4,485.3 216,484.3 215.4,483.3 214.3,483.3 213.8,484.3 	"/>
	<polygon class="st32" points="215.6,477.3 216.6,477.3 217.2,476.3 216.6,475.3 215.6,475.3 215,476.3 	"/>
	<path class="st33" d="M294.8,470.3H210c-2.5,0-4.5-2-4.5-4.5v-3c0-2.5,2-4.5,4.5-4.5h84.8c2.5,0,4.5,2,4.5,4.5v3
		C299.3,468.3,297.3,470.3,294.8,470.3z"/>
	<polygon class="st32" points="288.1,469.3 289.1,469.3 289.6,468.3 289.1,467.3 288.1,467.3 287.6,468.3 	"/>
	<polygon class="st32" points="286.9,461.3 287.9,461.3 288.4,460.3 287.9,459.3 286.9,459.3 286.4,460.3 	"/>
	<polygon class="st32" points="216.7,469.3 217.7,469.3 218.2,468.3 217.7,467.3 216.7,467.3 216.2,468.3 	"/>
	<polygon class="st32" points="217.9,461.3 218.9,461.3 219.4,460.3 218.9,459.3 217.9,459.3 217.4,460.3 	"/>
	<path class="st34" d="M291.7,455.6h-78.5c-2.5,0-4.5-2-4.5-4.5v-3c0-2.5,2-4.5,4.5-4.5h78.5c2.5,0,4.5,2,4.5,4.5v3
		C296.2,453.6,294.2,455.6,291.7,455.6z"/>
	<polygon class="st32" points="285.7,454.6 286.7,454.6 287.1,453.6 286.7,452.6 285.7,452.6 285.2,453.6 	"/>
	<polygon class="st32" points="284.6,446.6 285.6,446.6 286,445.6 285.6,444.6 284.6,444.6 284.2,445.6 	"/>
	<polygon class="st32" points="219.1,454.6 220.1,454.6 220.5,453.6 220.1,452.6 219.1,452.6 218.6,453.6 	"/>
	<polygon class="st32" points="220.2,446.6 221.1,446.6 221.6,445.6 221.1,444.6 220.2,444.6 219.7,445.6 	"/>
	<path class="st34" d="M288.6,439.6h-72.2c-2.5,0-4.5-2-4.5-4.5v-3c0-2.5,2-4.5,4.5-4.5h72.2c2.5,0,4.5,2,4.5,4.5v3
		C293.1,437.6,291.1,439.6,288.6,439.6z"/>
	<polygon class="st32" points="283.3,438.6 284.2,438.6 284.6,437.6 284.2,436.6 283.3,436.6 282.9,437.6 	"/>
	<polygon class="st32" points="282.3,430.6 283.2,430.6 283.7,429.6 283.2,428.6 282.3,428.6 281.9,429.6 	"/>
	<polygon class="st32" points="221.5,438.6 222.4,438.6 222.8,437.6 222.4,436.6 221.5,436.6 221.1,437.6 	"/>
	<polygon class="st32" points="222.5,430.6 223.4,430.6 223.8,429.6 223.4,428.6 222.5,428.6 222.1,429.6 	"/>
	<path class="st34" d="M285.1,425h-65.6c-2.5,0-4.5-2-4.5-4.5v-3c0-2.5,2-4.5,4.5-4.5h65.6c2.5,0,4.5,2,4.5,4.5v3
		C289.6,423,287.6,425,285.1,425z"/>
	<polygon class="st32" points="280.6,424 281.4,424 281.8,423 281.4,422 280.6,422 280.2,423 	"/>
	<polygon class="st32" points="279.7,416 280.5,416 280.9,415 280.5,414 279.7,414 279.3,415 	"/>
	<polygon class="st32" points="223.8,424 224.6,424 225,423 224.6,422 223.8,422 223.4,423 	"/>
	<polygon class="st32" points="224.7,416 225.6,416 225.9,415 225.6,414 224.7,414 224.4,415 	"/>
	<path class="st35" d="M282.3,409h-59.8c-2.5,0-4.5-2-4.5-4.5v-3c0-2.5,2-4.5,4.5-4.5h59.8c2.5,0,4.5,2,4.5,4.5v3
		C286.8,407,284.8,409,282.3,409z"/>
	<polygon class="st32" points="278.6,408 279.3,408 279.7,407 279.3,406 278.6,406 278.2,407 	"/>
	<polygon class="st32" points="277.8,400 278.5,400 278.9,399 278.5,398 277.8,398 277.4,399 	"/>
	<polygon class="st32" points="226.3,408 227,408 227.4,407 227,406 226.3,406 225.9,407 	"/>
	<polygon class="st32" points="227.1,400 227.8,400 228.2,399 227.8,398 227.1,398 226.7,399 	"/>
	<path class="st35" d="M279.2,393h-53.5c-2.5,0-4.5-2-4.5-4.5v-3c0-2.5,2-4.5,4.5-4.5h53.5c2.5,0,4.5,2,4.5,4.5v3
		C283.7,391,281.7,393,279.2,393z"/>
	<polygon class="st32" points="276.2,392 276.9,392 277.2,391 276.9,390 276.2,390 275.9,391 	"/>
	<polygon class="st32" points="275.5,384 276.1,384 276.5,383 276.1,382 275.5,382 275.1,383 	"/>
	<polygon class="st32" points="228.6,392 229.3,392 229.6,391 229.3,390 228.6,390 228.3,391 	"/>
	<polygon class="st32" points="229.4,384 230.1,384 230.4,383 230.1,382 229.4,382 229.1,383 	"/>
	<path class="st35" d="M276.1,378.3h-47.2c-2.5,0-4.5-2-4.5-4.5v-3c0-2.5,2-4.5,4.5-4.5h47.2c2.5,0,4.5,2,4.5,4.5v3
		C280.6,376.3,278.6,378.3,276.1,378.3z"/>
	<polygon class="st32" points="273.8,377.3 274.4,377.3 274.7,376.3 274.4,375.3 273.8,375.3 273.5,376.3 	"/>
	<polygon class="st32" points="273.2,369.3 273.8,369.3 274.1,368.3 273.8,367.3 273.2,367.3 272.9,368.3 	"/>
	<polygon class="st32" points="231,377.3 231.6,377.3 231.9,376.3 231.6,375.3 231,375.3 230.7,376.3 	"/>
	<polygon class="st32" points="231.7,369.3 232.3,369.3 232.6,368.3 232.3,367.3 231.7,367.3 231.4,368.3 	"/>
	<g>
		<line class="st36" x1="227.7" y1="503.2" x2="185.7" y2="455.7"/>
		
			<linearGradient id="SVGID_16_" gradientUnits="userSpaceOnUse" x1="1021.6911" y1="-94.8025" x2="1041.1511" y2="-94.8025" gradientTransform="matrix(-0.7496 0.6619 -0.6619 -0.7496 938.0124 -250.6191)">
			<stop  offset="0" style="stop-color:#FFE2A1"/>
			<stop  offset="7.000000e-02" style="stop-color:#FFECC2"/>
			<stop  offset="0.15" style="stop-color:#FFF4DD"/>
			<stop  offset="0.22" style="stop-color:#FFFAF0"/>
			<stop  offset="0.3" style="stop-color:#FFFEFB"/>
			<stop  offset="0.38" style="stop-color:#FFFFFF"/>
			<stop  offset="0.69" style="stop-color:#FFE2A1"/>
			<stop  offset="0.9" style="stop-color:#FFFFFF"/>
			<stop  offset="1" style="stop-color:#FFE2A1"/>
		</linearGradient>
		<path class="st37" d="M234.9,496.7c3.6,4,3.2,10.2-0.8,13.8s-10.2,3.2-13.8-0.9s-3.2-10.2,0.8-13.8
			C225.2,492.3,231.4,492.7,234.9,496.7z"/>
	</g>
	<g>
		<line class="st36" x1="274.4" y1="510" x2="308.2" y2="456.5"/>
		
			<linearGradient id="SVGID_17_" gradientUnits="userSpaceOnUse" x1="994.252" y1="-172.1621" x2="1013.712" y2="-172.1621" gradientTransform="matrix(0.8452 0.5345 0.5345 -0.8452 -482.1369 -172.1023)">
			<stop  offset="0" style="stop-color:#FFE2A1"/>
			<stop  offset="7.000000e-02" style="stop-color:#FFECC2"/>
			<stop  offset="0.15" style="stop-color:#FFF4DD"/>
			<stop  offset="0.22" style="stop-color:#FFFAF0"/>
			<stop  offset="0.3" style="stop-color:#FFFEFB"/>
			<stop  offset="0.38" style="stop-color:#FFFFFF"/>
			<stop  offset="0.69" style="stop-color:#FFE2A1"/>
			<stop  offset="0.9" style="stop-color:#FFFFFF"/>
			<stop  offset="1" style="stop-color:#FFE2A1"/>
		</linearGradient>
		<path class="st38" d="M282.6,515.2c-2.9,4.6-8.9,5.9-13.5,3.1s-5.9-8.9-3-13.5s8.9-5.9,13.5-3.1
			C284.1,504.6,285.5,510.6,282.6,515.2z"/>
	</g>
</g>
<g id="arms">
	<circle id="hand" class="st39" cx="304.8" cy="458.9" r="21.1"/>
	<circle id="hand_1_" class="st39" cx="189.2" cy="455" r="21.1"/>
	<g>
		<path id="Body-2_5_" class="st40" d="M207.2,429.7l-18.9-9.7c0,0-2.5-12.7-7.7-21.6c0,0-20.1-53.8-6.6-89c0,0,9.2-35-20-49.1
			c0,0-16.5-6.8-25.8,1.9c-26.9,33.6-23.9,89.4-13.6,111.4s42.4,60.2,42.4,60.2l3.7,35.8"/>
		<g>
			<circle class="st29" cx="209.7" cy="429.7" r="4.7"/>
			<circle class="st29" cx="203.9" cy="435.6" r="4.7"/>
			<circle class="st29" cx="198.8" cy="440.1" r="4.7"/>
			<circle class="st29" cx="191.9" cy="444.3" r="4.7"/>
			<circle class="st29" cx="186.6" cy="449.9" r="4.7"/>
			<circle class="st29" cx="180.6" cy="454" r="4.7"/>
			<circle class="st29" cx="176.3" cy="459.4" r="4.7"/>
			<circle class="st29" cx="171.4" cy="463.5" r="4.7"/>
			<circle class="st29" cx="165.2" cy="468.5" r="4.7"/>
		</g>
	</g>
	<g>
		<path id="Body-2_4_" class="st40" d="M339.2,468.8l4.6-34c0,0,39.7-35,50-63.5s4.1-73.8-22.7-107.5
			c-12.5-15.7-59.3-19.4-59.3-19.4c37.9,68.8,29.4,93.1,29.4,114c0,20.8-17.1,58.2-17.1,58.2l-25.6,8.9"/>
		<g>
			<ellipse class="st29" cx="299.1" cy="426.3" rx="4.7" ry="4.7"/>
			<circle class="st29" cx="304.1" cy="432.8" r="4.7"/>
			<circle class="st29" cx="308.6" cy="438" r="4.7"/>
			<circle class="st29" cx="314.9" cy="443.1" r="4.7"/>
			<circle class="st29" cx="319.3" cy="449.3" r="4.7"/>
			<circle class="st29" cx="324.8" cy="454.2" r="4.7"/>
			<circle class="st29" cx="328.4" cy="460.1" r="4.7"/>
			<circle class="st29" cx="332.7" cy="464.8" r="4.7"/>
			<circle class="st29" cx="338.2" cy="470.6" r="4.7"/>
		</g>
	</g>
</g>
<g id="coller">
	<path class="st41" d="M251.2,341.2c0,0,31.9-70.4,38-80.8c8-13.7,16.6-25.9,16.6-25.9c12.7-15.2,23.3-10.4,32.8-10.4l5.1,0.5
		c14.1,1.4,26.1,8.8,31.5,19.5l12.9,26.8c2,4,0.3,8.8-3.7,10.8c-0.2,0.1-0.3,0.2-0.5,0.2"/>
	<g id="beads">
		<circle class="st29" cx="386.8" cy="281.5" r="6.2"/>
		<circle class="st29" cx="375.9" cy="286.2" r="6.2"/>
		<circle class="st29" cx="365" cy="290.9" r="6.2"/>
		<circle class="st29" cx="354.2" cy="295.6" r="6.2"/>
		<circle class="st29" cx="343.3" cy="300.3" r="6.2"/>
		<circle class="st29" cx="332.4" cy="305" r="6.2"/>
		<circle class="st29" cx="322.5" cy="309.7" r="6.2"/>
		<circle class="st29" cx="311.6" cy="314.4" r="6.2"/>
		<circle class="st29" cx="300.8" cy="319.1" r="6.2"/>
		<circle class="st29" cx="290.9" cy="323.8" r="6.2"/>
		<circle class="st29" cx="280" cy="328.5" r="6.2"/>
		<circle class="st29" cx="269.1" cy="333.2" r="6.2"/>
		<circle class="st29" cx="259.2" cy="337.5" r="6.2"/>
	</g>
	<path class="st41" d="M114.8,281.9c-0.2-0.1-0.3-0.1-0.5-0.2c-4-2-5.6-6.8-3.7-10.8l12.9-26.8c5.4-10.7,17.5-18.1,31.5-19.5
		l5.1-0.5c9.5,0,20.1-4.8,32.8,10.4c0,0,8.6,12.1,16.6,25.9c6,10.4,38,80.8,38,80.8"/>
	<g id="beads-2">
		<circle class="st29" cx="112.7" cy="281.7" r="6.2"/>
		
			<ellipse transform="matrix(0.9951 -9.853768e-02 9.853768e-02 0.9951 -27.6197 13.5731)" class="st29" cx="123.6" cy="286.4" rx="6.2" ry="6.2"/>
		<circle class="st29" cx="134.5" cy="291.1" r="6.2"/>
		<circle class="st29" cx="145.3" cy="295.8" r="6.2"/>
		<circle class="st29" cx="156.2" cy="300.5" r="6.2"/>
		<circle class="st29" cx="167.1" cy="305.2" r="6.2"/>
		<circle class="st29" cx="176.9" cy="309.9" r="6.2"/>
		<circle class="st29" cx="187.8" cy="314.6" r="6.2"/>
		<circle class="st29" cx="198.7" cy="319.3" r="6.2"/>
		<circle class="st29" cx="208.6" cy="324" r="6.2"/>
		<circle class="st29" cx="219.4" cy="328.6" r="6.2"/>
		<circle class="st29" cx="230.3" cy="333.3" r="6.2"/>
		<circle class="st29" cx="240.3" cy="337.6" r="6.2"/>
	</g>
	
		<linearGradient id="SVGID_18_" gradientUnits="userSpaceOnUse" x1="236.66" y1="558.5" x2="262.14" y2="558.5" gradientTransform="matrix(1 0 0 1 0 -226)">
		<stop  offset="0" style="stop-color:#FFFFFF"/>
		<stop  offset="0.52" style="stop-color:#C02B31"/>
		<stop  offset="0.97" style="stop-color:#BE1E2D"/>
	</linearGradient>
	<ellipse class="st42" cx="249.4" cy="332.5" rx="12.7" ry="12.5"/>
</g>
</svg>
