<?xml version="1.0" encoding="utf-8"?>
<!-- Generator: Adobe Illustrator 24.0.0, SVG Export Plug-In . SVG Version: 6.00 Build 0)  -->
<svg version="1.1" id="Layer_1" xmlns="http://www.w3.org/2000/svg" xmlns:xlink="http://www.w3.org/1999/xlink" x="0px" y="0px"
	 viewBox="0 0 595.28 841.89" style="enable-background:new 0 0 595.28 841.89;" xml:space="preserve">
<style type="text/css">
	.st0{fill:none;}
	.st1{fill:#62B859;}
	.st2{fill:#99C884;}
	.st3{fill:url(#SVGID_1_);stroke:#310F2E;stroke-width:12;stroke-linecap:round;stroke-linejoin:round;stroke-miterlimit:10;}
	.st4{fill:#FBEDF3;}
	.st5{fill:#E1709C;stroke:#310F2E;stroke-width:12;stroke-linecap:round;stroke-linejoin:round;stroke-miterlimit:10;}
	.st6{fill:url(#SVGID_2_);stroke:#310F2E;stroke-width:12;stroke-linecap:round;stroke-linejoin:round;stroke-miterlimit:10;}
	.st7{fill:#F6C658;stroke:#310F2E;stroke-width:12;stroke-linecap:round;stroke-linejoin:round;stroke-miterlimit:10;}
	.st8{fill:#310F2E;}
	.st9{fill:#F6CFD7;}
	.st10{fill:#2B102E;}
	.st11{fill:#E05149;}
	.st12{fill:#DE4E8C;}
	.st13{fill:#F6C658;}
	.st14{fill:#E35A2B;}
	.st15{fill:#FBEDF3;stroke:#310F2E;stroke-width:12;stroke-linecap:round;stroke-linejoin:round;stroke-miterlimit:10;}
	.st16{fill:#FDEFD6;}
	.st17{fill:#2B0F2E;}
	.st18{fill:none;stroke:#EA4F1A;stroke-width:5.6;stroke-linecap:round;stroke-linejoin:round;stroke-miterlimit:10;}
	.st19{fill:url(#SVGID_3_);stroke:#310F2E;stroke-width:12;stroke-linecap:round;stroke-linejoin:round;stroke-miterlimit:10;}
</style>
<pattern  width="54.23" height="54.23" patternUnits="userSpaceOnUse" id="New_Pattern_Swatch_1" viewBox="0 -54.23 54.23 54.23" style="overflow:visible;">
	<g>
		<rect y="-54.23" class="st0" width="54.23" height="54.23"/>
		<rect x="0" y="-54.23" class="st1" width="54.23" height="54.23"/>
		<g>
			
				<ellipse transform="matrix(0.3546 -0.935 0.935 0.3546 49.8563 -13.8571)" class="st2" cx="14.89" cy="-43.04" rx="6.55" ry="4.06"/>
			
				<ellipse transform="matrix(0.987 -0.1604 0.1604 0.987 6.2307 1.2324)" class="st2" cx="10.75" cy="-37.97" rx="6.55" ry="4.06"/>
			
				<ellipse transform="matrix(0.7746 -0.6325 0.6325 0.7746 23.0842 1.089)" class="st2" cx="13.07" cy="-31.84" rx="4.06" ry="6.55"/>
			
				<ellipse transform="matrix(0.3546 -0.935 0.935 0.3546 41.3984 -1.6042)" class="st2" cx="19.54" cy="-30.79" rx="6.55" ry="4.06"/>
			<ellipse transform="matrix(0.987 -0.1604 0.1604 0.987 6.061 3.3349)" class="st2" cx="23.68" cy="-35.86" rx="6.55" ry="4.06"/>
			
				<ellipse transform="matrix(0.7746 -0.6325 0.6325 0.7746 31.3723 4.043)" class="st2" cx="21.36" cy="-41.99" rx="4.06" ry="6.55"/>
		</g>
		<circle class="st2" cx="40.44" cy="-12.86" r="3.69"/>
	</g>
</pattern>
<pattern  id="SVGID_1_" xlink:href="#New_Pattern_Swatch_1" patternTransform="matrix(0.81 -0.5864 -0.5864 -0.81 -5501.4824 -17232.6953)">
</pattern>
<path class="st3" d="M265.14,547.25c19.87-17.45,21.29-33.84,3.92-82.11c-11.95-33.2-32.47-55.31-67.64-80.84l-118.33,91.9
	c0,0,39.74,38.55,76.25,69.05C183.47,565.42,245.27,564.7,265.14,547.25z"/>
<path class="st4" d="M363.8,361.61c0,0-76.76,2.59-94.86,0s37.51,62.02,48.98,60.96C329.4,421.52,362.82,379.56,363.8,361.61z"/>
<path class="st5" d="M268.94,361.61l30.24-0.08l17.17,42.72C316.35,404.26,304.64,418.85,268.94,361.61"/>
<path class="st5" d="M363.76,361.61l-30.24-0.08l-17.17,42.72C316.35,404.26,328.06,418.85,363.76,361.61"/>
<pattern  id="SVGID_2_" xlink:href="#New_Pattern_Swatch_1" patternTransform="matrix(1 0 0 1 7.4286 -78.4106)">
</pattern>
<path class="st6" d="M195.05,396.05c0,0-21.31,215.23-9.24,310.39c0,0,124.06,58.11,267.89-9.01c0,0,0.52-255.17-22.98-305.37
	c0,0-12.73-24.46-57.33-30.39c-15.08-2-43.28,47.97-59.91,47.97c-8.21,0-43.96-48.69-51.42-48
	C209.67,366.48,195.05,396.05,195.05,396.05z"/>
<path class="st7" d="M443.1,569.49H188.14c0,0-9,0-9-49.51s9-49.51,9-49.51H443.1c0,0,11.08,12.21,11.08,53.82
	C454.18,565.89,443.1,569.49,443.1,569.49z"/>
<path id="hair_5_" class="st8" d="M166.59,225.3c0,0,19.26-48.35,50.55-70.47c0,0,26.89-22.29,82.04-24.37
	c48.41-1.83,79.57-3.21,106.28,10.74c25.92,13.54,57.02,43.36,61.89,84.09c0,0,18.55,78.26-52.35,116.05
	c-31.3,16.69-59.21,25.31-98.65,25.67c-58.36,0-65.51-8-103.49-21.74C212.86,345.27,134.29,313.78,166.59,225.3z"/>
<path id="face_5_" class="st4" d="M237.05,248.28v-31.66c0,0,29.71-16.41,80.87-16.41s71.3,16.41,71.3,16.41v31.66h22.98
	c0,0,9,1.46,8.17,13.79c0,0,0.05,55.92-15.83,69.96c-12.49,12.49-85.28,41.87-167.49,4.09c0,0-10.72-2.55-14.81-17.87
	c-4.09-15.32-11.8-53.19-8.74-66.56C213.51,251.67,222.46,250.25,237.05,248.28z"/>
<path class="st9" d="M243.36,213.6c0,0-0.92,0.31-4.35,1.66c-1.77,0.7-2.96,1.15-2.89,3.06l0.93,29.96l-23.55,3.39
	c0,0-2.78,11.68,0.56,24.69c0.43,1.66,0.46-13.02,4.84-18.7c0,0,10.97-0.3,14.06-0.19c3.88,0.14,11.79-2.45,11.79-6.29L243.36,213.6
	z"/>
<path class="st9" d="M381.17,211.9c0,0,3,1.29,5.74,3.09c1.59,1.05,2.89,1.35,2.83,3.25l0.06,29.64l20.92,0.39
	c0,0,9.01-0.25,9.71,7.02c0.76,7.93-0.65,22.17-0.65,22.17c-1.78,1.42-6.44-17.1-6.44-17.1c-0.64-4.03-18-3.25-20.38-3.17
	c-3.88,0.14-11.79-2.45-11.79-6.29V211.9z"/>
<circle class="st9" cx="244.76" cy="313.68" r="14.81"/>
<circle class="st9" cx="394.5" cy="313.68" r="14.81"/>
<path id="eyes_3_" class="st10" d="M264.88,276.4c13.02-0.77,23.49,9.94,23.49,9.94c2.05,6.89-5.87,6.33-5.87,6.33
	c0-3.12-11.75-7.73-11.75-7.73c-14.55-2.17-22.21,6.27-22.21,6.27s-4.08,3.32-6.64,0s1.53-6.26,1.53-6.26
	S251.86,277.16,264.88,276.4z M347.65,285.31c0,0-4.08,2.94-1.53,6.26s6.64,0,6.64,0s7.65-8.44,22.21-6.27
	c0,0,11.75,4.61,11.75,7.73c0,0,7.92,0.56,5.87-6.33c0,0-10.47-10.7-23.49-9.94C356.07,277.52,347.65,285.31,347.65,285.31z"/>
<path id="mouse_3_" class="st11" d="M338.23,323.17c0,0,3.87-3.03,1.45-6.44c-2.42-3.42-6.28,0-6.28,0s-7.25,8.68-21.02,6.44
	c0,0-11.11-4.75-11.11-7.96c0,0-7.49-0.58-5.56,6.51c0,0,9.9,11.02,22.23,10.24C330.25,331.18,338.23,323.17,338.23,323.17z"/>
<ellipse transform="matrix(0.9522 -0.3055 0.3055 0.9522 -79.499 77.382)" class="st4" cx="207.48" cy="292.69" rx="13.32" ry="20.57"/>
<ellipse transform="matrix(0.1736 -0.9848 0.9848 0.1736 65.1848 663.0562)" class="st4" cx="427.69" cy="292.69" rx="20.57" ry="13.32"/>
<ellipse class="st8" cx="317.63" cy="120.69" rx="79.29" ry="42.71"/>
<g>
	<g>
		<ellipse class="st12" cx="378.37" cy="130.49" rx="4.44" ry="14.79"/>
		
			<ellipse transform="matrix(0.9397 -0.342 0.342 0.9397 -22.4222 135.6039)" class="st12" cx="373.31" cy="131.38" rx="4.44" ry="14.79"/>
		
			<ellipse transform="matrix(0.766 -0.6428 0.6428 0.766 0.1949 268.4397)" class="st12" cx="368.86" cy="133.95" rx="4.44" ry="14.79"/>
		<ellipse transform="matrix(0.5 -0.866 0.866 0.5 63.3659 385.529)" class="st12" cx="365.56" cy="137.89" rx="4.44" ry="14.79"/>
		
			<ellipse transform="matrix(0.1736 -0.9848 0.9848 0.1736 160.0819 476.2102)" class="st12" cx="363.8" cy="142.72" rx="4.44" ry="14.79"/>
		
			<ellipse transform="matrix(0.9848 -0.1736 0.1736 0.9848 -20.1476 65.4201)" class="st12" cx="363.8" cy="147.85" rx="14.79" ry="4.44"/>
		
			<ellipse transform="matrix(0.866 -0.5 0.5 0.866 -27.3651 203.2359)" class="st12" cx="365.56" cy="152.68" rx="14.79" ry="4.44"/>
		
			<ellipse transform="matrix(0.6428 -0.766 0.766 0.6428 11.7865 338.5115)" class="st12" cx="368.86" cy="156.62" rx="14.79" ry="4.44"/>
		
			<ellipse transform="matrix(0.342 -0.9397 0.9397 0.342 96.0459 455.541)" class="st12" cx="373.31" cy="159.19" rx="14.79" ry="4.44"/>
		<ellipse class="st12" cx="378.37" cy="160.08" rx="4.44" ry="14.79"/>
		
			<ellipse transform="matrix(0.9397 -0.342 0.342 0.9397 -31.3212 140.7418)" class="st12" cx="383.43" cy="159.19" rx="4.44" ry="14.79"/>
		
			<ellipse transform="matrix(0.766 -0.6428 0.6428 0.766 -9.9248 285.9674)" class="st12" cx="387.88" cy="156.62" rx="4.44" ry="14.79"/>
		<ellipse transform="matrix(0.5 -0.866 0.866 0.5 63.3659 415.1168)" class="st12" cx="391.18" cy="152.68" rx="4.44" ry="14.79"/>
		
			<ellipse transform="matrix(0.1736 -0.9848 0.9848 0.1736 179.1006 509.1515)" class="st12" cx="392.94" cy="147.85" rx="4.44" ry="14.79"/>
		
			<ellipse transform="matrix(0.9848 -0.1736 0.1736 0.9848 -18.8127 70.4018)" class="st12" cx="392.94" cy="142.72" rx="14.79" ry="4.44"/>
		
			<ellipse transform="matrix(0.866 -0.5 0.5 0.866 -16.5352 214.0658)" class="st12" cx="391.18" cy="137.89" rx="14.79" ry="4.44"/>
		
			<ellipse transform="matrix(0.6428 -0.766 0.766 0.6428 35.943 344.9843)" class="st12" cx="387.88" cy="133.95" rx="14.79" ry="4.44"/>
		
			<ellipse transform="matrix(0.342 -0.9397 0.9397 0.342 128.831 446.7562)" class="st12" cx="383.43" cy="131.38" rx="14.79" ry="4.44"/>
	</g>
	<circle class="st13" cx="378.37" cy="145.28" r="7.85"/>
</g>
<g>
	<g>
		<ellipse class="st14" cx="426.14" cy="141.82" rx="4.44" ry="14.79"/>
		
			<ellipse transform="matrix(0.9397 -0.342 0.342 0.9397 -23.4174 152.6254)" class="st14" cx="421.08" cy="142.72" rx="4.44" ry="14.79"/>
		
			<ellipse transform="matrix(0.766 -0.6428 0.6428 0.766 4.0862 301.7965)" class="st14" cx="416.63" cy="145.28" rx="4.44" ry="14.79"/>
		<ellipse transform="matrix(0.5 -0.866 0.866 0.5 77.4361 432.5648)" class="st14" cx="413.33" cy="149.22" rx="4.44" ry="14.79"/>
		
			<ellipse transform="matrix(0.1736 -0.9848 0.9848 0.1736 188.3956 532.6187)" class="st14" cx="411.57" cy="154.05" rx="4.44" ry="14.79"/>
		
			<ellipse transform="matrix(0.9848 -0.1736 0.1736 0.9848 -21.3898 73.8873)" class="st14" cx="411.57" cy="159.19" rx="14.79" ry="4.44"/>
		
			<ellipse transform="matrix(0.866 -0.5 0.5 0.866 -26.6316 228.6389)" class="st14" cx="413.33" cy="164.01" rx="14.79" ry="4.44"/>
		
			<ellipse transform="matrix(0.6428 -0.766 0.766 0.6428 20.1688 379.1531)" class="st14" cx="416.63" cy="167.95" rx="14.79" ry="4.44"/>
		
			<ellipse transform="matrix(0.342 -0.9397 0.9397 0.342 116.8278 507.8862)" class="st14" cx="421.08" cy="170.52" rx="14.79" ry="4.44"/>
		<ellipse class="st14" cx="426.14" cy="171.41" rx="4.44" ry="14.79"/>
		
			<ellipse transform="matrix(0.9397 -0.342 0.342 0.9397 -32.3164 157.7633)" class="st14" cx="431.2" cy="170.52" rx="4.44" ry="14.79"/>
		
			<ellipse transform="matrix(0.766 -0.6428 0.6428 0.766 -6.0334 319.3242)" class="st14" cx="435.65" cy="167.95" rx="4.44" ry="14.79"/>
		<ellipse transform="matrix(0.5 -0.866 0.866 0.5 77.4361 462.1526)" class="st14" cx="438.95" cy="164.01" rx="4.44" ry="14.79"/>
		
			<ellipse transform="matrix(0.1736 -0.9848 0.9848 0.1736 207.4142 565.5599)" class="st14" cx="440.71" cy="159.19" rx="4.44" ry="14.79"/>
		
			<ellipse transform="matrix(0.9848 -0.1736 0.1736 0.9848 -20.0549 78.869)" class="st14" cx="440.71" cy="154.05" rx="14.79" ry="4.44"/>
		
			<ellipse transform="matrix(0.866 -0.5 0.5 0.866 -15.8017 239.4688)" class="st14" cx="438.95" cy="149.22" rx="14.79" ry="4.44"/>
		
			<ellipse transform="matrix(0.6428 -0.766 0.766 0.6428 44.3253 385.6259)" class="st14" cx="435.65" cy="145.28" rx="14.79" ry="4.44"/>
		
			<ellipse transform="matrix(0.342 -0.9397 0.9397 0.342 149.6129 499.1014)" class="st14" cx="431.2" cy="142.72" rx="14.79" ry="4.44"/>
	</g>
	<circle class="st13" cx="426.14" cy="156.62" r="7.85"/>
</g>
<path class="st9" d="M239.02,215.26c0,0,28.66-15.05,78.91-15.05s71.8,16.03,71.8,16.03s-2.19,7.58-6.3,5.86
	c-14.34-6-29.67-15.69-67.08-15.2c-31.19,0.41-76.08,15.2-76.08,15.2L239.02,215.26z"/>
<circle class="st15" cx="117.13" cy="432.81" r="19.26"/>
<g>
	
		<ellipse transform="matrix(0.9765 -0.2155 0.2155 0.9765 -99.9912 43.4975)" class="st16" cx="149.45" cy="480.23" rx="36.1" ry="80.49"/>
	<polygon class="st17" points="219.38,464.79 334.8,359.23 368.51,511.97 	"/>
	
		<ellipse transform="matrix(0.9765 -0.2155 0.2155 0.9765 -85.1173 85.9703)" class="st16" cx="351.63" cy="433.26" rx="36.1" ry="80.49"/>
	<circle class="st17" cx="249.3" cy="458.19" r="36.46"/>
	<path class="st17" d="M171.99,554.6l114.35-104.58l-147.75-46.74l-0.16-0.71c-0.36,0.08-0.71,0.19-1.05,0.33l-0.18-0.06l0.03,0.12
		c-11.24,4.78-13.2,40.13-4.21,80.9c9,40.76,25.66,72.01,37.87,71.61l0.03,0.12l0.14-0.12c0.37-0.02,0.73-0.07,1.09-0.15
		L171.99,554.6z"/>
	<path class="st18" d="M156.9,545.11c0,0-6.6,1.85-6.64,9.64c-0.04,7.79,11.89,0.23,14.5-5.17l80.53-76.89l92.37,12.19
		c0,0,7.16-0.38,5.03-2.72"/>
	<path class="st18" d="M325.04,455.09c0,0-3.67,5.23-7.84,4.55s-71.92,13.06-71.92,13.06l-100.33,58.74c0,0-12.8,4.43-9.34-3.57"/>
	<path class="st18" d="M128.73,502.04c0,0-1.74,9.63,9.28,4.39s104.43-37.53,104.43-37.53l73.94-27.85c0,0,5.79-2.61,4.6-4.36"/>
	<path class="st18" d="M314.66,417.17c0,0-3.62-0.01-8.48,3.48c-4.86,3.49-58.89,35.65-58.89,35.65l-120.73,23.3
		c0,0-6.99-4.04-1.86-8.44"/>
	<path class="st18" d="M124.21,443.92c0,0-6.19-6.68,5.14-6.36c11.33,0.31,112.35,9.79,112.35,9.79l70.12-52.47c0,0,3.09-3.9,4.53-1
		"/>
	<path class="st18" d="M319.54,376.28c0,0-4.78-4.02-8.27,1.83s-66.04,54.26-66.04,54.26L129.38,416c0,0-11.26-2.99-9.44,2.08"/>
	<path class="st18" d="M331.35,361.61c0,0-2.23-5.64-4.94-2.87"/>
	<path class="st18" d="M356.65,366.88c0,0,3.98-5.9,0.73-5.79"/>
	<path class="st18" d="M370.54,387.94c0,0,4.11-5.09,1.93-5.85"/>
	<path class="st18" d="M380.14,414.78c0,0,8.13,0.12,5.7-1.26"/>
	<path class="st18" d="M386.07,441.62c0,0,6.57,1.4,5.53,5.21"/>
	<path class="st18" d="M385.58,474.31c0,0,4.67,1.77,3.78,6.23"/>
	<path class="st18" d="M374.52,498.86c0,0,5.53,2.14,3.63,7.71"/>
	<path class="st18" d="M355.48,498.24c0,0-0.46,8.81-5.28,7.93"/>
	<path class="st18" d="M230.75,423.22c0,0-1.86,42.6,14.26,64.6c0,0-12.56-58.54-4.26-68.41c0,0,5.76,58.8,12.24,69.96
		c0,0-6.01-61.86-5.01-68.23c0,0,15.77,56.88,13.06,66.45c0,0,0.66-55.29-5.77-68.06c0,0,15.4,49.72,11.91,66.71
		c0,0-1.68-53.17-7.31-67.72"/>
</g>
<circle class="st15" cx="348.56" cy="434.78" r="19.26"/>
<pattern  id="SVGID_3_" xlink:href="#New_Pattern_Swatch_1" patternTransform="matrix(0.81 -0.5864 -0.5864 -0.81 -5509.3452 -17191.3828)">
</pattern>
<path class="st19" d="M496.57,549.22c19.87-17.45,21.29-33.84,3.92-82.11c-11.95-33.2-32.47-55.31-67.64-80.84l-118.33,91.9
	c0,0,39.74,38.55,76.25,69.05C414.89,567.39,476.7,566.67,496.57,549.22z"/>
</svg>
