<?xml version="1.0" encoding="utf-8"?>
<!-- Generator: Adobe Illustrator 24.0.0, SVG Export Plug-In . SVG Version: 6.00 Build 0)  -->
<svg version="1.1" id="Layer_1" xmlns="http://www.w3.org/2000/svg" xmlns:xlink="http://www.w3.org/1999/xlink" x="0px" y="0px"
	 viewBox="0 0 595.3 841.9" style="enable-background:new 0 0 595.3 841.9;" xml:space="preserve">
<style type="text/css">
	.st0{fill:none;}
	.st1{fill:#62B859;}
	.st2{fill:#99C884;}
	.st3{fill:#FBEDF3;}
	.st4{fill:#E1709C;stroke:#310F2E;stroke-width:10;stroke-linecap:round;stroke-linejoin:round;stroke-miterlimit:10;}
	.st5{fill:url(#SVGID_4_);stroke:#310F2E;stroke-width:10;stroke-linecap:round;stroke-linejoin:round;stroke-miterlimit:10;}
	.st6{fill:#F6C658;stroke:#310F2E;stroke-width:10;stroke-linecap:round;stroke-linejoin:round;stroke-miterlimit:10;}
	.st7{fill:#310F2E;}
	.st8{fill:#F6CFD7;}
	.st9{fill:#2B102E;}
	.st10{fill:#E05149;}
	.st11{fill:#DE4E8C;}
	.st12{fill:#F6C658;}
	.st13{fill:#E35A2B;}
	.st14{fill:#5F3819;}
	.st15{fill:#C2996C;}
	.st16{fill:#FBEDF3;stroke:#310F2E;stroke-width:10;stroke-linecap:round;stroke-linejoin:round;stroke-miterlimit:10;}
	.st17{fill:url(#SVGID_5_);stroke:#310F2E;stroke-width:10;stroke-linecap:round;stroke-linejoin:round;stroke-miterlimit:10;}
	.st18{fill:url(#SVGID_6_);stroke:#310F2E;stroke-width:10;stroke-linecap:round;stroke-linejoin:round;stroke-miterlimit:10;}
</style>
<pattern  y="841.9" width="54.2" height="54.2" patternUnits="userSpaceOnUse" id="SVGID_1_" viewBox="0 -54.2 54.2 54.2" style="overflow:visible;">
	<g>
		<rect y="-54.2" class="st0" width="54.2" height="54.2"/>
		<g>
			<rect y="-54.2" class="st0" width="54.2" height="54.2"/>
			<rect y="-54.2" class="st1" width="54.2" height="54.2"/>
			<g>
				<ellipse transform="matrix(0.3546 -0.935 0.935 0.3546 20.0741 6.7049)" class="st2" cx="14.9" cy="-11.2" rx="6.5" ry="4.1"/>
				<ellipse transform="matrix(0.9871 -0.1604 0.1604 0.9871 2.7477 1.5139)" class="st2" cx="10.8" cy="-16.3" rx="6.5" ry="4.1"/>
				
					<ellipse transform="matrix(0.7746 -0.6325 0.6325 0.7746 17.1067 3.2192)" class="st2" cx="13.1" cy="-22.4" rx="4.1" ry="6.6"/>
				<ellipse transform="matrix(0.3546 -0.935 0.935 0.3546 34.5248 3.1423)" class="st2" cx="19.5" cy="-23.4" rx="6.5" ry="4.1"/>
				<ellipse transform="matrix(0.9871 -0.1604 0.1604 0.9871 3.2538 3.5607)" class="st2" cx="23.7" cy="-18.4" rx="6.5" ry="4.1"/>
				
					<ellipse transform="matrix(0.7746 -0.6325 0.6325 0.7746 12.5547 10.7506)" class="st2" cx="21.4" cy="-12.2" rx="4.1" ry="6.6"/>
			</g>
			<circle class="st2" cx="40.4" cy="-41.4" r="3.7"/>
		</g>
	</g>
</pattern>
<pattern  y="841.9" width="54.2" height="54.2" patternUnits="userSpaceOnUse" id="SVGID_2_" viewBox="0 -54.2 54.2 54.2" style="overflow:visible;">
	<g>
		<rect y="-54.2" class="st0" width="54.2" height="54.2"/>
		<g>
			<rect y="-54.2" class="st0" width="54.2" height="54.2"/>
			<rect y="-54.2" class="st1" width="54.2" height="54.2"/>
			<g>
				<ellipse transform="matrix(0.3546 -0.935 0.935 0.3546 20.0741 6.7049)" class="st2" cx="14.9" cy="-11.2" rx="6.5" ry="4.1"/>
				<ellipse transform="matrix(0.9871 -0.1604 0.1604 0.9871 2.7477 1.5139)" class="st2" cx="10.8" cy="-16.3" rx="6.5" ry="4.1"/>
				
					<ellipse transform="matrix(0.7746 -0.6325 0.6325 0.7746 17.1067 3.2192)" class="st2" cx="13.1" cy="-22.4" rx="4.1" ry="6.6"/>
				<ellipse transform="matrix(0.3546 -0.935 0.935 0.3546 34.5248 3.1423)" class="st2" cx="19.5" cy="-23.4" rx="6.5" ry="4.1"/>
				<ellipse transform="matrix(0.9871 -0.1604 0.1604 0.9871 3.2538 3.5607)" class="st2" cx="23.7" cy="-18.4" rx="6.5" ry="4.1"/>
				
					<ellipse transform="matrix(0.7746 -0.6325 0.6325 0.7746 12.5547 10.7506)" class="st2" cx="21.4" cy="-12.2" rx="4.1" ry="6.6"/>
			</g>
			<circle class="st2" cx="40.4" cy="-41.4" r="3.7"/>
		</g>
	</g>
</pattern>
<pattern  y="841.9" width="54.2" height="54.2" patternUnits="userSpaceOnUse" id="SVGID_3_" viewBox="0 -54.2 54.2 54.2" style="overflow:visible;">
	<g>
		<rect y="-54.2" class="st0" width="54.2" height="54.2"/>
		<g>
			<rect y="-54.2" class="st0" width="54.2" height="54.2"/>
			<rect y="-54.2" class="st1" width="54.2" height="54.2"/>
			<g>
				<ellipse transform="matrix(0.3546 -0.935 0.935 0.3546 20.0741 6.7049)" class="st2" cx="14.9" cy="-11.2" rx="6.5" ry="4.1"/>
				<ellipse transform="matrix(0.9871 -0.1604 0.1604 0.9871 2.7477 1.5139)" class="st2" cx="10.8" cy="-16.3" rx="6.5" ry="4.1"/>
				
					<ellipse transform="matrix(0.7746 -0.6325 0.6325 0.7746 17.1067 3.2192)" class="st2" cx="13.1" cy="-22.4" rx="4.1" ry="6.6"/>
				<ellipse transform="matrix(0.3546 -0.935 0.935 0.3546 34.5248 3.1423)" class="st2" cx="19.5" cy="-23.4" rx="6.5" ry="4.1"/>
				<ellipse transform="matrix(0.9871 -0.1604 0.1604 0.9871 3.2538 3.5607)" class="st2" cx="23.7" cy="-18.4" rx="6.5" ry="4.1"/>
				
					<ellipse transform="matrix(0.7746 -0.6325 0.6325 0.7746 12.5547 10.7506)" class="st2" cx="21.4" cy="-12.2" rx="4.1" ry="6.6"/>
			</g>
			<circle class="st2" cx="40.4" cy="-41.4" r="3.7"/>
		</g>
	</g>
</pattern>
<path class="st3" d="M383.3,361.6c0,0-76.8,2.6-94.9,0s37.5,62,49,61C348.9,421.5,382.3,379.6,383.3,361.6z"/>
<path class="st4" d="M288.4,361.6l30.2-0.1l17.2,42.7C335.8,404.3,324.1,418.9,288.4,361.6"/>
<path class="st4" d="M383.2,361.6l-30.2-0.1l-17.2,42.7C335.8,404.3,347.5,418.9,383.2,361.6"/>
<pattern  id="SVGID_4_" xlink:href="#SVGID_1_" patternTransform="matrix(1 0 0 -1 -17.0678 -16218.5195)">
</pattern>
<path class="st5" d="M214.5,396c0,0-21.3,215.2-9.2,310.4c0,0,124.1,58.1,267.9-9c0,0,0.5-255.2-23-305.4c0,0-12.7-24.5-57.3-30.4
	c-15.1-2-43.3,48-59.9,48c-8.2,0-44-48.7-51.4-48C229.2,366.5,214.5,396,214.5,396z"/>
<path class="st6" d="M462.6,569.5h-255c0,0-9,0-9-49.5s9-49.5,9-49.5h255c0,0,11.1,12.2,11.1,53.8
	C473.7,565.9,462.6,569.5,462.6,569.5z"/>
<path id="hair_9_" class="st7" d="M186.1,225.3c0,0,19.3-48.3,50.6-70.5c0,0,26.9-22.3,82-24.4c48.4-1.8,79.6-3.2,106.3,10.7
	c25.9,13.5,57,43.4,61.9,84.1c0,0,18.5,78.3-52.4,116.1c-31.3,16.7-59.2,25.3-98.6,25.7c-58.4,0-65.5-8-103.5-21.7
	C232.4,345.3,153.8,313.8,186.1,225.3z"/>
<path id="face_9_" class="st3" d="M256.5,248.3v-31.7c0,0,29.7-16.4,80.9-16.4s71.3,16.4,71.3,16.4v31.7h23c0,0,9,1.5,8.2,13.8
	c0,0,0,55.9-15.8,70c-12.5,12.5-85.3,41.9-167.5,4.1c0,0-10.7-2.5-14.8-17.9s-11.8-53.2-8.7-66.6C233,251.7,241.9,250.2,256.5,248.3
	z"/>
<path class="st8" d="M262.9,213.6c0,0-0.9,0.3-4.4,1.7c-1.8,0.7-3,1.1-2.9,3.1l0.9,30l-23.5,3.4c0,0-2.8,11.7,0.6,24.7
	c0.4,1.7,0.5-13,4.8-18.7c0,0,11-0.3,14.1-0.2c3.9,0.1,11.8-2.4,11.8-6.3L262.9,213.6z"/>
<path class="st8" d="M400.7,211.9c0,0,3,1.3,5.7,3.1c1.6,1.1,2.9,1.4,2.8,3.2l0.1,29.6l20.9,0.4c0,0,9-0.2,9.7,7
	c0.8,7.9-0.6,22.2-0.6,22.2c-1.8,1.4-6.4-17.1-6.4-17.1c-0.6-4-18-3.2-20.4-3.2c-3.9,0.1-11.8-2.4-11.8-6.3L400.7,211.9L400.7,211.9
	z"/>
<circle class="st8" cx="264.2" cy="313.7" r="14.8"/>
<circle class="st8" cx="414" cy="313.7" r="14.8"/>
<path id="eyes_4_" class="st9" d="M284.4,276.4c13-0.8,23.5,9.9,23.5,9.9c2,6.9-5.9,6.3-5.9,6.3c0-3.1-11.8-7.7-11.8-7.7
	c-14.5-2.2-22.2,6.3-22.2,6.3s-4.1,3.3-6.6,0s1.5-6.3,1.5-6.3S271.4,277.2,284.4,276.4z M367.1,285.3c0,0-4.1,2.9-1.5,6.3
	s6.6,0,6.6,0s7.6-8.4,22.2-6.3c0,0,11.8,4.6,11.8,7.7c0,0,7.9,0.6,5.9-6.3c0,0-10.5-10.7-23.5-9.9
	C375.6,277.5,367.1,285.3,367.1,285.3z"/>
<path id="mouse_4_" class="st10" d="M357.7,323.2c0,0,3.9-3,1.5-6.4c-2.4-3.4-6.3,0-6.3,0s-7.2,8.7-21,6.4c0,0-11.1-4.8-11.1-8
	c0,0-7.5-0.6-5.6,6.5c0,0,9.9,11,22.2,10.2C349.7,331.2,357.7,323.2,357.7,323.2z"/>
<ellipse transform="matrix(0.9522 -0.3055 0.3055 0.9522 -78.5672 83.3319)" class="st3" cx="227" cy="292.7" rx="13.3" ry="20.6"/>
<ellipse transform="matrix(0.1736 -0.9848 0.9848 0.1736 81.2994 682.2393)" class="st3" cx="447.2" cy="292.7" rx="20.6" ry="13.3"/>
<ellipse class="st7" cx="337.1" cy="120.7" rx="79.3" ry="42.7"/>
<g>
	<g>
		<ellipse class="st11" cx="397.9" cy="130.5" rx="4.4" ry="14.8"/>
		
			<ellipse transform="matrix(0.9397 -0.342 0.342 0.9397 -21.2495 142.2602)" class="st11" cx="392.8" cy="131.4" rx="4.4" ry="14.8"/>
		
			<ellipse transform="matrix(0.766 -0.6428 0.6428 0.766 4.7626 280.9669)" class="st11" cx="388.3" cy="133.9" rx="4.4" ry="14.8"/>
		<ellipse transform="matrix(0.5 -0.866 0.866 0.5 73.097 402.407)" class="st11" cx="385" cy="137.9" rx="4.4" ry="14.8"/>
		
			<ellipse transform="matrix(0.1736 -0.9848 0.9848 0.1736 176.1903 495.3965)" class="st11" cx="383.3" cy="142.7" rx="4.4" ry="14.8"/>
		
			<ellipse transform="matrix(0.9848 -0.1736 0.1736 0.9848 -19.8505 68.7836)" class="st11" cx="383.3" cy="147.9" rx="14.8" ry="4.4"/>
		<ellipse transform="matrix(0.866 -0.5 0.5 0.866 -24.7519 212.9796)" class="st11" cx="385" cy="152.7" rx="14.8" ry="4.4"/>
		
			<ellipse transform="matrix(0.6428 -0.766 0.766 0.6428 18.7227 353.4335)" class="st11" cx="388.4" cy="156.6" rx="14.8" ry="4.4"/>
		
			<ellipse transform="matrix(0.342 -0.9397 0.9397 0.342 108.8762 473.8548)" class="st11" cx="392.8" cy="159.2" rx="14.8" ry="4.4"/>
		<ellipse class="st11" cx="397.9" cy="160.1" rx="4.4" ry="14.8"/>
		
			<ellipse transform="matrix(0.9397 -0.342 0.342 0.9397 -30.1501 147.3987)" class="st11" cx="402.9" cy="159.2" rx="4.4" ry="14.8"/>
		
			<ellipse transform="matrix(0.766 -0.6428 0.6428 0.766 -5.3573 298.4981)" class="st11" cx="407.4" cy="156.6" rx="4.4" ry="14.8"/>
		<ellipse transform="matrix(0.5 -0.866 0.866 0.5 73.0923 431.9905)" class="st11" cx="410.7" cy="152.7" rx="4.4" ry="14.8"/>
		
			<ellipse transform="matrix(0.1736 -0.9848 0.9848 0.1736 195.2059 528.3268)" class="st11" cx="412.4" cy="147.9" rx="4.4" ry="14.8"/>
		
			<ellipse transform="matrix(0.9848 -0.1736 0.1736 0.9848 -18.5176 73.7648)" class="st11" cx="412.4" cy="142.7" rx="14.8" ry="4.4"/>
		<ellipse transform="matrix(0.866 -0.5 0.5 0.866 -13.9248 223.8094)" class="st11" cx="410.7" cy="137.9" rx="14.8" ry="4.4"/>
		<ellipse transform="matrix(0.6428 -0.766 0.766 0.6428 42.8802 359.9042)" class="st11" cx="407.4" cy="134" rx="14.8" ry="4.4"/>
		
			<ellipse transform="matrix(0.342 -0.9397 0.9397 0.342 141.6595 465.0621)" class="st11" cx="402.9" cy="131.4" rx="14.8" ry="4.4"/>
	</g>
	<circle class="st12" cx="397.9" cy="145.3" r="7.9"/>
</g>
<g>
	<g>
		<ellipse class="st13" cx="445.6" cy="141.8" rx="4.4" ry="14.8"/>
		
			<ellipse transform="matrix(0.9397 -0.342 0.342 0.9397 -22.2472 159.2822)" class="st13" cx="440.6" cy="142.7" rx="4.4" ry="14.8"/>
		
			<ellipse transform="matrix(0.766 -0.6428 0.6428 0.766 8.6563 314.3226)" class="st13" cx="436.1" cy="145.3" rx="4.4" ry="14.8"/>
		<ellipse transform="matrix(0.5 -0.866 0.866 0.5 87.1662 449.4398)" class="st13" cx="432.8" cy="149.2" rx="4.4" ry="14.8"/>
		
			<ellipse transform="matrix(0.1736 -0.9848 0.9848 0.1736 204.5033 551.7997)" class="st13" cx="431" cy="154" rx="4.4" ry="14.8"/>
		
			<ellipse transform="matrix(0.9848 -0.1736 0.1736 0.9848 -21.0941 77.2489)" class="st13" cx="431" cy="159.2" rx="14.8" ry="4.4"/>
		<ellipse transform="matrix(0.866 -0.5 0.5 0.866 -24.017 238.3818)" class="st13" cx="432.8" cy="164" rx="14.8" ry="4.4"/>
		<ellipse transform="matrix(0.6428 -0.766 0.766 0.6428 27.1034 394.0724)" class="st13" cx="436.1" cy="168" rx="14.8" ry="4.4"/>
		
			<ellipse transform="matrix(0.342 -0.9397 0.9397 0.342 129.6588 526.1961)" class="st13" cx="440.6" cy="170.5" rx="14.8" ry="4.4"/>
		<ellipse class="st13" cx="445.6" cy="171.4" rx="4.4" ry="14.8"/>
		
			<ellipse transform="matrix(0.9397 -0.342 0.342 0.9397 -31.1448 164.419)" class="st13" cx="450.7" cy="170.5" rx="4.4" ry="14.8"/>
		
			<ellipse transform="matrix(0.766 -0.6428 0.6428 0.766 -1.4636 331.8538)" class="st13" cx="455.1" cy="167.9" rx="4.4" ry="14.8"/>
		<ellipse transform="matrix(0.5 -0.866 0.866 0.5 87.1615 479.0234)" class="st13" cx="458.4" cy="164" rx="4.4" ry="14.8"/>
		
			<ellipse transform="matrix(0.1736 -0.9848 0.9848 0.1736 223.5253 584.7413)" class="st13" cx="460.2" cy="159.2" rx="4.4" ry="14.8"/>
		
			<ellipse transform="matrix(0.9848 -0.1736 0.1736 0.9848 -19.7595 82.2296)" class="st13" cx="460.2" cy="154.1" rx="14.8" ry="4.4"/>
		<ellipse transform="matrix(0.866 -0.5 0.5 0.866 -13.1899 249.2116)" class="st13" cx="458.4" cy="149.2" rx="14.8" ry="4.4"/>
		
			<ellipse transform="matrix(0.6428 -0.766 0.766 0.6428 51.2609 400.5432)" class="st13" cx="455.1" cy="145.3" rx="14.8" ry="4.4"/>
		
			<ellipse transform="matrix(0.342 -0.9397 0.9397 0.342 162.4451 517.4145)" class="st13" cx="450.7" cy="142.7" rx="14.8" ry="4.4"/>
	</g>
	<circle class="st12" cx="445.6" cy="156.6" r="7.9"/>
</g>
<path class="st8" d="M258.5,215.3c0,0,28.7-15.1,78.9-15.1s71.8,16,71.8,16s-2.2,7.6-6.3,5.9c-14.3-6-29.7-15.7-67.1-15.2
	c-31.2,0.4-76.1,15.2-76.1,15.2L258.5,215.3z"/>
<g>
	<rect x="106.1" y="332" class="st14" width="357.3" height="24.4"/>
	<circle class="st15" cx="335.8" cy="344.2" r="7.4"/>
	<circle class="st15" cx="359.2" cy="344.2" r="7.4"/>
	<circle class="st15" cx="382.6" cy="344.2" r="7.4"/>
	<circle class="st15" cx="162.1" cy="344.2" r="7.4"/>
	<circle class="st15" cx="185.5" cy="344.2" r="7.4"/>
	<circle class="st15" cx="208.9" cy="344.2" r="7.4"/>
</g>
<circle class="st16" cx="161.8" cy="367" r="19.3"/>
<pattern  id="SVGID_5_" xlink:href="#SVGID_2_" patternTransform="matrix(-0.9081 0.4187 0.4187 0.9081 -29404.293 13621.0625)">
</pattern>
<path class="st17" d="M256.9,537.5c-24.9,8.8-69.1,21.7-102.2-17.5s-56.5-66.1-58.4-107.9l132.7-51.2c0,0,31.6,40.2,40.3,87
	C275,478.8,281.8,528.7,256.9,537.5z"/>
<circle class="st16" cx="366.6" cy="366.3" r="19.3"/>
<pattern  id="SVGID_6_" xlink:href="#SVGID_3_" patternTransform="matrix(0.9787 -0.2053 0.2053 0.9787 -18.3353 14535.5908)">
</pattern>
<path class="st18" d="M455.1,531.2c25.3-7.8,33.2-22.2,37-73.4c2.6-35.2-7.1-63.7-28.8-101.4l-145.5,35.7c0,0,20.6,51.4,41.5,94.1
	C373.1,514.5,429.9,539,455.1,531.2z"/>
</svg>
