<?xml version="1.0" encoding="utf-8"?>
<!-- Generator: Adobe Illustrator 24.0.0, SVG Export Plug-In . SVG Version: 6.00 Build 0)  -->
<svg version="1.1" id="Layer_1" xmlns="http://www.w3.org/2000/svg" xmlns:xlink="http://www.w3.org/1999/xlink" x="0px" y="0px"
	 viewBox="0 0 595.28 841.89" style="enable-background:new 0 0 595.28 841.89;" xml:space="preserve">
<style type="text/css">
	.st0{fill:none;}
	.st1{fill:#62B859;}
	.st2{fill:#99C884;}
	.st3{fill:#FBEDF3;}
	.st4{fill:#E1709C;stroke:#310F2E;stroke-width:12;stroke-linecap:round;stroke-linejoin:round;stroke-miterlimit:10;}
	.st5{fill:url(#SVGID_1_);stroke:#310F2E;stroke-width:12;stroke-linecap:round;stroke-linejoin:round;stroke-miterlimit:10;}
	.st6{fill:#F6C658;stroke:#310F2E;stroke-width:12;stroke-linecap:round;stroke-linejoin:round;stroke-miterlimit:10;}
	.st7{fill:#310F2E;}
	.st8{fill:#F6CFD7;}
	.st9{fill:#2B102E;}
	.st10{fill:#E05149;}
	.st11{fill:#DE4E8C;}
	.st12{fill:#F6C658;}
	.st13{fill:#E35A2B;}
	.st14{fill:url(#SVGID_2_);stroke:#310F2E;stroke-width:12;stroke-linecap:round;stroke-linejoin:round;stroke-miterlimit:10;}
	.st15{fill:#C2996C;}
	.st16{fill:#FDEFD6;}
	.st17{fill:none;stroke:#8A6139;stroke-width:4.8;stroke-miterlimit:10;}
	.st18{fill:#FBEDF3;stroke:#310F2E;stroke-width:12;stroke-linecap:round;stroke-linejoin:round;stroke-miterlimit:10;}
	.st19{fill:url(#SVGID_3_);stroke:#310F2E;stroke-width:12;stroke-linecap:round;stroke-linejoin:round;stroke-miterlimit:10;}
	.st20{fill:url(#SVGID_4_);stroke:#310F2E;stroke-width:12;stroke-linecap:round;stroke-linejoin:round;stroke-miterlimit:10;}
</style>
<pattern  width="54.23" height="54.23" patternUnits="userSpaceOnUse" id="New_Pattern_Swatch_1" viewBox="0 -54.23 54.23 54.23" style="overflow:visible;">
	<g>
		<rect y="-54.23" class="st0" width="54.23" height="54.23"/>
		<rect x="0" y="-54.23" class="st1" width="54.23" height="54.23"/>
		<g>
			
				<ellipse transform="matrix(0.3546 -0.935 0.935 0.3546 49.8563 -13.8571)" class="st2" cx="14.89" cy="-43.04" rx="6.55" ry="4.06"/>
			
				<ellipse transform="matrix(0.987 -0.1604 0.1604 0.987 6.2307 1.2324)" class="st2" cx="10.75" cy="-37.97" rx="6.55" ry="4.06"/>
			
				<ellipse transform="matrix(0.7746 -0.6325 0.6325 0.7746 23.0842 1.089)" class="st2" cx="13.07" cy="-31.84" rx="4.06" ry="6.55"/>
			
				<ellipse transform="matrix(0.3546 -0.935 0.935 0.3546 41.3984 -1.6042)" class="st2" cx="19.54" cy="-30.79" rx="6.55" ry="4.06"/>
			<ellipse transform="matrix(0.987 -0.1604 0.1604 0.987 6.061 3.3349)" class="st2" cx="23.68" cy="-35.86" rx="6.55" ry="4.06"/>
			
				<ellipse transform="matrix(0.7746 -0.6325 0.6325 0.7746 31.3723 4.043)" class="st2" cx="21.36" cy="-41.99" rx="4.06" ry="6.55"/>
		</g>
		<circle class="st2" cx="40.44" cy="-12.86" r="3.69"/>
	</g>
</pattern>
<path class="st3" d="M310.14,361.61c0,0-76.76,2.59-94.86,0s37.51,62.02,48.98,60.96C275.74,421.52,309.16,379.56,310.14,361.61z"/>
<path class="st4" d="M215.28,361.61l30.24-0.08l17.17,42.72C262.69,404.26,250.98,418.85,215.28,361.61"/>
<path class="st4" d="M310.1,361.61l-30.24-0.08l-17.17,42.72C262.69,404.26,274.4,418.85,310.1,361.61"/>
<pattern  id="SVGID_1_" xlink:href="#New_Pattern_Swatch_1" patternTransform="matrix(1 0 0 1 7.9925 -24.1851)">
</pattern>
<path class="st5" d="M141.39,396.05c0,0-21.31,215.23-9.24,310.39c0,0,124.06,58.11,267.89-9.01c0,0,0.52-255.17-22.98-305.37
	c0,0-12.73-24.46-57.33-30.39c-15.08-2-43.28,47.97-59.91,47.97c-8.21,0-43.96-48.69-51.42-48
	C156.01,366.48,141.39,396.05,141.39,396.05z"/>
<path class="st6" d="M389.44,569.49H134.47c0,0-9,0-9-49.51s9-49.51,9-49.51h254.96c0,0,11.08,12.21,11.08,53.82
	C400.52,565.89,389.44,569.49,389.44,569.49z"/>
<path id="hair_1_" class="st7" d="M112.92,225.3c0,0,19.26-48.35,50.55-70.47c0,0,26.89-22.29,82.04-24.37
	c48.41-1.83,79.57-3.21,106.28,10.74c25.92,13.54,57.02,43.36,61.89,84.09c0,0,18.55,78.26-52.35,116.05
	c-31.3,16.69-59.21,25.31-98.65,25.67c-58.36,0-65.51-8-103.49-21.74C159.2,345.27,80.63,313.78,112.92,225.3z"/>
<path id="face_1_" class="st3" d="M183.39,248.28v-31.66c0,0,29.71-16.41,80.87-16.41s71.3,16.41,71.3,16.41v31.66h22.98
	c0,0,9,1.46,8.17,13.79c0,0,0.05,55.92-15.83,69.96c-12.49,12.49-85.28,41.87-167.49,4.09c0,0-10.72-2.55-14.81-17.87
	c-4.09-15.32-11.8-53.19-8.74-66.56C159.84,251.67,168.8,250.25,183.39,248.28z"/>
<path class="st8" d="M189.7,213.6c0,0-0.92,0.31-4.35,1.66c-1.77,0.7-2.96,1.15-2.89,3.06l0.93,29.96l-23.55,3.39
	c0,0-2.78,11.68,0.56,24.69c0.43,1.66,0.46-13.02,4.84-18.7c0,0,10.97-0.3,14.06-0.19c3.88,0.14,11.79-2.45,11.79-6.29L189.7,213.6z
	"/>
<path class="st8" d="M327.51,211.9c0,0,3,1.29,5.74,3.09c1.59,1.05,2.89,1.35,2.83,3.25l0.06,29.64l20.92,0.39
	c0,0,9.01-0.25,9.71,7.02c0.76,7.93-0.65,22.17-0.65,22.17c-1.78,1.42-6.44-17.1-6.44-17.1c-0.64-4.03-18-3.25-20.38-3.17
	c-3.88,0.14-11.79-2.45-11.79-6.29V211.9z"/>
<circle class="st8" cx="191.09" cy="313.68" r="14.81"/>
<circle class="st8" cx="340.84" cy="313.68" r="14.81"/>
<path id="eyes_1_" class="st9" d="M211.22,276.4c13.02-0.77,23.49,9.94,23.49,9.94c2.05,6.89-5.87,6.33-5.87,6.33
	c0-3.12-11.75-7.73-11.75-7.73c-14.55-2.17-22.21,6.27-22.21,6.27s-4.08,3.32-6.64,0s1.53-6.26,1.53-6.26S198.2,277.16,211.22,276.4
	z M293.98,285.31c0,0-4.08,2.94-1.53,6.26s6.64,0,6.64,0s7.65-8.44,22.21-6.27c0,0,11.75,4.61,11.75,7.73c0,0,7.92,0.56,5.87-6.33
	c0,0-10.47-10.7-23.49-9.94S293.98,285.31,293.98,285.31z"/>
<path id="mouse_1_" class="st10" d="M284.57,323.17c0,0,3.87-3.03,1.45-6.44c-2.42-3.42-6.28,0-6.28,0s-7.25,8.68-21.02,6.44
	c0,0-11.11-4.75-11.11-7.96c0,0-7.49-0.58-5.56,6.51c0,0,9.9,11.02,22.23,10.24C276.59,331.18,284.57,323.17,284.57,323.17z"/>
<ellipse transform="matrix(0.9522 -0.3055 0.3055 0.9522 -82.0647 60.9877)" class="st3" cx="153.82" cy="292.69" rx="13.32" ry="20.57"/>
<ellipse transform="matrix(0.1736 -0.9848 0.9848 0.1736 20.8415 610.2099)" class="st3" cx="374.03" cy="292.69" rx="20.57" ry="13.32"/>
<ellipse class="st7" cx="263.97" cy="120.69" rx="79.29" ry="42.71"/>
<g>
	<g>
		<ellipse class="st11" cx="324.71" cy="130.49" rx="4.44" ry="14.79"/>
		
			<ellipse transform="matrix(0.9397 -0.342 0.342 0.9397 -25.6584 117.2506)" class="st11" cx="319.65" cy="131.38" rx="4.44" ry="14.79"/>
		
			<ellipse transform="matrix(0.766 -0.6428 0.6428 0.766 -12.3596 233.9467)" class="st11" cx="315.2" cy="133.95" rx="4.44" ry="14.79"/>
		<ellipse transform="matrix(0.5 -0.866 0.866 0.5 36.5351 339.0566)" class="st11" cx="311.9" cy="137.89" rx="4.44" ry="14.79"/>
		
			<ellipse transform="matrix(0.1736 -0.9848 0.9848 0.1736 115.7386 423.3639)" class="st11" cx="310.14" cy="142.72" rx="4.44" ry="14.79"/>
		
			<ellipse transform="matrix(0.9848 -0.1736 0.1736 0.9848 -20.9628 56.1018)" class="st11" cx="310.14" cy="147.85" rx="14.79" ry="4.44"/>
		<ellipse transform="matrix(0.866 -0.5 0.5 0.866 -34.5544 176.4051)" class="st11" cx="311.9" cy="152.68" rx="14.79" ry="4.44"/>
		
			<ellipse transform="matrix(0.6428 -0.766 0.766 0.6428 -7.3821 297.4044)" class="st11" cx="315.2" cy="156.62" rx="14.79" ry="4.44"/>
		
			<ellipse transform="matrix(0.342 -0.9397 0.9397 0.342 60.7376 405.1156)" class="st11" cx="319.65" cy="159.19" rx="14.79" ry="4.44"/>
		<ellipse class="st11" cx="324.71" cy="160.08" rx="4.44" ry="14.79"/>
		
			<ellipse transform="matrix(0.9397 -0.342 0.342 0.9397 -34.5574 122.3884)" class="st11" cx="329.77" cy="159.19" rx="4.44" ry="14.79"/>
		
			<ellipse transform="matrix(0.766 -0.6428 0.6428 0.766 -22.4792 251.4743)" class="st11" cx="334.22" cy="156.62" rx="4.44" ry="14.79"/>
		<ellipse transform="matrix(0.5 -0.866 0.866 0.5 36.5351 368.6444)" class="st11" cx="337.52" cy="152.68" rx="4.44" ry="14.79"/>
		
			<ellipse transform="matrix(0.1736 -0.9848 0.9848 0.1736 134.7572 456.3051)" class="st11" cx="339.28" cy="147.85" rx="4.44" ry="14.79"/>
		
			<ellipse transform="matrix(0.9848 -0.1736 0.1736 0.9848 -19.6279 61.0836)" class="st11" cx="339.28" cy="142.72" rx="14.79" ry="4.44"/>
		<ellipse transform="matrix(0.866 -0.5 0.5 0.866 -23.7245 187.235)" class="st11" cx="337.52" cy="137.89" rx="14.79" ry="4.44"/>
		
			<ellipse transform="matrix(0.6428 -0.766 0.766 0.6428 16.7744 303.8771)" class="st11" cx="334.22" cy="133.95" rx="14.79" ry="4.44"/>
		
			<ellipse transform="matrix(0.342 -0.9397 0.9397 0.342 93.5228 396.3308)" class="st11" cx="329.77" cy="131.38" rx="14.79" ry="4.44"/>
	</g>
	<circle class="st12" cx="324.71" cy="145.28" r="7.85"/>
</g>
<g>
	<g>
		<ellipse class="st13" cx="372.48" cy="141.82" rx="4.44" ry="14.79"/>
		
			<ellipse transform="matrix(0.9397 -0.342 0.342 0.9397 -26.6536 134.2721)" class="st13" cx="367.42" cy="142.72" rx="4.44" ry="14.79"/>
		
			<ellipse transform="matrix(0.766 -0.6428 0.6428 0.766 -8.4682 267.3035)" class="st13" cx="362.97" cy="145.28" rx="4.44" ry="14.79"/>
		<ellipse transform="matrix(0.5 -0.866 0.866 0.5 50.6053 386.0925)" class="st13" cx="359.67" cy="149.22" rx="4.44" ry="14.79"/>
		
			<ellipse transform="matrix(0.1736 -0.9848 0.9848 0.1736 144.0522 479.7723)" class="st13" cx="357.91" cy="154.05" rx="4.44" ry="14.79"/>
		
			<ellipse transform="matrix(0.9848 -0.1736 0.1736 0.9848 -22.205 64.569)" class="st13" cx="357.91" cy="159.19" rx="14.79" ry="4.44"/>
		
			<ellipse transform="matrix(0.866 -0.5 0.5 0.866 -33.8209 201.8081)" class="st13" cx="359.67" cy="164.01" rx="14.79" ry="4.44"/>
		
			<ellipse transform="matrix(0.6428 -0.766 0.766 0.6428 1.0002 338.046)" class="st13" cx="362.97" cy="167.95" rx="14.79" ry="4.44"/>
		
			<ellipse transform="matrix(0.342 -0.9397 0.9397 0.342 81.5195 457.4608)" class="st13" cx="367.42" cy="170.52" rx="14.79" ry="4.44"/>
		<ellipse class="st13" cx="372.48" cy="171.41" rx="4.44" ry="14.79"/>
		
			<ellipse transform="matrix(0.9397 -0.342 0.342 0.9397 -35.5526 139.4099)" class="st13" cx="377.54" cy="170.52" rx="4.44" ry="14.79"/>
		
			<ellipse transform="matrix(0.766 -0.6428 0.6428 0.766 -18.5879 284.8312)" class="st13" cx="381.99" cy="167.95" rx="4.44" ry="14.79"/>
		<ellipse transform="matrix(0.5 -0.866 0.866 0.5 50.6053 415.6802)" class="st13" cx="385.29" cy="164.01" rx="4.44" ry="14.79"/>
		
			<ellipse transform="matrix(0.1736 -0.9848 0.9848 0.1736 163.0709 512.7136)" class="st13" cx="387.05" cy="159.19" rx="4.44" ry="14.79"/>
		
			<ellipse transform="matrix(0.9848 -0.1736 0.1736 0.9848 -20.8701 69.5508)" class="st13" cx="387.05" cy="154.05" rx="14.79" ry="4.44"/>
		<ellipse transform="matrix(0.866 -0.5 0.5 0.866 -22.991 212.6379)" class="st13" cx="385.29" cy="149.22" rx="14.79" ry="4.44"/>
		
			<ellipse transform="matrix(0.6428 -0.766 0.766 0.6428 25.1568 344.5187)" class="st13" cx="381.99" cy="145.28" rx="14.79" ry="4.44"/>
		
			<ellipse transform="matrix(0.342 -0.9397 0.9397 0.342 114.3047 448.676)" class="st13" cx="377.54" cy="142.72" rx="14.79" ry="4.44"/>
	</g>
	<circle class="st12" cx="372.48" cy="156.62" r="7.85"/>
</g>
<path class="st8" d="M185.36,215.26c0,0,28.66-15.05,78.91-15.05s71.8,16.03,71.8,16.03s-2.19,7.58-6.3,5.86
	c-14.34-6-29.67-15.69-67.08-15.2c-31.19,0.41-76.08,15.2-76.08,15.2L185.36,215.26z"/>
<pattern  id="SVGID_2_" xlink:href="#New_Pattern_Swatch_1" patternTransform="matrix(0.9769 -0.2139 0.2139 0.9769 1152.9695 -1821.8829)">
</pattern>
<path class="st14" d="M377.06,392.06c0,0-6.43-31.82,55.76,22.63c30.02,26.28,43.86,102.11-33.47,102.11S355.5,447.96,377.06,392.06
	z"/>
<g>
	
		<rect x="225.04" y="458.93" transform="matrix(0.8121 -0.5835 0.5835 0.8121 -207.6504 311.6154)" class="st9" width="310.09" height="38.68"/>
	<path class="st15" d="M143.6,705.35l-54.19-75.43c-15.94-22.19-10.88-53.11,11.31-69.05l75.43-54.19
		c22.19-15.94,53.11-10.88,69.05,11.31l54.19,75.43c15.94,22.19,10.88,53.11-11.31,69.05l-75.43,54.19
		C190.46,732.61,159.55,727.54,143.6,705.35z"/>
	<path class="st16" d="M148.68,695.98L99.91,628.1c-14.35-19.97-9.79-47.8,10.18-62.14l67.89-48.77
		c19.97-14.35,47.8-9.79,62.14,10.18l48.77,67.89c14.35,19.97,9.79,47.8-10.18,62.14l-67.89,48.77
		C190.86,720.51,163.03,715.96,148.68,695.98z"/>
	<polygon class="st9" points="466.8,392.17 432.98,351.95 445.98,342.61 473.3,387.49 	"/>
	<polygon class="st9" points="491.46,412.78 518.78,457.67 531.79,448.32 497.97,408.11 	"/>
	<polygon class="st9" points="468.17,429.52 495.49,474.4 508.49,465.06 474.67,424.84 	"/>
	
		<rect x="120.21" y="633.77" transform="matrix(0.5835 0.8121 -0.8121 0.5835 584.1528 139.7617)" class="st15" width="71.24" height="11.16"/>
	<line class="st17" x1="488.62" y1="388.24" x2="140.52" y2="638.32"/>
	<line class="st17" x1="494.34" y1="396.2" x2="146.24" y2="646.28"/>
	<line class="st17" x1="500.05" y1="404.16" x2="151.95" y2="654.24"/>
</g>
<path class="st15" d="M85.03,601.83c1.73-11.27,1.83-11.93,3.65-23.82c110.35,29.1,129.32,1.2,129.32,1.2l-9.22,60.2
	C208.78,639.41,190.6,610.09,85.03,601.83z"/>
<circle class="st18" cx="148.05" cy="569.49" r="19.26"/>
<pattern  id="SVGID_3_" xlink:href="#New_Pattern_Swatch_1" patternTransform="matrix(0.9782 -0.2079 -0.2079 -0.9782 -1669.7269 -15377.5879)">
</pattern>
<path class="st19" d="M453.14,550.37c55.35-46.16,34.14-64.66,12.32-102.25l-119.93,71.19
	C345.53,519.31,387.54,605.09,453.14,550.37z"/>
<pattern  id="SVGID_4_" xlink:href="#New_Pattern_Swatch_1" patternTransform="matrix(0.9977 -0.0678 0.0678 0.9977 539.83 -512.2977)">
</pattern>
<path class="st20" d="M145.59,368.73c0,0-56.38,33.14-72.94,100.16c-8.28,33.5,4.5,107.42,4.5,107.42l126.23-40.68
	C203.38,535.62,181.93,416.36,145.59,368.73z"/>
<circle class="st18" cx="399.35" cy="497.54" r="19.26"/>
</svg>
