<?xml version="1.0" encoding="utf-8"?>
<!-- Generator: Adobe Illustrator 24.0.0, SVG Export Plug-In . SVG Version: 6.00 Build 0)  -->
<svg version="1.1" id="Layer_1" xmlns="http://www.w3.org/2000/svg" xmlns:xlink="http://www.w3.org/1999/xlink" x="0px" y="0px"
	 viewBox="0 0 595.3 841.9" style="enable-background:new 0 0 595.3 841.9;" xml:space="preserve">
<style type="text/css">
	.st0{fill:none;}
	.st1{fill:#62B859;}
	.st2{fill:#99C884;}
	.st3{fill:url(#SVGID_4_);stroke:#310F2E;stroke-width:10;stroke-linecap:round;stroke-linejoin:round;stroke-miterlimit:10;}
	.st4{fill:#FBEDF3;}
	.st5{fill:#E1709C;stroke:#310F2E;stroke-width:10;stroke-linecap:round;stroke-linejoin:round;stroke-miterlimit:10;}
	.st6{fill:#E1709C;stroke:#310F2E;stroke-width:12;stroke-linecap:round;stroke-linejoin:round;stroke-miterlimit:10;}
	.st7{fill:url(#SVGID_5_);stroke:#310F2E;stroke-width:10;stroke-linecap:round;stroke-linejoin:round;stroke-miterlimit:10;}
	.st8{fill:#F6C658;stroke:#310F2E;stroke-width:10;stroke-linecap:round;stroke-linejoin:round;stroke-miterlimit:10;}
	.st9{fill:#310F2E;}
	.st10{fill:#F6CFD7;}
	.st11{fill:#2B102E;}
	.st12{fill:#E05149;}
	.st13{fill:#DE4E8C;}
	.st14{fill:#F6C658;}
	.st15{fill:#E35A2B;}
	.st16{fill:#FBEDF3;stroke:#310F2E;stroke-width:10;stroke-linecap:round;stroke-linejoin:round;stroke-miterlimit:10;}
	.st17{fill:#FDEFD6;}
	.st18{fill:#2B0F2E;}
	.st19{fill:none;stroke:#EA4F1A;stroke-width:5.6;stroke-linecap:round;stroke-linejoin:round;stroke-miterlimit:10;}
	.st20{fill:url(#SVGID_6_);stroke:#310F2E;stroke-width:10;stroke-linecap:round;stroke-linejoin:round;stroke-miterlimit:10;}
</style>
<pattern  y="841.9" width="54.2" height="54.2" patternUnits="userSpaceOnUse" id="SVGID_1_" viewBox="0 -54.2 54.2 54.2" style="overflow:visible;">
	<g>
		<rect y="-54.2" class="st0" width="54.2" height="54.2"/>
		<g>
			<rect y="-54.2" class="st0" width="54.2" height="54.2"/>
			<rect y="-54.2" class="st1" width="54.2" height="54.2"/>
			<g>
				<ellipse transform="matrix(0.3546 -0.935 0.935 0.3546 20.0741 6.7049)" class="st2" cx="14.9" cy="-11.2" rx="6.5" ry="4.1"/>
				<ellipse transform="matrix(0.9871 -0.1604 0.1604 0.9871 2.7477 1.5139)" class="st2" cx="10.8" cy="-16.3" rx="6.5" ry="4.1"/>
				
					<ellipse transform="matrix(0.7746 -0.6325 0.6325 0.7746 17.1067 3.2192)" class="st2" cx="13.1" cy="-22.4" rx="4.1" ry="6.6"/>
				<ellipse transform="matrix(0.3546 -0.935 0.935 0.3546 34.5248 3.1423)" class="st2" cx="19.5" cy="-23.4" rx="6.5" ry="4.1"/>
				<ellipse transform="matrix(0.9871 -0.1604 0.1604 0.9871 3.2538 3.5607)" class="st2" cx="23.7" cy="-18.4" rx="6.5" ry="4.1"/>
				
					<ellipse transform="matrix(0.7746 -0.6325 0.6325 0.7746 12.5547 10.7506)" class="st2" cx="21.4" cy="-12.2" rx="4.1" ry="6.6"/>
			</g>
			<circle class="st2" cx="40.4" cy="-41.4" r="3.7"/>
		</g>
	</g>
</pattern>
<pattern  y="841.9" width="54.2" height="54.2" patternUnits="userSpaceOnUse" id="SVGID_2_" viewBox="0 -54.2 54.2 54.2" style="overflow:visible;">
	<g>
		<rect y="-54.2" class="st0" width="54.2" height="54.2"/>
		<g>
			<rect y="-54.2" class="st0" width="54.2" height="54.2"/>
			<rect y="-54.2" class="st1" width="54.2" height="54.2"/>
			<g>
				<ellipse transform="matrix(0.3546 -0.935 0.935 0.3546 20.0741 6.7049)" class="st2" cx="14.9" cy="-11.2" rx="6.5" ry="4.1"/>
				<ellipse transform="matrix(0.9871 -0.1604 0.1604 0.9871 2.7477 1.5139)" class="st2" cx="10.8" cy="-16.3" rx="6.5" ry="4.1"/>
				
					<ellipse transform="matrix(0.7746 -0.6325 0.6325 0.7746 17.1067 3.2192)" class="st2" cx="13.1" cy="-22.4" rx="4.1" ry="6.6"/>
				<ellipse transform="matrix(0.3546 -0.935 0.935 0.3546 34.5248 3.1423)" class="st2" cx="19.5" cy="-23.4" rx="6.5" ry="4.1"/>
				<ellipse transform="matrix(0.9871 -0.1604 0.1604 0.9871 3.2538 3.5607)" class="st2" cx="23.7" cy="-18.4" rx="6.5" ry="4.1"/>
				
					<ellipse transform="matrix(0.7746 -0.6325 0.6325 0.7746 12.5547 10.7506)" class="st2" cx="21.4" cy="-12.2" rx="4.1" ry="6.6"/>
			</g>
			<circle class="st2" cx="40.4" cy="-41.4" r="3.7"/>
		</g>
	</g>
</pattern>
<pattern  y="841.9" width="54.2" height="54.2" patternUnits="userSpaceOnUse" id="SVGID_3_" viewBox="0 -54.2 54.2 54.2" style="overflow:visible;">
	<g>
		<rect y="-54.2" class="st0" width="54.2" height="54.2"/>
		<g>
			<rect y="-54.2" class="st0" width="54.2" height="54.2"/>
			<rect y="-54.2" class="st1" width="54.2" height="54.2"/>
			<g>
				<ellipse transform="matrix(0.3546 -0.935 0.935 0.3546 20.0741 6.7049)" class="st2" cx="14.9" cy="-11.2" rx="6.5" ry="4.1"/>
				<ellipse transform="matrix(0.9871 -0.1604 0.1604 0.9871 2.7477 1.5139)" class="st2" cx="10.8" cy="-16.3" rx="6.5" ry="4.1"/>
				
					<ellipse transform="matrix(0.7746 -0.6325 0.6325 0.7746 17.1067 3.2192)" class="st2" cx="13.1" cy="-22.4" rx="4.1" ry="6.6"/>
				<ellipse transform="matrix(0.3546 -0.935 0.935 0.3546 34.5248 3.1423)" class="st2" cx="19.5" cy="-23.4" rx="6.5" ry="4.1"/>
				<ellipse transform="matrix(0.9871 -0.1604 0.1604 0.9871 3.2538 3.5607)" class="st2" cx="23.7" cy="-18.4" rx="6.5" ry="4.1"/>
				
					<ellipse transform="matrix(0.7746 -0.6325 0.6325 0.7746 12.5547 10.7506)" class="st2" cx="21.4" cy="-12.2" rx="4.1" ry="6.6"/>
			</g>
			<circle class="st2" cx="40.4" cy="-41.4" r="3.7"/>
		</g>
	</g>
</pattern>
<pattern  id="SVGID_4_" xlink:href="#SVGID_1_" patternTransform="matrix(0.81 -0.5864 0.5864 0.81 -1864.1541 12004.4404)">
</pattern>
<path class="st3" d="M265.1,547.2c19.9-17.5,21.3-33.8,3.9-82.1c-12-33.2-32.5-55.3-67.6-80.8L83.1,476.2c0,0,39.7,38.5,76.2,69
	C183.5,565.4,245.3,564.7,265.1,547.2z"/>
<path class="st4" d="M363.8,361.6c0,0-76.8,2.6-94.9,0s37.5,62,49,61C329.4,421.5,362.8,379.6,363.8,361.6z"/>
<path class="st5" d="M268.9,361.6l30.2-0.1l17.2,42.7C316.4,404.3,304.6,418.9,268.9,361.6"/>
<path class="st6" d="M363.8,361.6l-30.2-0.1l-17.2,42.7C316.4,404.3,328.1,418.9,363.8,361.6"/>
<pattern  id="SVGID_5_" xlink:href="#SVGID_2_" patternTransform="matrix(1 0 0 -1 17.6686 -16218.5195)">
</pattern>
<path class="st7" d="M195.1,396c0,0-21.3,215.2-9.2,310.4c0,0,124.1,58.1,267.9-9c0,0,0.5-255.2-23-305.4c0,0-12.7-24.5-57.3-30.4
	c-15.1-2-43.3,48-59.9,48c-8.2,0-44-48.7-51.4-48C209.7,366.5,195.1,396,195.1,396z"/>
<path class="st8" d="M443.1,569.5h-255c0,0-9,0-9-49.5s9-49.5,9-49.5h255c0,0,11.1,12.2,11.1,53.8
	C454.2,565.9,443.1,569.5,443.1,569.5z"/>
<path id="hair_5_" class="st9" d="M166.6,225.3c0,0,19.3-48.3,50.6-70.5c0,0,26.9-22.3,82-24.4c48.4-1.8,79.6-3.2,106.3,10.7
	c25.9,13.5,57,43.4,61.9,84.1c0,0,18.5,78.3-52.4,116.1c-31.3,16.7-59.2,25.3-98.6,25.7c-58.4,0-65.5-8-103.5-21.7
	C212.9,345.3,134.3,313.8,166.6,225.3z"/>
<path id="face_5_" class="st4" d="M237.1,248.3v-31.7c0,0,29.7-16.4,80.9-16.4s71.3,16.4,71.3,16.4v31.7h23c0,0,9,1.5,8.2,13.8
	c0,0,0,55.9-15.8,70c-12.5,12.5-85.3,41.9-167.5,4.1c0,0-10.7-2.5-14.8-17.9s-11.8-53.2-8.7-66.6
	C213.5,251.7,222.5,250.2,237.1,248.3z"/>
<path class="st10" d="M243.4,213.6c0,0-0.9,0.3-4.4,1.7c-1.8,0.7-3,1.1-2.9,3.1l0.9,30l-23.6,3.4c0,0-2.8,11.7,0.6,24.7
	c0.4,1.7,0.5-13,4.8-18.7c0,0,11-0.3,14.1-0.2c3.9,0.1,11.8-2.4,11.8-6.3L243.4,213.6z"/>
<path class="st10" d="M381.2,211.9c0,0,3,1.3,5.7,3.1c1.6,1.1,2.9,1.4,2.8,3.2l0.1,29.6l20.9,0.4c0,0,9-0.2,9.7,7
	c0.8,7.9-0.6,22.2-0.6,22.2c-1.8,1.4-6.4-17.1-6.4-17.1c-0.6-4-18-3.2-20.4-3.2c-3.9,0.1-11.8-2.4-11.8-6.3L381.2,211.9L381.2,211.9
	z"/>
<ellipse transform="matrix(0.1602 -0.9871 0.9871 0.1602 -104.0758 505.0336)" class="st10" cx="244.8" cy="313.7" rx="14.8" ry="14.8"/>
<circle class="st10" cx="394.5" cy="313.7" r="14.8"/>
<path id="eyes_3_" class="st11" d="M264.9,276.4c13-0.8,23.5,9.9,23.5,9.9c2,6.9-5.9,6.3-5.9,6.3c0-3.1-11.8-7.7-11.8-7.7
	c-14.5-2.2-22.2,6.3-22.2,6.3s-4.1,3.3-6.6,0s1.5-6.3,1.5-6.3S251.9,277.2,264.9,276.4z M347.6,285.3c0,0-4.1,2.9-1.5,6.3
	s6.6,0,6.6,0s7.6-8.4,22.2-6.3c0,0,11.8,4.6,11.8,7.7c0,0,7.9,0.6,5.9-6.3c0,0-10.5-10.7-23.5-9.9
	C356.1,277.5,347.6,285.3,347.6,285.3z"/>
<path id="mouse_3_" class="st12" d="M338.2,323.2c0,0,3.9-3,1.5-6.4c-2.4-3.4-6.3,0-6.3,0s-7.2,8.7-21,6.4c0,0-11.1-4.8-11.1-8
	c0,0-7.5-0.6-5.6,6.5c0,0,9.9,11,22.2,10.2C330.2,331.2,338.2,323.2,338.2,323.2z"/>
<ellipse transform="matrix(0.9522 -0.3055 0.3055 0.9522 -79.499 77.3777)" class="st4" cx="207.5" cy="292.7" rx="13.3" ry="20.6"/>
<ellipse transform="matrix(0.1736 -0.9848 0.9848 0.1736 65.1937 663.0474)" class="st4" cx="427.7" cy="292.7" rx="20.6" ry="13.3"/>
<ellipse class="st9" cx="317.6" cy="120.7" rx="79.3" ry="42.7"/>
<g>
	<g>
		<ellipse class="st13" cx="378.4" cy="130.5" rx="4.4" ry="14.8"/>
		
			<ellipse transform="matrix(0.9397 -0.342 0.342 0.9397 -22.4247 135.5945)" class="st13" cx="373.3" cy="131.4" rx="4.4" ry="14.8"/>
		<ellipse transform="matrix(0.766 -0.6428 0.6428 0.766 0.202 268.4394)" class="st13" cx="368.8" cy="133.9" rx="4.4" ry="14.8"/>
		<ellipse transform="matrix(0.5 -0.866 0.866 0.5 63.3521 385.5287)" class="st13" cx="365.6" cy="137.9" rx="4.4" ry="14.8"/>
		
			<ellipse transform="matrix(0.1736 -0.9848 0.9848 0.1736 160.0844 476.2046)" class="st13" cx="363.8" cy="142.7" rx="4.4" ry="14.8"/>
		
			<ellipse transform="matrix(0.9848 -0.1736 0.1736 0.9848 -20.1463 65.4001)" class="st13" cx="363.8" cy="147.9" rx="14.8" ry="4.4"/>
		<ellipse transform="matrix(0.866 -0.5 0.5 0.866 -27.3634 203.2347)" class="st13" cx="365.5" cy="152.7" rx="14.8" ry="4.4"/>
		
			<ellipse transform="matrix(0.6428 -0.766 0.766 0.6428 11.7614 338.5038)" class="st13" cx="368.9" cy="156.6" rx="14.8" ry="4.4"/>
		
			<ellipse transform="matrix(0.342 -0.9397 0.9397 0.342 96.0515 455.5417)" class="st13" cx="373.3" cy="159.2" rx="14.8" ry="4.4"/>
		<ellipse class="st13" cx="378.4" cy="160.1" rx="4.4" ry="14.8"/>
		
			<ellipse transform="matrix(0.9397 -0.342 0.342 0.9397 -31.3254 140.7331)" class="st13" cx="383.4" cy="159.2" rx="4.4" ry="14.8"/>
		
			<ellipse transform="matrix(0.766 -0.6428 0.6428 0.766 -9.9179 285.9706)" class="st13" cx="387.9" cy="156.6" rx="4.4" ry="14.8"/>
		<ellipse transform="matrix(0.5 -0.866 0.866 0.5 63.3474 415.1123)" class="st13" cx="391.2" cy="152.7" rx="4.4" ry="14.8"/>
		
			<ellipse transform="matrix(0.1736 -0.9848 0.9848 0.1736 179.1001 509.1351)" class="st13" cx="392.9" cy="147.9" rx="4.4" ry="14.8"/>
		
			<ellipse transform="matrix(0.9848 -0.1736 0.1736 0.9848 -18.8134 70.3812)" class="st13" cx="392.9" cy="142.7" rx="14.8" ry="4.4"/>
		<ellipse transform="matrix(0.866 -0.5 0.5 0.866 -16.5362 214.0646)" class="st13" cx="391.2" cy="137.9" rx="14.8" ry="4.4"/>
		<ellipse transform="matrix(0.6428 -0.766 0.766 0.6428 35.9188 344.9745)" class="st13" cx="387.9" cy="134" rx="14.8" ry="4.4"/>
		
			<ellipse transform="matrix(0.342 -0.9397 0.9397 0.342 128.8347 446.7489)" class="st13" cx="383.4" cy="131.4" rx="14.8" ry="4.4"/>
	</g>
	<circle class="st14" cx="378.4" cy="145.3" r="7.9"/>
</g>
<g>
	<g>
		<ellipse class="st15" cx="426.1" cy="141.8" rx="4.4" ry="14.8"/>
		
			<ellipse transform="matrix(0.9397 -0.342 0.342 0.9397 -23.4224 152.6166)" class="st15" cx="421.1" cy="142.7" rx="4.4" ry="14.8"/>
		<ellipse transform="matrix(0.766 -0.6428 0.6428 0.766 4.0958 301.795)" class="st15" cx="416.6" cy="145.3" rx="4.4" ry="14.8"/>
		<ellipse transform="matrix(0.5 -0.866 0.866 0.5 77.4213 432.5617)" class="st15" cx="413.3" cy="149.2" rx="4.4" ry="14.8"/>
		
			<ellipse transform="matrix(0.1736 -0.9848 0.9848 0.1736 188.3974 532.608)" class="st15" cx="411.6" cy="154" rx="4.4" ry="14.8"/>
		
			<ellipse transform="matrix(0.9848 -0.1736 0.1736 0.9848 -21.3899 73.8654)" class="st15" cx="411.6" cy="159.2" rx="14.8" ry="4.4"/>
		<ellipse transform="matrix(0.866 -0.5 0.5 0.866 -26.6285 228.6369)" class="st15" cx="413.3" cy="164" rx="14.8" ry="4.4"/>
		<ellipse transform="matrix(0.6428 -0.766 0.766 0.6428 20.1421 379.1426)" class="st15" cx="416.6" cy="168" rx="14.8" ry="4.4"/>
		
			<ellipse transform="matrix(0.342 -0.9397 0.9397 0.342 116.8341 507.883)" class="st15" cx="421.1" cy="170.5" rx="14.8" ry="4.4"/>
		<ellipse class="st15" cx="426.1" cy="171.4" rx="4.4" ry="14.8"/>
		
			<ellipse transform="matrix(0.9397 -0.342 0.342 0.9397 -32.3201 157.7534)" class="st15" cx="431.2" cy="170.5" rx="4.4" ry="14.8"/>
		
			<ellipse transform="matrix(0.766 -0.6428 0.6428 0.766 -6.0241 319.3262)" class="st15" cx="435.6" cy="167.9" rx="4.4" ry="14.8"/>
		<ellipse transform="matrix(0.5 -0.866 0.866 0.5 77.4166 462.1453)" class="st15" cx="438.9" cy="164" rx="4.4" ry="14.8"/>
		
			<ellipse transform="matrix(0.1736 -0.9848 0.9848 0.1736 207.4195 565.5494)" class="st15" cx="440.7" cy="159.2" rx="4.4" ry="14.8"/>
		
			<ellipse transform="matrix(0.9848 -0.1736 0.1736 0.9848 -20.0553 78.8461)" class="st15" cx="440.7" cy="154.1" rx="14.8" ry="4.4"/>
		<ellipse transform="matrix(0.866 -0.5 0.5 0.866 -15.8013 239.4668)" class="st15" cx="438.9" cy="149.2" rx="14.8" ry="4.4"/>
		
			<ellipse transform="matrix(0.6428 -0.766 0.766 0.6428 44.2995 385.6134)" class="st15" cx="435.6" cy="145.3" rx="14.8" ry="4.4"/>
		
			<ellipse transform="matrix(0.342 -0.9397 0.9397 0.342 149.6204 499.1012)" class="st15" cx="431.2" cy="142.7" rx="14.8" ry="4.4"/>
	</g>
	<circle class="st14" cx="426.1" cy="156.6" r="7.9"/>
</g>
<path class="st10" d="M239,215.3c0,0,28.7-15.1,78.9-15.1s71.8,16,71.8,16s-2.2,7.6-6.3,5.9c-14.3-6-29.7-15.7-67.1-15.2
	c-31.2,0.4-76.1,15.2-76.1,15.2L239,215.3z"/>
<circle class="st16" cx="117.1" cy="432.8" r="19.3"/>
<g>
	
		<ellipse transform="matrix(0.9765 -0.2155 0.2155 0.9765 -99.9799 43.4874)" class="st17" cx="149.4" cy="480.2" rx="36.1" ry="80.5"/>
	<polygon class="st18" points="219.4,464.8 334.8,359.2 368.5,512 	"/>
	
		<ellipse transform="matrix(0.9765 -0.2155 0.2155 0.9765 -85.1088 85.954)" class="st17" cx="351.6" cy="433.3" rx="36.1" ry="80.5"/>
	<circle class="st18" cx="249.3" cy="458.2" r="36.5"/>
	<path class="st18" d="M172,554.6L286.3,450l-147.8-46.7l-0.2-0.7c-0.4,0.1-0.7,0.2-1.1,0.3l-0.2-0.1l0,0.1
		c-11.2,4.8-13.2,40.1-4.2,80.9c9,40.8,25.7,72,37.9,71.6l0,0.1l0.1-0.1c0.4,0,0.7-0.1,1.1-0.2L172,554.6z"/>
	<path class="st19" d="M156.9,545.1c0,0-6.6,1.8-6.6,9.6c0,7.8,11.9,0.2,14.5-5.2l80.5-76.9l92.4,12.2c0,0,7.2-0.4,5-2.7"/>
	<path class="st19" d="M325,455.1c0,0-3.7,5.2-7.8,4.5s-71.9,13.1-71.9,13.1L145,531.4c0,0-12.8,4.4-9.3-3.6"/>
	<path class="st19" d="M128.7,502c0,0-1.7,9.6,9.3,4.4s104.4-37.5,104.4-37.5l73.9-27.9c0,0,5.8-2.6,4.6-4.4"/>
	<path class="st19" d="M314.7,417.2c0,0-3.6,0-8.5,3.5c-4.9,3.5-58.9,35.6-58.9,35.6l-120.7,23.3c0,0-7-4-1.9-8.4"/>
	<path class="st19" d="M124.2,443.9c0,0-6.2-6.7,5.1-6.4c11.3,0.3,112.4,9.8,112.4,9.8l70.1-52.5c0,0,3.1-3.9,4.5-1"/>
	<path class="st19" d="M319.5,376.3c0,0-4.8-4-8.3,1.8s-66,54.3-66,54.3L129.4,416c0,0-11.3-3-9.4,2.1"/>
	<path class="st19" d="M331.4,361.6c0,0-2.2-5.6-4.9-2.9"/>
	<path class="st19" d="M356.6,366.9c0,0,4-5.9,0.7-5.8"/>
	<path class="st19" d="M370.5,387.9c0,0,4.1-5.1,1.9-5.9"/>
	<path class="st19" d="M380.1,414.8c0,0,8.1,0.1,5.7-1.3"/>
	<path class="st19" d="M386.1,441.6c0,0,6.6,1.4,5.5,5.2"/>
	<path class="st19" d="M385.6,474.3c0,0,4.7,1.8,3.8,6.2"/>
	<path class="st19" d="M374.5,498.9c0,0,5.5,2.1,3.6,7.7"/>
	<path class="st19" d="M355.5,498.2c0,0-0.5,8.8-5.3,7.9"/>
	<path class="st19" d="M230.8,423.2c0,0-1.9,42.6,14.3,64.6c0,0-12.6-58.5-4.3-68.4c0,0,5.8,58.8,12.2,70c0,0-6-61.9-5-68.2
		c0,0,15.8,56.9,13.1,66.4c0,0,0.7-55.3-5.8-68.1c0,0,15.4,49.7,11.9,66.7c0,0-1.7-53.2-7.3-67.7"/>
</g>
<circle class="st16" cx="348.6" cy="434.8" r="19.3"/>
<pattern  id="SVGID_6_" xlink:href="#SVGID_3_" patternTransform="matrix(0.81 -0.5864 0.5864 0.81 -1872.0168 11963.1279)">
</pattern>
<path class="st20" d="M496.6,549.2c19.9-17.5,21.3-33.8,3.9-82.1c-12-33.2-32.5-55.3-67.6-80.8l-118.3,91.9c0,0,39.7,38.5,76.2,69
	C414.9,567.4,476.7,566.7,496.6,549.2z"/>
</svg>
