<?xml version="1.0" encoding="utf-8"?>
<!-- Generator: Adobe Illustrator 23.0.4, SVG Export Plug-In . SVG Version: 6.00 Build 0)  -->
<svg version="1.1" id="Layer_1" xmlns="http://www.w3.org/2000/svg" xmlns:xlink="http://www.w3.org/1999/xlink" x="0px" y="0px"
	 viewBox="0 0 490.8 616" style="enable-background:new 0 0 490.8 616;" xml:space="preserve">
<style type="text/css">
	.st0{fill:none;stroke:#32152F;stroke-width:17;stroke-linecap:round;stroke-linejoin:round;stroke-miterlimit:10;}
	.st1{fill:#93BECC;}
	.st2{fill:#1C75BC;}
	.st3{fill:#2E3192;}
	.st4{fill:url(#pattern_1_);}
	.st5{fill:url(#pattern1_1_);}
	.st6{fill:url(#pattern2_1_);}
	.st7{fill:url(#pattern3_1_);}
	.st8{fill:url(#SVGID_1_);}
	.st9{fill:#B2E2F6;stroke:#331330;stroke-width:10;stroke-linecap:round;stroke-linejoin:round;stroke-miterlimit:10;}
	.st10{fill:url(#SVGID_2_);}
	.st11{fill:#FDEFF5;stroke:#31162E;stroke-width:7;stroke-linecap:round;stroke-linejoin:round;stroke-miterlimit:10;}
	.st12{fill:#331330;}
	.st13{fill:#FBD2DB;}
	.st14{fill:#2D1230;}
	.st15{fill:#EF524A;}
	.st16{fill:url(#SVGID_3_);}
	.st17{fill:url(#SVGID_4_);}
	.st18{fill:url(#SVGID_5_);}
	.st19{fill:url(#SVGID_6_);}
	.st20{fill:url(#SVGID_7_);}
	.st21{fill:url(#SVGID_8_);}
	.st22{fill:url(#SVGID_9_);}
	.st23{fill:url(#SVGID_10_);}
	.st24{fill:url(#SVGID_11_);}
	.st25{fill:url(#SVGID_12_);}
	.st26{fill:url(#SVGID_13_);}
	.st27{fill:url(#SVGID_14_);}
	.st28{fill:url(#SVGID_15_);}
	.st29{fill:#FAC951;}
	.st30{fill:url(#SVGID_16_);stroke:#C49A6C;stroke-miterlimit:10;}
	.st31{fill:url(#SVGID_17_);stroke:#C49A6C;stroke-miterlimit:10;}
	.st32{fill:url(#SVGID_18_);stroke:#C49A6C;stroke-miterlimit:10;}
	.st33{fill:none;stroke:#8B5E3C;stroke-width:9;stroke-linecap:round;stroke-miterlimit:10;}
	.st34{fill:url(#SVGID_19_);stroke:#FFE2A1;stroke-miterlimit:10;}
	.st35{fill:#FDEFF5;stroke:#331330;stroke-width:6;stroke-linecap:round;stroke-linejoin:round;stroke-miterlimit:10;}
	.st36{fill:#B2E2F6;stroke:#331330;stroke-width:8;stroke-linecap:round;stroke-linejoin:round;stroke-miterlimit:10;}
	.st37{fill:#B2E2F6;stroke:#31162E;stroke-width:8;stroke-linecap:round;stroke-linejoin:round;stroke-miterlimit:10;}
	.st38{fill:url(#SVGID_20_);}
</style>
<path class="st0" d="M155.6,398.7l-3.5,3.8l-21.3,35.4c0,0,0.5,2.2,1.9,5.7c-10.3,23.3-15.7,42.3-16.5,46.3
	c-1.1,5.5-10.3,38.6-10.3,38.6s-3.8,22.2-3.2,29.5c0.4,4.3,1.3,0.6,2.8,4.7c0.5,1.5,2.5,7,6.6,12.1c0.5,2.3,1.9,4.3,4,5.5
	c8.1,4.6,23.2,11.2,29.1,12.4c1.4,0.5,2.8,1,4.3,1.5c9.8,3,19.8,5.3,29.8,7l42.2,5.3l25.7,0.6l0,0h0.3h0.6l0,0l26.8-1.1l8.7-1.2
	c5.6-0.7,11-1.4,15.5-2l0.1,0.1L319,600l2.6-0.5c3.4-0.6,6.7-1.3,10.1-2.1l2.8-0.6l2.1-0.6c4.5-1.1,9-2.4,13.5-3.8
	c0.3-0.1,0.7-0.2,1-0.3l1.6-0.5l0.2-0.1c2.9-0.6,8.3-2.8,14-5.5c4.5-1.9,8.9-4,13.2-6.3c4.8-2.5,8.2-6.3,10.7-10l0.2-0.2l0.1-0.2
	c2.7-4.1,4.1-8,4.4-9.1c0.5-1.3,0.9-2.7,1.3-4.1V556v-0.1c0.7-2.8,1.2,2.4,1.4-0.4c0.1-1.2,0-2.8-0.1-4.7l0.2-1.7l-1.6-9.4
	c-0.1-0.7-0.2-1.3-0.3-2l0.7-0.5c2.2-1.3,3.7-2.3,4.5-2.8l0.5-0.3l0,0l0,0l-27-73.2l-30.5-59.5"/>
<polygon id="shawlBack" class="st1" points="172.7,224.8 209.8,232.5 290.3,232 332.2,224.2 249.7,328.6 "/>
<g id="skirt">
	<path class="st2" d="M146,416.9c-19.1,34.1-28.7,67.4-29.8,72.9s-10.3,38.6-10.3,38.6s-3.8,22.2-3.2,29.5c0.4,4.3,1.3,0.6,2.8,4.7
		c0.7,2.2,5.1,14.1,15.1,19.2c9.3,4.8,19,8.9,28.9,12.2c9.8,3,19.8,5.3,29.8,7l42.2,5.3l26.6,0.6L245.8,372l-62.3,0.6
		C183.5,372.6,165.1,382.8,146,416.9z"/>
	<path class="st2" d="M394.1,525.1c0,0-10.1-32.4-11.4-37.9s-11.9-38.5-32.6-72.3S310,371.3,310,371.3l-65.2,0.6l2.3,234.8l27.8-1.1
		l44-6.1c10.5-1.9,20.9-4.4,31.1-7.6c10.3-3.4,20.4-7.7,30-12.7c10.4-5.4,14.7-17.3,15.4-19.5c1.5-4.1,2.4-0.4,2.7-4.7
		C398.7,547.8,394.1,525.1,394.1,525.1z"/>
</g>
<path id="overlap" class="st3" d="M183.9,369.9l-10.1,9l-21.7,23.5l-21.3,35.4c0,0,6.6,27.2,34.8,43.9s41.8,24.4,64.7,27.2
	s40.2,12.4,57.3,22s37.7,24.2,61.9,23.1s52.6-20.4,52.6-20.4l-27-73.2l-34.3-66.8L314.7,370L183.9,369.9z"/>
<linearGradient id="pattern_1_" gradientUnits="userSpaceOnUse" x1="111.9559" y1="-95.4369" x2="199.7" y2="-95.4369" gradientTransform="matrix(1 0 0 -1 0 389.89)">
	<stop  offset="0" style="stop-color:#2484C6;stop-opacity:0"/>
	<stop  offset="1" style="stop-color:#2484C6"/>
</linearGradient>
<path id="pattern" class="st4" d="M185.8,378.2c0,0-34.1,45-40.3,62.6s-13,33.4-16.6,57.6s-10.7,48.9-11.4,54
	c-0.4,3.1-3.5,12.4-5.2,18.1c-1.1,3.7,0.5,7.7,3.9,9.5c8.2,4.6,23.7,11.4,29.4,12.4c8.1,1.5,11.3-28.9,11.3-28.9l6.2-64.1l6.2-43.4
	c1.4-9.6,4.3-18.8,8.6-27.4l21.8-43.2L185.8,378.2z"/>
<linearGradient id="pattern1_1_" gradientUnits="userSpaceOnUse" x1="188.17" y1="-109.0103" x2="236.77" y2="-109.0103" gradientTransform="matrix(1 0 0 -1 0 389.89)">
	<stop  offset="0" style="stop-color:#2484C6;stop-opacity:0"/>
	<stop  offset="1" style="stop-color:#2484C6"/>
</linearGradient>
<path id="pattern1" class="st5" d="M222.6,392l-12.1,30.8c-6.7,12.6-11,26.3-12.7,40.5l-4.1,35.1l0.3,56.1c0,1.4-0.1,2.7-0.3,4.1
	l-5.6,41c0,0.6,0.5,1.2,1.1,1.3c4.5,0.7,22.4,3.5,37.9,4.9c1,0.1-1.7-12.4-4.8-25.3c-4.5-18.8-5.2-30.3-2-49.3l4.9-29.2
	c0.2-1,0.3-2.1,0.3-3.1v-46.6c0-3.5,0.4-7,1.2-10.3l10-45.4L222.6,392z"/>
<linearGradient id="pattern2_1_" gradientUnits="userSpaceOnUse" x1="299" y1="-94.8381" x2="383.9193" y2="-94.8381" gradientTransform="matrix(1 0 0 -1 0 389.89)">
	<stop  offset="0" style="stop-color:#2484C6;stop-opacity:0"/>
	<stop  offset="1" style="stop-color:#2484C6"/>
</linearGradient>
<path id="pattern2" class="st6" d="M312.9,378.2c0,0,34.1,45,40.3,62.6s13,33.4,16.6,57.6s10.7,48.9,11.4,54
	c0.4,3.1,4.8,23.1,1.5,25c-8.2,4.6-24.3,12.7-30,13.8c-8.1,1.5-10.9-27.5-10.9-27.5l-6.2-64.1l-6.2-43.4c-1.4-9.6-4.3-18.8-8.6-27.4
	L299,385.5L312.9,378.2z"/>
<linearGradient id="pattern3_1_" gradientUnits="userSpaceOnUse" x1="261.91" y1="-109.0103" x2="310.51" y2="-109.0103" gradientTransform="matrix(1 0 0 -1 0 389.89)">
	<stop  offset="0" style="stop-color:#2484C6;stop-opacity:0"/>
	<stop  offset="1" style="stop-color:#2484C6"/>
</linearGradient>
<path id="pattern3" class="st7" d="M276.1,392l12.1,30.8c6.7,12.6,11,26.3,12.7,40.5l4.1,35.1l-0.3,56.1c0,1.4,0.1,2.7,0.3,4.1
	l5.6,41c0,0.6-0.5,1.2-1.1,1.3c-4.5,0.7-22.4,3.5-37.9,4.9c-1,0.1,1.7-12.4,4.8-25.3c4.5-18.8,5.2-30.3,2-49.3l-4.9-29.1
	c-0.2-1-0.3-2.1-0.3-3.1v-46.7c0-3.5-0.4-7-1.2-10.3l-10-45.4L276.1,392z"/>
<linearGradient id="SVGID_1_" gradientUnits="userSpaceOnUse" x1="245.9" y1="-96.26" x2="402.1" y2="-96.26" gradientTransform="matrix(1 0 0 -1 0 389.89)">
	<stop  offset="0" style="stop-color:#2484C6;stop-opacity:0"/>
	<stop  offset="1" style="stop-color:#2E3192"/>
</linearGradient>
<path class="st8" d="M314.7,369.9l-68.8,12.7l10.2,18.4c7.5,13.5,12,28.4,13.3,43.8l5.2,61.5c0.3,3.7,0.4,7.3,0.3,11l-1,32.2
	c-0.5,16.7,4.6,25,14.6,38.4l10.8,14.5l19.8-2.9l15.5-3.3l18.2-5.2l17.8-7.3l12.2-6.4l8.2-8.3l5.9-13.6l1.4-6.9l-1.9-11.4l5.7-3.6
	L379.4,472l-8.6-20.1L350.2,415L314.7,369.9z"/>
<path id="Body-2_1_" class="st9" d="M317.9,243.8c-5.2-1.2-10.1-1.9-14.1-2.1c1.1,0.2-14.8,21.3-14.8,21.3l-7.1,10.4
	c-4.4,7.1-9.3,13.8-14.7,20.1c-10,11.8-17.7,11.1-17.7,11.1s-7.8,0.8-17.8-11.1c-5.4-6.3-10.4-13-14.7-20.1c0,0-16.3-20.5-15.1-24.1
	c0.5-1-3.4-2.1-2.3-2.3c-15.9,0.8-61.3-1.9-65,21.2c-14,86.8,48.6,106.1,48.6,106.1s41.7,14,66.4,14.8c24.7,0.7,40.7-7.6,54-11.8
	l12.5-3.1C366.3,279.4,317.9,243.8,317.9,243.8z"/>
<linearGradient id="SVGID_2_" gradientUnits="userSpaceOnUse" x1="217" y1="71.39" x2="341.4019" y2="71.39" gradientTransform="matrix(1 0 0 -1 0 389.89)">
	<stop  offset="0" style="stop-color:#B2E2F6;stop-opacity:0.5"/>
	<stop  offset="0.65" style="stop-color:#27AAE1;stop-opacity:0.75"/>
	<stop  offset="1" style="stop-color:#1C75BC"/>
</linearGradient>
<path class="st10" d="M249.5,389l8.8,2.1l32.6-10l25-7c0,0,11.1-11.5,16.2-25.1c5.2-13.6,9-19.4,9.3-40.3s-35.8-62.8-35.8-62.8
	l-45.9,52.9l-4.2,2.9c-4.9,3.4-11.6,2.9-15.9-1.2l-6-5.6L217,270.8L245.8,372L249.5,389z"/>
<path id="neck" class="st11" d="M207.4,227l26.5,17.8l-28.1-0.1c-2.5,0-4.4,2.1-4.4,4.5c0,1.2,0.5,2.4,1.4,3.2l21.6,29.1
	c10.1,17.2,18,22.6,24.6,22.3c8.8-0.4,19.5-12.8,26.3-23.5l20.8-26.8c2.2-1.7,2.5-4.9,0.8-7c-0.9-1.2-2.4-1.9-3.9-1.9l-26.5,0.1
	l26.8-17.8C293.3,227,267.3,225.1,207.4,227z"/>
<path class="st12" d="M182.6,223.4c-16.6-3.7-31.6-12.4-43.2-24.8c-6-6.5-11.8-14.2-15.4-22.6c-11.5-26.7-2-65.3,2.6-75.8
	C136.8,77.1,142.9,70,159,55.1c7.9-7.3,25.4-12.1,27.1-17.6c4.3-14,14-26.1,28.2-30.8c7.4-2.4,24.2-4.9,35.8-5.2
	c14.6-0.4,45.5,2.2,59.6,16.4c15.4,15.4,5.2,20.4,17.8,27.8c17.3,10.2,41.3,29.5,49.9,52.5c8.1,21.7,8.3,44.9-6,77.3
	c-6.6,15-17.3,31.6-38.7,39.4c-9.4,3.4-27,9.9-42.4,13.9c-10.1,2.7-43.9,5.6-59.6,3.5c-1.2-0.2-19.7-2.7-20.9-3L182.6,223.4z"/>
<path id="face" class="st11" d="M162.6,101.5l9.6,7.3c8,6.1,17.4,10.1,27.4,11.7l82.5,13.6l-33.6-18.8l69.3,19.1
	c0,0,36.1,9.1,32,20.9c0,0-4.1,32.8-14.7,55.7c-17.4,10.5-85.3,41.9-167.5,4.1c0,0-10.7-2.6-14.8-17.9c-1.2-5-2.2-10-2.9-15.1
	c-3.6-25.6,0-51.8,10.4-75.5L162.6,101.5z"/>
<g id="cheek">
	<path class="st13" d="M313.1,141.8c0,0,27,7.1,27,16.3s-5,21.8-6.5,24.3c0,0-13.8-14.8-26,0s5.6,31.1,17.9,24c0,0-0.1,5.4-2.9,6.5
		s16.5-5.2,19.5-11s7.3-10.5,8.1-50.2c-1.4-3-2.5-8-22.1-14.1c-10.5-3.3-33.2-10-45.5-12.9l-34-9.4l33.6,18.7l-70.4-11.6l-12.1-2.2
		c-3.6-0.6-7.1-1.7-10.5-3l-5.9-2.4c-2.9-1.2-5.7-2.7-8.2-4.5l-12.4-8.9l-1.3,3l5.6,6.6c5.8,6.7,13.2,11.9,21.5,15
		c2.3,0.9,4.7,1.6,7.1,2.2l19.7,3.6c3.7,0.8,7.5,1.4,11.2,1.7l57.4,4.6L313.1,141.8z"/>
	<circle class="st13" cx="175.4" cy="192.7" r="14.8"/>
</g>
<path id="eyes" class="st14" d="M195.5,152.4c13-0.8,23.5,9.9,23.5,9.9c2,6.9-5.9,6.3-5.9,6.3c0-3.1-11.8-7.7-11.8-7.7
	c-14.5-2.2-22.2,6.3-22.2,6.3s-4.1,3.3-6.6,0s1.5-6.3,1.5-6.3C180.1,155.9,187.6,152.9,195.5,152.4z M278.2,161.3
	c0,0-4.1,2.9-1.5,6.3s6.6,0,6.6,0s7.6-8.4,22.2-6.3c0,0,11.8,4.6,11.8,7.7c0,0,7.9,0.6,5.9-6.3c0,0-10.5-10.7-23.5-9.9
	C291.8,153.3,284.3,156.3,278.2,161.3z"/>
<path id="lips" class="st15" d="M268.9,202.2c0,0,3.9-3,1.5-6.4s-6.3,0-6.3,0s-7.2,8.7-21,6.4c0,0-11.1-4.8-11.1-8
	c0,0-7.5-0.6-5.6,6.5c0,0,9.9,11,22.2,10.2C256.1,210.4,263.3,207.3,268.9,202.2z"/>
<g id="hairdress">
	
		<linearGradient id="SVGID_3_" gradientUnits="userSpaceOnUse" x1="163.48" y1="337.59" x2="178.36" y2="337.59" gradientTransform="matrix(1 0 0 -1 0 389.89)">
		<stop  offset="0" style="stop-color:#FFFFFF"/>
		<stop  offset="0.52" style="stop-color:#C02B31"/>
		<stop  offset="0.97" style="stop-color:#BE1E2D"/>
	</linearGradient>
	<circle class="st16" cx="170.9" cy="52.3" r="7.4"/>
	
		<linearGradient id="SVGID_4_" gradientUnits="userSpaceOnUse" x1="175.5" y1="344.39" x2="190.38" y2="344.39" gradientTransform="matrix(1 0 0 -1 0 389.89)">
		<stop  offset="0" style="stop-color:#FFFFFF"/>
		<stop  offset="0.52" style="stop-color:#C02B31"/>
		<stop  offset="0.97" style="stop-color:#BE1E2D"/>
	</linearGradient>
	<circle class="st17" cx="182.9" cy="45.5" r="7.4"/>
	
		<linearGradient id="SVGID_5_" gradientUnits="userSpaceOnUse" x1="188.86" y1="347.99" x2="203.74" y2="347.99" gradientTransform="matrix(1 0 0 -1 0 389.89)">
		<stop  offset="0" style="stop-color:#FFFFFF"/>
		<stop  offset="0.52" style="stop-color:#C02B31"/>
		<stop  offset="0.97" style="stop-color:#BE1E2D"/>
	</linearGradient>
	<circle class="st18" cx="196.3" cy="41.9" r="7.4"/>
	
		<linearGradient id="SVGID_6_" gradientUnits="userSpaceOnUse" x1="202.32" y1="350.89" x2="217.2" y2="350.89" gradientTransform="matrix(1 0 0 -1 0 389.89)">
		<stop  offset="0" style="stop-color:#FFFFFF"/>
		<stop  offset="0.52" style="stop-color:#C02B31"/>
		<stop  offset="0.97" style="stop-color:#BE1E2D"/>
	</linearGradient>
	<circle class="st19" cx="209.8" cy="39" r="7.4"/>
	
		<linearGradient id="SVGID_7_" gradientUnits="userSpaceOnUse" x1="214.28" y1="354.49" x2="229.16" y2="354.49" gradientTransform="matrix(1 0 0 -1 0 389.89)">
		<stop  offset="0" style="stop-color:#FFFFFF"/>
		<stop  offset="0.52" style="stop-color:#C02B31"/>
		<stop  offset="0.97" style="stop-color:#BE1E2D"/>
	</linearGradient>
	<circle class="st20" cx="221.7" cy="35.4" r="7.4"/>
	
		<linearGradient id="SVGID_8_" gradientUnits="userSpaceOnUse" x1="282.87" y1="354.49" x2="297.75" y2="354.49" gradientTransform="matrix(1 0 0 -1 0 389.89)">
		<stop  offset="0" style="stop-color:#FFFFFF"/>
		<stop  offset="0.52" style="stop-color:#C02B31"/>
		<stop  offset="0.97" style="stop-color:#BE1E2D"/>
	</linearGradient>
	<circle class="st21" cx="290.3" cy="35.4" r="7.4"/>
	
		<linearGradient id="SVGID_9_" gradientUnits="userSpaceOnUse" x1="295.53" y1="350.89" x2="310.41" y2="350.89" gradientTransform="matrix(1 0 0 -1 0 389.89)">
		<stop  offset="0" style="stop-color:#FFFFFF"/>
		<stop  offset="0.52" style="stop-color:#C02B31"/>
		<stop  offset="0.97" style="stop-color:#BE1E2D"/>
	</linearGradient>
	<circle class="st22" cx="303" cy="39" r="7.4"/>
	
		<linearGradient id="SVGID_10_" gradientUnits="userSpaceOnUse" x1="307.05" y1="346.29" x2="321.93" y2="346.29" gradientTransform="matrix(1 0 0 -1 0 389.89)">
		<stop  offset="0" style="stop-color:#FFFFFF"/>
		<stop  offset="0.52" style="stop-color:#C02B31"/>
		<stop  offset="0.97" style="stop-color:#BE1E2D"/>
	</linearGradient>
	<circle class="st23" cx="314.5" cy="43.6" r="7.4"/>
	
		<linearGradient id="SVGID_11_" gradientUnits="userSpaceOnUse" x1="319.47" y1="340.59" x2="334.35" y2="340.59" gradientTransform="matrix(1 0 0 -1 0 389.89)">
		<stop  offset="0" style="stop-color:#FFFFFF"/>
		<stop  offset="0.52" style="stop-color:#C02B31"/>
		<stop  offset="0.97" style="stop-color:#BE1E2D"/>
	</linearGradient>
	<circle class="st24" cx="326.9" cy="49.3" r="7.4"/>
	
		<linearGradient id="SVGID_12_" gradientUnits="userSpaceOnUse" x1="329.92" y1="333.19" x2="344.8" y2="333.19" gradientTransform="matrix(1 0 0 -1 0 389.89)">
		<stop  offset="0" style="stop-color:#FFFFFF"/>
		<stop  offset="0.52" style="stop-color:#C02B31"/>
		<stop  offset="0.97" style="stop-color:#BE1E2D"/>
	</linearGradient>
	<circle class="st25" cx="337.4" cy="56.7" r="7.4"/>
	
		<linearGradient id="SVGID_13_" gradientUnits="userSpaceOnUse" x1="264.8" y1="357.29" x2="286.86" y2="357.29" gradientTransform="matrix(1 0 0 -1 0 389.89)">
		<stop  offset="0" style="stop-color:#FFFFFF"/>
		<stop  offset="0.52" style="stop-color:#C02B31"/>
		<stop  offset="0.97" style="stop-color:#BE1E2D"/>
	</linearGradient>
	<ellipse class="st26" cx="275.8" cy="32.6" rx="11" ry="10.9"/>
	
		<linearGradient id="SVGID_14_" gradientUnits="userSpaceOnUse" x1="224.66" y1="358.09" x2="246.72" y2="358.09" gradientTransform="matrix(1 0 0 -1 0 389.89)">
		<stop  offset="0" style="stop-color:#FFFFFF"/>
		<stop  offset="0.52" style="stop-color:#C02B31"/>
		<stop  offset="0.97" style="stop-color:#BE1E2D"/>
	</linearGradient>
	<ellipse class="st27" cx="235.7" cy="31.8" rx="11" ry="10.9"/>
	
		<linearGradient id="SVGID_15_" gradientUnits="userSpaceOnUse" x1="242.5" y1="358.29" x2="267.98" y2="358.29" gradientTransform="matrix(1 0 0 -1 0 389.89)">
		<stop  offset="0" style="stop-color:#FFFFFF"/>
		<stop  offset="0.52" style="stop-color:#C02B31"/>
		<stop  offset="0.97" style="stop-color:#BE1E2D"/>
	</linearGradient>
	<ellipse class="st28" cx="255.2" cy="31.6" rx="12.7" ry="12.5"/>
</g>
<g id="hips">
	<circle class="st29" cx="189.3" cy="374.2" r="6.2"/>
	<circle class="st29" cx="199.1" cy="377.2" r="6.2"/>
	<circle class="st29" cx="208.8" cy="380.2" r="6.2"/>
	<circle class="st29" cx="218.6" cy="383.2" r="6.2"/>
	<circle class="st29" cx="228.4" cy="386.2" r="6.2"/>
	<circle class="st29" cx="238.2" cy="389.2" r="6.2"/>
	<path class="st29" d="M316.8,377.4c-3.4,0-6.2-2.8-6.2-6.2s2.8-6.2,6.2-6.2"/>
	<circle class="st29" cx="307.1" cy="374.2" r="6.2"/>
	<circle class="st29" cx="297.3" cy="377.2" r="6.2"/>
	<circle class="st29" cx="287.5" cy="380.2" r="6.2"/>
	<circle class="st29" cx="277.7" cy="383.2" r="6.2"/>
	<circle class="st29" cx="267.9" cy="386.2" r="6.2"/>
	<ellipse class="st29" cx="258.1" cy="389.2" rx="6.2" ry="6.2"/>
	<circle class="st29" cx="248.4" cy="390" r="6.9"/>
</g>
<g id="drum_1_">
	<g>
		
			<linearGradient id="SVGID_16_" gradientUnits="userSpaceOnUse" x1="245.86" y1="1043.3301" x2="450.06" y2="1043.3301" gradientTransform="matrix(1 0 0 1 -92.26 -461.33)">
			<stop  offset="0" style="stop-color:#C49A6C"/>
			<stop  offset="0" style="stop-color:#C59B6B"/>
			<stop  offset="5.000000e-02" style="stop-color:#D9AB49"/>
			<stop  offset="0.11" style="stop-color:#E9B72E"/>
			<stop  offset="0.16" style="stop-color:#F4C01B"/>
			<stop  offset="0.22" style="stop-color:#FBC510"/>
			<stop  offset="0.28" style="stop-color:#FDC70C"/>
			<stop  offset="0.67" style="stop-color:#A97C50"/>
			<stop  offset="0.89" style="stop-color:#A97C50"/>
			<stop  offset="1" style="stop-color:#8B5E3C"/>
		</linearGradient>
		<path class="st30" d="M357.8,549.2H153.6l17.8,48.7l0,0c3.6,11.2,39.3,16.9,84.8,16.9s82.6-7.5,83.9-16.9h0.1L357.8,549.2z"/>
		
			<linearGradient id="SVGID_17_" gradientUnits="userSpaceOnUse" x1="153.5" y1="775.2" x2="358.1" y2="775.2" gradientTransform="matrix(1 0 0 1 0 -226)">
			<stop  offset="0" style="stop-color:#C49A6C"/>
			<stop  offset="0" style="stop-color:#C59B6B"/>
			<stop  offset="5.000000e-02" style="stop-color:#D9AB49"/>
			<stop  offset="0.11" style="stop-color:#E9B72E"/>
			<stop  offset="0.16" style="stop-color:#F4C01B"/>
			<stop  offset="0.22" style="stop-color:#FBC510"/>
			<stop  offset="0.28" style="stop-color:#FDC70C"/>
			<stop  offset="0.67" style="stop-color:#A97C50"/>
			<stop  offset="0.89" style="stop-color:#A97C50"/>
			<stop  offset="1" style="stop-color:#8B5E3C"/>
		</linearGradient>
		<ellipse class="st31" cx="255.8" cy="549.2" rx="102.3" ry="21.1"/>
		
			<linearGradient id="SVGID_18_" gradientUnits="userSpaceOnUse" x1="305.0466" y1="997.1801" x2="395.6466" y2="997.1801" gradientTransform="matrix(1 0 0 1 -92.26 -461.33)">
			<stop  offset="0" style="stop-color:#C49A6C"/>
			<stop  offset="0" style="stop-color:#C59B6B"/>
			<stop  offset="5.000000e-02" style="stop-color:#D9AB49"/>
			<stop  offset="0.11" style="stop-color:#E9B72E"/>
			<stop  offset="0.16" style="stop-color:#F4C01B"/>
			<stop  offset="0.22" style="stop-color:#FBC510"/>
			<stop  offset="0.28" style="stop-color:#FDC70C"/>
			<stop  offset="0.67" style="stop-color:#A97C50"/>
			<stop  offset="0.89" style="stop-color:#A97C50"/>
			<stop  offset="1" style="stop-color:#8B5E3C"/>
		</linearGradient>
		<path class="st32" d="M303.5,540.4c0-11.1-20.3-20.1-45.3-20.1s-45.3,9-45.3,20.1s18.4,11,43.4,11
			C281.3,551.3,303.5,551.5,303.5,540.4z"/>
	</g>
	<line class="st33" x1="248.4" y1="515.1" x2="186.1" y2="455.4"/>
	
		<linearGradient id="SVGID_19_" gradientUnits="userSpaceOnUse" x1="1087.3356" y1="-452.2815" x2="1113.8569" y2="-452.2815" gradientTransform="matrix(-0.6924 0.7215 -0.7215 -0.6924 684.0665 -592.1261)">
		<stop  offset="0" style="stop-color:#FFE2A1"/>
		<stop  offset="7.000000e-02" style="stop-color:#FFECC2"/>
		<stop  offset="0.15" style="stop-color:#FFF4DD"/>
		<stop  offset="0.22" style="stop-color:#FFFAF0"/>
		<stop  offset="0.3" style="stop-color:#FFFEFB"/>
		<stop  offset="0.38" style="stop-color:#FFFFFF"/>
		<stop  offset="0.69" style="stop-color:#FFE2A1"/>
		<stop  offset="0.9" style="stop-color:#FFFFFF"/>
		<stop  offset="1" style="stop-color:#FFE2A1"/>
	</linearGradient>
	<path class="st34" d="M238.7,505.9c5.1-5.3,13.5-5.4,18.8-0.3c5.3,5.1,5.5,13.5,0.4,18.8c-5.1,5.3-13.5,5.4-18.8,0.3
		C233.9,519.6,233.7,511.2,238.7,505.9z"/>
</g>
<g id="arms_1_">
	<g id="arms">
		<circle id="hand" class="st35" cx="304.8" cy="458.9" r="21.1"/>
		<circle id="hand_1_" class="st35" cx="189.2" cy="455" r="21.1"/>
		<g>
			<path id="Body-2_5_" class="st36" d="M207.2,429.7l-18.9-9.7c0,0-2.5-12.7-7.7-21.6c0,0-20.1-53.8-6.6-89c0,0,9.2-35-20-49.1
				c0,0-16.5-6.8-25.8,1.9c-26.9,33.6-23.9,89.4-13.6,111.4s42.4,60.2,42.4,60.2l3.7,35.8"/>
			<g>
				<circle class="st29" cx="209.7" cy="429.7" r="4.7"/>
				<circle class="st29" cx="203.9" cy="435.6" r="4.7"/>
				<circle class="st29" cx="198.8" cy="440.1" r="4.7"/>
				<circle class="st29" cx="191.9" cy="444.3" r="4.7"/>
				<circle class="st29" cx="186.6" cy="449.9" r="4.7"/>
				<circle class="st29" cx="180.6" cy="454" r="4.7"/>
				<circle class="st29" cx="176.3" cy="459.4" r="4.7"/>
				<circle class="st29" cx="171.4" cy="463.5" r="4.7"/>
				<circle class="st29" cx="165.2" cy="468.5" r="4.7"/>
			</g>
		</g>
		<g>
			<path id="Body-2_4_" class="st36" d="M339.2,468.8l4.6-34c0,0,39.7-35,50-63.5s4.1-73.8-22.7-107.5
				c-12.5-15.7-59.3-19.4-59.3-19.4c37.9,68.8,29.4,93.1,29.4,114c0,20.8-17.1,58.2-17.1,58.2l-25.6,8.9"/>
			<g>
				<ellipse class="st29" cx="299.1" cy="426.3" rx="4.7" ry="4.7"/>
				<circle class="st29" cx="304.1" cy="432.8" r="4.7"/>
				<circle class="st29" cx="308.6" cy="438" r="4.7"/>
				<circle class="st29" cx="314.9" cy="443.1" r="4.7"/>
				<circle class="st29" cx="319.3" cy="449.3" r="4.7"/>
				<circle class="st29" cx="324.8" cy="454.2" r="4.7"/>
				<circle class="st29" cx="328.4" cy="460.1" r="4.7"/>
				<circle class="st29" cx="332.7" cy="464.8" r="4.7"/>
				<circle class="st29" cx="338.2" cy="470.6" r="4.7"/>
			</g>
		</g>
	</g>
</g>
<g id="coller_1_">
	<g id="coller">
		<path class="st37" d="M251.2,341.2c0,0,31.9-70.4,38-80.8c8-13.7,16.6-25.9,16.6-25.9c12.7-15.2,23.3-10.4,32.8-10.4l5.1,0.5
			c14.1,1.4,26.1,8.8,31.5,19.5l12.9,26.8c2,4,0.3,8.8-3.7,10.8c-0.2,0.1-0.3,0.2-0.5,0.2"/>
		<g id="beads">
			<circle class="st29" cx="386.8" cy="281.5" r="6.2"/>
			<circle class="st29" cx="375.9" cy="286.2" r="6.2"/>
			<circle class="st29" cx="365" cy="290.9" r="6.2"/>
			<circle class="st29" cx="354.2" cy="295.6" r="6.2"/>
			<circle class="st29" cx="343.3" cy="300.3" r="6.2"/>
			<circle class="st29" cx="332.4" cy="305" r="6.2"/>
			<circle class="st29" cx="322.5" cy="309.7" r="6.2"/>
			<circle class="st29" cx="311.6" cy="314.4" r="6.2"/>
			<circle class="st29" cx="300.8" cy="319.1" r="6.2"/>
			<circle class="st29" cx="290.9" cy="323.8" r="6.2"/>
			<circle class="st29" cx="280" cy="328.5" r="6.2"/>
			<circle class="st29" cx="269.1" cy="333.2" r="6.2"/>
			<circle class="st29" cx="259.2" cy="337.5" r="6.2"/>
		</g>
		<path class="st37" d="M114.8,281.9c-0.2-0.1-0.3-0.1-0.5-0.2c-4-2-5.6-6.8-3.7-10.8l12.9-26.8c5.4-10.7,17.5-18.1,31.5-19.5
			l5.1-0.5c9.5,0,20.1-4.8,32.8,10.4c0,0,8.6,12.1,16.6,25.9c6,10.4,38,80.8,38,80.8"/>
		<g id="beads-2">
			<circle class="st29" cx="112.7" cy="281.7" r="6.2"/>
			
				<ellipse transform="matrix(0.9806 -0.1961 0.1961 0.9806 -53.7665 29.8013)" class="st29" cx="123.6" cy="286.4" rx="6.2" ry="6.2"/>
			<circle class="st29" cx="134.5" cy="291.1" r="6.2"/>
			<circle class="st29" cx="145.3" cy="295.8" r="6.2"/>
			<circle class="st29" cx="156.2" cy="300.5" r="6.2"/>
			<circle class="st29" cx="167.1" cy="305.2" r="6.2"/>
			<circle class="st29" cx="176.9" cy="309.9" r="6.2"/>
			<circle class="st29" cx="187.8" cy="314.6" r="6.2"/>
			<circle class="st29" cx="198.7" cy="319.3" r="6.2"/>
			<circle class="st29" cx="208.6" cy="324" r="6.2"/>
			<circle class="st29" cx="219.4" cy="328.6" r="6.2"/>
			<circle class="st29" cx="230.3" cy="333.3" r="6.2"/>
			<circle class="st29" cx="240.3" cy="337.6" r="6.2"/>
		</g>
		
			<linearGradient id="SVGID_20_" gradientUnits="userSpaceOnUse" x1="236.66" y1="57.39" x2="262.14" y2="57.39" gradientTransform="matrix(1 0 0 -1 0 389.89)">
			<stop  offset="0" style="stop-color:#FFFFFF"/>
			<stop  offset="0.52" style="stop-color:#C02B31"/>
			<stop  offset="0.97" style="stop-color:#BE1E2D"/>
		</linearGradient>
		<ellipse class="st38" cx="249.4" cy="332.5" rx="12.7" ry="12.5"/>
	</g>
</g>
</svg>
