<?xml version="1.0" encoding="utf-8"?>
<!-- Generator: Adobe Illustrator 24.0.0, SVG Export Plug-In . SVG Version: 6.00 Build 0)  -->
<svg version="1.1" id="Layer_1" xmlns="http://www.w3.org/2000/svg" xmlns:xlink="http://www.w3.org/1999/xlink" x="0px" y="0px"
	 viewBox="0 0 595.3 841.9" style="enable-background:new 0 0 595.3 841.9;" xml:space="preserve">
<style type="text/css">
	.st0{fill:none;}
	.st1{fill:#62B859;}
	.st2{fill:#99C884;}
	.st3{fill:#FBEDF3;}
	.st4{fill:#E1709C;stroke:#310F2E;stroke-width:10;stroke-linecap:round;stroke-linejoin:round;stroke-miterlimit:10;}
	.st5{fill:url(#SVGID_5_);stroke:#310F2E;stroke-width:10;stroke-linecap:round;stroke-linejoin:round;stroke-miterlimit:10;}
	.st6{fill:#F6C658;stroke:#310F2E;stroke-width:10;stroke-linecap:round;stroke-linejoin:round;stroke-miterlimit:10;}
	.st7{fill:#310F2E;}
	.st8{fill:#F6CFD7;}
	.st9{fill:#2B102E;}
	.st10{fill:#E05149;}
	.st11{fill:#DE4E8C;}
	.st12{fill:#F6C658;}
	.st13{fill:#E35A2B;}
	.st14{fill:url(#SVGID_6_);stroke:#310F2E;stroke-width:10;stroke-linecap:round;stroke-linejoin:round;stroke-miterlimit:10;}
	.st15{fill:#C2996C;}
	.st16{fill:#FDEFD6;}
	.st17{fill:none;stroke:#8A6139;stroke-width:4.8;stroke-miterlimit:10;}
	.st18{fill:#FBEDF3;stroke:#310F2E;stroke-width:10;stroke-linecap:round;stroke-linejoin:round;stroke-miterlimit:10;}
	.st19{fill:url(#SVGID_7_);stroke:#310F2E;stroke-width:10;stroke-linecap:round;stroke-linejoin:round;stroke-miterlimit:10;}
	.st20{fill:url(#SVGID_8_);stroke:#310F2E;stroke-width:10;stroke-linecap:round;stroke-linejoin:round;stroke-miterlimit:10;}
</style>
<pattern  y="841.9" width="54.2" height="54.2" patternUnits="userSpaceOnUse" id="SVGID_1_" viewBox="0 -54.2 54.2 54.2" style="overflow:visible;">
	<g>
		<rect y="-54.2" class="st0" width="54.2" height="54.2"/>
		<g>
			<rect y="-54.2" class="st0" width="54.2" height="54.2"/>
			<rect y="-54.2" class="st1" width="54.2" height="54.2"/>
			<g>
				<ellipse transform="matrix(0.3546 -0.935 0.935 0.3546 20.0741 6.7049)" class="st2" cx="14.9" cy="-11.2" rx="6.5" ry="4.1"/>
				<ellipse transform="matrix(0.9871 -0.1604 0.1604 0.9871 2.7477 1.5139)" class="st2" cx="10.8" cy="-16.3" rx="6.5" ry="4.1"/>
				
					<ellipse transform="matrix(0.7746 -0.6325 0.6325 0.7746 17.1067 3.2192)" class="st2" cx="13.1" cy="-22.4" rx="4.1" ry="6.6"/>
				<ellipse transform="matrix(0.3546 -0.935 0.935 0.3546 34.5248 3.1423)" class="st2" cx="19.5" cy="-23.4" rx="6.5" ry="4.1"/>
				<ellipse transform="matrix(0.9871 -0.1604 0.1604 0.9871 3.2538 3.5607)" class="st2" cx="23.7" cy="-18.4" rx="6.5" ry="4.1"/>
				
					<ellipse transform="matrix(0.7746 -0.6325 0.6325 0.7746 12.5547 10.7506)" class="st2" cx="21.4" cy="-12.2" rx="4.1" ry="6.6"/>
			</g>
			<circle class="st2" cx="40.4" cy="-41.4" r="3.7"/>
		</g>
	</g>
</pattern>
<pattern  y="841.9" width="54.2" height="54.2" patternUnits="userSpaceOnUse" id="SVGID_2_" viewBox="0 -54.2 54.2 54.2" style="overflow:visible;">
	<g>
		<rect y="-54.2" class="st0" width="54.2" height="54.2"/>
		<g>
			<rect y="-54.2" class="st0" width="54.2" height="54.2"/>
			<rect y="-54.2" class="st1" width="54.2" height="54.2"/>
			<g>
				<ellipse transform="matrix(0.3546 -0.935 0.935 0.3546 20.0741 6.7049)" class="st2" cx="14.9" cy="-11.2" rx="6.5" ry="4.1"/>
				<ellipse transform="matrix(0.9871 -0.1604 0.1604 0.9871 2.7477 1.5139)" class="st2" cx="10.8" cy="-16.3" rx="6.5" ry="4.1"/>
				
					<ellipse transform="matrix(0.7746 -0.6325 0.6325 0.7746 17.1067 3.2192)" class="st2" cx="13.1" cy="-22.4" rx="4.1" ry="6.6"/>
				<ellipse transform="matrix(0.3546 -0.935 0.935 0.3546 34.5248 3.1423)" class="st2" cx="19.5" cy="-23.4" rx="6.5" ry="4.1"/>
				<ellipse transform="matrix(0.9871 -0.1604 0.1604 0.9871 3.2538 3.5607)" class="st2" cx="23.7" cy="-18.4" rx="6.5" ry="4.1"/>
				
					<ellipse transform="matrix(0.7746 -0.6325 0.6325 0.7746 12.5547 10.7506)" class="st2" cx="21.4" cy="-12.2" rx="4.1" ry="6.6"/>
			</g>
			<circle class="st2" cx="40.4" cy="-41.4" r="3.7"/>
		</g>
	</g>
</pattern>
<pattern  y="841.9" width="54.2" height="54.2" patternUnits="userSpaceOnUse" id="SVGID_3_" viewBox="0 -54.2 54.2 54.2" style="overflow:visible;">
	<g>
		<rect y="-54.2" class="st0" width="54.2" height="54.2"/>
		<g>
			<rect y="-54.2" class="st0" width="54.2" height="54.2"/>
			<rect y="-54.2" class="st1" width="54.2" height="54.2"/>
			<g>
				<ellipse transform="matrix(0.3546 -0.935 0.935 0.3546 20.0741 6.7049)" class="st2" cx="14.9" cy="-11.2" rx="6.5" ry="4.1"/>
				<ellipse transform="matrix(0.9871 -0.1604 0.1604 0.9871 2.7477 1.5139)" class="st2" cx="10.8" cy="-16.3" rx="6.5" ry="4.1"/>
				
					<ellipse transform="matrix(0.7746 -0.6325 0.6325 0.7746 17.1067 3.2192)" class="st2" cx="13.1" cy="-22.4" rx="4.1" ry="6.6"/>
				<ellipse transform="matrix(0.3546 -0.935 0.935 0.3546 34.5248 3.1423)" class="st2" cx="19.5" cy="-23.4" rx="6.5" ry="4.1"/>
				<ellipse transform="matrix(0.9871 -0.1604 0.1604 0.9871 3.2538 3.5607)" class="st2" cx="23.7" cy="-18.4" rx="6.5" ry="4.1"/>
				
					<ellipse transform="matrix(0.7746 -0.6325 0.6325 0.7746 12.5547 10.7506)" class="st2" cx="21.4" cy="-12.2" rx="4.1" ry="6.6"/>
			</g>
			<circle class="st2" cx="40.4" cy="-41.4" r="3.7"/>
		</g>
	</g>
</pattern>
<pattern  y="841.9" width="54.2" height="54.2" patternUnits="userSpaceOnUse" id="SVGID_4_" viewBox="0 -54.2 54.2 54.2" style="overflow:visible;">
	<g>
		<rect y="-54.2" class="st0" width="54.2" height="54.2"/>
		<g>
			<rect y="-54.2" class="st0" width="54.2" height="54.2"/>
			<rect y="-54.2" class="st1" width="54.2" height="54.2"/>
			<g>
				<ellipse transform="matrix(0.3546 -0.935 0.935 0.3546 20.0741 6.7049)" class="st2" cx="14.9" cy="-11.2" rx="6.5" ry="4.1"/>
				<ellipse transform="matrix(0.9871 -0.1604 0.1604 0.9871 2.7477 1.5139)" class="st2" cx="10.8" cy="-16.3" rx="6.5" ry="4.1"/>
				
					<ellipse transform="matrix(0.7746 -0.6325 0.6325 0.7746 17.1067 3.2192)" class="st2" cx="13.1" cy="-22.4" rx="4.1" ry="6.6"/>
				<ellipse transform="matrix(0.3546 -0.935 0.935 0.3546 34.5248 3.1423)" class="st2" cx="19.5" cy="-23.4" rx="6.5" ry="4.1"/>
				<ellipse transform="matrix(0.9871 -0.1604 0.1604 0.9871 3.2538 3.5607)" class="st2" cx="23.7" cy="-18.4" rx="6.5" ry="4.1"/>
				
					<ellipse transform="matrix(0.7746 -0.6325 0.6325 0.7746 12.5547 10.7506)" class="st2" cx="21.4" cy="-12.2" rx="4.1" ry="6.6"/>
			</g>
			<circle class="st2" cx="40.4" cy="-41.4" r="3.7"/>
		</g>
	</g>
</pattern>
<path class="st3" d="M310.1,361.6c0,0-76.8,2.6-94.9,0s37.5,62,49,61C275.7,421.5,309.2,379.6,310.1,361.6z"/>
<path class="st4" d="M215.3,361.6l30.2-0.1l17.2,42.7C262.7,404.3,251,418.9,215.3,361.6"/>
<path class="st4" d="M310.1,361.6l-30.2-0.1l-17.2,42.7C262.7,404.3,274.4,418.9,310.1,361.6"/>
<pattern  id="SVGID_5_" xlink:href="#SVGID_1_" patternTransform="matrix(1 0 0 -1 18.2325 -16272.7451)">
</pattern>
<path class="st5" d="M141.4,396c0,0-21.3,215.2-9.2,310.4c0,0,124.1,58.1,267.9-9c0,0,0.5-255.2-23-305.4c0,0-12.7-24.5-57.3-30.4
	c-15.1-2-43.3,48-59.9,48c-8.2,0-44-48.7-51.4-48C156,366.5,141.4,396,141.4,396z"/>
<path class="st6" d="M389.4,569.5h-255c0,0-9,0-9-49.5s9-49.5,9-49.5h255c0,0,11.1,12.2,11.1,53.8
	C400.5,565.9,389.4,569.5,389.4,569.5z"/>
<path id="hair_1_" class="st7" d="M112.9,225.3c0,0,19.3-48.3,50.6-70.5c0,0,26.9-22.3,82-24.4c48.4-1.8,79.6-3.2,106.3,10.7
	c25.9,13.5,57,43.4,61.9,84.1c0,0,18.5,78.3-52.4,116.1C330,358,302.1,366.7,262.7,367c-58.4,0-65.5-8-103.5-21.7
	C159.2,345.3,80.6,313.8,112.9,225.3z"/>
<path id="face_1_" class="st3" d="M183.4,248.3v-31.7c0,0,29.7-16.4,80.9-16.4s71.3,16.4,71.3,16.4v31.7h23c0,0,9,1.5,8.2,13.8
	c0,0,0,55.9-15.8,70c-12.5,12.5-85.3,41.9-167.5,4.1c0,0-10.7-2.5-14.8-17.9s-11.8-53.2-8.7-66.6
	C159.8,251.7,168.8,250.2,183.4,248.3z"/>
<path class="st8" d="M189.7,213.6c0,0-0.9,0.3-4.4,1.7c-1.8,0.7-3,1.1-2.9,3.1l0.9,30l-23.6,3.4c0,0-2.8,11.7,0.6,24.7
	c0.4,1.7,0.5-13,4.8-18.7c0,0,11-0.3,14.1-0.2c3.9,0.1,11.8-2.4,11.8-6.3L189.7,213.6z"/>
<path class="st8" d="M327.5,211.9c0,0,3,1.3,5.7,3.1c1.6,1.1,2.9,1.4,2.8,3.2l0.1,29.6l20.9,0.4c0,0,9-0.2,9.7,7
	c0.8,7.9-0.6,22.2-0.6,22.2c-1.8,1.4-6.4-17.1-6.4-17.1c-0.6-4-18-3.2-20.4-3.2c-3.9,0.1-11.8-2.4-11.8-6.3L327.5,211.9L327.5,211.9
	z"/>
<circle class="st8" cx="191.1" cy="313.7" r="14.8"/>
<circle class="st8" cx="340.8" cy="313.7" r="14.8"/>
<path id="eyes_1_" class="st9" d="M211.2,276.4c13-0.8,23.5,9.9,23.5,9.9c2.1,6.9-5.9,6.3-5.9,6.3c0-3.1-11.8-7.7-11.8-7.7
	c-14.6-2.2-22.2,6.3-22.2,6.3s-4.1,3.3-6.6,0s1.5-6.3,1.5-6.3S198.2,277.2,211.2,276.4z M294,285.3c0,0-4.1,2.9-1.5,6.3s6.6,0,6.6,0
	s7.6-8.4,22.2-6.3c0,0,11.8,4.6,11.8,7.7c0,0,7.9,0.6,5.9-6.3c0,0-10.5-10.7-23.5-9.9S294,285.3,294,285.3z"/>
<path id="mouse_1_" class="st10" d="M284.6,323.2c0,0,3.9-3,1.5-6.4c-2.4-3.4-6.3,0-6.3,0s-7.2,8.7-21,6.4c0,0-11.1-4.8-11.1-8
	c0,0-7.5-0.6-5.6,6.5c0,0,9.9,11,22.2,10.2C276.6,331.2,284.6,323.2,284.6,323.2z"/>
<ellipse transform="matrix(0.9522 -0.3055 0.3055 0.9522 -82.064 60.9844)" class="st3" cx="153.8" cy="292.7" rx="13.3" ry="20.6"/>
<ellipse transform="matrix(0.1736 -0.9848 0.9848 0.1736 20.8522 610.2018)" class="st3" cx="374" cy="292.7" rx="20.6" ry="13.3"/>
<ellipse class="st7" cx="264" cy="120.7" rx="79.3" ry="42.7"/>
<g>
	<g>
		<ellipse class="st11" cx="324.7" cy="130.5" rx="4.4" ry="14.8"/>
		
			<ellipse transform="matrix(0.9397 -0.342 0.342 0.9397 -25.6599 117.2425)" class="st11" cx="319.6" cy="131.4" rx="4.4" ry="14.8"/>
		
			<ellipse transform="matrix(0.766 -0.6428 0.6428 0.766 -12.3527 233.947)" class="st11" cx="315.2" cy="133.9" rx="4.4" ry="14.8"/>
		<ellipse transform="matrix(0.5 -0.866 0.866 0.5 36.5247 339.0561)" class="st11" cx="311.9" cy="137.9" rx="4.4" ry="14.8"/>
		
			<ellipse transform="matrix(0.1736 -0.9848 0.9848 0.1736 115.743 423.3591)" class="st11" cx="310.1" cy="142.7" rx="4.4" ry="14.8"/>
		
			<ellipse transform="matrix(0.9848 -0.1736 0.1736 0.9848 -20.9605 56.0846)" class="st11" cx="310.1" cy="147.9" rx="14.8" ry="4.4"/>
		<ellipse transform="matrix(0.866 -0.5 0.5 0.866 -34.5522 176.4046)" class="st11" cx="311.9" cy="152.7" rx="14.8" ry="4.4"/>
		
			<ellipse transform="matrix(0.6428 -0.766 0.766 0.6428 -7.4028 297.3969)" class="st11" cx="315.2" cy="156.6" rx="14.8" ry="4.4"/>
		
			<ellipse transform="matrix(0.342 -0.9397 0.9397 0.342 60.7442 405.1166)" class="st11" cx="319.6" cy="159.2" rx="14.8" ry="4.4"/>
		<ellipse class="st11" cx="324.7" cy="160.1" rx="4.4" ry="14.8"/>
		
			<ellipse transform="matrix(0.9397 -0.342 0.342 0.9397 -34.5605 122.3811)" class="st11" cx="329.8" cy="159.2" rx="4.4" ry="14.8"/>
		
			<ellipse transform="matrix(0.766 -0.6428 0.6428 0.766 -22.4725 251.4782)" class="st11" cx="334.2" cy="156.6" rx="4.4" ry="14.8"/>
		<ellipse transform="matrix(0.5 -0.866 0.866 0.5 36.52 368.6396)" class="st11" cx="337.5" cy="152.7" rx="4.4" ry="14.8"/>
		
			<ellipse transform="matrix(0.1736 -0.9848 0.9848 0.1736 134.7586 456.2895)" class="st11" cx="339.3" cy="147.8" rx="4.4" ry="14.8"/>
		
			<ellipse transform="matrix(0.9848 -0.1736 0.1736 0.9848 -19.6277 61.0658)" class="st11" cx="339.3" cy="142.7" rx="14.8" ry="4.4"/>
		<ellipse transform="matrix(0.866 -0.5 0.5 0.866 -23.7251 187.2345)" class="st11" cx="337.5" cy="137.9" rx="14.8" ry="4.4"/>
		<ellipse transform="matrix(0.6428 -0.766 0.766 0.6428 16.7547 303.8677)" class="st11" cx="334.2" cy="134" rx="14.8" ry="4.4"/>
		
			<ellipse transform="matrix(0.342 -0.9397 0.9397 0.342 93.5275 396.3239)" class="st11" cx="329.8" cy="131.4" rx="14.8" ry="4.4"/>
	</g>
	<circle class="st12" cx="324.7" cy="145.3" r="7.9"/>
</g>
<g>
	<g>
		<ellipse class="st13" cx="372.5" cy="141.8" rx="4.4" ry="14.8"/>
		
			<ellipse transform="matrix(0.9397 -0.342 0.342 0.9397 -26.6576 134.2646)" class="st13" cx="367.4" cy="142.7" rx="4.4" ry="14.8"/>
		<ellipse transform="matrix(0.766 -0.6428 0.6428 0.766 -8.4588 267.3026)" class="st13" cx="363" cy="145.3" rx="4.4" ry="14.8"/>
		<ellipse transform="matrix(0.5 -0.866 0.866 0.5 50.5939 386.0891)" class="st13" cx="359.7" cy="149.2" rx="4.4" ry="14.8"/>
		
			<ellipse transform="matrix(0.1736 -0.9848 0.9848 0.1736 144.0559 479.7624)" class="st13" cx="357.9" cy="154" rx="4.4" ry="14.8"/>
		
			<ellipse transform="matrix(0.9848 -0.1736 0.1736 0.9848 -22.2042 64.5499)" class="st13" cx="357.9" cy="159.2" rx="14.8" ry="4.4"/>
		<ellipse transform="matrix(0.866 -0.5 0.5 0.866 -33.8173 201.8068)" class="st13" cx="359.7" cy="164" rx="14.8" ry="4.4"/>
		<ellipse transform="matrix(0.6428 -0.766 0.766 0.6428 0.9779 338.0358)" class="st13" cx="363" cy="168" rx="14.8" ry="4.4"/>
		
			<ellipse transform="matrix(0.342 -0.9397 0.9397 0.342 81.5269 457.4579)" class="st13" cx="367.4" cy="170.5" rx="14.8" ry="4.4"/>
		<ellipse class="st13" cx="372.5" cy="171.4" rx="4.4" ry="14.8"/>
		
			<ellipse transform="matrix(0.9397 -0.342 0.342 0.9397 -35.5552 139.4014)" class="st13" cx="377.5" cy="170.5" rx="4.4" ry="14.8"/>
		
			<ellipse transform="matrix(0.766 -0.6428 0.6428 0.766 -18.5788 284.8338)" class="st13" cx="382" cy="167.9" rx="4.4" ry="14.8"/>
		<ellipse transform="matrix(0.5 -0.866 0.866 0.5 50.5893 415.6726)" class="st13" cx="385.3" cy="164" rx="4.4" ry="14.8"/>
		
			<ellipse transform="matrix(0.1736 -0.9848 0.9848 0.1736 163.0779 512.704)" class="st13" cx="387" cy="159.2" rx="4.4" ry="14.8"/>
		
			<ellipse transform="matrix(0.9848 -0.1736 0.1736 0.9848 -20.8696 69.5306)" class="st13" cx="387" cy="154.1" rx="14.8" ry="4.4"/>
		<ellipse transform="matrix(0.866 -0.5 0.5 0.866 -22.9901 212.6366)" class="st13" cx="385.3" cy="149.2" rx="14.8" ry="4.4"/>
		<ellipse transform="matrix(0.6428 -0.766 0.766 0.6428 25.1355 344.5066)" class="st13" cx="382" cy="145.3" rx="14.8" ry="4.4"/>
		
			<ellipse transform="matrix(0.342 -0.9397 0.9397 0.342 114.3132 448.6763)" class="st13" cx="377.5" cy="142.7" rx="14.8" ry="4.4"/>
	</g>
	<circle class="st12" cx="372.5" cy="156.6" r="7.9"/>
</g>
<path class="st8" d="M185.4,215.3c0,0,28.7-15.1,78.9-15.1s71.8,16,71.8,16s-2.2,7.6-6.3,5.9c-14.3-6-29.7-15.7-67.1-15.2
	c-31.2,0.4-76.1,15.2-76.1,15.2L185.4,215.3z"/>
<pattern  id="SVGID_6_" xlink:href="#SVGID_2_" patternTransform="matrix(0.9769 -0.2139 -0.2139 -0.9769 -851.1913 -15939.0234)">
</pattern>
<path class="st14" d="M377.1,392.1c0,0-6.4-31.8,55.8,22.6c30,26.3,43.9,102.1-33.5,102.1S355.5,448,377.1,392.1z"/>
<g>
	
		<rect x="225" y="458.9" transform="matrix(0.8121 -0.5835 0.5835 0.8121 -207.6403 311.6402)" class="st9" width="310.1" height="38.7"/>
	<path class="st15" d="M143.6,705.3l-54.2-75.4c-15.9-22.2-10.9-53.1,11.3-69l75.4-54.2c22.2-15.9,53.1-10.9,69.1,11.3l54.2,75.4
		c15.9,22.2,10.9,53.1-11.3,69l-75.4,54.2C190.5,732.6,159.6,727.5,143.6,705.3z"/>
	<path class="st16" d="M148.7,696l-48.8-67.9c-14.3-20-9.8-47.8,10.2-62.1l67.9-48.8c20-14.4,47.8-9.8,62.1,10.2l48.8,67.9
		c14.4,20,9.8,47.8-10.2,62.1l-67.9,48.8C190.9,720.5,163,716,148.7,696z"/>
	<polygon class="st9" points="466.8,392.2 433,352 446,342.6 473.3,387.5 	"/>
	<polygon class="st9" points="491.5,412.8 518.8,457.7 531.8,448.3 498,408.1 	"/>
	<polygon class="st9" points="468.2,429.5 495.5,474.4 508.5,465.1 474.7,424.8 	"/>
	
		<rect x="150.3" y="603.8" transform="matrix(0.8121 -0.5835 0.5835 0.8121 -343.7921 211.0798)" class="st15" width="11.2" height="71.2"/>
	<line class="st17" x1="488.6" y1="388.2" x2="140.5" y2="638.3"/>
	<line class="st17" x1="494.3" y1="396.2" x2="146.2" y2="646.3"/>
	<line class="st17" x1="500" y1="404.2" x2="151.9" y2="654.2"/>
</g>
<path class="st15" d="M85,601.8c1.7-11.3,1.8-11.9,3.7-23.8C199,607.1,218,579.2,218,579.2l-9.2,60.2
	C208.8,639.4,190.6,610.1,85,601.8z"/>
<circle class="st18" cx="148.1" cy="569.5" r="19.3"/>
<pattern  id="SVGID_7_" xlink:href="#SVGID_3_" patternTransform="matrix(0.9782 -0.2079 0.2079 0.9782 -7.7311 14603.3086)">
</pattern>
<path class="st19" d="M453.1,550.4c55.4-46.2,34.1-64.7,12.3-102.2l-119.9,71.2C345.5,519.3,387.5,605.1,453.1,550.4z"/>
<pattern  id="SVGID_8_" xlink:href="#SVGID_4_" patternTransform="matrix(0.9977 -6.780000e-02 -6.780000e-02 -0.9977 -61.5038 -16255.4746)">
</pattern>
<path class="st20" d="M145.6,368.7c0,0-56.4,33.1-72.9,100.2c-8.3,33.5,4.5,107.4,4.5,107.4l126.2-40.7
	C203.4,535.6,181.9,416.4,145.6,368.7z"/>
<circle class="st18" cx="399.4" cy="497.5" r="19.3"/>
</svg>
