<svg id="Layer_1" data-name="Layer 1" xmlns="http://www.w3.org/2000/svg" viewBox="0 0 490.79 616.03"><defs><style>.cls-1{fill:#331330;}.cls-2{fill:#fdeff5;}.cls-3{fill:#fbd2db;}.cls-4{fill:#2d1230;}.cls-5{fill:#ef524b;}.cls-6{fill:#f0534d;}.cls-7{fill:#ffcc57;}.cls-8{fill:#f89725;}.cls-9{fill:#f04d4e;}.cls-10{fill:#c92032;}.cls-11{fill:#fac951;}.cls-12{fill:#ee4c4e;}.cls-13{fill:#4b241a;}.cls-14{fill:#dcbd6e;}.cls-15{fill:#301615;}.cls-16{fill:#b4632f;}.cls-16,.cls-26,.cls-27{stroke:#3a1615;}.cls-16,.cls-19,.cls-20,.cls-21,.cls-22,.cls-23,.cls-26,.cls-27,.cls-28{stroke-miterlimit:10;}.cls-16,.cls-20,.cls-21{stroke-width:2px;}.cls-17{fill:#e0cb80;}.cls-18{fill:#b45f27;}.cls-19,.cls-20,.cls-21,.cls-22,.cls-23,.cls-26{fill:none;}.cls-19{stroke:#321530;stroke-width:2.5px;opacity:0.57;}.cls-20{stroke:#f0f4d0;opacity:0.47;}.cls-21{stroke:#88191c;opacity:0.44;}.cls-22{stroke:#86201b;}.cls-22,.cls-27{stroke-width:3px;}.cls-22,.cls-23{opacity:0.53;}.cls-23{stroke:#9b4e24;}.cls-23,.cls-26{stroke-width:4px;}.cls-24{fill:#50392a;}.cls-25{fill:#f6f8f9;}.cls-27{fill:#dbbd6c;}.cls-28{fill:#fdeaa9;stroke:#3b1714;stroke-width:5px;}.cls-29{fill:#ffca5d;}.cls-30{fill:#ffcc5b;}.cls-31{fill:#f4982b;}.cls-32{fill:#ebf6f4;}.cls-33{fill:#fff8f2;}</style></defs><title>china_doll_pipa</title><path id="hair" class="cls-1" d="M95.63,104.37s-74-21.45-26.55-85.28c0,0,39.83-34.72,77.1,14.81,0,0,95-77.62,199.66,2,0,0,31.66-57.7,81.71-9.19,0,0,40.85,47.49-31.15,77.62,0,0,35.23,79.66-24.51,154.72,0,0-172.09,20.43-251.75,0C120.14,259.09,63.33,192.85,95.63,104.37Z"/><path id="face" class="cls-2" d="M166.1,127.35V95.69l16.34,31.66h120l15.83-31.66v31.66h23s12.25,2,8.17,13.78c0,0-3.58,63.83-15.83,70S248.31,253,166.1,215.18c0,0-10.72-2.56-14.81-17.88s-11.74-49.84-8.68-63.22C142.61,134.08,142.1,125.3,166.1,127.35Z"/><g id="cheek"><path class="cls-3" d="M145,130.2s3.23,5.83,17,6.34,155.24,0,155.24,0,14.81-.51,14.81,8.68,1.53,34.72,0,37.27c0,0-13.79-14.8-26.05,0s5.62,31.15,17.88,24c0,0-3.25,10.53-6.08,11.62s15.66-3.92,18.67-9.7,11.34-16.86,12.14-56.62l1.63-13.72s2.74-13.28-16.66-10.72H318.27l.51-31.66-16.34,31.66h-120L165.08,92.62l1,34.73S154.55,125.39,145,130.2Z"/><circle class="cls-3" cx="173.8" cy="192.75" r="14.81"/></g><path id="eyes" class="cls-4" d="M193.93,155.47c13-.77,23.49,9.93,23.49,9.93,2.05,6.9-5.87,6.33-5.87,6.33,0-3.12-11.75-7.72-11.75-7.72-14.55-2.17-22.21,6.27-22.21,6.27s-4.08,3.32-6.64,0,1.53-6.26,1.53-6.26A37.23,37.23,0,0,1,193.93,155.47Zm82.76,8.91s-4.08,2.94-1.53,6.26,6.64,0,6.64,0,7.66-8.44,22.21-6.28c0,0,11.75,4.61,11.75,7.73,0,0,7.92.57,5.87-6.33,0,0-10.47-10.7-23.49-9.93A37.23,37.23,0,0,0,276.69,164.38Z"/><path id="mouse" class="cls-5" d="M267.27,202.24s3.87-3,1.45-6.44-6.28,0-6.28,0-7.25,8.68-21,6.44c0,0-11.12-4.75-11.12-8,0,0-7.49-.59-5.55,6.51,0,0,9.9,11,22.22,10.24A34,34,0,0,0,267.27,202.24Z"/><g id="hair_band" data-name="hair band"><path class="cls-6" d="M343.8,37.73s-9.44-10.72,2-9.45l34,43.66L408.4,111s24.25,24.51,55.4,7.4c0,0,20.94-11.49,18.38-35,0,0-.76-11.66,8.43-7.1,0,0,3.06,36.46-15.83,44.12,0,0-16.08,19.41-57.7,6.39,0,0,12,31.14,12.38,43.53s1,48.64-2.68,51.44c0,0-1.15,5.37-5.49,5.62s0-10.47-.38-13.4,4.72-17.75.25-49.41c0,0-9.06-37-15.44-42.76,0,0-35.75-52-39.32-54.39S343.8,37.73,343.8,37.73Z"/><path class="cls-6" d="M146.82,37.58s9.4-10.76-2.08-9.44L111,71.93,82.51,111.11s-24.16,24.6-55.37,7.62c0,0-21-11.41-18.52-34.91,0,0,.72-11.66-8.46-7.07,0,0-2.92,36.48,16,44.07,0,0,16.16,19.34,57.72,6.15,0,0-11.87,31.2-12.21,43.58s-.83,48.64,2.89,51.44c0,0,1.17,5.35,5.51,5.59s0-10.46.33-13.4-4.8-17.73-.45-49.41c0,0,8.91-37.05,15.28-42.82,0,0,35.53-52.1,39.1-54.54S146.82,37.58,146.82,37.58Z"/></g><path class="cls-1" d="M371.89,259.09s38.29,47.49,59,222.89c0,0,6.89,19.15-19.92,13.79l-13,1s4.6,72.58-3.06,78.71,3.6,24.51-125.35,40.6c0,0-119,.76-164.95-29.88,0,0-16.09-9.95-10.73-51.31l-1.09-39.07-24.18.77s-8.17-.85-6.81-10.05,4.42-79.65,19.4-123.91,26.77-79.49,39-103.49C143.75,212.67,379.53,234.89,371.89,259.09Z"/><path class="cls-7" d="M374.77,575.41A15.19,15.19,0,0,0,378,572.6a56.4,56.4,0,0,1-8.17,5.38A25.67,25.67,0,0,0,374.77,575.41Z"/><path class="cls-7" d="M189.76,588.28c12.25,2.39,72.17,7.15,102.81,1,0,0,13.27.34,16.34-14.63,0,0,45-6.81,70.94-20.73-143.94,59.13-269.75-1.06-269.75-1.06-2.72,15.32,4.43,20.08,4.43,20.08a285.11,285.11,0,0,0,87,25.06q-9.41-1.38-19.28-3.27S177.5,585.9,189.76,588.28Z"/><path class="cls-7" d="M382.16,564.12a30.93,30.93,0,0,0,.28-11.24l-.65.26A63.55,63.55,0,0,1,382.16,564.12Z"/><path class="cls-8" d="M378,572.6a9.72,9.72,0,0,0,1.69-1.68c1.54-.9,2.2-3.68,2.44-6.8A18.82,18.82,0,0,1,378,572.6Z"/><path class="cls-8" d="M381.76,552.88c-.62.36-1.27.71-1.91,1.06l1.94-.8C381.77,553,381.76,552.88,381.76,552.88Z"/><path class="cls-8" d="M201.55,598c89.59,13.18,146.51-7.77,168.31-20C350.66,586.41,280.92,608.09,201.55,598Z"/><path class="cls-8" d="M381.79,553.14l-1.94.8c-25.91,13.92-70.94,20.73-70.94,20.73-3.07,15-16.34,14.63-16.34,14.63-30.64,6.13-90.56,1.37-102.81-1s-7.49,6.47-7.49,6.47q9.89,1.9,19.28,3.27c79.37,10.07,149.11-11.61,168.31-20A56.4,56.4,0,0,0,378,572.6a18.82,18.82,0,0,0,4.13-8.48A63.55,63.55,0,0,0,381.79,553.14Z"/><path class="cls-9" d="M112,476.11S197.76,427.6,214.1,408.2c0,0,2.55,19.42,26.55,24.52,0,0,30.64,3.56,36.77-24.52,0,0,75.65,60.25,102.68,67.91,0,0,4.47,60.77,2.72,65.87,0,0-134.38,67.92-273.34,0C108.72,540.2,106.4,478.28,112,476.11Z"/><path class="cls-10" d="M214.65,408.2s-32.15,24.11-61,43.81C137.12,463.29,121,469.81,114,476.15c-2.12.55-2.72,2.42-4.08,4.23-1.6,2.12-1.83,14.64-1.26,21.63.25,1.57,10,9.76,23.46-2s77.52-69.85,85.24-87.14Z"/><path class="cls-10" d="M274.87,415.35s33.81,25.87,36.22,150.46c0,0,48.71-9.53,72.14-21.44V477.3S288,422.84,278,407.52A26.85,26.85,0,0,1,274.87,415.35Z"/><path class="cls-11" d="M210.18,244.79s49.37,6.47,70.81,0c0,0-23.83,36.09-38.46,43.92C242.53,288.71,213.59,260.79,210.18,244.79Z"/><path class="cls-8" d="M210.18,244.79s51.75,3.53,70.81,0c0,0-15.32,25.41-22.46,28.94,0,0-29.28-2.82-33.37-2.82C225.16,270.91,210.18,248,210.18,244.79Z"/><circle class="cls-2" cx="246.26" cy="403.35" r="19.26"/><path class="cls-12" d="M332.74,262.15s-.68-6.46,7.83-5.78c0,0,16-3.07,14.64,4.42,0,0,53.44,102.13,54.46,184.17,0,0-61.95-27.91-105.87-73.53,0,0,9.19-4.42,14-12.59Z"/><path class="cls-10" d="M375.73,305.39s2.82,85.79-12.69,114.39L411,447.35C415.09,447.22,401.87,359.42,375.73,305.39Z"/><path class="cls-12" d="M158.67,260.85s.57-6.55-8.51-5.65c0,0-17.16-2.68-15.53,4.84,0,0-54.63,104.46-53.76,187.31,0,0,65.51-29.76,111.32-76.92,0,0-9.92-4.24-15.21-12.36Z"/><path class="cls-10" d="M159.5,259.27s.59-6.7-8.8-5.77c0,0-17.76-2.74-16.07,5-14.41,23.38-20.7,55.41-19.62,83.34,1.37,31.36,8.4,90.59,18.43,76a226.28,226.28,0,0,0,22.79-17.06c9.93-5.7,22.36-15.18,37.93-29.35,0,0-10.27-4.33-15.74-12.64Z"/><path class="cls-12" d="M302.44,240.74s-31.32,70.47-115.4,94l1.7,15.69s-.68,4.39,13.62,7.79,33,8.18,36.08,10.22,18-1.36,18-1.36l39.83-10.22s8.51-2.38,9.53-9.87,10.9-92.47,14-93.89c0,0-5.72-15.18-6.72-15.33S302.44,240.74,302.44,240.74Z"/><path class="cls-10" d="M302.51,241.13s-8,17.63-26.86,38.27c16.5,13,20.73,61.45,22.22,77.42,5.47-2.68,8.95-5.56,8.17-8.38-2-7.37,11.29-93.43,14.46-94.86,0,0-5.92-15.34-7-15.49S302.51,241.13,302.51,241.13Z"/><path class="cls-13" d="M246.48,504s-39.66,60.83-100.41,13.26,28.78-130.11,28.78-130.11,98.85-57.8,106.23-67.09c0,0,19.49-12.65,28-22.47l22.21,17.65c-8.89,11.41-34,80.12-34.65,86.7C287.09,454.74,259,493.38,246.48,504Z"/><path class="cls-14" d="M242.94,500.61s-39.08,59.28-95.28,15.32,30.59-125.32,30.59-125.32,95-57.91,102.18-67c0,0,18.75-12.63,27.06-22.25L328,317.69c-8.7,11.15-34.24,77.59-35,83.91C282.61,452.39,255.07,490.12,242.94,500.61Z"/><rect class="cls-15" x="139.17" y="493.46" width="53.1" height="10.73" rx="5.37" transform="translate(346.4 5.22) rotate(38.48)"/><polygon class="cls-16" points="376.43 221.47 342.82 192.83 336.5 200.78 370.93 225.45 376.43 221.47"/><polygon class="cls-16" points="397.56 217.02 353.43 180.57 348.93 186.24 392.8 219.18 397.56 217.02"/><polygon class="cls-16" points="382.71 218 432.01 252.56 428.99 256.76 382.79 222.16 382.71 218"/><polygon class="cls-16" points="379.67 233.77 419.92 261.1 414.61 268.47 377.89 239.69 379.67 233.77"/><path class="cls-17" d="M306.89,297.28l23.34,18.56s42.24-72.5,58.47-82L373.53,221.8S327.69,287.12,306.89,297.28Z"/><rect class="cls-15" x="315.32" y="292.5" width="25.74" height="7.34" transform="translate(255.58 -139.9) rotate(38.48)"/><rect class="cls-18" x="312.16" y="295.57" width="27.98" height="7.34" transform="translate(257.05 -137.96) rotate(38.48)"/><rect class="cls-15" x="325.29" y="280.13" width="21.87" height="7.34" transform="translate(249.62 -147.58) rotate(38.48)"/><rect class="cls-18" x="322.26" y="283.17" width="23.77" height="7.34" transform="translate(251.06 -145.63) rotate(38.48)"/><rect class="cls-15" x="335.76" y="268.86" width="19.79" height="7.34" transform="translate(244.66 -155.9) rotate(38.48)"/><rect class="cls-18" x="332.8" y="271.88" width="21.51" height="7.34" transform="translate(246.09 -153.94) rotate(38.48)"/><rect class="cls-15" x="345.83" y="255.31" width="19.27" height="8.87" transform="translate(238.83 -164.78) rotate(38.48)"/><rect class="cls-18" x="342.42" y="258.92" width="20.95" height="8.87" transform="translate(240.52 -162.39) rotate(38.48)"/><rect class="cls-15" x="359.45" y="241.36" width="14.79" height="9.6" transform="translate(232.85 -174.81) rotate(38.48)"/><rect class="cls-18" x="355.96" y="245.23" width="16.07" height="9.6" transform="translate(234.64 -172.2) rotate(38.48)"/><rect class="cls-15" x="369.04" y="230.23" width="13.25" height="7.34" transform="translate(227.14 -182.96) rotate(38.48)"/><rect class="cls-18" x="366.3" y="233.21" width="14.4" height="7.34" transform="translate(228.52 -180.97) rotate(38.48)"/><line class="cls-19" x1="313.11" y1="302.22" x2="167.8" y2="485.03"/><line class="cls-19" x1="316.25" y1="304.72" x2="170.94" y2="487.53"/><line class="cls-19" x1="320.55" y1="308.14" x2="175.24" y2="490.94"/><line class="cls-19" x1="324.11" y1="310.97" x2="178.8" y2="493.77"/><rect class="cls-18" x="151.75" y="489.1" width="38.74" height="6.01" transform="translate(343.39 0.4) rotate(38.48)"/><line class="cls-20" x1="306" y1="302.11" x2="326.75" y2="318.6"/><line class="cls-21" x1="302.43" y1="304.08" x2="324.41" y2="321.55"/><line class="cls-22" x1="293.02" y1="311.35" x2="320.54" y2="333.23"/><line class="cls-22" x1="286.52" y1="319.05" x2="314.04" y2="340.93"/><line class="cls-22" x1="279.07" y1="328.83" x2="306.58" y2="350.7"/><line class="cls-22" x1="273.45" y1="336.29" x2="300.97" y2="358.16"/><line class="cls-22" x1="267.04" y1="345.42" x2="294.56" y2="367.29"/><line class="cls-22" x1="261.89" y1="351.77" x2="289.4" y2="373.64"/><line class="cls-23" x1="284.26" y1="319.15" x2="314.92" y2="343.52"/><line class="cls-23" x1="275.51" y1="326.94" x2="309.7" y2="354.12"/><line class="cls-23" x1="268.45" y1="334.2" x2="305.17" y2="363.38"/><line class="cls-23" x1="261.71" y1="342.59" x2="298.43" y2="371.78"/><line class="cls-23" x1="255.2" y1="348.34" x2="291.91" y2="377.52"/><line class="cls-22" x1="251.7" y1="352.91" x2="288.41" y2="382.09"/><line class="cls-22" x1="245.62" y1="361.07" x2="282.33" y2="390.25"/><line class="cls-22" x1="241.38" y1="366.92" x2="278.09" y2="396.1"/><line class="cls-22" x1="236.33" y1="372.45" x2="273.04" y2="401.63"/><line class="cls-22" x1="232.32" y1="377.86" x2="269.04" y2="407.04"/><line class="cls-22" x1="228.52" y1="382.28" x2="265.23" y2="411.46"/><line class="cls-22" x1="225.55" y1="386.01" x2="262.26" y2="415.19"/><line class="cls-22" x1="220.5" y1="390.97" x2="257.21" y2="420.15"/><line class="cls-23" x1="250.68" y1="354.02" x2="287.39" y2="383.21"/><line class="cls-23" x1="244.27" y1="362.4" x2="280.98" y2="391.58"/><line class="cls-23" x1="240.6" y1="368.14" x2="277.31" y2="397.32"/><line class="cls-23" x1="235.08" y1="374.34" x2="271.79" y2="403.52"/><line class="cls-23" x1="231.3" y1="378.71" x2="268.01" y2="407.89"/><line class="cls-23" x1="226.92" y1="384.21" x2="263.64" y2="413.4"/><line class="cls-23" x1="223.9" y1="387.58" x2="260.61" y2="416.76"/><line class="cls-23" x1="219.25" y1="392.54" x2="255.96" y2="421.73"/><line class="cls-23" x1="219.94" y1="406.65" x2="249.13" y2="429.84"/><line class="cls-23" x1="216.86" y1="410.53" x2="246.04" y2="433.73"/><line class="cls-23" x1="217.68" y1="415.35" x2="244.01" y2="436.28"/><line class="cls-23" x1="214.24" y1="420.31" x2="240.56" y2="441.24"/><line class="cls-23" x1="211.58" y1="423.65" x2="237.91" y2="444.58"/><line class="cls-23" x1="202.36" y1="435.25" x2="228.69" y2="456.17"/><ellipse class="cls-24" cx="407.17" cy="195.89" rx="20.71" ry="12.06" transform="translate(0.46 392.73) rotate(-51.52)"/><rect class="cls-25" x="383.7" y="206.59" width="11.56" height="22.6" transform="translate(220.17 -195.04) rotate(38.48)"/><rect class="cls-26" x="382.59" y="203.71" width="14.57" height="27.3" transform="translate(219.93 -195.4) rotate(38.48)"/><ellipse class="cls-27" cx="418.03" cy="181.49" rx="13.18" ry="17.16" transform="translate(15.83 395.79) rotate(-51.52)"/><circle class="cls-1" cx="293.99" cy="415.76" r="30.32"/><circle class="cls-2" cx="294.09" cy="416" r="22.52"/><circle class="cls-1" cx="160.29" cy="441.24" r="30.32"/><circle class="cls-2" cx="160.39" cy="441.48" r="22.52"/><path class="cls-28" d="M83.24,455s-2,15.6-2.38,18.92S208,406.2,222.1,381.63c0,0-21.09-6-23.09-7C199,374.66,141.85,430.43,83.24,455Z"/><path class="cls-29" d="M206.85,396S162.54,428.3,143,437.11c0,0-.65-13.78,7.06-18.86,11.5-9,20.85-15.81,28.44-20.93C222.77,367.44,206.85,396,206.85,396Z"/><path class="cls-28" d="M415.59,457s2.21,16.44,2.57,19.94S285.69,406.21,271,380.39c0,0,21.87-6.42,23.95-7.48C294.9,372.91,354.58,431.39,415.59,457Z"/><path class="cls-30" d="M348,436.6S294.13,404,291,398.53L302.67,384s43.1,36.38,58.76,42.62C361.43,426.61,351.9,436.67,348,436.6Z"/><path class="cls-31" d="M415.59,457s2.21,16.44,2.57,19.94c.19,1.79-34.51-16.77-70.42-38.78,12.91-6.43,11.77-12.7,12.1-12.47C377.05,437.45,396.25,448.86,415.59,457Z"/><g id="button"><circle class="cls-32" cx="199.99" cy="345.94" r="4.1"/><circle class="cls-32" cx="222.1" cy="336.56" r="4.1"/><circle class="cls-32" cx="242.21" cy="326.17" r="4.1"/><circle class="cls-32" cx="261.97" cy="311.86" r="4.1"/><circle class="cls-32" cx="280.73" cy="297.54" r="4.1"/><circle class="cls-32" cx="297.5" cy="279.22" r="4.1"/><circle class="cls-32" cx="312.14" cy="259.85" r="4.1"/></g><path class="cls-12" d="M179.89,238.09s-6.81,10.79-6.81,12.49S183,303.69,183.63,319c0,0,43.24-16.34,44.6-19.75,0,0-38.47-52.42-37.79-57.87Z"/><path class="cls-10" d="M173.42,251.26s12.63,13.28,30.67,15.49c0,0-13-23-13-26,0,0-8.84-.59-11.55-2.62Z"/><g id="button-2" data-name="button"><circle class="cls-33" cx="202.08" cy="295.52" r="4.09"/><circle class="cls-33" cx="187.04" cy="277.81" r="4.09"/><circle class="cls-33" cx="178.87" cy="258.82" r="4.09"/></g><path id="eyebrow" class="cls-4" d="M197.41,147.53a4.34,4.34,0,1,1-4.34-4.35A4.35,4.35,0,0,1,197.41,147.53Zm100.08-4.35a4.35,4.35,0,1,0,4.34,4.35A4.35,4.35,0,0,0,297.49,143.18Z"/></svg>