<svg xmlns="http://www.w3.org/2000/svg" xmlns:xlink="http://www.w3.org/1999/xlink" viewBox="0 0 254.22 548.87"><defs><style>.cls-1,.cls-4{fill:#c1663b;}.cls-1,.cls-3,.cls-4,.cls-6{stroke:#231f20;}.cls-1,.cls-2,.cls-3,.cls-4,.cls-5,.cls-6,.cls-8{stroke-miterlimit:10;}.cls-1,.cls-3,.cls-4{stroke-width:2px;}.cls-2{fill:#c37a38;}.cls-2,.cls-5{stroke:#620d10;}.cls-3{fill:#faf5ab;}.cls-4{opacity:0.67;}.cls-5,.cls-6{fill:none;}.cls-5{stroke-width:4px;}.cls-7{fill:url(#linear-gradient);}.cls-8{fill:#dec177;stroke:#271f10;stroke-width:6px;opacity:0.75;}</style><linearGradient id="linear-gradient" x1="138.1" y1="521.31" x2="137.76" y2="544.77" gradientUnits="userSpaceOnUse"><stop offset="0" stop-color="#8b4b27"/><stop offset="1" stop-color="#130e0d"/></linearGradient></defs><title>erhu</title><g id="Layer_2" data-name="Layer 2"><polygon class="cls-1" points="67.61 91.19 67.61 103.44 157.22 97.31 67.61 91.19"/><polygon class="cls-1" points="67.61 140.21 67.61 152.46 157.22 146.34 67.61 140.21"/><rect class="cls-2" x="134.45" y="13.06" width="6.68" height="522.38"/><ellipse class="cls-3" cx="137.8" cy="8.46" rx="10.54" ry="7.46"/><rect class="cls-4" x="131.18" y="61.31" width="13.79" height="118.72"/><path class="cls-5" d="M253.73,546.93s-21.44-5.36-33.7-21.45S24.71,202.25,24.71,202.25,17.82,190,24.71,167l-23-39.83"/><line class="cls-6" x1="22.46" y1="176.72" x2="246.45" y2="544.45"/><path class="cls-7" d="M160.2,544.45H114.92s-19.64-22.27-3.52-22.62,53.16,0,53.16,0S181.65,518.73,160.2,544.45Z"/><polygon class="cls-8" points="115.86 448.89 92.11 489.48 115.86 529.31 160.29 529.31 183.26 489.1 160.29 448.89 115.86 448.89"/></g></svg>