<?xml version="1.0" encoding="utf-8"?>
<!-- Generator: Adobe Illustrator 23.0.4, SVG Export Plug-In . SVG Version: 6.00 Build 0)  -->
<svg version="1.1" id="Layer_1" xmlns="http://www.w3.org/2000/svg" xmlns:xlink="http://www.w3.org/1999/xlink" x="0px" y="0px"
	 viewBox="0 0 490.8 616" style="enable-background:new 0 0 490.8 616;" xml:space="preserve">
<style type="text/css">
	.st0{fill:none;}
	.st1{fill:#64BE66;}
	.st2{fill:#9DCF87;}
	.st3{fill:#FCEEF4;}
	.st4{fill:#F074A5;}
	.st5{fill:none;stroke:#320F2F;stroke-width:10;stroke-linecap:round;stroke-linejoin:round;stroke-miterlimit:10;}
	.st6{fill:url(#SVGID_1_);}
	.st7{fill:#FFCB56;}
	.st8{fill:url(#SVGID_2_);}
	.st9{fill:url(#SVGID_3_);}
	.st10{fill:#320F2F;}
	.st11{fill:#FAD1DA;}
	.st12{fill:#2C0F2F;}
	.st13{fill:#EE514A;}
	.st14{fill:#EE4F95;}
	.st15{fill:#F05A28;}
</style>
<pattern  y="616" width="54.2" height="54.2" patternUnits="userSpaceOnUse" id="Unnamed_Pattern_4" viewBox="0 -54.2 54.2 54.2" style="overflow:visible;">
	<g>
		<rect y="-54.2" class="st0" width="54.2" height="54.2"/>
		<rect y="-54.2" class="st1" width="54.2" height="54.2"/>
		<path class="st2" d="M18.7-9.7c1.3-3.4,0.6-6.8-1.5-7.6c-2.1-0.8-4.8,1.3-6.1,4.7c-1.3,3.4-0.6,6.8,1.5,7.6
			C14.7-4.3,17.4-6.4,18.7-9.7"/>
		<path class="st2" d="M11.4-12.3c3.6-0.6,6.2-2.8,5.8-5.1c-0.4-2.2-3.5-3.5-7.1-3c-3.6,0.6-6.2,2.8-5.8,5.1
			C4.6-13,7.8-11.7,11.4-12.3"/>
		<path class="st2" d="M9.9-19.8c2.3,2.8,5.6,3.9,7.3,2.5c1.7-1.4,1.3-4.8-1-7.6c-2.3-2.8-5.6-3.9-7.3-2.5C7.2-26,7.6-22.6,9.9-19.8
			"/>
		<path class="st2" d="M15.7-24.9c-1.3,3.4-0.6,6.8,1.5,7.6c2.1,0.8,4.8-1.3,6.1-4.7c1.3-3.4,0.6-6.8-1.5-7.6
			C19.8-30.4,17-28.3,15.7-24.9"/>
		<path class="st2" d="M23-22.4c-3.6,0.6-6.2,2.8-5.8,5.1c0.4,2.2,3.5,3.5,7.1,3c3.6-0.6,6.2-2.8,5.8-5.1
			C29.8-21.6,26.6-22.9,23-22.4"/>
		<path class="st2" d="M24.5-14.8c-2.3-2.8-5.6-3.9-7.3-2.5c-1.7,1.4-1.3,4.8,1,7.6c2.3,2.8,5.6,3.9,7.3,2.5
			C27.2-8.6,26.8-12,24.5-14.8"/>
		<path class="st2" d="M44.1-41.4c0-2-1.7-3.7-3.7-3.7c-2,0-3.7,1.7-3.7,3.7c0,2,1.7,3.7,3.7,3.7C42.5-37.7,44.1-39.3,44.1-41.4"/>
	</g>
</pattern>
<title>china_doll_origin</title>
<path class="st3" d="M298.6,268.1c0,0-72.4,2.4-89.5,0c-17.1-2.4,35.4,58.5,46.2,57.5C266.1,324.6,297.6,285.1,298.6,268.1"/>
<path class="st4" d="M209.1,268.1l28.5-0.1l16.2,40.3C253.8,308.4,242.8,322.1,209.1,268.1"/>
<path class="st5" d="M209.1,268.1l28.5-0.1l16.2,40.3C253.8,308.4,242.8,322.1,209.1,268.1"/>
<path class="st4" d="M298.5,268.1l-28.5-0.1l-16.2,40.3C253.8,308.4,264.9,322.1,298.5,268.1"/>
<path class="st5" d="M298.5,268.1l-28.5-0.1l-16.2,40.3C253.8,308.4,264.9,322.1,298.5,268.1"/>
<pattern  id="SVGID_1_" xlink:href="#Unnamed_Pattern_4" patternTransform="matrix(1 0 0 -1 -35.3653 193.517)">
</pattern>
<path class="st6" d="M139.4,300.6c0,0-20.1,203.1-8.7,292.8c0,0,117,54.8,252.7-8.5c0,0,0.5-240.7-21.7-288.1c0,0-12-23.1-54.1-28.7
	c-14.2-1.9-40.8,45.3-56.5,45.3c-7.7,0-41.5-45.9-48.5-45.3C153.2,272.7,139.4,300.6,139.4,300.6"/>
<path class="st5" d="M139.4,300.6c0,0-20.1,203.1-8.7,292.8c0,0,117,54.8,252.7-8.5c0,0,0.5-240.7-21.7-288.1c0,0-12-23.1-54.1-28.7
	c-14.2-1.9-40.8,45.3-56.5,45.3c-7.7,0-41.5-45.9-48.5-45.3C153.2,272.7,139.4,300.6,139.4,300.6z"/>
<path class="st7" d="M373.4,464.2H132.8c0,0-8.5,0-8.5-46.7s8.5-46.7,8.5-46.7h240.5c0,0,10.5,11.5,10.5,50.8
	C383.8,460.9,373.4,464.2,373.4,464.2"/>
<path class="st5" d="M373.4,464.2H132.8c0,0-8.5,0-8.5-46.7s8.5-46.7,8.5-46.7h240.5c0,0,10.5,11.5,10.5,50.8
	C383.8,460.9,373.4,464.2,373.4,464.2z"/>
<path class="st3" d="M270.1,436.3c0,10-8.1,18.2-18.2,18.2c-10,0-18.2-8.1-18.2-18.2c0-10,8.1-18.2,18.2-18.2
	C262,418.1,270.1,426.3,270.1,436.3"/>
<path class="st5" d="M270.1,436.3c0,10-8.1,18.2-18.2,18.2c-10,0-18.2-8.1-18.2-18.2c0-10,8.1-18.2,18.2-18.2
	C262,418.1,270.1,426.3,270.1,436.3z"/>
<pattern  id="SVGID_2_" xlink:href="#Unnamed_Pattern_4" patternTransform="matrix(0.8985 -0.4389 -0.4389 -0.8985 3337.4421 -4437.0957)">
</pattern>
<path class="st8" d="M142.1,292.9c0,0-37.5,49-28.1,113.5c4.7,32.2,42.1,92.3,42.1,92.3l95.8-80.4
	C251.9,418.1,190.8,321.6,142.1,292.9"/>
<path class="st5" d="M142.1,292.9c0,0-37.5,49-28.1,113.5c4.7,32.2,42.1,92.3,42.1,92.3l95.8-80.4
	C251.9,418.1,190.8,321.6,142.1,292.9z"/>
<pattern  id="SVGID_3_" xlink:href="#Unnamed_Pattern_4" patternTransform="matrix(0.923 0.3849 0.3849 -0.923 -4365.5801 2821.1948)">
</pattern>
<path class="st9" d="M358.9,285.4c0,0,40.9,25.2,35.2,103c-2.6,35.7-6.3,89.6-48.8,110.2l-91.2-81
	C254.1,417.5,311.9,316.9,358.9,285.4"/>
<path class="st5" d="M358.9,285.4c0,0,40.9,25.2,35.2,103c-2.6,35.7-6.3,89.6-48.8,110.2l-91.2-81
	C254.1,417.5,311.9,316.9,358.9,285.4z"/>
<path class="st10" d="M112.5,139.5c0,0,18.2-45.6,47.7-66.5c0,0,25.4-21,77.4-23c45.7-1.7,75.1-3,100.3,10.1
	c24.4,12.8,53.8,40.9,58.4,79.3c0,0,17.5,73.8-49.4,109.5c-29.5,15.7-55.9,23.9-93.1,24.2c-55.1,0-61.8-7.5-97.6-20.5
	C156.2,252.7,82,223,112.5,139.5"/>
<path class="st3" d="M179,161.2v-29.9c0,0,28-15.5,76.3-15.5s67.3,15.5,67.3,15.5v29.9h21.7c0,0,8.5,1.4,7.7,13
	c0,0,0.1,52.8-14.9,66c-11.8,11.8-80.5,39.5-158,3.9c0,0-10.1-2.4-14-16.9c-3.9-14.5-11.1-50.2-8.2-62.8
	C156.8,164.4,165.2,163.1,179,161.2"/>
<path class="st11" d="M185,128.5c0,0-0.9,0.3-4.1,1.6c-1.7,0.7-2.8,1.1-2.7,2.9l0.9,28.3l-22.2,3.2c0,0-2.6,11,0.5,23.3
	c0.4,1.6,0.4-12.3,4.6-17.6c0,0,10.4-0.3,13.3-0.2c3.7,0.1,11.1-2.3,11.1-5.9L185,128.5z"/>
<path class="st11" d="M315,126.9c0,0,2.8,1.2,5.4,2.9c1.5,1,2.7,1.3,2.7,3.1l0.1,28l19.7,0.4c0,0,8.5-0.2,9.2,6.6
	c0.7,7.5-0.6,20.9-0.6,20.9c-1.7,1.3-6.1-16.1-6.1-16.1c-0.6-3.8-17-3.1-19.2-3c-3.7,0.1-11.1-2.3-11.1-5.9V126.9z"/>
<path class="st11" d="M200.2,222.9c0,7.7-6.3,14-14,14c-7.7,0-14-6.3-14-14c0-7.7,6.3-14,14-14C194,208.9,200.2,215.2,200.2,222.9"
	/>
<path class="st11" d="M341.5,222.9c0,7.7-6.3,14-14,14c-7.7,0-14-6.3-14-14c0-7.7,6.3-14,14-14C335.3,208.9,341.5,215.2,341.5,222.9
	"/>
<path class="st12" d="M303.6,203.4c-12.3,0.7-22.2-9.4-22.2-9.4c-1.9-6.5,5.5-6,5.5-6c0,2.9,11.1,7.3,11.1,7.3c13.7,2,21-5.9,21-5.9
	s3.9-3.1,6.3,0c2.4,3.1-1.4,5.9-1.4,5.9S315.9,202.7,303.6,203.4 M225.5,195c0,0,3.9-2.8,1.4-5.9c-2.4-3.1-6.3,0-6.3,0
	s-7.2,8-21,5.9c0,0-11.1-4.3-11.1-7.3c0,0-7.5-0.5-5.5,6c0,0,9.9,10.1,22.2,9.4C217.6,202.3,225.5,195,225.5,195"/>
<path class="st13" d="M274.4,231.9c0,0,3.6-2.9,1.4-6.1c-2.3-3.2-5.9,0-5.9,0s-6.8,8.2-19.8,6.1c0,0-10.5-4.5-10.5-7.5
	c0,0-7.1-0.6-5.2,6.1c0,0,9.3,10.4,21,9.7C266.9,239.4,274.4,231.9,274.4,231.9"/>
<path class="st3" d="M163.1,199.3c3.3,10.2,0.6,20.2-6,22.3c-6.6,2.1-14.6-4.4-17.9-14.6c-3.3-10.2-0.6-20.2,6-22.3
	C151.8,182.5,159.8,189.1,163.1,199.3"/>
<path class="st3" d="M371.2,205.3c-1.9,10.6-8.9,18.1-15.7,16.9c-6.8-1.2-10.9-10.7-9-21.3c1.9-10.6,8.9-18.1,15.7-16.9
	C369.1,185.2,373.1,194.7,371.2,205.3"/>
<path class="st10" d="M329.8,40.8c0,22.3-33.5,40.3-74.8,40.3c-41.3,0-74.8-18-74.8-40.3c0-22.3,33.5-40.3,74.8-40.3
	C296.3,0.6,329.8,18.6,329.8,40.8"/>
<path class="st14" d="M316.5,50.1c0,7.7-1.9,14-4.2,14c-2.3,0-4.2-6.2-4.2-14c0-7.7,1.9-14,4.2-14C314.6,36.1,316.5,42.4,316.5,50.1
	"/>
<path class="st14" d="M311.5,49.5c2.6,7.2,3,13.8,0.8,14.5c-2.2,0.8-6.1-4.4-8.7-11.7c-2.6-7.2-3-13.8-0.8-14.5
	C304.9,37,308.8,42.3,311.5,49.5"/>
<path class="st14" d="M306.6,50.7c5,5.9,7.5,11.9,5.8,13.4c-1.8,1.5-7.2-2.1-12.2-8c-5-5.9-7.5-11.9-5.8-13.4
	C296.2,41.2,301.6,44.8,306.6,50.7"/>
<path class="st14" d="M302.3,53.4c6.7,3.9,11.1,8.6,10,10.6c-1.2,2-7.5,0.5-14.2-3.4c-6.7-3.9-11.1-8.6-10-10.6
	C289.3,48.1,295.7,49.6,302.3,53.4"/>
<path class="st14" d="M299.3,57.5c7.6,1.3,13.4,4.3,13,6.5c-0.4,2.3-6.9,3-14.5,1.7c-7.6-1.3-13.4-4.3-13-6.5
	C285.2,56.9,291.7,56.2,299.3,57.5"/>
<path class="st14" d="M297.8,62.3c7.6-1.3,14.1-0.6,14.5,1.7c0.4,2.3-5.4,5.2-13,6.6c-7.6,1.3-14.1,0.6-14.5-1.7
	C284.4,66.6,290.3,63.7,297.8,62.3"/>
<path class="st14" d="M298.1,67.4c6.7-3.9,13-5.4,14.2-3.3c1.2,2-3.3,6.8-10,10.6c-6.7,3.9-13,5.4-14.2,3.4S291.5,71.2,298.1,67.4"
	/>
<path class="st14" d="M300.1,72c5-5.9,10.4-9.5,12.2-8c1.8,1.5-0.8,7.5-5.8,13.4c-5,5.9-10.4,9.5-12.2,8
	C292.6,83.9,295.2,77.9,300.1,72"/>
<path class="st14" d="M303.6,75.7c2.6-7.2,6.5-12.5,8.7-11.7c2.2,0.8,1.8,7.3-0.8,14.5c-2.6,7.2-6.5,12.5-8.7,11.7
	C300.6,89.5,301,83,303.6,75.7"/>
<path class="st14" d="M308.1,78c0-7.7,1.9-14,4.2-14c2.3,0,4.2,6.2,4.2,14c0,7.7-1.9,14-4.2,14C310,92,308.1,85.7,308.1,78"/>
<path class="st14" d="M313.2,78.6c-2.6-7.2-3-13.8-0.8-14.5c2.2-0.8,6.1,4.4,8.7,11.7c2.6,7.2,3,13.8,0.8,14.5
	C319.7,91.1,315.8,85.8,313.2,78.6"/>
<path class="st14" d="M318.1,77.4c-5-5.9-7.5-11.9-5.8-13.4c1.8-1.5,7.2,2.1,12.2,8c5,5.9,7.5,11.9,5.8,13.4
	C328.5,86.9,323,83.3,318.1,77.4"/>
<path class="st14" d="M322.3,74.7c-6.7-3.9-11.1-8.6-10-10.6c1.2-2,7.5-0.5,14.2,3.4c6.7,3.9,11.1,8.6,10,10.6
	C335.3,80,329,78.5,322.3,74.7"/>
<path class="st14" d="M325.3,70.6c-7.6-1.3-13.4-4.3-13-6.5c0.4-2.3,6.9-3,14.5-1.7c7.6,1.3,13.4,4.3,13,6.6
	C339.4,71.2,332.9,71.9,325.3,70.6"/>
<path class="st14" d="M326.8,65.7c-7.6,1.3-14.1,0.6-14.5-1.7c-0.4-2.3,5.4-5.2,13-6.5c7.6-1.3,14.1-0.6,14.5,1.7
	C340.2,61.5,334.4,64.4,326.8,65.7"/>
<path class="st14" d="M326.5,60.7c-6.7,3.9-13,5.4-14.2,3.4c-1.2-2,3.3-6.8,10-10.6c6.7-3.9,13-5.4,14.2-3.4
	C337.7,52.1,333.2,56.8,326.5,60.7"/>
<path class="st14" d="M324.5,56c-5,5.9-10.4,9.5-12.2,8c-1.8-1.5,0.8-7.5,5.8-13.4c5-5.9,10.4-9.5,12.2-8
	C332,44.1,329.5,50.1,324.5,56"/>
<path class="st14" d="M321,52.4c-2.6,7.2-6.5,12.5-8.7,11.7c-2.2-0.8-1.8-7.3,0.8-14.5c2.6-7.2,6.5-12.5,8.7-11.7
	C324,38.6,323.7,45.1,321,52.4"/>
<path class="st7" d="M319.7,64c0,4.1-3.3,7.4-7.4,7.4s-7.4-3.3-7.4-7.4c0-4.1,3.3-7.4,7.4-7.4S319.7,60,319.7,64"/>
<path class="st15" d="M361.6,60.8c0,7.7-1.9,14-4.2,14c-2.3,0-4.2-6.2-4.2-14c0-7.7,1.9-14,4.2-14C359.7,46.8,361.6,53.1,361.6,60.8
	"/>
<path class="st15" d="M356.6,60.2c2.6,7.2,3,13.8,0.8,14.5c-2.2,0.8-6.1-4.4-8.7-11.7c-2.6-7.2-3-13.8-0.8-14.5
	C350,47.7,353.9,52.9,356.6,60.2"/>
<path class="st15" d="M351.6,61.4c5,5.9,7.5,11.9,5.8,13.4c-1.8,1.5-7.2-2.1-12.2-8c-5-5.9-7.5-11.9-5.8-13.4
	C341.2,51.9,346.7,55.4,351.6,61.4"/>
<path class="st15" d="M347.4,64.1c6.7,3.9,11.1,8.6,10,10.6c-1.2,2-7.5,0.5-14.2-3.4c-6.7-3.9-11.1-8.6-10-10.6
	C334.4,58.8,340.7,60.3,347.4,64.1"/>
<path class="st15" d="M344.4,68.2c7.6,1.3,13.4,4.3,13,6.5c-0.4,2.3-6.9,3-14.5,1.7c-7.6-1.3-13.4-4.3-13-6.5
	C330.3,67.6,336.8,66.8,344.4,68.2"/>
<path class="st15" d="M342.9,73c7.6-1.3,14.1-0.6,14.5,1.7c0.4,2.3-5.4,5.2-13,6.5c-7.6,1.3-14.1,0.6-14.5-1.7
	C329.5,77.3,335.3,74.4,342.9,73"/>
<path class="st15" d="M343.2,78.1c6.7-3.9,13-5.4,14.2-3.3c1.2,2-3.3,6.8-10,10.6c-6.7,3.9-13,5.4-14.2,3.4
	C332.1,86.7,336.5,81.9,343.2,78.1"/>
<path class="st15" d="M345.2,82.7c5-5.9,10.4-9.5,12.2-8c1.8,1.5-0.8,7.5-5.8,13.4c-5,5.9-10.4,9.5-12.2,8
	C337.7,94.6,340.3,88.6,345.2,82.7"/>
<path class="st15" d="M348.7,86.4c2.6-7.2,6.5-12.5,8.7-11.7c2.2,0.8,1.8,7.3-0.8,14.5c-2.6,7.2-6.5,12.5-8.7,11.7
	C345.7,100.2,346,93.7,348.7,86.4"/>
<path class="st15" d="M353.2,88.7c0-7.7,1.9-14,4.2-14c2.3,0,4.2,6.2,4.2,14c0,7.7-1.9,14-4.2,14C355.1,102.7,353.2,96.4,353.2,88.7
	"/>
<path class="st15" d="M358.2,89.3c-2.6-7.2-3-13.8-0.8-14.5c2.2-0.8,6.1,4.4,8.7,11.7c2.6,7.2,3,13.8,0.8,14.5
	C364.8,101.8,360.9,96.5,358.2,89.3"/>
<path class="st15" d="M363.2,88.1c-5-5.9-7.5-11.9-5.8-13.4c1.8-1.5,7.2,2.1,12.2,8c5,5.9,7.5,11.9,5.8,13.4
	C373.6,97.6,368.1,94,363.2,88.1"/>
<path class="st15" d="M367.4,85.3c-6.7-3.9-11.1-8.6-10-10.6c1.2-2,7.5-0.5,14.2,3.4c6.7,3.9,11.1,8.6,10,10.6
	C380.4,90.7,374.1,89.2,367.4,85.3"/>
<path class="st15" d="M370.4,81.3c-7.6-1.3-13.4-4.3-13-6.5c0.4-2.3,6.9-3,14.5-1.7c7.6,1.3,13.4,4.3,13,6.5
	C384.5,81.9,378,82.6,370.4,81.3"/>
<path class="st15" d="M371.9,76.4c-7.6,1.3-14.1,0.6-14.5-1.7c-0.4-2.3,5.4-5.2,13-6.5c7.6-1.3,14.1-0.6,14.5,1.7
	C385.3,72.2,379.5,75.1,371.9,76.4"/>
<path class="st15" d="M371.6,71.4c-6.7,3.9-13,5.4-14.2,3.4c-1.2-2,3.3-6.8,10-10.6c6.7-3.9,13-5.4,14.2-3.4
	C382.7,62.8,378.2,67.5,371.6,71.4"/>
<path class="st15" d="M369.6,66.7c-5,5.9-10.4,9.5-12.2,8c-1.8-1.5,0.8-7.5,5.8-13.4c5-5.9,10.4-9.5,12.2-8
	C377.1,54.8,374.5,60.8,369.6,66.7"/>
<path class="st15" d="M366.1,63.1c-2.6,7.2-6.5,12.5-8.7,11.7c-2.2-0.8-1.8-7.3,0.8-14.5c2.6-7.2,6.5-12.5,8.7-11.7
	C369.1,49.3,368.7,55.8,366.1,63.1"/>
<path class="st7" d="M364.8,74.7c0,4.1-3.3,7.4-7.4,7.4c-4.1,0-7.4-3.3-7.4-7.4c0-4.1,3.3-7.4,7.4-7.4
	C361.5,67.3,364.8,70.6,364.8,74.7"/>
<path class="st11" d="M180.9,130.1c0,0,27-14.2,74.4-14.2c47.4,0,67.7,15.1,67.7,15.1s-2.1,7.1-5.9,5.5c-13.5-5.7-28-14.8-63.3-14.3
	c-29.4,0.4-71.8,14.3-71.8,14.3L180.9,130.1z"/>
</svg>
