<svg id="Layer_1" data-name="Layer 1" xmlns="http://www.w3.org/2000/svg" xmlns:xlink="http://www.w3.org/1999/xlink" viewBox="0 0 365.31 490.49"><defs><style>.cls-1,.cls-7{fill:none;}.cls-2{fill:#64be66;}.cls-3{fill:#9ed088;}.cls-4{clip-path:url(#clip-path);}.cls-5{fill:#fdeff5;}.cls-6{fill:#f174a6;}.cls-7{stroke:#331330;stroke-linecap:round;stroke-linejoin:round;stroke-width:12px;}.cls-8{fill:url(#Unnamed_Pattern);}.cls-9{fill:#ffcc57;}.cls-10{fill:url(#Unnamed_Pattern_2);}.cls-11{fill:url(#Unnamed_Pattern_3);}.cls-12{fill:#331330;}.cls-13{fill:#fbd2db;}.cls-14{fill:#2d1230;}.cls-15{fill:#ef524a;}.cls-16{fill:#ef5096;}.cls-17{fill:#f15a29;}</style><clipPath id="clip-path"><rect class="cls-1" y="-41.08" width="365.31" height="531.56"/></clipPath><pattern id="Unnamed_Pattern" data-name="Unnamed Pattern" width="54.23" height="54.23" patternTransform="matrix(1, 0, 0, -1, -714.23, 16228.41)" patternUnits="userSpaceOnUse" viewBox="0 0 54.23 54.23"><rect class="cls-1" width="54.23" height="54.23"/><rect class="cls-2" width="54.22" height="54.22"/><path class="cls-3" d="M18.68,44.48c1.29-3.38.63-6.77-1.47-7.56s-4.83,1.3-6.11,4.68-.63,6.77,1.47,7.57,4.83-1.31,6.11-4.69"/><path class="cls-3" d="M11.4,42c3.57-.58,6.17-2.84,5.81-5s-3.54-3.54-7.11-3S3.92,36.81,4.28,39,7.83,42.55,11.4,42"/><path class="cls-3" d="M9.93,34.41c2.29,2.8,5.55,3.92,7.28,2.51s1.29-4.84-1-7.65-5.55-3.92-7.28-2.51-1.29,4.84,1,7.65"/><path class="cls-3" d="M15.74,29.35c-1.28,3.38-.62,6.77,1.47,7.57s4.84-1.31,6.12-4.69.62-6.77-1.47-7.57S17,26,15.74,29.35"/><path class="cls-3" d="M23,31.86c-3.57.58-6.18,2.84-5.82,5.06s3.55,3.53,7.12,2.95,6.18-2.85,5.82-5.06-3.55-3.53-7.12-3"/><path class="cls-3" d="M24.5,39.43c-2.29-2.81-5.55-3.93-7.29-2.51s-1.28,4.83,1,7.64,5.55,3.92,7.28,2.51,1.29-4.84-1-7.64"/><path class="cls-3" d="M44.13,12.86a3.69,3.69,0,1,0-3.69,3.69,3.69,3.69,0,0,0,3.69-3.69"/></pattern><pattern id="Unnamed_Pattern_2" data-name="Unnamed Pattern 2" width="54.23" height="54.23" patternTransform="matrix(0.9, -0.44, -0.44, -0.9, 6521.33, 14931.31)" patternUnits="userSpaceOnUse" viewBox="0 0 54.23 54.23"><rect class="cls-1" width="54.23" height="54.23"/><rect class="cls-2" width="54.22" height="54.22"/><path class="cls-3" d="M18.68,44.48c1.29-3.38.63-6.77-1.47-7.56s-4.83,1.3-6.11,4.68-.63,6.77,1.47,7.57,4.83-1.31,6.11-4.69"/><path class="cls-3" d="M11.4,42c3.57-.58,6.17-2.84,5.81-5s-3.54-3.54-7.11-3S3.92,36.81,4.28,39,7.83,42.55,11.4,42"/><path class="cls-3" d="M9.93,34.41c2.29,2.8,5.55,3.92,7.28,2.51s1.29-4.84-1-7.65-5.55-3.92-7.28-2.51-1.29,4.84,1,7.65"/><path class="cls-3" d="M15.74,29.35c-1.28,3.38-.62,6.77,1.47,7.57s4.84-1.31,6.12-4.69.62-6.77-1.47-7.57S17,26,15.74,29.35"/><path class="cls-3" d="M23,31.86c-3.57.58-6.18,2.84-5.82,5.06s3.55,3.53,7.12,2.95,6.18-2.85,5.82-5.06-3.55-3.53-7.12-3"/><path class="cls-3" d="M24.5,39.43c-2.29-2.81-5.55-3.93-7.29-2.51s-1.28,4.83,1,7.64,5.55,3.92,7.28,2.51,1.29-4.84-1-7.64"/><path class="cls-3" d="M44.13,12.86a3.69,3.69,0,1,0-3.69,3.69,3.69,3.69,0,0,0,3.69-3.69"/></pattern><pattern id="Unnamed_Pattern_3" data-name="Unnamed Pattern 3" width="54.23" height="54.23" patternTransform="matrix(0.92, 0.38, 0.38, -0.92, -6870.94, 14680.15)" patternUnits="userSpaceOnUse" viewBox="0 0 54.23 54.23"><rect class="cls-1" width="54.23" height="54.23"/><rect class="cls-2" width="54.22" height="54.22"/><path class="cls-3" d="M18.68,44.48c1.29-3.38.63-6.77-1.47-7.56s-4.83,1.3-6.11,4.68-.63,6.77,1.47,7.57,4.83-1.31,6.11-4.69"/><path class="cls-3" d="M11.4,42c3.57-.58,6.17-2.84,5.81-5s-3.54-3.54-7.11-3S3.92,36.81,4.28,39,7.83,42.55,11.4,42"/><path class="cls-3" d="M9.93,34.41c2.29,2.8,5.55,3.92,7.28,2.51s1.29-4.84-1-7.65-5.55-3.92-7.28-2.51-1.29,4.84,1,7.65"/><path class="cls-3" d="M15.74,29.35c-1.28,3.38-.62,6.77,1.47,7.57s4.84-1.31,6.12-4.69.62-6.77-1.47-7.57S17,26,15.74,29.35"/><path class="cls-3" d="M23,31.86c-3.57.58-6.18,2.84-5.82,5.06s3.55,3.53,7.12,2.95,6.18-2.85,5.82-5.06-3.55-3.53-7.12-3"/><path class="cls-3" d="M24.5,39.43c-2.29-2.81-5.55-3.93-7.29-2.51s-1.28,4.83,1,7.64,5.55,3.92,7.28,2.51,1.29-4.84-1-7.64"/><path class="cls-3" d="M44.13,12.86a3.69,3.69,0,1,0-3.69,3.69,3.69,3.69,0,0,0,3.69-3.69"/></pattern></defs><title>JP_doll_origin</title><g class="cls-4"><path class="cls-5" d="M218,211.11s-57.13,1.92-70.6,0,27.92,46.16,36.46,45.37,33.41-32,34.14-45.37"/><path class="cls-6" d="M147.37,211.11l22.5-.06,12.78,31.8s-8.71,10.86-35.28-31.74"/><path class="cls-7" d="M147.37,211.11l22.5-.06,12.78,31.8s-8.71,10.86-35.28-31.74"/><path class="cls-6" d="M217.94,211.11l-22.51-.06-12.78,31.8s8.72,10.86,35.29-31.74"/><path class="cls-7" d="M217.94,211.11l-22.51-.06-12.78,31.8s8.72,10.86,35.29-31.74"/><path class="cls-8" d="M92.37,236.74s-15.87,160.2-6.88,231c0,0,92.34,43.25,199.4-6.71,0,0,.38-189.93-17.1-227.29,0,0-9.48-18.21-42.68-22.62-11.22-1.49-32.21,35.7-44.59,35.7-6.11,0-32.73-36.24-38.28-35.72-39,3.6-49.87,25.61-49.87,25.61"/><path class="cls-7" d="M92.37,236.74s-15.87,160.2-6.88,231c0,0,92.34,43.25,199.4-6.71,0,0,.38-189.93-17.1-227.29,0,0-9.48-18.21-42.68-22.62-11.22-1.49-32.21,35.7-44.59,35.7-6.11,0-32.73-36.24-38.28-35.72C103.25,214.73,92.37,236.74,92.37,236.74Z"/><path class="cls-9" d="M277,365.84H87.22s-6.7,0-6.7-36.86,6.7-36.85,6.7-36.85H277s8.25,9.09,8.25,40.06S277,365.84,277,365.84"/><path class="cls-7" d="M277,365.84H87.22s-6.7,0-6.7-36.86,6.7-36.85,6.7-36.85H277s8.25,9.09,8.25,40.06S277,365.84,277,365.84Z"/><path class="cls-5" d="M195.52,343.78a14.34,14.34,0,1,1-14.34-14.33,14.34,14.34,0,0,1,14.34,14.33"/><path class="cls-7" d="M195.52,343.78a14.34,14.34,0,1,1-14.34-14.33A14.34,14.34,0,0,1,195.52,343.78Z"/><path class="cls-10" d="M94.51,230.61S65,269.28,72.34,320.13c3.69,25.42,33.24,72.79,33.24,72.79l75.6-63.47s-48.25-76.2-86.67-98.84"/><path class="cls-7" d="M94.51,230.61S65,269.28,72.34,320.13c3.69,25.42,33.24,72.79,33.24,72.79l75.6-63.47S132.93,253.25,94.51,230.61Z"/><path class="cls-11" d="M265.53,224.7s32.28,19.91,27.78,81.26c-2.06,28.14-5,70.69-38.47,87l-72-63.94s45.64-79.39,82.65-104.28"/><path class="cls-7" d="M265.53,224.7s32.28,19.91,27.78,81.26c-2.06,28.14-5,70.69-38.47,87l-72-63.94S228.52,249.59,265.53,224.7Z"/></g><g class="cls-4"><path class="cls-12" d="M71.18,109.65s14.34-36,37.63-52.46c0,0,20-16.58,61.06-18.13,36-1.37,59.23-2.39,79.11,8,19.29,10.08,42.44,32.27,46.07,62.6,0,0,13.8,58.24-39,86.38-23.3,12.42-44.07,18.83-73.43,19.1-43.44,0-48.76-5.95-77-16.18,0,0-58.48-23.44-34.44-89.3"/><path class="cls-5" d="M123.63,126.75V103.18S145.74,91,183.83,91s53.06,12.21,53.06,12.21v23.57H254s6.7,1.08,6.08,10.26c0,0,0,41.63-11.78,52.07-9.3,9.3-63.48,31.17-124.67,3,0,0-8-1.9-11-13.3s-8.79-39.59-6.51-49.55c0,0,6.67-1.05,17.53-2.52"/><path class="cls-13" d="M128.33,100.94s-.68.23-3.24,1.23c-1.32.52-2.2.86-2.15,2.28l.69,22.3-17.53,2.52a42.42,42.42,0,0,0,.42,18.38c.32,1.23.35-9.69,3.6-13.92,0,0,8.17-.22,10.47-.14,2.89.11,8.77-1.83,8.77-4.68Z"/><path class="cls-13" d="M230.9,99.68a31,31,0,0,1,4.27,2.29c1.18.78,2.15,1,2.1,2.42l0,22.07,15.57.29s6.71-.18,7.23,5.22c.57,5.91-.49,16.51-.49,16.51-1.32,1.05-4.79-12.73-4.79-12.73-.48-3-13.4-2.42-15.17-2.36-2.89.11-8.77-1.82-8.77-4.68Z"/><path class="cls-13" d="M140.39,175.43a11,11,0,1,1-11-11,11,11,0,0,1,11,11"/><path class="cls-13" d="M251.84,175.43a11,11,0,1,1-11-11,11,11,0,0,1,11,11"/><path class="cls-14" d="M221.92,160c-9.7.57-17.49-7.39-17.49-7.39-1.52-5.13,4.37-4.72,4.37-4.72,0,2.33,8.75,5.76,8.75,5.76,10.83,1.61,16.53-4.67,16.53-4.67s3-2.47,4.94,0-1.14,4.66-1.14,4.66a27.76,27.76,0,0,1-16,6.36m-61.61-6.63s3-2.19,1.14-4.66-4.94,0-4.94,0-5.7,6.28-16.53,4.67c0,0-8.74-3.43-8.74-5.75,0,0-5.9-.42-4.37,4.71,0,0,7.79,8,17.48,7.4a27.69,27.69,0,0,0,16-6.37"/><path class="cls-15" d="M198.94,182.49s2.87-2.25,1.08-4.79-4.68,0-4.68,0-5.4,6.46-15.65,4.79c0,0-8.27-3.53-8.27-5.92,0,0-5.57-.44-4.14,4.84,0,0,7.37,8.21,16.55,7.63a25.32,25.32,0,0,0,15.11-6.55"/><path class="cls-5" d="M111.06,156.78c2.58,8.05.45,15.93-4.76,17.6s-11.54-3.49-14.12-11.55-.45-15.93,4.76-17.61,11.54,3.5,14.12,11.56"/><path class="cls-5" d="M275.29,161.53c-1.47,8.32-7,14.31-12.42,13.35s-8.58-8.47-7.11-16.8,7-14.31,12.43-13.35,8.57,8.47,7.1,16.8"/><path class="cls-12" d="M242.62,31.79c0,17.55-26.42,31.78-59,31.78s-59-14.23-59-31.78S151,0,183.61,0s59,14.23,59,31.79"/><path class="cls-16" d="M232.12,39.08c0,6.08-1.48,11-3.3,11s-3.31-4.93-3.31-11,1.48-11,3.31-11,3.3,4.93,3.3,11"/><path class="cls-16" d="M228.16,38.61c2.08,5.72,2.37,10.86.66,11.48S224,46.59,222,40.87,219.57,30,221.29,29.4s4.79,3.5,6.87,9.21"/><path class="cls-16" d="M224.27,39.53c3.91,4.66,5.95,9.39,4.55,10.56s-5.7-1.65-9.61-6.31-6-9.39-4.55-10.56,5.7,1.65,9.61,6.31"/><path class="cls-16" d="M220.93,41.72c5.27,3,8.8,6.79,7.89,8.37s-5.92.4-11.19-2.64-8.8-6.79-7.88-8.37,5.92-.4,11.18,2.64"/><path class="cls-16" d="M218.55,44.92c6,1.06,10.58,3.37,10.27,5.17s-5.43,2.4-11.42,1.34-10.59-3.37-10.27-5.16,5.43-2.4,11.42-1.35"/><path class="cls-16" d="M217.4,48.75c6-1.06,11.1-.46,11.42,1.34s-4.28,4.11-10.27,5.17-11.1.45-11.42-1.34,4.28-4.12,10.27-5.17"/><path class="cls-16" d="M217.63,52.73c5.27-3,10.28-4.22,11.19-2.64s-2.62,5.33-7.89,8.37-10.27,4.22-11.18,2.64,2.61-5.33,7.88-8.37"/><path class="cls-16" d="M219.21,56.4c3.91-4.66,8.21-7.48,9.61-6.31s-.64,5.9-4.55,10.56-8.21,7.49-9.61,6.31.64-5.9,4.55-10.56"/><path class="cls-16" d="M222,59.31c2.08-5.72,5.15-9.84,6.87-9.22s1.42,5.76-.66,11.48-5.16,9.84-6.87,9.22S219.87,65,222,59.31"/><path class="cls-16" d="M225.51,61.1c0-6.08,1.48-11,3.31-11s3.3,4.93,3.3,11-1.48,11-3.3,11-3.31-4.93-3.31-11"/><path class="cls-16" d="M229.48,61.57c-2.08-5.72-2.38-10.85-.66-11.48s4.79,3.5,6.87,9.22,2.38,10.85.66,11.48-4.79-3.51-6.87-9.22"/><path class="cls-16" d="M233.36,60.65c-3.91-4.66-5.94-9.39-4.54-10.56s5.7,1.65,9.61,6.31S244.37,65.79,243,67s-5.7-1.65-9.61-6.31"/><path class="cls-16" d="M236.7,58.46c-5.27-3-8.79-6.79-7.88-8.37s5.92-.4,11.19,2.64,8.79,6.79,7.88,8.37-5.92.4-11.19-2.64"/><path class="cls-16" d="M239.09,55.26c-6-1.06-10.59-3.37-10.27-5.17s5.43-2.4,11.42-1.34,10.58,3.37,10.27,5.17-5.43,2.39-11.42,1.34"/><path class="cls-16" d="M240.24,51.43c-6,1.06-11.11.46-11.42-1.34s4.28-4.11,10.27-5.17,11.1-.45,11.42,1.35-4.29,4.11-10.27,5.16"/><path class="cls-16" d="M240,47.45c-5.27,3-10.28,4.22-11.19,2.64s2.61-5.33,7.88-8.37S247,37.5,247.89,39.08s-2.62,5.33-7.88,8.37"/><path class="cls-16" d="M238.43,43.78c-3.91,4.66-8.21,7.48-9.61,6.31s.63-5.9,4.54-10.56,8.21-7.48,9.61-6.31-.63,5.9-4.54,10.56"/><path class="cls-16" d="M235.69,40.87c-2.08,5.72-5.16,9.85-6.87,9.22s-1.42-5.76.66-11.48,5.15-9.84,6.87-9.21,1.42,5.76-.66,11.47"/><path class="cls-9" d="M234.66,50.09a5.84,5.84,0,1,1-5.84-5.84,5.84,5.84,0,0,1,5.84,5.84"/><path class="cls-17" d="M267.68,47.51c0,6.09-1.48,11-3.31,11s-3.3-4.93-3.3-11,1.48-11,3.3-11,3.31,4.93,3.31,11"/><path class="cls-17" d="M263.71,47.05c2.08,5.71,2.38,10.85.66,11.48s-4.79-3.51-6.87-9.22-2.37-10.85-.66-11.48,4.79,3.5,6.87,9.22"/><path class="cls-17" d="M259.83,48c3.91,4.66,5.94,9.38,4.54,10.56s-5.7-1.66-9.61-6.31-5.94-9.39-4.54-10.56,5.7,1.65,9.61,6.31"/><path class="cls-17" d="M256.49,50.16c5.27,3,8.8,6.79,7.88,8.37s-5.92.39-11.19-2.65-8.79-6.78-7.88-8.36,5.92-.4,11.19,2.64"/><path class="cls-17" d="M254.1,53.36c6,1,10.59,3.37,10.27,5.17s-5.43,2.4-11.41,1.34-10.59-3.37-10.27-5.17,5.42-2.4,11.41-1.34"/><path class="cls-17" d="M253,57.18c6-1,11.1-.45,11.41,1.35s-4.28,4.11-10.27,5.16-11.1.46-11.41-1.34S247,58.24,253,57.18"/><path class="cls-17" d="M253.18,61.17c5.27-3,10.28-4.22,11.19-2.64s-2.61,5.32-7.88,8.36-10.28,4.23-11.19,2.65,2.62-5.33,7.88-8.37"/><path class="cls-17" d="M254.76,64.84c3.91-4.66,8.21-7.49,9.61-6.31s-.63,5.9-4.54,10.56-8.21,7.48-9.61,6.31.63-5.9,4.54-10.56"/><path class="cls-17" d="M257.5,67.74c2.08-5.71,5.16-9.84,6.87-9.21s1.42,5.76-.66,11.47-5.15,9.85-6.87,9.22-1.42-5.76.66-11.48"/><path class="cls-17" d="M261.07,69.54c0-6.08,1.48-11,3.3-11s3.31,4.93,3.31,11-1.48,11-3.31,11-3.3-4.93-3.3-11"/><path class="cls-17" d="M265,70c-2.08-5.71-2.37-10.85-.66-11.47s4.8,3.5,6.88,9.21,2.37,10.86.66,11.48-4.8-3.5-6.88-9.22"/><path class="cls-17" d="M268.92,69.09C265,64.43,263,59.7,264.37,58.53s5.7,1.65,9.61,6.31,5.95,9.38,4.55,10.56-5.7-1.66-9.61-6.31"/><path class="cls-17" d="M272.26,66.89c-5.27-3-8.8-6.78-7.89-8.36s5.92-.4,11.19,2.64,8.8,6.79,7.89,8.37-5.93.39-11.19-2.65"/><path class="cls-17" d="M274.64,63.69c-6-1-10.58-3.37-10.27-5.16s5.43-2.4,11.42-1.35,10.59,3.37,10.27,5.17-5.43,2.4-11.42,1.34"/><path class="cls-17" d="M275.79,59.87c-6,1.05-11.1.45-11.42-1.34s4.28-4.12,10.27-5.17,11.1-.46,11.42,1.34-4.28,4.11-10.27,5.17"/><path class="cls-17" d="M275.56,55.88c-5.27,3-10.27,4.23-11.19,2.65s2.62-5.33,7.89-8.37,10.27-4.23,11.19-2.65-2.62,5.33-7.89,8.37"/><path class="cls-17" d="M274,52.22c-3.91,4.65-8.21,7.48-9.61,6.31s.64-5.9,4.55-10.56,8.21-7.49,9.61-6.31-.64,5.9-4.55,10.56"/><path class="cls-17" d="M271.24,49.31c-2.07,5.71-5.15,9.84-6.87,9.22S263,52.76,265,47.05s5.16-9.84,6.88-9.22,1.42,5.76-.67,11.48"/><path class="cls-9" d="M270.21,58.53a5.84,5.84,0,1,1-5.84-5.84,5.84,5.84,0,0,1,5.84,5.84"/><path class="cls-13" d="M125.09,102.17S146.43,91,183.83,91s53.44,11.93,53.44,11.93-1.63,5.64-4.69,4.36C221.91,102.79,210.5,95.59,182.65,96c-23.21.31-56.63,11.31-56.63,11.31Z"/></g></svg>