<?xml version="1.0" encoding="utf-8"?>
<!-- Generator: Adobe Illustrator 24.0.0, SVG Export Plug-In . SVG Version: 6.00 Build 0)  -->
<svg version="1.1" id="Layer_1" xmlns="http://www.w3.org/2000/svg" xmlns:xlink="http://www.w3.org/1999/xlink" x="0px" y="0px"
	 viewBox="0 0 595.28 841.89" style="enable-background:new 0 0 595.28 841.89;" xml:space="preserve">
<style type="text/css">
	.st0{fill:none;}
	.st1{fill:#62B859;}
	.st2{fill:#99C884;}
	.st3{fill:#FBEDF3;}
	.st4{fill:#E1709C;stroke:#310F2E;stroke-width:12;stroke-linecap:round;stroke-linejoin:round;stroke-miterlimit:10;}
	.st5{fill:url(#SVGID_1_);stroke:#310F2E;stroke-width:12;stroke-linecap:round;stroke-linejoin:round;stroke-miterlimit:10;}
	.st6{fill:#F6C658;stroke:#310F2E;stroke-width:12;stroke-linecap:round;stroke-linejoin:round;stroke-miterlimit:10;}
	.st7{fill:#310F2E;}
	.st8{fill:#F6CFD7;}
	.st9{fill:#2B102E;}
	.st10{fill:#E05149;}
	.st11{fill:#DE4E8C;}
	.st12{fill:#F6C658;}
	.st13{fill:#E35A2B;}
	.st14{fill:#5F3819;}
	.st15{fill:#C2996C;}
	.st16{fill:#FBEDF3;stroke:#310F2E;stroke-width:12;stroke-linecap:round;stroke-linejoin:round;stroke-miterlimit:10;}
	.st17{fill:url(#SVGID_2_);stroke:#310F2E;stroke-width:12;stroke-linecap:round;stroke-linejoin:round;stroke-miterlimit:10;}
	.st18{fill:url(#SVGID_3_);stroke:#310F2E;stroke-width:12;stroke-linecap:round;stroke-linejoin:round;stroke-miterlimit:10;}
</style>
<pattern  width="54.23" height="54.23" patternUnits="userSpaceOnUse" id="New_Pattern_Swatch_1" viewBox="0 -54.23 54.23 54.23" style="overflow:visible;">
	<g>
		<rect y="-54.23" class="st0" width="54.23" height="54.23"/>
		<rect x="0" y="-54.23" class="st1" width="54.23" height="54.23"/>
		<g>
			
				<ellipse transform="matrix(0.3546 -0.935 0.935 0.3546 49.8563 -13.8571)" class="st2" cx="14.89" cy="-43.04" rx="6.55" ry="4.06"/>
			
				<ellipse transform="matrix(0.987 -0.1604 0.1604 0.987 6.2307 1.2324)" class="st2" cx="10.75" cy="-37.97" rx="6.55" ry="4.06"/>
			
				<ellipse transform="matrix(0.7746 -0.6325 0.6325 0.7746 23.0842 1.089)" class="st2" cx="13.07" cy="-31.84" rx="4.06" ry="6.55"/>
			
				<ellipse transform="matrix(0.3546 -0.935 0.935 0.3546 41.3984 -1.6042)" class="st2" cx="19.54" cy="-30.79" rx="6.55" ry="4.06"/>
			<ellipse transform="matrix(0.987 -0.1604 0.1604 0.987 6.061 3.3349)" class="st2" cx="23.68" cy="-35.86" rx="6.55" ry="4.06"/>
			
				<ellipse transform="matrix(0.7746 -0.6325 0.6325 0.7746 31.3723 4.043)" class="st2" cx="21.36" cy="-41.99" rx="4.06" ry="6.55"/>
		</g>
		<circle class="st2" cx="40.44" cy="-12.86" r="3.69"/>
	</g>
</pattern>
<path class="st3" d="M383.29,361.61c0,0-76.76,2.59-94.86,0c-18.1-2.59,37.51,62.02,48.98,60.96
	C348.89,421.52,382.31,379.56,383.29,361.61z"/>
<path class="st4" d="M288.43,361.61l30.24-0.08l17.17,42.72C335.84,404.26,324.13,418.85,288.43,361.61"/>
<path class="st4" d="M383.25,361.61l-30.24-0.08l-17.17,42.72C335.84,404.26,347.55,418.85,383.25,361.61"/>
<pattern  id="SVGID_1_" xlink:href="#New_Pattern_Swatch_1" patternTransform="matrix(1 0 0 1 -27.3078 -78.4106)">
</pattern>
<path class="st5" d="M214.54,396.05c0,0-21.31,215.23-9.24,310.39c0,0,124.06,58.11,267.89-9.01c0,0,0.52-255.17-22.98-305.37
	c0,0-12.73-24.46-57.33-30.39c-15.08-2-43.28,47.97-59.91,47.97c-8.21,0-43.96-48.69-51.42-48
	C229.16,366.48,214.54,396.05,214.54,396.05z"/>
<path class="st6" d="M462.59,569.49H207.63c0,0-9,0-9-49.51s9-49.51,9-49.51h254.96c0,0,11.08,12.21,11.08,53.82
	C473.67,565.89,462.59,569.49,462.59,569.49z"/>
<path id="hair_9_" class="st7" d="M186.07,225.3c0,0,19.26-48.35,50.55-70.47c0,0,26.89-22.29,82.04-24.37
	c48.41-1.83,79.57-3.21,106.28,10.74c25.92,13.54,57.02,43.36,61.89,84.09c0,0,18.55,78.26-52.35,116.05
	c-31.3,16.69-59.21,25.31-98.65,25.67c-58.36,0-65.51-8-103.49-21.74C232.35,345.27,153.78,313.78,186.07,225.3z"/>
<path id="face_9_" class="st3" d="M256.54,248.28v-31.66c0,0,29.71-16.41,80.87-16.41s71.3,16.41,71.3,16.41v31.66h22.98
	c0,0,9,1.46,8.17,13.79c0,0,0.05,55.92-15.83,69.96c-12.49,12.49-85.28,41.87-167.49,4.09c0,0-10.72-2.55-14.81-17.87
	c-4.09-15.32-11.8-53.19-8.74-66.56C233,251.67,241.95,250.25,256.54,248.28z"/>
<path class="st8" d="M262.85,213.6c0,0-0.92,0.31-4.35,1.66c-1.77,0.7-2.96,1.15-2.89,3.06l0.93,29.96L233,251.67
	c0,0-2.78,11.68,0.56,24.69c0.43,1.66,0.46-13.02,4.84-18.7c0,0,10.97-0.3,14.06-0.19c3.88,0.14,11.79-2.45,11.79-6.29L262.85,213.6
	z"/>
<path class="st8" d="M400.66,211.9c0,0,3,1.29,5.74,3.09c1.59,1.05,2.89,1.35,2.83,3.25l0.06,29.64l20.92,0.39
	c0,0,9.01-0.25,9.71,7.02c0.76,7.93-0.65,22.17-0.65,22.17c-1.78,1.42-6.44-17.1-6.44-17.1c-0.64-4.03-18-3.25-20.38-3.17
	c-3.88,0.14-11.79-2.45-11.79-6.29V211.9z"/>
<circle class="st8" cx="264.25" cy="313.68" r="14.81"/>
<circle class="st8" cx="413.99" cy="313.68" r="14.81"/>
<path id="eyes_4_" class="st9" d="M284.37,276.4c13.02-0.77,23.49,9.94,23.49,9.94c2.05,6.89-5.87,6.33-5.87,6.33
	c0-3.12-11.75-7.73-11.75-7.73c-14.55-2.17-22.21,6.27-22.21,6.27s-4.08,3.32-6.64,0s1.53-6.26,1.53-6.26
	S271.35,277.16,284.37,276.4z M367.14,285.31c0,0-4.08,2.94-1.53,6.26s6.64,0,6.64,0s7.65-8.44,22.21-6.27
	c0,0,11.75,4.61,11.75,7.73c0,0,7.92,0.56,5.87-6.33c0,0-10.47-10.7-23.49-9.94C375.56,277.52,367.14,285.31,367.14,285.31z"/>
<path id="mouse_4_" class="st10" d="M357.72,323.17c0,0,3.87-3.03,1.45-6.44c-2.42-3.42-6.28,0-6.28,0s-7.25,8.68-21.02,6.44
	c0,0-11.11-4.75-11.11-7.96c0,0-7.49-0.58-5.56,6.51c0,0,9.9,11.02,22.23,10.24C349.74,331.18,357.72,323.17,357.72,323.17z"/>
<ellipse transform="matrix(0.9522 -0.3055 0.3055 0.9522 -78.5672 83.3362)" class="st3" cx="226.97" cy="292.69" rx="13.32" ry="20.57"/>
<ellipse transform="matrix(0.1736 -0.9848 0.9848 0.1736 81.2897 682.2493)" class="st3" cx="447.18" cy="292.69" rx="20.57" ry="13.32"/>
<ellipse class="st7" cx="337.12" cy="120.69" rx="79.29" ry="42.71"/>
<g>
	<g>
		<ellipse class="st11" cx="397.86" cy="130.49" rx="4.44" ry="14.79"/>
		
			<ellipse transform="matrix(0.9397 -0.342 0.342 0.9397 -21.2468 142.2696)" class="st11" cx="392.8" cy="131.38" rx="4.44" ry="14.79"/>
		
			<ellipse transform="matrix(0.766 -0.6428 0.6428 0.766 4.7544 280.967)" class="st11" cx="388.35" cy="133.95" rx="4.44" ry="14.79"/>
		<ellipse transform="matrix(0.5 -0.866 0.866 0.5 73.1105 402.407)" class="st11" cx="385.05" cy="137.89" rx="4.44" ry="14.79"/>
		
			<ellipse transform="matrix(0.1736 -0.9848 0.9848 0.1736 176.1868 495.4032)" class="st11" cx="383.29" cy="142.72" rx="4.44" ry="14.79"/>
		
			<ellipse transform="matrix(0.9848 -0.1736 0.1736 0.9848 -19.8515 68.8043)" class="st11" cx="383.29" cy="147.85" rx="14.79" ry="4.44"/>
		<ellipse transform="matrix(0.866 -0.5 0.5 0.866 -24.754 212.9805)" class="st11" cx="385.05" cy="152.68" rx="14.79" ry="4.44"/>
		
			<ellipse transform="matrix(0.6428 -0.766 0.766 0.6428 18.7482 353.441)" class="st11" cx="388.35" cy="156.62" rx="14.79" ry="4.44"/>
		
			<ellipse transform="matrix(0.342 -0.9397 0.9397 0.342 108.8693 473.8547)" class="st11" cx="392.8" cy="159.19" rx="14.79" ry="4.44"/>
		<ellipse class="st11" cx="397.86" cy="160.08" rx="4.44" ry="14.79"/>
		
			<ellipse transform="matrix(0.9397 -0.342 0.342 0.9397 -30.1459 147.4074)" class="st11" cx="402.92" cy="159.19" rx="4.44" ry="14.79"/>
		
			<ellipse transform="matrix(0.766 -0.6428 0.6428 0.766 -5.3652 298.4947)" class="st11" cx="407.37" cy="156.62" rx="4.44" ry="14.79"/>
		<ellipse transform="matrix(0.5 -0.866 0.866 0.5 73.1105 431.9948)" class="st11" cx="410.67" cy="152.68" rx="4.44" ry="14.79"/>
		
			<ellipse transform="matrix(0.1736 -0.9848 0.9848 0.1736 195.2054 528.3445)" class="st11" cx="412.43" cy="147.85" rx="4.44" ry="14.79"/>
		
			<ellipse transform="matrix(0.9848 -0.1736 0.1736 0.9848 -18.5166 73.7861)" class="st11" cx="412.43" cy="142.72" rx="14.79" ry="4.44"/>
		
			<ellipse transform="matrix(0.866 -0.5 0.5 0.866 -13.9241 223.8103)" class="st11" cx="410.67" cy="137.89" rx="14.79" ry="4.44"/>
		
			<ellipse transform="matrix(0.6428 -0.766 0.766 0.6428 42.9047 359.9138)" class="st11" cx="407.37" cy="133.95" rx="14.79" ry="4.44"/>
		
			<ellipse transform="matrix(0.342 -0.9397 0.9397 0.342 141.6545 465.07)" class="st11" cx="402.92" cy="131.38" rx="14.79" ry="4.44"/>
	</g>
	<circle class="st12" cx="397.86" cy="145.28" r="7.85"/>
</g>
<g>
	<g>
		<ellipse class="st13" cx="445.63" cy="141.82" rx="4.44" ry="14.79"/>
		
			<ellipse transform="matrix(0.9397 -0.342 0.342 0.9397 -22.242 159.2911)" class="st13" cx="440.57" cy="142.72" rx="4.44" ry="14.79"/>
		
			<ellipse transform="matrix(0.766 -0.6428 0.6428 0.766 8.6458 314.3239)" class="st13" cx="436.12" cy="145.28" rx="4.44" ry="14.79"/>
		<ellipse transform="matrix(0.5 -0.866 0.866 0.5 87.1806 449.4428)" class="st13" cx="432.82" cy="149.22" rx="4.44" ry="14.79"/>
		
			<ellipse transform="matrix(0.1736 -0.9848 0.9848 0.1736 204.5004 551.8116)" class="st13" cx="431.06" cy="154.05" rx="4.44" ry="14.79"/>
		
			<ellipse transform="matrix(0.9848 -0.1736 0.1736 0.9848 -21.0937 77.2715)" class="st13" cx="431.06" cy="159.19" rx="14.79" ry="4.44"/>
		
			<ellipse transform="matrix(0.866 -0.5 0.5 0.866 -24.0205 238.3834)" class="st13" cx="432.82" cy="164.01" rx="14.79" ry="4.44"/>
		
			<ellipse transform="matrix(0.6428 -0.766 0.766 0.6428 27.1306 394.0827)" class="st13" cx="436.12" cy="167.95" rx="14.79" ry="4.44"/>
		
			<ellipse transform="matrix(0.342 -0.9397 0.9397 0.342 129.6512 526.2)" class="st13" cx="440.57" cy="170.52" rx="14.79" ry="4.44"/>
		<ellipse class="st13" cx="445.63" cy="171.41" rx="4.44" ry="14.79"/>
		
			<ellipse transform="matrix(0.9397 -0.342 0.342 0.9397 -31.1411 164.429)" class="st13" cx="450.69" cy="170.52" rx="4.44" ry="14.79"/>
		
			<ellipse transform="matrix(0.766 -0.6428 0.6428 0.766 -1.4739 331.8516)" class="st13" cx="455.14" cy="167.95" rx="4.44" ry="14.79"/>
		<ellipse transform="matrix(0.5 -0.866 0.866 0.5 87.1806 479.0306)" class="st13" cx="458.44" cy="164.01" rx="4.44" ry="14.79"/>
		
			<ellipse transform="matrix(0.1736 -0.9848 0.9848 0.1736 223.5191 584.7529)" class="st13" cx="460.2" cy="159.19" rx="4.44" ry="14.79"/>
		
			<ellipse transform="matrix(0.9848 -0.1736 0.1736 0.9848 -19.7588 82.2533)" class="st13" cx="460.2" cy="154.05" rx="14.79" ry="4.44"/>
		
			<ellipse transform="matrix(0.866 -0.5 0.5 0.866 -13.1907 249.2133)" class="st13" cx="458.44" cy="149.22" rx="14.79" ry="4.44"/>
		
			<ellipse transform="matrix(0.6428 -0.766 0.766 0.6428 51.2871 400.5554)" class="st13" cx="455.14" cy="145.28" rx="14.79" ry="4.44"/>
		
			<ellipse transform="matrix(0.342 -0.9397 0.9397 0.342 162.4364 517.4152)" class="st13" cx="450.69" cy="142.72" rx="14.79" ry="4.44"/>
	</g>
	<circle class="st12" cx="445.63" cy="156.62" r="7.85"/>
</g>
<path class="st8" d="M258.51,215.26c0,0,28.66-15.05,78.91-15.05s71.8,16.03,71.8,16.03s-2.19,7.58-6.3,5.86
	c-14.34-6-29.67-15.69-67.08-15.2c-31.19,0.41-76.08,15.2-76.08,15.2L258.51,215.26z"/>
<g>
	<rect x="106.1" y="332.02" class="st14" width="357.27" height="24.36"/>
	<circle class="st15" cx="335.8" cy="344.2" r="7.42"/>
	<circle class="st15" cx="359.21" cy="344.2" r="7.42"/>
	<circle class="st15" cx="382.62" cy="344.2" r="7.42"/>
	<circle class="st15" cx="162.05" cy="344.2" r="7.42"/>
	<circle class="st15" cx="185.46" cy="344.2" r="7.42"/>
	<circle class="st15" cx="208.87" cy="344.2" r="7.42"/>
</g>
<circle class="st16" cx="161.82" cy="367.02" r="19.26"/>
<pattern  id="SVGID_2_" xlink:href="#New_Pattern_Swatch_1" patternTransform="matrix(-0.9081 0.4187 -0.4187 -0.9081 -17981.7598 -10086.5732)">
</pattern>
<path class="st17" d="M256.86,537.48c-24.95,8.77-69.09,21.65-102.23-17.5S98.16,453.83,96.26,412.1l132.66-51.18
	c0,0,31.58,40.23,40.28,87C274.95,478.84,281.81,528.71,256.86,537.48z"/>
<circle class="st16" cx="366.64" cy="366.31" r="19.26"/>
<pattern  id="SVGID_3_" xlink:href="#New_Pattern_Swatch_1" patternTransform="matrix(0.9787 -0.2053 -0.2053 -0.9787 -1662.0111 -15286.6748)">
</pattern>
<path class="st18" d="M455.14,531.15c25.26-7.83,33.23-22.22,37.05-73.38c2.62-35.18-7.1-63.74-28.82-101.39l-145.52,35.68
	c0,0,20.57,51.4,41.48,94.14C373.15,514.45,429.88,538.98,455.14,531.15z"/>
</svg>
