<?xml version="1.0" encoding="utf-8"?>
<!-- Generator: Adobe Illustrator 24.0.0, SVG Export Plug-In . SVG Version: 6.00 Build 0)  -->
<svg version="1.1" id="Layer_1" xmlns="http://www.w3.org/2000/svg" xmlns:xlink="http://www.w3.org/1999/xlink" x="0px" y="0px"
	 viewBox="0 0 595.28 841.89" style="enable-background:new 0 0 595.28 841.89;" xml:space="preserve">
<style type="text/css">
	.st0{fill:none;}
	.st1{fill:#62B859;}
	.st2{fill:#99C884;}
	.st3{fill:#FBEDF3;}
	.st4{fill:#E1709C;stroke:#310F2E;stroke-width:12;stroke-linecap:round;stroke-linejoin:round;stroke-miterlimit:10;}
	.st5{fill:url(#SVGID_1_);stroke:#310F2E;stroke-width:12;stroke-linecap:round;stroke-linejoin:round;stroke-miterlimit:10;}
	.st6{fill:#F6C658;stroke:#310F2E;stroke-width:12;stroke-linecap:round;stroke-linejoin:round;stroke-miterlimit:10;}
	.st7{fill:#310F2E;}
	.st8{fill:#F6CFD7;}
	.st9{fill:#2B102E;}
	.st10{fill:#E05149;}
	.st11{fill:#DE4E8C;}
	.st12{fill:#F6C658;}
	.st13{fill:#E35A2B;}
	.st14{fill:#C2996C;}
	.st15{fill:#D44C16;}
	.st16{fill:#FDEFD6;}
	.st17{fill:#2B0F2E;}
	.st18{fill:none;stroke:#8A6139;stroke-width:4.3613;stroke-linecap:round;stroke-linejoin:round;stroke-miterlimit:10;}
	.st19{fill:#FBEDF3;stroke:#310F2E;stroke-width:12;stroke-linecap:round;stroke-linejoin:round;stroke-miterlimit:10;}
	.st20{fill:url(#SVGID_2_);stroke:#310F2E;stroke-width:12;stroke-linecap:round;stroke-linejoin:round;stroke-miterlimit:10;}
	.st21{fill:url(#SVGID_3_);stroke:#310F2E;stroke-width:12;stroke-linecap:round;stroke-linejoin:round;stroke-miterlimit:10;}
</style>
<pattern  width="54.23" height="54.23" patternUnits="userSpaceOnUse" id="New_Pattern_Swatch_1" viewBox="0 -54.23 54.23 54.23" style="overflow:visible;">
	<g>
		<rect y="-54.23" class="st0" width="54.23" height="54.23"/>
		<rect x="0" y="-54.23" class="st1" width="54.23" height="54.23"/>
		<g>
			
				<ellipse transform="matrix(0.3546 -0.935 0.935 0.3546 49.8563 -13.8571)" class="st2" cx="14.89" cy="-43.04" rx="6.55" ry="4.06"/>
			
				<ellipse transform="matrix(0.987 -0.1604 0.1604 0.987 6.2307 1.2324)" class="st2" cx="10.75" cy="-37.97" rx="6.55" ry="4.06"/>
			
				<ellipse transform="matrix(0.7746 -0.6325 0.6325 0.7746 23.0842 1.089)" class="st2" cx="13.07" cy="-31.84" rx="4.06" ry="6.55"/>
			
				<ellipse transform="matrix(0.3546 -0.935 0.935 0.3546 41.3984 -1.6042)" class="st2" cx="19.54" cy="-30.79" rx="6.55" ry="4.06"/>
			<ellipse transform="matrix(0.987 -0.1604 0.1604 0.987 6.061 3.3349)" class="st2" cx="23.68" cy="-35.86" rx="6.55" ry="4.06"/>
			
				<ellipse transform="matrix(0.7746 -0.6325 0.6325 0.7746 31.3723 4.043)" class="st2" cx="21.36" cy="-41.99" rx="4.06" ry="6.55"/>
		</g>
		<circle class="st2" cx="40.44" cy="-12.86" r="3.69"/>
	</g>
</pattern>
<path class="st3" d="M360.27,383.2c0,0-76.76,2.59-94.86,0c-18.1-2.59,37.51,62.02,48.98,60.96S359.28,401.15,360.27,383.2z"/>
<path class="st4" d="M265.41,383.2l30.24-0.08l17.17,42.72C312.82,425.84,301.11,440.44,265.41,383.2"/>
<path class="st4" d="M360.22,383.2l-30.24-0.08l-17.17,42.72C312.82,425.84,324.53,440.44,360.22,383.2"/>
<pattern  id="SVGID_1_" xlink:href="#New_Pattern_Swatch_1" patternTransform="matrix(1 0 0 1 3.895 -2.5976)">
</pattern>
<path class="st5" d="M191.52,417.64c0,0-23.44,137.62-11.36,232.77c0,0,124.06,58.11,267.89-9.01c0,0,2.64-177.56-20.85-227.76
	c0,0-12.73-24.46-57.33-30.39c-15.08-2-43.28,47.97-59.91,47.97c-8.21,0-43.96-48.69-51.42-48
	C206.14,388.07,191.52,417.64,191.52,417.64z"/>
<path class="st6" d="M439.57,591.08H184.6c0,0-9,0-9-49.51s9-49.51,9-49.51h254.96c0,0,11.08,12.21,11.08,53.82
	C450.65,587.48,439.57,591.08,439.57,591.08z"/>
<path id="hair_3_" class="st7" d="M163.05,246.88c0,0,19.26-48.35,50.55-70.47c0,0,26.89-22.29,82.04-24.37
	c48.41-1.83,79.57-3.21,106.28,10.74c25.92,13.54,57.02,43.36,61.89,84.09c0,0,18.55,78.26-52.35,116.05
	c-31.3,16.69-59.21,25.31-98.65,25.67c-58.36,0-65.51-8-103.49-21.74C209.33,366.86,130.75,335.37,163.05,246.88z"/>
<path id="face_3_" class="st3" d="M233.52,269.86V238.2c0,0,29.71-16.41,80.87-16.41s71.3,16.41,71.3,16.41v31.66h22.98
	c0,0,9,1.46,8.17,13.79c0,0,0.05,55.92-15.83,69.96c-12.49,12.49-85.28,41.87-167.49,4.09c0,0-10.72-2.55-14.81-17.87
	c-4.09-15.32-11.8-53.19-8.74-66.56C209.97,273.26,218.93,271.84,233.52,269.86z"/>
<path class="st8" d="M239.83,235.18c0,0-0.92,0.31-4.35,1.66c-1.77,0.7-2.96,1.15-2.89,3.06l0.93,29.96l-23.55,3.39
	c0,0-2.78,11.68,0.56,24.69c0.43,1.66,0.46-13.02,4.84-18.7c0,0,10.97-0.3,14.06-0.19c3.88,0.14,11.79-2.45,11.79-6.29
	L239.83,235.18z"/>
<path class="st8" d="M377.63,233.49c0,0,3,1.29,5.74,3.09c1.59,1.05,2.89,1.35,2.83,3.25l0.06,29.64l20.92,0.39
	c0,0,9.01-0.25,9.71,7.02c0.76,7.93-0.65,22.17-0.65,22.17c-1.78,1.42-6.44-17.1-6.44-17.1c-0.64-4.03-18-3.25-20.38-3.17
	c-3.88,0.14-11.79-2.45-11.79-6.29V233.49z"/>
<circle class="st8" cx="241.22" cy="335.27" r="14.81"/>
<circle class="st8" cx="390.97" cy="335.27" r="14.81"/>
<path id="eyes_2_" class="st9" d="M261.35,297.99c13.02-0.77,23.49,9.94,23.49,9.94c2.05,6.89-5.87,6.33-5.87,6.33
	c0-3.12-11.75-7.73-11.75-7.73c-14.55-2.17-22.21,6.27-22.21,6.27s-4.08,3.32-6.64,0s1.53-6.26,1.53-6.26
	S248.32,298.75,261.35,297.99z M344.11,306.9c0,0-4.08,2.94-1.53,6.26s6.64,0,6.64,0s7.65-8.44,22.21-6.27
	c0,0,11.75,4.61,11.75,7.73c0,0,7.92,0.56,5.87-6.33c0,0-10.47-10.7-23.49-9.94C352.53,299.11,344.11,306.9,344.11,306.9z"/>
<path id="mouse_2_" class="st10" d="M334.69,344.76c0,0,3.87-3.03,1.45-6.44s-6.28,0-6.28,0s-7.25,8.68-21.02,6.44
	c0,0-11.11-4.75-11.11-7.96c0,0-7.49-0.58-5.56,6.51c0,0,9.9,11.02,22.23,10.24C326.72,352.77,334.69,344.76,334.69,344.76z"/>
<ellipse transform="matrix(0.9522 -0.3055 0.3055 0.9522 -86.2633 77.3346)" class="st3" cx="203.95" cy="314.27" rx="13.32" ry="20.57"/>
<ellipse transform="matrix(0.1736 -0.9848 0.9848 0.1736 41.0052 677.4152)" class="st3" cx="424.16" cy="314.27" rx="20.57" ry="13.32"/>
<ellipse class="st7" cx="314.1" cy="142.28" rx="79.29" ry="42.71"/>
<g>
	<g>
		<ellipse class="st11" cx="374.84" cy="152.08" rx="4.44" ry="14.79"/>
		
			<ellipse transform="matrix(0.9397 -0.342 0.342 0.9397 -30.0187 135.6972)" class="st11" cx="369.78" cy="152.97" rx="4.44" ry="14.79"/>
		
			<ellipse transform="matrix(0.766 -0.6428 0.6428 0.766 -14.5081 271.2188)" class="st11" cx="365.33" cy="155.54" rx="4.44" ry="14.79"/>
		<ellipse transform="matrix(0.5 -0.866 0.866 0.5 42.9037 393.2625)" class="st11" cx="362.03" cy="159.48" rx="4.44" ry="14.79"/>
		
			<ellipse transform="matrix(0.1736 -0.9848 0.9848 0.1736 135.9023 490.5692)" class="st11" cx="360.27" cy="164.3" rx="4.44" ry="14.79"/>
		
			<ellipse transform="matrix(0.9848 -0.1736 0.1736 0.9848 -23.9499 65.1344)" class="st11" cx="360.27" cy="169.44" rx="14.79" ry="4.44"/>
		
			<ellipse transform="matrix(0.866 -0.5 0.5 0.866 -38.6323 204.3613)" class="st11" cx="362.03" cy="174.27" rx="14.79" ry="4.44"/>
		
			<ellipse transform="matrix(0.6428 -0.766 0.766 0.6428 -6.0128 343.5159)" class="st11" cx="365.33" cy="178.21" rx="14.79" ry="4.44"/>
		
			<ellipse transform="matrix(0.342 -0.9397 0.9397 0.342 73.4352 466.4246)" class="st11" cx="369.78" cy="180.77" rx="14.79" ry="4.44"/>
		<ellipse class="st11" cx="374.84" cy="181.67" rx="4.44" ry="14.79"/>
		
			<ellipse transform="matrix(0.9397 -0.342 0.342 0.9397 -38.9177 140.8351)" class="st11" cx="379.9" cy="180.77" rx="4.44" ry="14.79"/>
		
			<ellipse transform="matrix(0.766 -0.6428 0.6428 0.766 -24.6277 288.7465)" class="st11" cx="384.35" cy="178.21" rx="4.44" ry="14.79"/>
		<ellipse transform="matrix(0.5 -0.866 0.866 0.5 42.9037 422.8503)" class="st11" cx="387.65" cy="174.27" rx="4.44" ry="14.79"/>
		
			<ellipse transform="matrix(0.1736 -0.9848 0.9848 0.1736 154.921 523.5104)" class="st11" cx="389.41" cy="169.44" rx="4.44" ry="14.79"/>
		
			<ellipse transform="matrix(0.9848 -0.1736 0.1736 0.9848 -22.615 70.1162)" class="st11" cx="389.41" cy="164.3" rx="14.79" ry="4.44"/>
		
			<ellipse transform="matrix(0.866 -0.5 0.5 0.866 -27.8024 215.1911)" class="st11" cx="387.65" cy="159.48" rx="14.79" ry="4.44"/>
		
			<ellipse transform="matrix(0.6428 -0.766 0.766 0.6428 18.1437 349.9886)" class="st11" cx="384.35" cy="155.54" rx="14.79" ry="4.44"/>
		
			<ellipse transform="matrix(0.342 -0.9397 0.9397 0.342 106.2203 457.6399)" class="st11" cx="379.9" cy="152.97" rx="14.79" ry="4.44"/>
	</g>
	<circle class="st12" cx="374.84" cy="166.87" r="7.85"/>
</g>
<g>
	<g>
		<ellipse class="st13" cx="422.61" cy="163.41" rx="4.44" ry="14.79"/>
		
			<ellipse transform="matrix(0.9397 -0.342 0.342 0.9397 -31.0139 152.7187)" class="st13" cx="417.55" cy="164.3" rx="4.44" ry="14.79"/>
		
			<ellipse transform="matrix(0.766 -0.6428 0.6428 0.766 -10.6167 304.5757)" class="st13" cx="413.1" cy="166.87" rx="4.44" ry="14.79"/>
		<ellipse transform="matrix(0.5 -0.866 0.866 0.5 56.9739 440.2983)" class="st13" cx="409.8" cy="170.81" rx="4.44" ry="14.79"/>
		
			<ellipse transform="matrix(0.1736 -0.9848 0.9848 0.1736 164.216 546.9776)" class="st13" cx="408.04" cy="175.64" rx="4.44" ry="14.79"/>
		
			<ellipse transform="matrix(0.9848 -0.1736 0.1736 0.9848 -25.1921 73.6016)" class="st13" cx="408.04" cy="180.77" rx="14.79" ry="4.44"/>
		<ellipse transform="matrix(0.866 -0.5 0.5 0.866 -37.8988 229.7642)" class="st13" cx="409.8" cy="185.6" rx="14.79" ry="4.44"/>
		
			<ellipse transform="matrix(0.6428 -0.766 0.766 0.6428 2.3695 384.1576)" class="st13" cx="413.1" cy="189.54" rx="14.79" ry="4.44"/>
		
			<ellipse transform="matrix(0.342 -0.9397 0.9397 0.342 94.217 518.7698)" class="st13" cx="417.55" cy="192.11" rx="14.79" ry="4.44"/>
		<ellipse class="st13" cx="422.61" cy="193" rx="4.44" ry="14.79"/>
		
			<ellipse transform="matrix(0.9397 -0.342 0.342 0.9397 -39.9129 157.8566)" class="st13" cx="427.67" cy="192.11" rx="4.44" ry="14.79"/>
		
			<ellipse transform="matrix(0.766 -0.6428 0.6428 0.766 -20.7364 322.1034)" class="st13" cx="432.12" cy="189.54" rx="4.44" ry="14.79"/>
		<ellipse transform="matrix(0.5 -0.866 0.866 0.5 56.9739 469.8861)" class="st13" cx="435.42" cy="185.6" rx="4.44" ry="14.79"/>
		
			<ellipse transform="matrix(0.1736 -0.9848 0.9848 0.1736 183.2346 579.9189)" class="st13" cx="437.18" cy="180.77" rx="4.44" ry="14.79"/>
		
			<ellipse transform="matrix(0.9848 -0.1736 0.1736 0.9848 -23.8572 78.5834)" class="st13" cx="437.18" cy="175.64" rx="14.79" ry="4.44"/>
		
			<ellipse transform="matrix(0.866 -0.5 0.5 0.866 -27.0689 240.5941)" class="st13" cx="435.42" cy="170.81" rx="14.79" ry="4.44"/>
		
			<ellipse transform="matrix(0.6428 -0.766 0.766 0.6428 26.5261 390.6303)" class="st13" cx="432.12" cy="166.87" rx="14.79" ry="4.44"/>
		
			<ellipse transform="matrix(0.342 -0.9397 0.9397 0.342 127.0022 509.985)" class="st13" cx="427.67" cy="164.3" rx="14.79" ry="4.44"/>
	</g>
	<circle class="st12" cx="422.61" cy="178.21" r="7.85"/>
</g>
<path class="st8" d="M235.48,236.85c0,0,28.66-15.05,78.91-15.05s71.8,16.03,71.8,16.03s-2.19,7.58-6.3,5.86
	c-14.34-6-29.67-15.69-67.08-15.2c-31.19,0.41-76.08,15.2-76.08,15.2L235.48,236.85z"/>
<g>
	<path class="st14" d="M585.86,727.1L8.47,742.71c-9.14,0.25-16.66-8.66-16.67-19.73l-0.09-112.76
		c-0.01-11.07,7.5-19.99,16.64-19.75l577.41,14.68c8.86,0.23,15.96,8.99,15.96,19.73l0.07,82.47
		C601.8,718.09,594.72,726.86,585.86,727.1z"/>
	<path class="st15" d="M94.03,740.4l-85.55,2.31c-9.14,0.25-16.66-8.66-16.67-19.73l-0.09-112.76c-0.01-11.07,7.5-19.99,16.64-19.75
		L89,592.51L94.03,740.4z"/>
	<g>
		<rect x="185.01" y="607.49" class="st16" width="11.73" height="29.58"/>
		<rect x="215.75" y="622.26" class="st16" width="11.73" height="29.58"/>
		<rect x="246.49" y="637.02" class="st16" width="11.73" height="29.58"/>
		<rect x="277.23" y="651.78" class="st16" width="11.73" height="29.58"/>
		<rect x="307.96" y="666.55" class="st16" width="11.73" height="29.58"/>
		<rect x="338.7" y="681.31" class="st16" width="11.73" height="29.58"/>
		<rect x="369.44" y="696.07" class="st16" width="11.73" height="29.58"/>
	</g>
	<polygon class="st17" points="62.12,741.26 79.06,740.8 78.96,592.26 62.02,591.83 	"/>
	<polygon class="st17" points="538,728.46 554.94,727.94 554.89,604.42 537.95,603.93 	"/>
	<g>
		<polyline class="st18" points="48.05,615.29 546.44,621.35 601.76,669.03 		"/>
		<polyline class="st18" points="48.08,647.08 546.46,653.14 601.76,669.03 546.45,637.25 48.07,631.19 		"/>
		<polyline class="st18" points="48.1,678.86 546.49,684.92 601.76,669.03 546.47,669.03 48.09,662.97 		"/>
		<polyline class="st18" points="48.13,710.64 546.51,716.7 601.76,669.03 546.5,700.81 48.12,694.75 		"/>
	</g>
</g>
<circle class="st19" cx="190.87" cy="622.28" r="19.26"/>
<circle class="st19" cx="469.6" cy="619.12" r="19.26"/>
<pattern  id="SVGID_2_" xlink:href="#New_Pattern_Swatch_1" patternTransform="matrix(0.9977 -0.0678 0.0678 0.9977 578.0547 -577.6844)">
</pattern>
<path class="st20" d="M191.16,411.54c0,0-56.38,33.14-72.94,100.16c-8.28,33.5,4.5,107.42,4.5,107.42l126.23-40.68
	C248.95,578.43,227.5,459.18,191.16,411.54z"/>
<pattern  id="SVGID_3_" xlink:href="#New_Pattern_Swatch_1" patternTransform="matrix(0.9769 -0.2139 0.2139 0.9769 1281.1981 -1819.4349)">
</pattern>
<path class="st21" d="M426.5,413.66c0,0,50.87-2.97,93.18,68.04c19.4,32.56,48.96,81.64,24.64,125.35l-128.45-14.94
	C415.87,592.11,404.94,469.56,426.5,413.66z"/>
</svg>
