<?xml version="1.0" encoding="utf-8"?>
<!-- Generator: Adobe Illustrator 24.0.0, SVG Export Plug-In . SVG Version: 6.00 Build 0)  -->
<svg version="1.1" id="Layer_1" xmlns="http://www.w3.org/2000/svg" xmlns:xlink="http://www.w3.org/1999/xlink" x="0px" y="0px"
	 viewBox="0 0 595.28 841.89" style="enable-background:new 0 0 595.28 841.89;" xml:space="preserve">
<style type="text/css">
	.st0{fill:#FDEFD6;}
	.st1{fill:#2B0F2E;}
	.st2{fill:none;stroke:#EA4F1A;stroke-width:7;stroke-linecap:round;stroke-linejoin:round;stroke-miterlimit:10;}
</style>
<g>
	
		<ellipse transform="matrix(0.9765 -0.2155 0.2155 0.9765 -93.0917 47.5454)" class="st0" cx="171.46" cy="450.62" rx="45.13" ry="100.61"/>
	<polygon class="st1" points="258.87,431.32 403.15,299.37 445.29,490.29 	"/>
	
		<ellipse transform="matrix(0.9765 -0.2155 0.2155 0.9765 -74.4993 100.6363)" class="st0" cx="424.19" cy="391.91" rx="45.13" ry="100.61"/>
	<circle class="st1" cx="296.27" cy="423.07" r="45.58"/>
	<path class="st1" d="M199.64,543.58l142.93-130.73l-184.68-58.42l-0.2-0.89c-0.45,0.1-0.89,0.24-1.32,0.41l-0.22-0.07l0.03,0.15
		c-14.05,5.97-16.5,50.17-5.26,101.12c11.25,50.95,32.07,90.01,47.33,89.51l0.03,0.15l0.17-0.16c0.46-0.03,0.92-0.08,1.37-0.18
		L199.64,543.58z"/>
	<path class="st2" d="M180.77,531.72c0,0-8.25,2.31-8.3,12.05s14.87,0.29,18.13-6.46l100.66-96.11l115.46,15.24
		c0,0,8.94-0.47,6.29-3.4"/>
	<path class="st2" d="M390.95,419.2c0,0-4.59,6.54-9.8,5.68s-89.89,16.32-89.89,16.32l-125.41,73.42c0,0-16,5.54-11.67-4.46"/>
	<path class="st2" d="M145.56,477.88c0,0-2.17,12.04,11.6,5.48c13.77-6.56,130.53-46.91,130.53-46.91l92.43-34.82
		c0,0,7.24-3.27,5.75-5.45"/>
	<path class="st2" d="M377.98,371.79c0,0-4.53-0.01-10.6,4.35c-6.08,4.36-73.61,44.56-73.61,44.56l-150.91,29.13
		c0,0-8.74-5.05-2.33-10.55"/>
	<path class="st2" d="M139.91,405.23c0,0-7.74-8.35,6.43-7.95c14.16,0.39,140.43,12.23,140.43,12.23l87.65-65.59
		c0,0,3.86-4.87,5.67-1.25"/>
	<path class="st2" d="M384.08,320.68c0,0-5.97-5.03-10.34,2.28c-4.37,7.31-82.55,67.82-82.55,67.82l-144.82-20.46
		c0,0-14.07-3.73-11.8,2.61"/>
	<path class="st2" d="M398.84,302.34c0,0-2.79-7.06-6.18-3.58"/>
	<path class="st2" d="M430.45,308.94c0,0,4.98-7.38,0.92-7.24"/>
	<path class="st2" d="M447.83,335.26c0,0,5.13-6.36,2.41-7.31"/>
	<path class="st2" d="M459.83,368.81c0,0,10.17,0.15,7.12-1.57"/>
	<path class="st2" d="M467.23,402.36c0,0,8.21,1.75,6.92,6.52"/>
	<path class="st2" d="M466.63,443.21c0,0,5.84,2.21,4.72,7.79"/>
	<path class="st2" d="M452.79,473.91c0,0,6.91,2.67,4.54,9.64"/>
	<path class="st2" d="M428.99,473.13c0,0-0.57,11.02-6.6,9.92"/>
	<path class="st2" d="M273.08,379.36c0,0-2.32,53.25,17.82,80.75c0,0-15.7-73.17-5.33-85.52c0,0,7.2,73.5,15.31,87.45
		c0,0-7.52-77.33-6.26-85.29c0,0,19.71,71.1,16.32,83.06c0,0,0.83-69.12-7.22-85.07c0,0,19.25,62.16,14.89,83.38
		c0,0-2.1-66.46-9.13-84.65"/>
</g>
</svg>
