<?xml version="1.0" encoding="utf-8"?>
<!-- Generator: Adobe Illustrator 24.0.0, SVG Export Plug-In . SVG Version: 6.00 Build 0)  -->
<svg version="1.1" id="Layer_1" xmlns="http://www.w3.org/2000/svg" xmlns:xlink="http://www.w3.org/1999/xlink" x="0px" y="0px"
	 viewBox="0 0 595.28 841.89" style="enable-background:new 0 0 595.28 841.89;" xml:space="preserve">
<style type="text/css">
	.st0{fill:#2B102E;}
	.st1{fill:#C2996C;}
	.st2{fill:#FDEFD6;}
	.st3{fill:none;stroke:#8A6139;stroke-width:6;stroke-miterlimit:10;}
</style>
<g>
	
		<rect x="161.92" y="291.15" transform="matrix(4.502125e-15 -1 1 4.502125e-15 40.3988 671.0483)" class="st0" width="387.62" height="48.35"/>
	<path class="st1" d="M413.77,721.01h-116.1c-34.16,0-61.85-27.69-61.85-61.85v-116.1c0-34.16,27.69-61.85,61.85-61.85h116.1
		c34.16,0,61.85,27.69,61.85,61.85v116.1C475.62,693.32,447.93,721.01,413.77,721.01z"/>
	<path class="st2" d="M407.97,709.02H303.48c-30.74,0-55.66-24.92-55.66-55.66V548.87c0-30.74,24.92-55.66,55.66-55.66h104.49
		c30.74,0,55.66,24.92,55.66,55.66v104.49C463.63,684.1,438.71,709.02,407.97,709.02z"/>
	<polygon class="st0" points="331.55,164.5 266.06,169.5 266.06,149.49 331.55,154.49 	"/>
	<polygon class="st0" points="370.46,154.5 435.96,159.5 435.96,139.48 370.46,144.48 	"/>
	<polygon class="st0" points="370.46,190.35 435.96,195.35 435.96,175.34 370.46,180.34 	"/>
	<rect x="311.16" y="653.49" class="st1" width="89.05" height="13.96"/>
	<line class="st3" x1="343.47" y1="139.48" x2="343.47" y2="675.26"/>
	<line class="st3" x1="355.72" y1="139.48" x2="355.72" y2="675.26"/>
	<line class="st3" x1="367.97" y1="139.48" x2="367.97" y2="675.26"/>
</g>
<path class="st1" d="M136.87,501.81c-7.97-11.82-8.44-12.51-16.84-24.98c126.04-66.82,119.82-108.53,119.82-108.53l42.56,63.12
	C282.4,431.42,240.86,419.9,136.87,501.81z"/>
</svg>
