<?xml version="1.0" encoding="utf-8"?>
<!-- Generator: Adobe Illustrator 24.0.0, SVG Export Plug-In . SVG Version: 6.00 Build 0)  -->
<svg version="1.1" id="Layer_1" xmlns="http://www.w3.org/2000/svg" xmlns:xlink="http://www.w3.org/1999/xlink" x="0px" y="0px"
	 viewBox="0 0 930.7 1036.3" style="enable-background:new 0 0 930.7 1036.3;" xml:space="preserve">
<style type="text/css">
	.st0{fill:#C2996C;}
	.st1{fill:#D44C16;}
	.st2{fill:#FDEFD6;}
	.st3{fill:#2B0F2E;}
	.st4{fill:none;stroke:#8A6139;stroke-width:8.1774;stroke-linecap:round;stroke-linejoin:round;stroke-miterlimit:10;}
</style>
<g>
	<path class="st0" d="M913,164l-667.3,853c-10.6,13.5-32.4,13.7-48.4,0.5L34.2,882.9c-16-13.2-19.9-34.7-8.7-47.6L736.7,18.4
		c10.9-12.5,32.1-12.3,47.6,0.5l119.3,98.4C919,130.2,923.2,150.9,913,164z"/>
	<path class="st1" d="M344.6,890.6L245.7,1017c-10.6,13.5-32.4,13.7-48.4,0.5L34.2,882.9c-16-13.2-19.9-34.7-8.7-47.6l99.4-114.1
		L344.6,890.6z"/>
	<g>
		
			<rect x="278.6" y="581.8" transform="matrix(0.6372 -0.7707 0.7707 0.6372 -364.6992 444.3272)" class="st2" width="22" height="55.5"/>
		
			<rect x="336.7" y="555" transform="matrix(0.6372 -0.7707 0.7707 0.6372 -322.9613 479.3594)" class="st2" width="22" height="55.5"/>
		
			<rect x="394.7" y="528.2" transform="matrix(0.6372 -0.7707 0.7707 0.6372 -281.2973 514.3578)" class="st2" width="22" height="55.5"/>
		
			<rect x="452.8" y="501.4" transform="matrix(0.6372 -0.7707 0.7707 0.6372 -239.5487 549.3879)" class="st2" width="22" height="55.5"/>
		
			<rect x="510.9" y="474.6" transform="matrix(0.6372 -0.7707 0.7707 0.6372 -197.8339 584.4919)" class="st2" width="22" height="55.5"/>
		
			<rect x="568.9" y="447.9" transform="matrix(0.6372 -0.7707 0.7707 0.6372 -156.1699 619.4902)" class="st2" width="22" height="55.5"/>
		
			<rect x="627" y="421.1" transform="matrix(0.6372 -0.7707 0.7707 0.6372 -114.4319 654.5225)" class="st2" width="22" height="55.5"/>
	</g>
	<polygon class="st3" points="307.7,937.7 327.3,912.7 112.5,735.4 91.7,759.3 	"/>
	<polygon class="st3" points="857.8,234.7 877.3,209.6 698.7,62.1 677.8,86 	"/>
	<g>
		<polyline class="st4" points="108.9,807.5 713.1,94.6 848.1,71.6 		"/>
		<polyline class="st4" points="154.8,845.5 759,132.5 848.1,71.6 736.1,113.5 131.9,826.5 		"/>
		<polyline class="st4" points="200.8,883.4 805,170.5 848.1,71.6 782,151.5 177.8,864.5 		"/>
		<polyline class="st4" points="246.8,921.4 850.9,208.4 848.1,71.6 828,189.4 223.8,902.4 		"/>
	</g>
</g>
</svg>
