<?xml version="1.0" encoding="utf-8"?>
<!-- Generator: Adobe Illustrator 24.0.0, SVG Export Plug-In . SVG Version: 6.00 Build 0)  -->
<svg version="1.1" id="Layer_1" xmlns="http://www.w3.org/2000/svg" xmlns:xlink="http://www.w3.org/1999/xlink" x="0px" y="0px"
	 viewBox="0 0 700.8 668" style="enable-background:new 0 0 700.8 668;" xml:space="preserve">
<style type="text/css">
	.st0{fill:#FDEFD6;}
	.st1{fill:#2B0F2E;}
	.st2{fill:none;stroke:#EA4F1A;stroke-width:12.6;stroke-linecap:round;stroke-linejoin:round;stroke-miterlimit:10;}
</style>
<g>
	
		<ellipse transform="matrix(0.8383 -0.5453 0.5453 0.8383 -229.1581 162.3314)" class="st0" cx="159.1" cy="467.4" rx="81.2" ry="181.1"/>
	<polygon class="st1" points="294.1,379.6 453.7,65.9 645.5,360.9 	"/>
	
		<ellipse transform="matrix(0.8383 -0.5453 0.5453 0.8383 -25.0687 332.3851)" class="st0" cx="547.7" cy="208.4" rx="81.2" ry="181.1"/>
	<ellipse class="st1" cx="351.9" cy="342" rx="82.1" ry="82.1"/>
	<path class="st1" d="M265.4,606.3l158-310.8L75.3,313.9l-1-1.3c-0.7,0.5-1.3,1-1.9,1.6h-0.4l0.1,0.2c-19.9,19,4,95,55.2,173.8
		c51.2,78.7,111,131.4,136.4,120.8l0.1,0.2l0.2-0.4c0.7-0.4,1.4-0.7,2.2-1.2L265.4,606.3z"/>
	<path class="st2" d="M226.1,598.2c0,0-12.5,9.1-6.4,25.6s25.2-8.9,26.4-22.3l108.7-225.7l204.2-47.4c0,0,14.8-6.5,8.4-9.7"/>
	<path class="st2" d="M509,275.5c0,0-3.6,13.9-13,15.7s-141.1,84.5-141.1,84.5l-164.8,203c0,0-23.4,19.4-22.4-0.1"/>
	<path class="st2" d="M132.7,529.8c0,0,4,21.7,23,1.9S345.9,370,345.9,370l133.7-117.2c0,0,10.1-10.1,6.2-12.8"/>
	<path class="st2" d="M457.1,203.8c0,0-7.7,2.9-15.1,14c-7.4,11.2-95.8,121.7-95.8,121.7L110.3,484.2c0,0-17.9-3-10.6-16.3"/>
	<path class="st2" d="M77.1,410.9c0,0-18.4-9.1,5.8-17.5c24.1-8.3,244.3-68.3,244.3-68.3L433.4,159c0,0,3.4-10.7,8.8-5.6"/>
	<path class="st2" d="M435.1,113.9c0,0-13.2-4.7-16,10.4c-2.8,15.1-96.1,166.6-96.1,166.6L65.9,348c0,0-26,2.6-18.2,11.9"/>
	<path class="st2" d="M448.3,73.6c0,0-9.1-10.1-12.7-2.2"/>
	<path class="st2" d="M505.7,64.7c0,0,3.7-15.6-3-12.8"/>
	<path class="st2" d="M551.7,98.1c0,0,4.6-13.9-0.6-13.8"/>
	<path class="st2" d="M593.1,147c0,0,17.3-6.2,11-7.2"/>
	<path class="st2" d="M626.8,198.9c0,0,15-2.3,15.8,6.6"/>
	<path class="st2" d="M651.7,268c0,0,11.3,0,12.8,10.1"/>
	<path class="st2" d="M647.8,328.6c0,0,13.3,0.1,13.8,13.3"/>
	<path class="st2" d="M607.3,342.3c0,0,6,19-4.8,20.9"/>
	<path class="st2" d="M285.2,283c0,0,29.8,91.2,81.1,124.8c0,0-72.8-113.4-63.1-140.8c0,0,58.7,119.3,81.1,137.6
		c0,0-61.7-125.5-64.6-139.8c0,0,78.2,107.3,80,129.6c0,0-42.4-117-66-138.7c0,0,71.8,92.5,77.9,131c0,0-45.6-110.6-69-136.8"/>
</g>
</svg>
