<svg id="Layer_1" data-name="Layer 1" xmlns="http://www.w3.org/2000/svg" xmlns:xlink="http://www.w3.org/1999/xlink" viewBox="0 0 165.19 164.37"><defs><style>.cls-1,.cls-2,.cls-3{stroke:#c49a6c;}.cls-1,.cls-2,.cls-3,.cls-4,.cls-5{stroke-miterlimit:10;}.cls-1{fill:url(#linear-gradient);}.cls-2{fill:url(#linear-gradient-2);}.cls-3{fill:url(#linear-gradient-3);}.cls-4{fill:none;stroke:#8b5e3c;stroke-linecap:round;stroke-width:9px;}.cls-5{stroke:#ffe2a1;fill:url(#linear-gradient-4);}</style><linearGradient id="linear-gradient" x1="92.97" y1="372.91" x2="256.73" y2="372.91" gradientUnits="userSpaceOnUse"><stop offset="0" stop-color="#c49a6c"/><stop offset="0" stop-color="#c59b6b"/><stop offset="0.05" stop-color="#d9ab49"/><stop offset="0.11" stop-color="#e9b72e"/><stop offset="0.16" stop-color="#f4c01b"/><stop offset="0.22" stop-color="#fbc510"/><stop offset="0.28" stop-color="#fdc70c"/><stop offset="0.67" stop-color="#a97c50"/><stop offset="0.89" stop-color="#a97c50"/><stop offset="1" stop-color="#8b5e3c"/></linearGradient><linearGradient id="linear-gradient-2" x1="0.71" y1="111.3" x2="164.65" y2="111.3" xlink:href="#linear-gradient"/><linearGradient id="linear-gradient-3" x1="140.46" y1="335.88" x2="213.15" y2="335.88" xlink:href="#linear-gradient"/><linearGradient id="linear-gradient-4" x1="896.39" y1="217.99" x2="922.9" y2="217.99" gradientTransform="translate(1074.87 517.54) rotate(180)" gradientUnits="userSpaceOnUse"><stop offset="0" stop-color="#ffe2a1"/><stop offset="0.07" stop-color="#ffecc2"/><stop offset="0.15" stop-color="#fff4dd"/><stop offset="0.22" stop-color="#fffaf0"/><stop offset="0.3" stop-color="#fffefb"/><stop offset="0.38" stop-color="#fff"/><stop offset="0.69" stop-color="#ffe2a1"/><stop offset="0.9" stop-color="#fff"/><stop offset="1" stop-color="#ffe2a1"/></linearGradient></defs><path class="cls-1" d="M256.73,346.63H93l14.24,39h0c2.88,8.95,31.48,13.52,68,13.52s66.24-6,67.23-13.52h.05Z" transform="translate(-92.26 -235.33)"/><ellipse class="cls-2" cx="82.68" cy="111.3" rx="81.97" ry="16.95"/><path class="cls-3" d="M213.15,339.56c0-8.91-16.27-16.14-36.35-16.14s-36.34,7.23-36.34,16.14,14.75,8.79,34.82,8.79S213.15,348.48,213.15,339.56Z" transform="translate(-92.26 -235.33)"/><line class="cls-4" x1="72.98" y1="64.23" x2="10.74" y2="4.5"/><ellipse class="cls-5" cx="165.23" cy="299.55" rx="13.26" ry="13.32" transform="translate(-257.56 -23.97) rotate(-46.18)"/></svg>