<svg id="Layer_1" data-name="Layer 1" xmlns="http://www.w3.org/2000/svg" xmlns:xlink="http://www.w3.org/1999/xlink" viewBox="0 0 177.89 201"><defs><style>.cls-1{fill:#e0bb52;}.cls-1,.cls-8,.cls-9{stroke:#ffe2a1;}.cls-1,.cls-7,.cls-8,.cls-9{stroke-miterlimit:10;}.cls-2{fill:#3c2415;}.cls-3{fill:#6d6e71;}.cls-4{fill:#754c29;}.cls-5{fill:#a97c50;}.cls-6{fill:#c49a6c;}.cls-7{fill:none;stroke:#8b5e3c;stroke-linecap:round;stroke-width:5px;}.cls-8{fill:url(#linear-gradient);}.cls-9{fill:url(#linear-gradient-2);}</style><linearGradient id="linear-gradient" x1="604.97" y1="101.8" x2="624.43" y2="101.8" gradientTransform="translate(253.26 -244.77) rotate(90)" gradientUnits="userSpaceOnUse"><stop offset="0" stop-color="#ffe2a1"/><stop offset="0.07" stop-color="#ffecc2"/><stop offset="0.15" stop-color="#fff4dd"/><stop offset="0.22" stop-color="#fffaf0"/><stop offset="0.3" stop-color="#fffefb"/><stop offset="0.38" stop-color="#fff"/><stop offset="0.69" stop-color="#ffe2a1"/><stop offset="0.9" stop-color="#fff"/><stop offset="1" stop-color="#ffe2a1"/></linearGradient><linearGradient id="linear-gradient-2" x1="1279.13" y1="-235.08" x2="1298.59" y2="-235.08" gradientTransform="matrix(0, -1, -1, 0, -98.31, 1624.2)" xlink:href="#linear-gradient"/></defs><path class="cls-1" d="M201.26,217.52H159.85c-6.7,0-11.82,5.22-10.75,11l33.65,181.08c.85,4.58,5.4,7.95,10.75,7.95h18c5.41,0,10-3.45,10.77-8.11l30.13-181.07c.95-5.71-4.15-10.82-10.78-10.82Z" transform="translate(-85.91 -217.01)"/><rect class="cls-2" x="52.89" y="8.76" width="125" height="12" rx="4.5"/><polygon class="cls-3" points="67.9 9.75 66.56 9.75 65.89 10.76 66.56 11.77 67.9 11.77 68.57 10.76 67.9 9.75"/><polygon class="cls-3" points="69.44 17.75 68.1 17.75 67.43 18.76 68.1 19.77 69.44 19.77 70.1 18.76 69.44 17.75"/><polygon class="cls-3" points="163.05 9.75 161.71 9.75 161.04 10.76 161.71 11.77 163.05 11.77 163.72 10.76 163.05 9.75"/><polygon class="cls-3" points="161.51 17.75 160.18 17.75 159.51 18.76 160.18 19.77 161.51 19.77 162.19 18.76 161.51 17.75"/><rect class="cls-2" x="56.02" y="24.76" width="118.75" height="12" rx="4.5"/><polygon class="cls-3" points="70.28 25.75 69 25.75 68.37 26.76 69 27.77 70.28 27.77 70.91 26.76 70.28 25.75"/><polygon class="cls-3" points="71.73 33.75 70.46 33.75 69.83 34.76 70.46 35.77 71.73 35.77 72.37 34.76 71.73 33.75"/><polygon class="cls-3" points="160.67 25.75 159.4 25.75 158.76 26.76 159.4 27.77 160.67 27.77 161.3 26.76 160.67 25.75"/><polygon class="cls-3" points="159.21 33.75 157.94 33.75 157.3 34.76 157.94 35.77 159.21 35.77 159.84 34.76 159.21 33.75"/><rect class="cls-2" x="59.14" y="39.43" width="112.5" height="12" rx="4.5"/><polygon class="cls-3" points="72.65 40.42 71.44 40.42 70.84 41.42 71.44 42.43 72.65 42.43 73.25 41.42 72.65 40.42"/><polygon class="cls-3" points="74.03 48.42 72.83 48.42 72.22 49.42 72.83 50.43 74.03 50.43 74.63 49.42 74.03 48.42"/><polygon class="cls-3" points="158.28 40.42 157.08 40.42 156.48 41.42 157.08 42.43 158.28 42.43 158.89 41.42 158.28 40.42"/><polygon class="cls-3" points="156.9 48.42 155.7 48.42 155.09 49.42 155.7 50.43 156.9 50.43 157.5 49.42 156.9 48.42"/><rect class="cls-4" x="62.27" y="55.42" width="106.25" height="12" rx="4.5"/><polygon class="cls-3" points="75.02 56.42 73.89 56.42 73.32 57.42 73.89 58.43 75.02 58.43 75.59 57.42 75.02 56.42"/><polygon class="cls-3" points="76.33 64.42 75.19 64.42 74.62 65.42 75.19 66.43 76.33 66.43 76.9 65.42 76.33 64.42"/><polygon class="cls-3" points="155.9 56.42 154.76 56.42 154.19 57.42 154.76 58.43 155.9 58.43 156.47 57.42 155.9 56.42"/><polygon class="cls-3" points="154.6 64.42 153.46 64.42 152.89 65.42 153.46 66.43 154.6 66.43 155.17 65.42 154.6 64.42"/><rect class="cls-4" x="65.39" y="70.09" width="100" height="12" rx="4.5"/><polygon class="cls-3" points="77.4 71.08 76.33 71.08 75.79 72.09 76.33 73.1 77.4 73.1 77.93 72.09 77.4 71.08"/><polygon class="cls-3" points="78.63 79.08 77.56 79.08 77.02 80.09 77.56 81.1 78.63 81.1 79.16 80.09 78.63 79.08"/><polygon class="cls-3" points="153.52 71.08 152.45 71.08 151.91 72.09 152.45 73.1 153.52 73.1 154.05 72.09 153.52 71.08"/><polygon class="cls-3" points="152.29 79.08 151.22 79.08 150.68 80.09 151.22 81.1 152.29 81.1 152.83 80.09 152.29 79.08"/><rect class="cls-4" x="68.52" y="86.09" width="93.75" height="12" rx="4.5"/><polygon class="cls-3" points="79.77 87.08 78.77 87.08 78.27 88.09 78.77 89.1 79.77 89.1 80.28 88.09 79.77 87.08"/><polygon class="cls-3" points="80.92 95.08 79.92 95.08 79.42 96.09 79.92 97.1 80.92 97.1 81.43 96.09 80.92 95.08"/><polygon class="cls-3" points="151.13 87.08 150.13 87.08 149.63 88.09 150.13 89.1 151.13 89.1 151.64 88.09 151.13 87.08"/><polygon class="cls-3" points="149.98 95.08 148.98 95.08 148.48 96.09 148.98 97.1 149.98 97.1 150.49 96.09 149.98 95.08"/><rect class="cls-5" x="71.64" y="100.76" width="87.5" height="12" rx="4.5"/><polygon class="cls-3" points="82.15 101.75 81.21 101.75 80.74 102.76 81.21 103.76 82.15 103.76 82.62 102.76 82.15 101.75"/><polygon class="cls-3" points="83.22 109.75 82.28 109.75 81.82 110.76 82.28 111.76 83.22 111.76 83.69 110.76 83.22 109.75"/><polygon class="cls-3" points="148.75 101.75 147.81 101.75 147.35 102.76 147.81 103.76 148.75 103.76 149.22 102.76 148.75 101.75"/><polygon class="cls-3" points="147.68 109.75 146.74 109.75 146.27 110.76 146.74 111.76 147.68 111.76 148.15 110.76 147.68 109.75"/><rect class="cls-5" x="74.77" y="116.76" width="81.25" height="12" rx="4.5"/><polygon class="cls-3" points="84.52 117.75 83.65 117.75 83.22 118.76 83.65 119.76 84.52 119.76 84.96 118.76 84.52 117.75"/><polygon class="cls-3" points="85.52 125.75 84.65 125.75 84.21 126.76 84.65 127.76 85.52 127.76 85.95 126.76 85.52 125.75"/><polygon class="cls-3" points="146.37 117.75 145.5 117.75 145.06 118.76 145.5 119.76 146.37 119.76 146.8 118.76 146.37 117.75"/><polygon class="cls-3" points="145.37 125.75 144.5 125.75 144.07 126.76 144.5 127.76 145.37 127.76 145.81 126.76 145.37 125.75"/><rect class="cls-5" x="78.27" y="131.42" width="74.62" height="12" rx="4.5"/><polygon class="cls-3" points="87.23 132.41 86.43 132.41 86.03 133.42 86.43 134.43 87.23 134.43 87.63 133.42 87.23 132.41"/><polygon class="cls-3" points="88.14 140.41 87.34 140.41 86.94 141.42 87.34 142.43 88.14 142.43 88.54 141.42 88.14 140.41"/><polygon class="cls-3" points="144.03 132.41 143.23 132.41 142.83 133.42 143.23 134.43 144.03 134.43 144.43 133.42 144.03 132.41"/><polygon class="cls-3" points="143.12 140.41 142.31 140.41 141.92 141.42 142.31 142.43 143.12 142.43 143.51 141.42 143.12 140.41"/><rect class="cls-6" x="81.02" y="147.42" width="68.75" height="12" rx="4.5"/><polygon class="cls-3" points="89.27 148.41 88.53 148.41 88.17 149.42 88.53 150.43 89.27 150.43 89.64 149.42 89.27 148.41"/><polygon class="cls-3" points="90.11 156.41 89.38 156.41 89.01 157.42 89.38 158.43 90.11 158.43 90.48 157.42 90.11 156.41"/><polygon class="cls-3" points="141.6 148.41 140.87 148.41 140.5 149.42 140.87 150.43 141.6 150.43 141.97 149.42 141.6 148.41"/><polygon class="cls-3" points="140.76 156.41 140.02 156.41 139.66 157.42 140.02 158.43 140.76 158.43 141.13 157.42 140.76 156.41"/><rect class="cls-6" x="84.14" y="163.42" width="62.5" height="12" rx="4.5"/><polygon class="cls-3" points="91.65 164.41 90.98 164.41 90.64 165.42 90.98 166.43 91.65 166.43 91.98 165.42 91.65 164.41"/><polygon class="cls-3" points="92.41 172.41 91.74 172.41 91.41 173.42 91.74 174.43 92.41 174.43 92.75 173.42 92.41 172.41"/><polygon class="cls-3" points="139.22 164.41 138.55 164.41 138.22 165.42 138.55 166.43 139.22 166.43 139.56 165.42 139.22 164.41"/><polygon class="cls-3" points="138.45 172.41 137.78 172.41 137.45 173.42 137.78 174.43 138.45 174.43 138.79 173.42 138.45 172.41"/><rect class="cls-6" x="87.27" y="178.09" width="56.25" height="12" rx="4.5"/><polygon class="cls-3" points="94.02 179.08 93.42 179.08 93.12 180.09 93.42 181.1 94.02 181.1 94.32 180.09 94.02 179.08"/><polygon class="cls-3" points="94.71 187.08 94.11 187.08 93.81 188.09 94.11 189.09 94.71 189.09 95.01 188.09 94.71 187.08"/><polygon class="cls-3" points="136.84 179.08 136.24 179.08 135.93 180.09 136.24 181.1 136.84 181.1 137.14 180.09 136.84 179.08"/><polygon class="cls-3" points="136.15 187.08 135.54 187.08 135.24 188.09 135.54 189.09 136.15 189.09 136.45 188.09 136.15 187.08"/><line class="cls-7" x1="65.55" y1="152.92" x2="2.5" y2="158.92"/><ellipse class="cls-8" cx="151.46" cy="369.93" rx="9.78" ry="9.73" transform="translate(-120.27 -201) rotate(-5.43)"/><line class="cls-7" x1="50.87" y1="118.33" x2="17.01" y2="171.86"/><ellipse class="cls-9" cx="136.77" cy="335.34" rx="9.78" ry="9.73" transform="translate(-305.66 54.68) rotate(-57.69)"/></svg>