<svg id="Layer_1" data-name="Layer 1" xmlns="http://www.w3.org/2000/svg" xmlns:xlink="http://www.w3.org/1999/xlink" viewBox="0 0 319.62 620.25"><defs><style>.cls-1,.cls-37{fill:none;}.cls-1,.cls-40,.cls-41{stroke:#331330;}.cls-1,.cls-37,.cls-41{stroke-linecap:round;}.cls-1,.cls-41{stroke-linejoin:round;}.cls-1{stroke-width:14px;}.cls-2{fill:#93becc;}.cls-3{fill:#1c75bc;}.cls-4{fill:#2e3192;}.cls-5{fill:url(#linear-gradient);}.cls-6{fill:url(#linear-gradient-2);}.cls-7{fill:url(#linear-gradient-3);}.cls-8{fill:url(#linear-gradient-4);}.cls-9{fill:url(#linear-gradient-5);}.cls-10,.cls-41{fill:#b2e2f6;}.cls-11{fill:url(#linear-gradient-6);}.cls-12{fill:#fac951;}.cls-13,.cls-40{fill:#fdeff5;}.cls-14{fill:#331330;}.cls-15{fill:#fbd2db;}.cls-16{fill:#2d1230;}.cls-17{fill:#ef524a;}.cls-18{fill:url(#linear-gradient-7);}.cls-19{fill:url(#linear-gradient-8);}.cls-20{fill:url(#linear-gradient-9);}.cls-21{fill:url(#linear-gradient-10);}.cls-22{fill:url(#linear-gradient-11);}.cls-23{fill:url(#linear-gradient-12);}.cls-24{fill:url(#linear-gradient-13);}.cls-25{fill:url(#linear-gradient-14);}.cls-26{fill:url(#linear-gradient-15);}.cls-27{fill:url(#linear-gradient-16);}.cls-28{fill:url(#linear-gradient-17);}.cls-29{fill:url(#linear-gradient-18);}.cls-30{fill:url(#linear-gradient-19);}.cls-31{fill:#e0bb52;}.cls-31,.cls-38,.cls-39{stroke:#ffe2a1;}.cls-31,.cls-37,.cls-38,.cls-39,.cls-40{stroke-miterlimit:10;}.cls-32{fill:#3c2415;}.cls-33{fill:#6d6e71;}.cls-34{fill:#754c29;}.cls-35{fill:#a97c50;}.cls-36{fill:#c49a6c;}.cls-37{stroke:#8b5e3c;stroke-width:5px;}.cls-38{fill:url(#linear-gradient-20);}.cls-39{fill:url(#linear-gradient-21);}.cls-40{stroke-width:3px;}.cls-41{stroke-width:6px;}.cls-42{fill:url(#linear-gradient-22);}</style><linearGradient id="linear-gradient" x1="38.23" y1="495.38" x2="125.98" y2="495.38" gradientUnits="userSpaceOnUse"><stop offset="0" stop-color="#2484c6" stop-opacity="0"/><stop offset="1" stop-color="#2484c6"/></linearGradient><linearGradient id="linear-gradient-2" x1="114.49" y1="508.89" x2="163.09" y2="508.89" xlink:href="#linear-gradient"/><linearGradient id="linear-gradient-3" x1="225.34" y1="494.7" x2="310.31" y2="494.7" xlink:href="#linear-gradient"/><linearGradient id="linear-gradient-4" x1="188.23" y1="508.89" x2="236.83" y2="508.89" xlink:href="#linear-gradient"/><linearGradient id="linear-gradient-5" x1="172.22" y1="496.18" x2="328.4" y2="496.18" gradientUnits="userSpaceOnUse"><stop offset="0" stop-color="#2484c6" stop-opacity="0"/><stop offset="1" stop-color="#2e3192"/></linearGradient><linearGradient id="linear-gradient-6" x1="143.44" y1="324.46" x2="295.2" y2="324.46" gradientUnits="userSpaceOnUse"><stop offset="0" stop-color="#b2e2f6" stop-opacity="0.5"/><stop offset="0.65" stop-color="#27aae1" stop-opacity="0.75"/><stop offset="1" stop-color="#1c75bc"/></linearGradient><linearGradient id="linear-gradient-7" x1="74.02" y1="50.73" x2="88.9" y2="50.73" gradientUnits="userSpaceOnUse"><stop offset="0" stop-color="#fff"/><stop offset="0.52" stop-color="#c02b31"/><stop offset="0.97" stop-color="#be1e2d"/></linearGradient><linearGradient id="linear-gradient-8" x1="86.03" y1="43.91" x2="100.91" y2="43.91" xlink:href="#linear-gradient-7"/><linearGradient id="linear-gradient-9" x1="99.39" y1="40.28" x2="114.28" y2="40.28" xlink:href="#linear-gradient-7"/><linearGradient id="linear-gradient-10" x1="112.86" y1="37.46" x2="127.74" y2="37.46" xlink:href="#linear-gradient-7"/><linearGradient id="linear-gradient-11" x1="124.81" y1="33.87" x2="139.7" y2="33.87" xlink:href="#linear-gradient-7"/><linearGradient id="linear-gradient-12" x1="193.41" y1="33.87" x2="208.3" y2="33.87" xlink:href="#linear-gradient-7"/><linearGradient id="linear-gradient-13" x1="206.06" y1="37.46" x2="220.95" y2="37.46" xlink:href="#linear-gradient-7"/><linearGradient id="linear-gradient-14" x1="217.58" y1="42.06" x2="232.47" y2="42.06" xlink:href="#linear-gradient-7"/><linearGradient id="linear-gradient-15" x1="230.01" y1="47.72" x2="244.9" y2="47.72" xlink:href="#linear-gradient-7"/><linearGradient id="linear-gradient-16" x1="240.45" y1="55.16" x2="255.34" y2="55.16" xlink:href="#linear-gradient-7"/><linearGradient id="linear-gradient-17" x1="175.34" y1="31.04" x2="197.39" y2="31.04" xlink:href="#linear-gradient-7"/><linearGradient id="linear-gradient-18" x1="135.21" y1="30.19" x2="157.26" y2="30.19" xlink:href="#linear-gradient-7"/><linearGradient id="linear-gradient-19" x1="153.03" y1="30.02" x2="178.51" y2="30.02" xlink:href="#linear-gradient-7"/><linearGradient id="linear-gradient-20" x1="639.69" y1="-312.96" x2="659.15" y2="-312.96" gradientTransform="matrix(0, 1, 1, 0, 479.69, -175.19)" gradientUnits="userSpaceOnUse"><stop offset="0" stop-color="#ffe2a1"/><stop offset="0.07" stop-color="#ffecc2"/><stop offset="0.15" stop-color="#fff4dd"/><stop offset="0.22" stop-color="#fffaf0"/><stop offset="0.3" stop-color="#fffefb"/><stop offset="0.38" stop-color="#fff"/><stop offset="0.69" stop-color="#ffe2a1"/><stop offset="0.9" stop-color="#fff"/><stop offset="1" stop-color="#ffe2a1"/></linearGradient><linearGradient id="linear-gradient-21" x1="432.77" y1="1057.03" x2="452.24" y2="1057.03" gradientTransform="translate(603.9 1570.24) rotate(180)" xlink:href="#linear-gradient-20"/><linearGradient id="linear-gradient-22" x1="147.2" y1="329.71" x2="172.68" y2="329.71" xlink:href="#linear-gradient-7"/></defs><path class="cls-1" d="M322.7,543.36l0-.16h0c3.57-2.12,5.7-3.56,5.7-3.56l-22.68-61.44h0l-4.36-11.81-4.23-8.26h0l-30-58.52-22-20a4.14,4.14,0,0,0-1.66-2.91l7.49-22.14,9.1-25.24,8.14-45.91c1-.76,45.51-4.47,45.41-4.46a7.9,7.9,0,0,0-.8-3.32l-12.88-26.77c-5.41-10.67-17.47-18.12-31.53-19.48l-5.12-.5c-7.27,0-16.78.59-25.33,5.09l-21.28,4-4.5,0,7.48-5s-26-1.89-85.93,0l8.07,5.41-5.67,0-22.61-4.72c-8.44-4.28-17.75-4.85-24.9-4.84l-5.12.5c-14,1.36-26.11,8.81-31.52,19.48L39,275.65a8.05,8.05,0,0,0-.8,3.32l-.27,0a4.13,4.13,0,1,0,3.18,6.73,4.53,4.53,0,0,0,0,.53,4.11,4.11,0,0,0,7.23,2.69h0l0,.09c0,.11,0,.22,0,.34a4.09,4.09,0,0,0,2,3.54,88.13,88.13,0,0,0,41.48,36.47L109.3,376a4.12,4.12,0,0,0-3.14,3.51l-6.07,5.39-21.7,23.54L57.13,443.85A45.56,45.56,0,0,0,59,449.48c-10.35,23.32-15.71,42.3-16.56,46.31-1.15,5.47-10.31,38.6-10.31,38.6S28.36,556.63,29,563.86a48,48,0,0,0,2.81,12.66,41,41,0,0,0,6.61,12.11,8.26,8.26,0,0,0,4,5.43c7.9,4.47,22.6,10.93,28.74,12.32q2.28.79,4.62,1.53a244.65,244.65,0,0,0,29.84,7l42.17,5.29,25.7.6v0l.48,0h.45v0l26.91-1.11,7.14-1c6.18-.71,12.17-1.52,17-2.23h0c1-.14,1.92-.27,2.8-.41l17-2.48s6.63-1.14,15.44-3.26h0c4.8-1.15,10.24-2.59,15.61-4.3.86-.27,1.73-.56,2.59-.85h0c2.71-.49,7.78-2.58,13.23-5.13,6.31-2.73,11.45-5.31,14.16-6.71a29.65,29.65,0,0,0,10.81-10.17l0,0,0-.05a40.9,40.9,0,0,0,4.51-9.28A45.69,45.69,0,0,0,324.51,561a33.53,33.53,0,0,0-.11-4.77l.16-1.69Z" transform="translate(-15.78 -7.56)"/><polygon id="shawlBack" class="cls-2" points="83.24 223.17 120.3 230.89 200.85 230.4 242.72 222.58 160.2 327.03 83.24 223.17"/><g id="skirt"><path class="cls-3" d="M72.29,422.91c-19.13,34.16-28.66,67.41-29.81,72.88s-10.31,38.6-10.31,38.6S28.36,556.63,29,563.86a48,48,0,0,0,2.81,12.66c.73,2.24,5.06,14.07,15.07,19.24a191.42,191.42,0,0,0,28.92,12.15,244.65,244.65,0,0,0,29.84,7l42.17,5.29,26.63.63L172.13,378l-62.31.6S91.42,388.76,72.29,422.91Z" transform="translate(-15.78 -7.56)"/><path class="cls-3" d="M320.47,531.09s-10.06-32.4-11.37-37.84S297.18,454.74,276.5,421s-40.12-43.6-40.12-43.6l-65.17.62,2.31,242.83,27.84-1.15,44-6.11A266.1,266.1,0,0,0,276.44,606a204.87,204.87,0,0,0,30-12.7c10.37-5.37,14.67-17.28,15.38-19.54A45.69,45.69,0,0,0,324.51,561C325.06,553.8,320.47,531.09,320.47,531.09Z" transform="translate(-15.78 -7.56)"/></g><path id="overlap" class="cls-4" d="M110.24,375.91l-10.15,9-21.7,23.54L57.13,443.85s6.64,27.24,34.78,43.91,41.75,24.4,64.69,27.22,40.21,12.38,57.33,22,37.69,24.21,61.91,23.09,52.56-20.4,52.56-20.4l-27-73.25L267.09,399.6,241,375.91Z" transform="translate(-15.78 -7.56)"/><path id="pattern" class="cls-5" d="M112.11,384.21S78,429.2,71.77,446.83s-13,33.4-16.65,57.61-10.68,56.88-11.39,61.94c-.43,3.13-3.51,12.4-5.17,18.14a8.29,8.29,0,0,0,3.89,9.54c8.19,4.64,23.69,11.41,29.39,12.45,8.08,1.47,11.32-28.86,11.32-28.86l6.21-72.08,6.19-43.37a88.91,88.91,0,0,1,8.63-27.45L126,391.53Z" transform="translate(-15.78 -7.56)"/><path id="pattern1" class="cls-6" d="M148.87,398l-12.06,30.81a114,114,0,0,0-12.67,40.5l-4.08,35.12.31,64.12a31,31,0,0,1-.27,4.08l-5.61,41a1.31,1.31,0,0,0,1.1,1.26c4.49.72,22.39,3.52,37.93,4.86,1,.09-1.73-12.43-4.83-25.34a143.81,143.81,0,0,1-2-57.33l4.9-29.16a17.82,17.82,0,0,0,.26-3.09V458.16a44.41,44.41,0,0,1,1.22-10.33l10-45.41Z" transform="translate(-15.78 -7.56)"/><path id="pattern2" class="cls-7" d="M239.21,384.21s34.12,45,40.34,62.62,13,33.4,16.65,57.61,10.67,56.88,11.38,61.94c.44,3.13,4.84,23.1,1.48,25-8.19,4.64-24.32,12.73-30,13.76-8.09,1.48-10.89-27.48-10.89-27.48L262,505.57l-6.19-43.37a88.91,88.91,0,0,0-8.63-27.45l-21.79-43.22Z" transform="translate(-15.78 -7.56)"/><path id="pattern3" class="cls-8" d="M202.45,398l12.06,30.81a114,114,0,0,1,12.67,40.5l4.08,35.12L231,568.55a31,31,0,0,0,.27,4.08l5.61,41a1.31,1.31,0,0,1-1.1,1.26c-4.49.72-22.39,3.52-37.93,4.86-1,.09,1.73-12.43,4.83-25.34a143.81,143.81,0,0,0,2-57.33l-4.91-29.16a18.85,18.85,0,0,1-.25-3.09V458.16a44.41,44.41,0,0,0-1.22-10.33l-10-45.41Z" transform="translate(-15.78 -7.56)"/><path class="cls-9" d="M241,375.91l-68.78,12.74,10.2,18.41a109.36,109.36,0,0,1,13.3,43.77l5.18,61.52a95.28,95.28,0,0,1,.3,10.95l-1,32.19a74.14,74.14,0,0,0,14.56,46.44l10.77,14.52,19.82-2.89,15.46-3.26,18.23-5.17,17.82-7.35,12.19-6.41,8.23-8.29,5.85-13.57,1.42-14.93-1.89-11.38,5.73-3.57-22.68-61.44-8.59-20.07L276.5,421Z" transform="translate(-15.78 -7.56)"/><g id="body"><path id="Body-2" data-name="Body" class="cls-10" d="M302.46,271c20-19.2-52.39-19.17-77.77-20a1.22,1.22,0,0,0-1.14,1.69v0c1.17,3.47-7.23,12.86-7.95,13.66l-.09.12-7,10.27a.43.43,0,0,0,0,.07,158.81,158.81,0,0,1-14.72,20.05c-10,11.83-17.74,11.08-17.74,11.08s-7.82.75-17.8-11.08a160,160,0,0,1-14.72-20.05.16.16,0,0,0,0-.07l-7-10.27-.1-.12c-.72-.8-9.12-10.19-7.95-13.66a3.29,3.29,0,0,1,2.49-1.88c-21,1.1-72.79,10.21-82.36,37.55a1.2,1.2,0,0,0,.05.91c1.64,3.52,13.42,27,42.9,39.86a1.22,1.22,0,0,1,.64.68l17.74,47.57a1.24,1.24,0,0,0,.75.72l45,15.21a68.05,68.05,0,0,0,40.81,0L242,378.1a1.24,1.24,0,0,0,.76-.74l16.48-45.73C259.53,330.69,276.9,295.59,302.46,271Z" transform="translate(-15.78 -7.56)"/><path class="cls-11" d="M175.81,395l8.83,2.08,32.64-10,25-7s20.75-60.56,29-64.68l6.26-20.77L295.2,271l-63.13-19.15-45.86,52.87L182,307.64a12.73,12.73,0,0,1-15.93-1.19l-6-5.61-16.63-24.06L172.13,378Z" transform="translate(-15.78 -7.56)"/><g id="hips"><circle class="cls-12" cx="94.46" cy="372.48" r="4.13"/><circle class="cls-12" cx="100.98" cy="375.49" r="4.13"/><circle class="cls-12" cx="107.51" cy="377.49" r="4.13"/><circle class="cls-12" cx="114.04" cy="379.49" r="4.13"/><circle class="cls-12" cx="120.57" cy="381.5" r="4.13"/><circle class="cls-12" cx="127.1" cy="383.5" r="4.13"/><circle class="cls-12" cx="133.63" cy="385.5" r="4.13"/><circle class="cls-12" cx="140.16" cy="387.51" r="4.13"/><circle class="cls-12" cx="146.69" cy="389.51" r="4.13"/><circle class="cls-12" cx="153.22" cy="391.51" r="4.13"/><circle class="cls-12" cx="225.22" cy="372.48" r="4.13"/><circle class="cls-12" cx="218.69" cy="375.49" r="4.13"/><circle class="cls-12" cx="212.16" cy="377.49" r="4.13"/><circle class="cls-12" cx="205.63" cy="379.49" r="4.13"/><circle class="cls-12" cx="199.1" cy="381.5" r="4.13"/><circle class="cls-12" cx="192.57" cy="383.5" r="4.13"/><circle class="cls-12" cx="186.04" cy="385.5" r="4.13"/><circle class="cls-12" cx="179.51" cy="387.51" r="4.13"/><circle class="cls-12" cx="172.98" cy="389.51" r="4.13"/><circle class="cls-12" cx="166.46" cy="391.51" r="4.13"/><circle class="cls-12" cx="160.03" cy="392.04" r="4.61"/></g><path id="neck" class="cls-13" d="M133.68,233l26.53,17.8-28.06-.11a4.47,4.47,0,0,0-3,7.73l21.65,29.07c10.06,17.18,18,22.61,24.61,22.33,8.78-.38,19.52-12.83,26.28-23.45l20.75-26.77a5,5,0,0,0-3.08-8.91l-26.5.11L219.61,233S193.6,231.12,133.68,233Z" transform="translate(-15.78 -7.56)"/></g><g id="head"><path class="cls-14" d="M108.94,229.35a84.58,84.58,0,0,1-43.23-24.77c-6-6.48-11.78-14.18-15.4-22.62-11.47-26.69-2-65.27,2.61-75.76C63.1,83.12,69.2,76,85.34,61.13c7.92-7.29,25.42-12.13,27.08-17.57,4.28-14,14-26.16,28.17-30.76,7.44-2.42,24.19-4.89,35.79-5.2C191,7.21,221.84,9.83,236,24c15.4,15.39,5.21,20.43,17.79,27.83,17.31,10.19,41.31,29.47,49.88,52.51,8.07,21.68,8.26,44.84-6,77.33-6.59,15-17.26,31.64-38.66,39.42-9.41,3.42-27,9.84-42.39,13.93-10.14,2.7-43.86,5.64-59.63,3.54-1.23-.16-19.74-2.67-20.92-3Z" transform="translate(-15.78 -7.56)"/><path id="face" class="cls-13" d="M89,107.47l9.64,7.28A62.51,62.51,0,0,0,126,126.49l82.49,13.62-33.6-18.75,69.26,19.14s36.13,9.16,32.05,20.91c0,0-4.09,32.76-14.7,55.66C244.13,227.6,176.21,258.94,94,221.15c0,0-10.73-2.55-14.81-17.87a132.65,132.65,0,0,1-2.87-15.07,140,140,0,0,1,10.36-75.52Z" transform="translate(-15.78 -7.56)"/><g id="cheek"><path class="cls-15" d="M239.4,147.82s27,7.14,27,16.33-4.95,21.77-6.48,24.32c0,0-13.78-14.81-26,0s5.62,31.15,17.87,24c0,0-4.11,11.8-6.94,12.89s16.52-5.19,19.53-11,11.34-16.87,12.14-56.63c-1.37-3-2.48-8-22.13-14.08-10.45-3.26-33.18-10-45.49-12.92l-34-9.4,33.6,18.75-70.39-11.63L126,126.28a53.74,53.74,0,0,1-10.51-3l-6-2.4a39.54,39.54,0,0,1-8.21-4.52L89,107.47l-1.31,3L93.26,117a52.28,52.28,0,0,0,21.49,15,61.69,61.69,0,0,0,7.08,2.23l19.66,3.55a77.6,77.6,0,0,0,11.25,1.73l57.38,4.61Z" transform="translate(-15.78 -7.56)"/><circle class="cls-15" cx="85.92" cy="191.17" r="14.81"/></g><path id="eyes" class="cls-16" d="M247.49,167s4.08,2.94,1.53,6.26-6.64,0-6.64,0-7.66-8.44-22.21-6.28c0,0-11.75,4.61-11.75,7.73,0,0-7.91.57-5.87-6.33,0,0,10.47-10.7,23.49-9.93A37.23,37.23,0,0,1,247.49,167Zm-125.66-8.2c-13-.76-23.49,9.94-23.49,9.94-2,6.89,5.87,6.33,5.87,6.33,0-3.12,11.75-7.73,11.75-7.73,14.55-2.16,22.21,6.27,22.21,6.27s4.08,3.33,6.64,0-1.53-6.26-1.53-6.26A37.28,37.28,0,0,0,121.83,158.8Z" transform="translate(-15.78 -7.56)"/><path id="lips" class="cls-17" d="M195.17,208.22s3.86-3,1.45-6.45-6.28,0-6.28,0-7.25,8.68-21,6.45c0,0-11.11-4.75-11.11-8,0,0-7.49-.59-5.56,6.51,0,0,9.9,11,22.23,10.24A34,34,0,0,0,195.17,208.22Z" transform="translate(-15.78 -7.56)"/><g id="hairdress"><circle class="cls-18" cx="81.46" cy="50.73" r="7.44"/><circle class="cls-19" cx="93.47" cy="43.91" r="7.44"/><circle class="cls-20" cx="106.84" cy="40.28" r="7.44"/><circle class="cls-21" cx="120.3" cy="37.46" r="7.44"/><circle class="cls-22" cx="132.25" cy="33.87" r="7.44"/><circle class="cls-23" cx="200.85" cy="33.87" r="7.44"/><circle class="cls-24" cx="213.5" cy="37.46" r="7.44"/><circle class="cls-25" cx="225.03" cy="42.06" r="7.44"/><circle class="cls-26" cx="237.45" cy="47.72" r="7.44"/><circle class="cls-27" cx="247.9" cy="55.16" r="7.44"/><ellipse class="cls-28" cx="186.36" cy="31.04" rx="11.03" ry="10.85"/><ellipse class="cls-29" cx="146.23" cy="30.19" rx="11.03" ry="10.85"/><ellipse class="cls-30" cx="165.77" cy="30.02" rx="12.74" ry="12.54"/></g></g><path class="cls-31" d="M168.88,611H127.47c-6.71,0-11.82-5.21-10.75-11L150.36,419c.86-4.59,5.41-8,10.75-8h18c5.41,0,10,3.46,10.78,8.11L220,600.23c1,5.7-4.14,10.81-10.78,10.81Z" transform="translate(-15.78 -7.56)"/><rect class="cls-32" x="90.63" y="583.22" width="125" height="12" rx="4.5"/><polygon class="cls-33" points="105.64 594.23 104.3 594.23 103.63 593.22 104.3 592.22 105.64 592.22 106.31 593.22 105.64 594.23"/><polygon class="cls-33" points="107.18 586.23 105.84 586.23 105.17 585.22 105.84 584.22 107.18 584.22 107.85 585.22 107.18 586.23"/><polygon class="cls-33" points="200.79 594.23 199.45 594.23 198.78 593.22 199.45 592.22 200.79 592.22 201.46 593.22 200.79 594.23"/><polygon class="cls-33" points="199.26 586.23 197.92 586.23 197.25 585.22 197.92 584.22 199.26 584.22 199.93 585.22 199.26 586.23"/><rect class="cls-32" x="93.76" y="567.22" width="118.75" height="12" rx="4.5"/><polygon class="cls-33" points="108.02 578.23 106.75 578.23 106.11 577.22 106.75 576.22 108.02 576.22 108.65 577.22 108.02 578.23"/><polygon class="cls-33" points="109.47 570.23 108.2 570.23 107.57 569.22 108.2 568.22 109.47 568.22 110.11 569.22 109.47 570.23"/><polygon class="cls-33" points="198.41 578.23 197.14 578.23 196.5 577.22 197.14 576.22 198.41 576.22 199.05 577.22 198.41 578.23"/><polygon class="cls-33" points="196.95 570.23 195.68 570.23 195.04 569.22 195.68 568.22 196.95 568.22 197.59 569.22 196.95 570.23"/><rect class="cls-32" x="96.88" y="552.56" width="112.5" height="12" rx="4.5"/><polygon class="cls-33" points="110.39 563.56 109.19 563.56 108.58 562.56 109.19 561.55 110.39 561.55 111 562.56 110.39 563.56"/><polygon class="cls-33" points="111.77 555.56 110.57 555.56 109.97 554.56 110.57 553.55 111.77 553.55 112.38 554.56 111.77 555.56"/><polygon class="cls-33" points="196.03 563.56 194.82 563.56 194.22 562.56 194.82 561.55 196.03 561.55 196.63 562.56 196.03 563.56"/><polygon class="cls-33" points="194.65 555.56 193.44 555.56 192.84 554.56 193.44 553.55 194.65 553.55 195.25 554.56 194.65 555.56"/><rect class="cls-34" x="100.01" y="536.56" width="106.25" height="12" rx="4.5"/><polygon class="cls-33" points="112.77 547.56 111.63 547.56 111.06 546.56 111.63 545.55 112.77 545.55 113.34 546.56 112.77 547.56"/><polygon class="cls-33" points="114.07 539.56 112.93 539.56 112.36 538.56 112.93 537.55 114.07 537.55 114.64 538.56 114.07 539.56"/><polygon class="cls-33" points="193.64 547.56 192.51 547.56 191.94 546.56 192.51 545.55 193.64 545.55 194.21 546.56 193.64 547.56"/><polygon class="cls-33" points="192.34 539.56 191.2 539.56 190.63 538.56 191.2 537.55 192.34 537.55 192.91 538.56 192.34 539.56"/><rect class="cls-34" x="103.13" y="521.89" width="100" height="12" rx="4.5"/><polygon class="cls-33" points="115.14 532.9 114.07 532.9 113.53 531.89 114.07 530.88 115.14 530.88 115.68 531.89 115.14 532.9"/><polygon class="cls-33" points="116.37 524.9 115.3 524.9 114.76 523.89 115.3 522.88 116.37 522.88 116.9 523.89 116.37 524.9"/><polygon class="cls-33" points="191.26 532.9 190.19 532.9 189.65 531.89 190.19 530.88 191.26 530.88 191.8 531.89 191.26 532.9"/><polygon class="cls-33" points="190.03 524.9 188.96 524.9 188.43 523.89 188.96 522.88 190.03 522.88 190.57 523.89 190.03 524.9"/><rect class="cls-34" x="106.26" y="505.89" width="93.75" height="12" rx="4.5"/><polygon class="cls-33" points="117.52 516.9 116.51 516.9 116.01 515.89 116.51 514.88 117.52 514.88 118.02 515.89 117.52 516.9"/><polygon class="cls-33" points="118.67 508.9 117.66 508.9 117.16 507.89 117.66 506.88 118.67 506.88 119.17 507.89 118.67 508.9"/><polygon class="cls-33" points="188.88 516.9 187.87 516.9 187.37 515.89 187.87 514.88 188.88 514.88 189.38 515.89 188.88 516.9"/><polygon class="cls-33" points="187.73 508.9 186.72 508.9 186.22 507.89 186.72 506.88 187.73 506.88 188.23 507.89 187.73 508.9"/><rect class="cls-35" x="109.38" y="491.22" width="87.5" height="12" rx="4.5"/><polygon class="cls-33" points="119.89 502.23 118.95 502.23 118.48 501.23 118.95 500.22 119.89 500.22 120.36 501.23 119.89 502.23"/><polygon class="cls-33" points="120.96 494.23 120.03 494.23 119.56 493.23 120.03 492.22 120.96 492.22 121.43 493.23 120.96 494.23"/><polygon class="cls-33" points="186.5 502.23 185.56 502.23 185.09 501.23 185.56 500.22 186.5 500.22 186.96 501.23 186.5 502.23"/><polygon class="cls-33" points="185.42 494.23 184.48 494.23 184.01 493.23 184.48 492.22 185.42 492.22 185.89 493.23 185.42 494.23"/><rect class="cls-35" x="112.51" y="475.23" width="81.25" height="12" rx="4.5"/><polygon class="cls-33" points="122.27 486.23 121.39 486.23 120.96 485.23 121.39 484.22 122.27 484.22 122.7 485.23 122.27 486.23"/><polygon class="cls-33" points="123.26 478.23 122.39 478.23 121.96 477.23 122.39 476.22 123.26 476.22 123.7 477.23 123.26 478.23"/><polygon class="cls-33" points="184.11 486.23 183.24 486.23 182.81 485.23 183.24 484.22 184.11 484.22 184.55 485.23 184.11 486.23"/><polygon class="cls-33" points="183.11 478.23 182.24 478.23 181.81 477.23 182.24 476.22 183.11 476.22 183.55 477.23 183.11 478.23"/><rect class="cls-35" x="116.01" y="460.56" width="74.62" height="12" rx="4.5"/><polygon class="cls-33" points="124.97 471.57 124.17 471.57 123.77 470.56 124.17 469.55 124.97 469.55 125.37 470.56 124.97 471.57"/><polygon class="cls-33" points="125.89 463.57 125.09 463.57 124.69 462.56 125.09 461.55 125.89 461.55 126.29 462.56 125.89 463.57"/><polygon class="cls-33" points="181.77 471.57 180.97 471.57 180.57 470.56 180.97 469.55 181.77 469.55 182.17 470.56 181.77 471.57"/><polygon class="cls-33" points="180.86 463.57 180.06 463.57 179.66 462.56 180.06 461.55 180.86 461.55 181.26 462.56 180.86 463.57"/><rect class="cls-36" x="118.76" y="444.56" width="68.75" height="12" rx="4.5"/><polygon class="cls-33" points="127.01 455.57 126.28 455.57 125.91 454.56 126.28 453.55 127.01 453.55 127.38 454.56 127.01 455.57"/><polygon class="cls-33" points="127.86 447.57 127.12 447.57 126.75 446.56 127.12 445.55 127.86 445.55 128.23 446.56 127.86 447.57"/><polygon class="cls-33" points="179.35 455.57 178.61 455.57 178.24 454.56 178.61 453.55 179.35 453.55 179.71 454.56 179.35 455.57"/><polygon class="cls-33" points="178.5 447.57 177.76 447.57 177.4 446.56 177.76 445.55 178.5 445.55 178.87 446.56 178.5 447.57"/><rect class="cls-36" x="121.88" y="428.56" width="62.5" height="12" rx="4.5"/><polygon class="cls-33" points="129.39 439.57 128.72 439.57 128.38 438.56 128.72 437.55 129.39 437.55 129.72 438.56 129.39 439.57"/><polygon class="cls-33" points="130.16 431.57 129.49 431.57 129.15 430.56 129.49 429.55 130.16 429.55 130.49 430.56 130.16 431.57"/><polygon class="cls-33" points="176.96 439.57 176.29 439.57 175.96 438.56 176.29 437.55 176.96 437.55 177.3 438.56 176.96 439.57"/><polygon class="cls-33" points="176.2 431.57 175.53 431.57 175.19 430.56 175.53 429.55 176.2 429.55 176.53 430.56 176.2 431.57"/><rect class="cls-36" x="125.01" y="413.89" width="56.25" height="12" rx="4.5"/><polygon class="cls-33" points="131.76 424.9 131.16 424.9 130.86 423.89 131.16 422.89 131.76 422.89 132.06 423.89 131.76 424.9"/><polygon class="cls-33" points="132.45 416.9 131.85 416.9 131.55 415.89 131.85 414.89 132.45 414.89 132.75 415.89 132.45 416.9"/><polygon class="cls-33" points="174.58 424.9 173.98 424.9 173.68 423.89 173.98 422.89 174.58 422.89 174.88 423.89 174.58 424.9"/><polygon class="cls-33" points="173.89 416.9 173.29 416.9 172.99 415.89 173.29 414.89 173.89 414.89 174.19 415.89 173.89 416.9"/><line class="cls-37" x1="150.95" y1="466.67" x2="197.52" y2="423.74"/><ellipse class="cls-38" cx="166.73" cy="474.23" rx="9.78" ry="9.73" transform="translate(-293.06 230.98) rotate(-42.67)"/><line class="cls-37" x1="145.61" y1="505.65" x2="111.75" y2="452.12"/><ellipse class="cls-39" cx="161.39" cy="513.21" rx="9.73" ry="9.78" transform="matrix(0.85, -0.53, 0.53, 0.85, -265.12, 158.18)"/><circle id="hand" class="cls-40" cx="196.88" cy="428.56" r="12.22"/><path id="Body-3" data-name="Body" class="cls-41" d="M300.64,258.79c21.17,37.49,27.53,55.71,27.53,55.71s9.35,30.55-4.24,50.65-76.48,58.37-76.48,58.37L234.82,450l-30.71-42.64,26.65-4.83L262,375.26s14.12-21.36,16.87-29.66c1.63-4.94.51-13.75-.67-20.09A24.27,24.27,0,0,0,271.72,313L266,307.14s2.9-20.26,13.47-33.32S297.4,253.05,300.64,258.79Z" transform="translate(-15.78 -7.56)"/><path class="cls-12" d="M238.34,450.41a4.13,4.13,0,0,0-4.52-3.26A4.21,4.21,0,0,0,234,445a4.13,4.13,0,0,0-3.42-3.25,3.87,3.87,0,0,0,0-1.22,4.12,4.12,0,0,0-2.94-3.14,4.08,4.08,0,0,0,.19-2.25,4.12,4.12,0,0,0-4.37-3.28,4.27,4.27,0,0,0,0-1.38,4.13,4.13,0,0,0-3.78-3.28,4.11,4.11,0,0,0-4.57-5.75c-.11,0-.21.07-.33.1a3.91,3.91,0,0,0,0-1.77,4.13,4.13,0,0,0-3.51-3.26,4,4,0,0,0,0-1.58,4.12,4.12,0,0,0-4.38-3.28,4.07,4.07,0,0,0,.45-2.82,4.13,4.13,0,1,0-3.7,4.92,4.07,4.07,0,0,0-.46,2.82,4.13,4.13,0,0,0,3.51,3.26,4,4,0,0,0,0,1.58,4.12,4.12,0,0,0,4.86,3.23,3.18,3.18,0,0,0,.33-.1,4,4,0,0,0,0,1.76,4.11,4.11,0,0,0,3.77,3.29,4.06,4.06,0,0,0-.3,2.52,4.12,4.12,0,0,0,4.37,3.28,4,4,0,0,0,0,1.38,4.1,4.1,0,0,0,2.93,3.14,4.07,4.07,0,0,0-.18,2.25,4.11,4.11,0,0,0,3.41,3.25,3.86,3.86,0,0,0,0,1.22,4.11,4.11,0,0,0,4.52,3.26,4.12,4.12,0,1,0,7.93.54Z" transform="translate(-15.78 -7.56)"/><circle id="hand-2" data-name="hand" class="cls-40" cx="112.89" cy="451.96" r="12.22"/><path id="Body-4" data-name="Body" class="cls-41" d="M56.42,275.22c-24.35,35.52-32.26,53.11-32.26,53.11S12.18,358,24,379.16,95.1,443.94,95.1,443.94l10.29,27.51,34.29-39.81-26.13-7.13L84.75,394.6s-12.2-22.5-14.22-31c-1.2-5.05.68-13.73,2.41-19.94a24.23,24.23,0,0,1,7.58-11.89l6.23-5.35S85.62,306,76.22,292,60.14,269.78,56.42,275.22Z" transform="translate(-15.78 -7.56)"/><path class="cls-12" d="M141.52,430a4.11,4.11,0,0,0-4.92,5.65,4.12,4.12,0,0,0-4.66,2.88,4.26,4.26,0,0,0-.14,1.58,4.09,4.09,0,0,0-3.9,4.7l-.32-.13a4.12,4.12,0,0,0-5,5.34,4.12,4.12,0,0,0-4,2.94,4,4,0,0,0-.15,1.37,4.1,4.1,0,0,0-4.63,2.89,4,4,0,0,0,0,2.26,4.09,4.09,0,0,0-3.2,2.87,3.93,3.93,0,0,0-.15,1.22,4.12,4.12,0,0,0-3.69,2.94,4,4,0,0,0,0,2.18,4.12,4.12,0,1,0,3.13,5.19,4,4,0,0,0,0-2.18,4.13,4.13,0,0,0,4.79-2.86,4.21,4.21,0,0,0,.14-1.21,4.13,4.13,0,0,0,3.69-2.94,4.08,4.08,0,0,0,0-2.27,4.09,4.09,0,0,0,3.2-2.87,4.3,4.3,0,0,0,.15-1.37,4.11,4.11,0,0,0,4.63-2.88,4.07,4.07,0,0,0-.08-2.54,4.13,4.13,0,0,0,4-2.95,4.06,4.06,0,0,0,.11-1.76l.32.13a4.14,4.14,0,0,0,5.13-2.8,4.21,4.21,0,0,0,.14-1.57,4.09,4.09,0,0,0,3.57-5.8,4.12,4.12,0,0,0,1.87-8Z" transform="translate(-15.78 -7.56)"/><g id="Shawl"><g id="ShawlR"><path class="cls-10" d="M175.84,345.93,221,249.58l9.42-10.27c10-9.42,23.34-10.42,32.84-10.41l5.12.5c14.06,1.36,26.12,8.81,31.53,19.48l12.88,26.77a8,8,0,0,1-4.19,11Z" transform="translate(-15.78 -7.56)"/><g id="beads"><circle class="cls-12" cx="298.07" cy="275.51" r="4.13"/><circle class="cls-12" cx="290.81" cy="278.64" r="4.13"/><circle class="cls-12" cx="283.55" cy="281.76" r="4.13"/><circle class="cls-12" cx="276.29" cy="284.89" r="4.13"/><circle class="cls-12" cx="269.03" cy="288.02" r="4.13"/><circle class="cls-12" cx="261.77" cy="291.15" r="4.13"/><circle class="cls-12" cx="255.51" cy="295.28" r="4.13"/><circle class="cls-12" cx="248.25" cy="298.41" r="4.13"/><circle class="cls-12" cx="240.99" cy="301.54" r="4.13"/><circle class="cls-12" cx="233.79" cy="304.67" r="4.13"/><circle class="cls-12" cx="226.53" cy="307.8" r="4.13"/><circle class="cls-12" cx="219.27" cy="310.93" r="4.13"/><circle class="cls-12" cx="212.67" cy="314.06" r="4.13"/><circle class="cls-12" cx="205.41" cy="317.19" r="4.13"/><circle class="cls-12" cx="198.15" cy="320.32" r="4.13"/><circle class="cls-12" cx="191.59" cy="323.45" r="4.13"/><circle class="cls-12" cx="184.33" cy="326.58" r="4.13"/><circle class="cls-12" cx="177.07" cy="329.71" r="4.13"/><circle class="cls-12" cx="170.43" cy="332.58" r="4.13"/></g></g><g id="ShawlR-2" data-name="ShawlR"><path class="cls-10" d="M176,345.93l-45.15-96.35-9.42-10.27c-10-9.42-23.33-10.42-32.84-10.41l-5.12.5c-14,1.36-26.11,8.81-31.52,19.48L39,275.65a8.06,8.06,0,0,0,4.19,11Z" transform="translate(-15.78 -7.56)"/><g id="beads-2" data-name="beads"><circle class="cls-12" cx="22.19" cy="275.51" r="4.13"/><circle class="cls-12" cx="29.45" cy="278.64" r="4.13"/><circle class="cls-12" cx="36.71" cy="281.76" r="4.13"/><circle class="cls-12" cx="43.96" cy="284.89" r="4.13"/><circle class="cls-12" cx="51.22" cy="288.02" r="4.13"/><circle class="cls-12" cx="58.48" cy="291.15" r="4.13"/><circle class="cls-12" cx="64.74" cy="295.28" r="4.13"/><circle class="cls-12" cx="72" cy="298.41" r="4.13"/><circle class="cls-12" cx="79.26" cy="301.54" r="4.13"/><circle class="cls-12" cx="86.47" cy="304.67" r="4.13"/><circle class="cls-12" cx="93.73" cy="307.8" r="4.13"/><circle class="cls-12" cx="100.98" cy="310.93" r="4.13"/><circle class="cls-12" cx="107.58" cy="314.06" r="4.13"/><circle class="cls-12" cx="114.84" cy="317.19" r="4.13"/><circle class="cls-12" cx="122.1" cy="320.32" r="4.13"/><circle class="cls-12" cx="128.66" cy="323.45" r="4.13"/><circle class="cls-12" cx="135.92" cy="326.58" r="4.13"/><circle class="cls-12" cx="143.18" cy="329.71" r="4.13"/><circle class="cls-12" cx="149.82" cy="332.58" r="4.13"/></g></g><ellipse class="cls-42" cx="159.94" cy="329.71" rx="12.74" ry="12.54"/></g></svg>