<svg id="Layer_1" data-name="Layer 1" xmlns="http://www.w3.org/2000/svg" xmlns:xlink="http://www.w3.org/1999/xlink" viewBox="0 0 314 614.84"><defs><style>.cls-1{fill:#331330;}.cls-2{fill:#fff;}.cls-3{fill:#93becc;}.cls-4{fill:#1c75bc;}.cls-5{fill:#2e3192;}.cls-6{fill:url(#linear-gradient);}.cls-7{fill:url(#linear-gradient-2);}.cls-8{fill:url(#linear-gradient-3);}.cls-9{fill:url(#linear-gradient-4);}.cls-10{fill:url(#linear-gradient-5);}.cls-11,.cls-15{fill:#fdeff5;}.cls-11{stroke:#331330;stroke-width:3px;}.cls-11,.cls-33,.cls-34,.cls-35,.cls-36,.cls-37{stroke-miterlimit:10;}.cls-12{fill:#b2e2f6;}.cls-13{fill:url(#linear-gradient-6);}.cls-14{fill:#fac951;}.cls-16{fill:url(#linear-gradient-7);}.cls-17{fill:#fbd2db;}.cls-18{fill:#2d1230;}.cls-19{fill:#ef524a;}.cls-20{fill:url(#linear-gradient-8);}.cls-21{fill:url(#linear-gradient-9);}.cls-22{fill:url(#linear-gradient-10);}.cls-23{fill:url(#linear-gradient-11);}.cls-24{fill:url(#linear-gradient-12);}.cls-25{fill:url(#linear-gradient-13);}.cls-26{fill:url(#linear-gradient-14);}.cls-27{fill:url(#linear-gradient-15);}.cls-28{fill:url(#linear-gradient-16);}.cls-29{fill:url(#linear-gradient-17);}.cls-30{fill:url(#linear-gradient-18);}.cls-31{fill:url(#linear-gradient-19);}.cls-32{fill:url(#linear-gradient-20);}.cls-33,.cls-34,.cls-35{stroke:#c49a6c;}.cls-33{fill:url(#linear-gradient-21);}.cls-34{fill:url(#linear-gradient-22);}.cls-35{fill:url(#linear-gradient-23);}.cls-36{fill:none;stroke:#8b5e3c;stroke-linecap:round;stroke-width:9px;}.cls-37{stroke:#ffe2a1;fill:url(#linear-gradient-24);}</style><linearGradient id="linear-gradient" x1="38.41" y1="497.75" x2="126.16" y2="497.75" gradientUnits="userSpaceOnUse"><stop offset="0" stop-color="#2484c6" stop-opacity="0"/><stop offset="1" stop-color="#2484c6"/></linearGradient><linearGradient id="linear-gradient-2" x1="114.67" y1="511.26" x2="163.27" y2="511.26" xlink:href="#linear-gradient"/><linearGradient id="linear-gradient-3" x1="225.52" y1="497.06" x2="310.49" y2="497.06" xlink:href="#linear-gradient"/><linearGradient id="linear-gradient-4" x1="188.41" y1="511.26" x2="237.01" y2="511.26" xlink:href="#linear-gradient"/><linearGradient id="linear-gradient-5" x1="172.4" y1="498.55" x2="328.58" y2="498.55" gradientUnits="userSpaceOnUse"><stop offset="0" stop-color="#2484c6" stop-opacity="0"/><stop offset="1" stop-color="#2e3192"/></linearGradient><linearGradient id="linear-gradient-6" x1="143.62" y1="326.83" x2="305.68" y2="326.83" gradientUnits="userSpaceOnUse"><stop offset="0" stop-color="#b2e2f6" stop-opacity="0.5"/><stop offset="0.65" stop-color="#27aae1" stop-opacity="0.75"/><stop offset="1" stop-color="#1c75bc"/></linearGradient><linearGradient id="linear-gradient-7" x1="145.27" y1="330.94" x2="170.75" y2="330.94" gradientUnits="userSpaceOnUse"><stop offset="0" stop-color="#fff"/><stop offset="0.52" stop-color="#c02b31"/><stop offset="0.97" stop-color="#be1e2d"/></linearGradient><linearGradient id="linear-gradient-8" x1="72.08" y1="50.73" x2="86.97" y2="50.73" xlink:href="#linear-gradient-7"/><linearGradient id="linear-gradient-9" x1="84.09" y1="43.91" x2="98.98" y2="43.91" xlink:href="#linear-gradient-7"/><linearGradient id="linear-gradient-10" x1="97.46" y1="40.28" x2="112.35" y2="40.28" xlink:href="#linear-gradient-7"/><linearGradient id="linear-gradient-11" x1="110.92" y1="37.46" x2="125.81" y2="37.46" xlink:href="#linear-gradient-7"/><linearGradient id="linear-gradient-12" x1="122.88" y1="33.87" x2="137.76" y2="33.87" xlink:href="#linear-gradient-7"/><linearGradient id="linear-gradient-13" x1="191.48" y1="33.87" x2="206.36" y2="33.87" xlink:href="#linear-gradient-7"/><linearGradient id="linear-gradient-14" x1="204.13" y1="37.46" x2="219.01" y2="37.46" xlink:href="#linear-gradient-7"/><linearGradient id="linear-gradient-15" x1="215.65" y1="42.06" x2="230.54" y2="42.06" xlink:href="#linear-gradient-7"/><linearGradient id="linear-gradient-16" x1="228.08" y1="47.72" x2="242.96" y2="47.72" xlink:href="#linear-gradient-7"/><linearGradient id="linear-gradient-17" x1="238.52" y1="55.16" x2="253.41" y2="55.16" xlink:href="#linear-gradient-7"/><linearGradient id="linear-gradient-18" x1="173.4" y1="31.04" x2="195.46" y2="31.04" xlink:href="#linear-gradient-7"/><linearGradient id="linear-gradient-19" x1="133.27" y1="30.19" x2="155.33" y2="30.19" xlink:href="#linear-gradient-7"/><linearGradient id="linear-gradient-20" x1="151.1" y1="30.02" x2="176.58" y2="30.02" xlink:href="#linear-gradient-7"/><linearGradient id="linear-gradient-21" x1="46.01" y1="587.69" x2="268.66" y2="587.69" gradientUnits="userSpaceOnUse"><stop offset="0" stop-color="#c49a6c"/><stop offset="0" stop-color="#c59b6b"/><stop offset="0.05" stop-color="#d9ab49"/><stop offset="0.11" stop-color="#e9b72e"/><stop offset="0.16" stop-color="#f4c01b"/><stop offset="0.22" stop-color="#fbc510"/><stop offset="0.28" stop-color="#fdc70c"/><stop offset="0.67" stop-color="#a97c50"/><stop offset="0.89" stop-color="#a97c50"/><stop offset="1" stop-color="#8b5e3c"/></linearGradient><linearGradient id="linear-gradient-22" x1="28.11" y1="542.02" x2="251" y2="542.02" xlink:href="#linear-gradient-21"/><linearGradient id="linear-gradient-23" x1="110.57" y1="537.35" x2="209.4" y2="537.35" xlink:href="#linear-gradient-21"/><linearGradient id="linear-gradient-24" x1="1266.4" y1="222.58" x2="1289.55" y2="222.58" gradientTransform="matrix(0, 1, 1, 0, -76.19, -743.26)" gradientUnits="userSpaceOnUse"><stop offset="0" stop-color="#ffe2a1"/><stop offset="0.07" stop-color="#ffecc2"/><stop offset="0.15" stop-color="#fff4dd"/><stop offset="0.22" stop-color="#fffaf0"/><stop offset="0.3" stop-color="#fffefb"/><stop offset="0.38" stop-color="#fff"/><stop offset="0.69" stop-color="#ffe2a1"/><stop offset="0.9" stop-color="#fff"/><stop offset="1" stop-color="#ffe2a1"/></linearGradient></defs><g id="bg"><path class="cls-1" d="M134.84,233.86l-34-8a7,7,0,0,0-1.58-.18H70.78a7,7,0,0,0-3.69,1.06l-16,10.08a6.87,6.87,0,0,0-2.28,2.36l-6.58,11.22L30.7,270.68c-.08.14-.15.28-.22.42l-3.72,7.68a6.93,6.93,0,0,0-.36,5.12L28,289a6.94,6.94,0,0,0,3.37,4l.45.24a7,7,0,0,1,3.45,8l-6.41,23.06-5.13,19.83a6.84,6.84,0,0,0-.23,1.8l.19,18.85q0,.3,0,.6l1.66,17.08a6.9,6.9,0,0,0,1,3l7.71,12.24a7,7,0,0,0,2.46,2.34l16.88,9.51a7.13,7.13,0,0,1,.81.54L60.62,415a7.05,7.05,0,0,1,1.28,1.28h0a6.93,6.93,0,0,1,.7,7.33l-.89,1.77c-.09.17-.18.35-.29.52L51.18,442.49a6.87,6.87,0,0,0-1,4l.19,3.71a7,7,0,0,1-.47,2.91l-14.7,37.21c-.06.16-.12.33-.17.5L21,536.1a7.15,7.15,0,0,0-.28,1.45l-2.84,32.9a7,7,0,0,0,.74,3.77l11,21.3a6.89,6.89,0,0,0,2.94,3L53.8,609.64a6.87,6.87,0,0,0,1.32.53l29.06,8.31a7.66,7.66,0,0,0,.95.21l39.35,5.47a7.46,7.46,0,0,0,1,.06h43.78c1.88,0,5.44,1.23,6.68,0s.25-5,.25-7L175,244.05a6.93,6.93,0,0,0-6.27-6.88l-33-3.15A7.08,7.08,0,0,1,134.84,233.86Z" transform="translate(-17.89 -9.93)"/><path class="cls-2" d="M91.09,337.74l15.2,38.31-3,3.48-4.37,4.13L92,374.34a21.27,21.27,0,0,1-3.68-8.06l-.92-4.21a16.41,16.41,0,0,1-.39-3.82l.1-6.16a11,11,0,0,1,.57-3.37l2.11-6.32Z" transform="translate(-17.89 -9.93)"/><path class="cls-1" d="M217.19,233.86l34-8a7,7,0,0,1,1.58-.18h28.5a7,7,0,0,1,3.7,1.06l16,10.08a6.87,6.87,0,0,1,2.28,2.36l6.58,11.22,11.55,20.23c.08.14.15.28.22.42l3.72,7.68a6.93,6.93,0,0,1,.36,5.12L324,289a6.94,6.94,0,0,1-3.37,4l-.45.24a6.93,6.93,0,0,0-3.44,8l6.4,23.06,5.14,19.83a7.27,7.27,0,0,1,.22,1.8l-.18,18.85c0,.2,0,.4,0,.6l-1.66,17.08a6.9,6.9,0,0,1-1,3l-7.71,12.24a7,7,0,0,1-2.46,2.34l-16.87,9.51a6.45,6.45,0,0,0-.82.54L291.41,415a7.05,7.05,0,0,0-1.28,1.28h0a6.93,6.93,0,0,0-.7,7.33l27.42,66.75c.06.16.12.33.17.5l14,45.28a7.15,7.15,0,0,1,.28,1.45l.63,7.27L329,548l1,10.8s-1.28,16.86-1.88,18l-5.8,18.67a6.92,6.92,0,0,1-2.93,3l-21.24,11.16a6.87,6.87,0,0,1-1.32.53l-29.06,8.31a7.66,7.66,0,0,1-1,.21l-39.34,5.47a7.73,7.73,0,0,1-1,.06H175.89c-1.77,0,0-5,0-7L177,244.05a6.93,6.93,0,0,1,6.27-6.88l33-3.15A7.08,7.08,0,0,0,217.19,233.86Z" transform="translate(-17.89 -9.93)"/><path class="cls-2" d="M260.94,337.74l-15.2,38.31,3,3.48,4.37,4.13,6.93-9.32a21.27,21.27,0,0,0,3.68-8.06l.92-4.21a16.41,16.41,0,0,0,.39-3.82l-.1-6.16a11,11,0,0,0-.57-3.37l-2.11-6.32Z" transform="translate(-17.89 -9.93)"/></g><polygon id="shawlBack" class="cls-3" points="81.3 223.17 118.36 230.89 198.92 230.4 240.79 222.58 158.26 327.03 81.3 223.17"/><g id="skirt"><path class="cls-4" d="M72.47,425.28c-19.13,34.15-28.66,67.41-29.81,72.88s-10.31,38.6-10.31,38.6S28.54,559,29.19,566.23A48.12,48.12,0,0,0,32,578.89c.73,2.24,5.06,14.07,15.07,19.24A190.58,190.58,0,0,0,76,610.27a245.77,245.77,0,0,0,29.84,7L148,622.55l26.63.62-2.32-242.82-62.31.59S91.6,391.13,72.47,425.28Z" transform="translate(-17.89 -9.93)"/><path class="cls-4" d="M320.65,533.46s-10.06-32.4-11.37-37.85-11.92-38.5-32.6-72.28-40.12-43.59-40.12-43.59l-65.17.62,2.31,242.82L201.54,622l44-6.11a266.1,266.1,0,0,0,31.08-7.57,204.63,204.63,0,0,0,30-12.71c10.37-5.36,14.67-17.27,15.38-19.53a45.69,45.69,0,0,0,2.69-12.71C325.24,556.17,320.65,533.46,320.65,533.46Z" transform="translate(-17.89 -9.93)"/></g><path id="overlap" class="cls-5" d="M110.42,378.28l-10.15,9-21.7,23.54L57.31,446.22S64,473.46,92.09,490.13s41.75,24.4,64.69,27.21,40.21,12.38,57.33,22S251.8,563.52,276,562.39,328.58,542,328.58,542l-27-73.24L267.27,402l-26.09-23.69Z" transform="translate(-17.89 -9.93)"/><path id="pattern" class="cls-6" d="M112.29,386.58S78.17,431.57,72,449.2,59,482.59,55.3,506.81s-10.68,56.87-11.39,61.94c-.43,3.12-3.51,12.4-5.17,18.13a8.3,8.3,0,0,0,3.89,9.55c8.19,4.63,23.69,11.41,29.39,12.45C80.1,610.35,83.34,580,83.34,580l6.21-72.08,6.19-43.36a88.91,88.91,0,0,1,8.63-27.45l21.79-43.22Z" transform="translate(-17.89 -9.93)"/><path id="pattern1" class="cls-7" d="M149.05,400.37,137,431.18a113.91,113.91,0,0,0-12.67,40.49l-4.08,35.13.31,64.11a31,31,0,0,1-.27,4.09l-5.61,41a1.31,1.31,0,0,0,1.1,1.26c4.49.72,22.39,3.51,37.93,4.86,1,.09-1.73-12.43-4.83-25.34a143.81,143.81,0,0,1-2-57.33l4.9-29.16a17.85,17.85,0,0,0,.26-3.1V460.53a44.34,44.34,0,0,1,1.22-10.33l10-45.42Z" transform="translate(-17.89 -9.93)"/><path id="pattern2" class="cls-8" d="M239.39,386.58s34.12,45,40.34,62.62,13,33.39,16.65,57.61,10.67,56.87,11.38,61.94c.44,3.12,4.84,23.09,1.48,25-8.19,4.63-24.32,12.72-30,13.76C271.14,609,268.34,580,268.34,580l-6.21-72.08-6.19-43.36a88.91,88.91,0,0,0-8.63-27.45L225.52,393.9Z" transform="translate(-17.89 -9.93)"/><path id="pattern3" class="cls-9" d="M202.63,400.37l12.06,30.81a113.91,113.91,0,0,1,12.67,40.49l4.08,35.13-.31,64.11a31,31,0,0,0,.27,4.09L237,616a1.31,1.31,0,0,1-1.1,1.26c-4.49.72-22.39,3.51-37.93,4.86-1,.09,1.73-12.43,4.83-25.34a143.81,143.81,0,0,0,2-57.33l-4.91-29.16a18.88,18.88,0,0,1-.25-3.1V460.53a44.34,44.34,0,0,0-1.22-10.33l-10-45.42Z" transform="translate(-17.89 -9.93)"/><path class="cls-10" d="M241.18,378.28,172.4,391l10.2,18.4a109.41,109.41,0,0,1,13.3,43.77l5.18,61.53a95.28,95.28,0,0,1,.3,10.95l-1,32.19A74.16,74.16,0,0,0,215,604.3l10.77,14.52,19.82-2.89L261,612.67l18.23-5.17,17.82-7.35,12.19-6.41,8.22-8.29,5.86-13.58L324.74,557l-1.89-11.38,5.73-3.58L305.9,480.56l-8.59-20.07-20.63-37.16Z" transform="translate(-17.89 -9.93)"/><g id="body"><circle id="hand" class="cls-11" cx="158.46" cy="437.01" r="19.26"/><path id="Body-2" data-name="Body" class="cls-12" d="M319.69,351.25s-2.43-19.17-15.92-60.06c-9.14-27.71-61.41-36.91-82.52-38a3.28,3.28,0,0,1,2.49,1.87c1.22,3.63-8,13.72-8,13.72l-7.1,10.37a157.8,157.8,0,0,1-14.74,20.09c-10,11.83-17.74,11.07-17.74,11.07s-7.82.76-17.8-11.07a157.8,157.8,0,0,1-14.74-20.09l-7.1-10.37s-9.22-10.09-8-13.72a3.28,3.28,0,0,1,2.49-1.87c-21.1,1.1-73.37,10.3-82.51,38C35,332.08,32.57,351.25,32.57,351.25s-3.11,31.81,14.2,48.81,88.43,42,88.43,42l12.43,23.48,23.27-48.08-32.28.75s-30.53-21.9-33-24.45C100.09,388,90.1,377.34,87,372c-2.53-4.42-3.2-13-3.32-19.43a25,25,0,0,1,4-14.08l4.36-6.75,18.13,48.58,45.56,15.4a68.05,68.05,0,0,0,40.81,0l46.13-15.4L260.2,331.7l4.46,6.9a24.19,24.19,0,0,1,3.91,13.54c-.1,6.45-.75,15.31-3.33,19.82-4.34,7.59-22.41,25.72-22.41,25.72l-36.08,20.56-27.07-.56,21.63,47.89L219,442.09s69.23-25,86.54-42S319.69,351.25,319.69,351.25Z" transform="translate(-17.89 -9.93)"/><path class="cls-13" d="M176,397.36l8.83,2.08,32.64-10,25-7,16.88-49.94A35.79,35.79,0,0,1,277,312.55l.69-.35,27.95-15.14-73.43-42.85-45.86,52.87L182.16,310a12.71,12.71,0,0,1-15.93-1.19l-6-5.61-16.63-24.06,28.69,101.21Z" transform="translate(-17.89 -9.93)"/><g id="hips"><circle class="cls-14" cx="92.52" cy="372.48" r="4.13"/><circle class="cls-14" cx="99.05" cy="375.49" r="4.13"/><circle class="cls-14" cx="105.58" cy="377.49" r="4.13"/><circle class="cls-14" cx="112.11" cy="379.49" r="4.13"/><circle class="cls-14" cx="118.64" cy="381.5" r="4.13"/><circle class="cls-14" cx="125.17" cy="383.5" r="4.13"/><circle class="cls-14" cx="131.7" cy="385.5" r="4.13"/><circle class="cls-14" cx="138.22" cy="387.51" r="4.13"/><circle class="cls-14" cx="144.75" cy="389.51" r="4.13"/><circle class="cls-14" cx="151.28" cy="391.51" r="4.13"/><circle class="cls-14" cx="223.28" cy="372.48" r="4.13"/><circle class="cls-14" cx="216.75" cy="375.49" r="4.13"/><circle class="cls-14" cx="210.22" cy="377.49" r="4.13"/><circle class="cls-14" cx="203.7" cy="379.49" r="4.13"/><circle class="cls-14" cx="197.17" cy="381.5" r="4.13"/><circle class="cls-14" cx="190.64" cy="383.5" r="4.13"/><circle class="cls-14" cx="184.11" cy="385.5" r="4.13"/><circle class="cls-14" cx="177.58" cy="387.51" r="4.13"/><circle class="cls-14" cx="171.05" cy="389.51" r="4.13"/><circle class="cls-14" cx="164.52" cy="391.51" r="4.13"/><circle class="cls-14" cx="158.09" cy="392.04" r="4.61"/></g><circle class="cls-14" cx="154.48" cy="407.76" r="4.13"/><circle class="cls-14" cx="151.84" cy="414.51" r="4.13"/><circle class="cls-14" cx="149.35" cy="419.96" r="4.13"/><circle class="cls-14" cx="145.27" cy="425.78" r="4.13"/><circle class="cls-14" cx="143.02" cy="432.16" r="4.13"/><circle class="cls-14" cx="139.63" cy="437.59" r="4.13"/><circle class="cls-14" cx="138.01" cy="443.43" r="4.13"/><circle class="cls-14" cx="135.5" cy="448.49" r="4.13"/><circle class="cls-14" cx="132.31" cy="454.69" r="4.13"/><circle class="cls-14" cx="162.31" cy="407.76" r="4.13"/><circle class="cls-14" cx="164.95" cy="414.51" r="4.13"/><circle class="cls-14" cx="167.44" cy="419.96" r="4.13"/><circle class="cls-14" cx="171.53" cy="425.78" r="4.13"/><circle class="cls-14" cx="173.78" cy="432.16" r="4.13"/><circle class="cls-14" cx="177.16" cy="437.59" r="4.13"/><circle class="cls-14" cx="178.79" cy="443.43" r="4.13"/><circle class="cls-14" cx="181.29" cy="448.49" r="4.13"/><circle class="cls-14" cx="184.48" cy="454.69" r="4.13"/><path id="neck" class="cls-15" d="M133.86,235.37l26.53,17.81-28.06-.12a4.48,4.48,0,0,0-3,7.74L151,289.86c10.06,17.18,18,22.62,24.61,22.33,8.78-.37,19.52-12.82,26.28-23.44L222.63,262a5,5,0,0,0-3.08-8.91l-26.5.12,26.74-17.81S193.78,233.49,133.86,235.37Z" transform="translate(-17.89 -9.93)"/></g><g id="Shawl"><g id="ShawlR"><path class="cls-12" d="M176,349.53l45.14-96.35,9.42-10.27c10-9.42,23.34-10.42,32.84-10.4l5.12.49c14.06,1.36,26.12,8.81,31.53,19.49L313,279.25a8.06,8.06,0,0,1-4.19,11Z" transform="translate(-17.89 -9.93)"/><g id="beads"><circle class="cls-14" cx="296.13" cy="276.74" r="4.13"/><circle class="cls-14" cx="288.87" cy="279.87" r="4.13"/><circle class="cls-14" cx="281.61" cy="283" r="4.13"/><circle class="cls-14" cx="274.36" cy="286.13" r="4.13"/><circle class="cls-14" cx="267.1" cy="289.26" r="4.13"/><circle class="cls-14" cx="259.84" cy="292.39" r="4.13"/><circle class="cls-14" cx="253.58" cy="296.52" r="4.13"/><circle class="cls-14" cx="246.32" cy="299.65" r="4.13"/><circle class="cls-14" cx="239.06" cy="302.78" r="4.13"/><circle class="cls-14" cx="231.85" cy="305.91" r="4.13"/><circle class="cls-14" cx="224.59" cy="309.04" r="4.13"/><circle class="cls-14" cx="217.34" cy="312.17" r="4.13"/><circle class="cls-14" cx="210.74" cy="315.3" r="4.13"/><circle class="cls-14" cx="203.48" cy="318.43" r="4.13"/><circle class="cls-14" cx="196.22" cy="321.56" r="4.13"/><circle class="cls-14" cx="189.66" cy="324.68" r="4.13"/><circle class="cls-14" cx="182.4" cy="327.81" r="4.13"/><circle class="cls-14" cx="175.14" cy="330.94" r="4.13"/><circle class="cls-14" cx="168.49" cy="333.81" r="4.13"/></g></g><g id="ShawlR-2" data-name="ShawlR"><path class="cls-12" d="M176.16,349.53,131,253.18l-9.42-10.27c-10-9.42-23.33-10.42-32.84-10.4l-5.12.49c-14,1.36-26.11,8.81-31.52,19.49L39.22,279.25a8.07,8.07,0,0,0,4.19,11Z" transform="translate(-17.89 -9.93)"/><g id="beads-2" data-name="beads"><circle class="cls-14" cx="20.25" cy="276.74" r="4.13"/><circle class="cls-14" cx="27.51" cy="279.87" r="4.13"/><circle class="cls-14" cx="34.77" cy="283" r="4.13"/><circle class="cls-14" cx="42.03" cy="286.13" r="4.13"/><circle class="cls-14" cx="49.29" cy="289.26" r="4.13"/><circle class="cls-14" cx="56.55" cy="292.39" r="4.13"/><circle class="cls-14" cx="62.81" cy="296.52" r="4.13"/><circle class="cls-14" cx="70.07" cy="299.65" r="4.13"/><circle class="cls-14" cx="77.33" cy="302.78" r="4.13"/><circle class="cls-14" cx="84.53" cy="305.91" r="4.13"/><circle class="cls-14" cx="91.79" cy="309.04" r="4.13"/><circle class="cls-14" cx="99.05" cy="312.17" r="4.13"/><circle class="cls-14" cx="105.65" cy="315.3" r="4.13"/><circle class="cls-14" cx="112.91" cy="318.43" r="4.13"/><circle class="cls-14" cx="120.17" cy="321.56" r="4.13"/><circle class="cls-14" cx="126.73" cy="324.68" r="4.13"/><circle class="cls-14" cx="133.99" cy="327.81" r="4.13"/><circle class="cls-14" cx="141.25" cy="330.94" r="4.13"/><circle class="cls-14" cx="147.89" cy="333.81" r="4.13"/></g></g><ellipse class="cls-16" cx="158.01" cy="330.94" rx="12.74" ry="12.54"/></g><g id="head"><path class="cls-1" d="M109.12,231.71a84.44,84.44,0,0,1-43.23-24.77c-6-6.48-11.78-14.17-15.4-22.62-11.47-26.68-2-65.26,2.61-75.75C63.28,85.48,69.38,78.37,85.52,63.5c7.92-7.3,25.42-12.13,27.08-17.57,4.28-14,14-26.16,28.17-30.77,7.44-2.42,24.19-4.89,35.79-5.2,14.6-.39,45.46,2.24,59.64,16.41,15.4,15.4,5.21,20.43,17.79,27.84,17.31,10.18,41.31,29.47,49.88,52.5,8.07,21.69,8.26,44.85-6,77.34-6.59,15-17.26,31.63-38.66,39.42-9.41,3.42-27,9.84-42.39,13.93-10.14,2.7-43.86,5.63-59.63,3.54-1.23-.17-19.74-2.67-20.92-3.05Z" transform="translate(-17.89 -9.93)"/><path id="face" class="cls-15" d="M89.13,109.83l9.65,7.28a62.28,62.28,0,0,0,27.38,11.74l82.49,13.62-33.6-18.75,69.26,19.15s36.13,9.16,32.05,20.9c0,0-4.09,32.77-14.7,55.67-17.35,10.53-85.27,41.87-167.49,4.08,0,0-10.72-2.55-14.8-17.87a133.31,133.31,0,0,1-2.87-15.08,140,140,0,0,1,10.36-75.51Z" transform="translate(-17.89 -9.93)"/><g id="cheek"><path class="cls-17" d="M239.58,150.19s27,7.14,27,16.33-4.95,21.77-6.48,24.32c0,0-13.78-14.81-26,0s5.62,31.15,17.87,24c0,0-4.11,11.8-6.94,12.88s16.52-5.18,19.53-11,11.34-16.87,12.14-56.63c-1.37-3-2.48-8-22.13-14.09-10.45-3.25-33.18-10-45.49-12.91l-34-9.41,33.6,18.75-70.39-11.62-12.09-2.2a53.54,53.54,0,0,1-10.51-3l-6-2.41a39.5,39.5,0,0,1-8.21-4.51l-12.37-8.86-1.3,3,5.61,6.56a52.16,52.16,0,0,0,21.49,15,59.76,59.76,0,0,0,7.08,2.23l19.66,3.55a77.62,77.62,0,0,0,11.25,1.74l57.38,4.61Z" transform="translate(-17.89 -9.93)"/><circle class="cls-17" cx="83.98" cy="191.17" r="14.81"/></g><path id="eyes" class="cls-18" d="M247.67,169.37s4.08,2.94,1.53,6.26-6.64,0-6.64,0-7.66-8.44-22.21-6.27c0,0-11.75,4.61-11.75,7.73,0,0-7.92.56-5.87-6.33,0,0,10.47-10.7,23.49-9.94A37.28,37.28,0,0,1,247.67,169.37ZM122,161.17c-13-.76-23.49,9.94-23.49,9.94-2,6.89,5.87,6.33,5.87,6.33,0-3.12,11.75-7.73,11.75-7.73,14.55-2.17,22.21,6.27,22.21,6.27s4.08,3.32,6.64,0-1.53-6.26-1.53-6.26A37.28,37.28,0,0,0,122,161.17Z" transform="translate(-17.89 -9.93)"/><path id="lips" class="cls-19" d="M195.35,210.58s3.86-3,1.45-6.44-6.28,0-6.28,0-7.25,8.68-21,6.44c0,0-11.11-4.75-11.11-8,0,0-7.49-.58-5.56,6.51,0,0,9.9,11,22.23,10.24A34,34,0,0,0,195.35,210.58Z" transform="translate(-17.89 -9.93)"/><g id="hairdress"><circle class="cls-20" cx="79.53" cy="50.73" r="7.44"/><circle class="cls-21" cx="91.54" cy="43.91" r="7.44"/><circle class="cls-22" cx="104.9" cy="40.28" r="7.44"/><circle class="cls-23" cx="118.37" cy="37.46" r="7.44"/><circle class="cls-24" cx="130.32" cy="33.87" r="7.44"/><circle class="cls-25" cx="198.92" cy="33.87" r="7.44"/><circle class="cls-26" cx="211.57" cy="37.46" r="7.44"/><circle class="cls-27" cx="223.09" cy="42.06" r="7.44"/><circle class="cls-28" cx="235.52" cy="47.72" r="7.44"/><circle class="cls-29" cx="245.96" cy="55.16" r="7.44"/><ellipse class="cls-30" cx="184.43" cy="31.04" rx="11.03" ry="10.85"/><ellipse class="cls-31" cx="144.3" cy="30.19" rx="11.03" ry="10.85"/><ellipse class="cls-32" cx="163.84" cy="30.02" rx="12.74" ry="12.54"/></g></g><g id="inst1"><path class="cls-33" d="M268.66,552H46L65.37,605h0c3.91,12.18,42.79,18.4,92.47,18.4s90.06-8.19,91.4-18.4h.07Z" transform="translate(-17.89 -9.93)"/><ellipse class="cls-34" cx="139.56" cy="542.02" rx="111.44" ry="23.04"/><path class="cls-35" d="M209.4,542.35c0-12.12-22.12-22-49.41-22s-49.42,9.83-49.42,22,20.06,11.94,47.35,11.94S209.4,554.48,209.4,542.35Z" transform="translate(-17.89 -9.93)"/><line class="cls-36" x1="128.49" y1="524.78" x2="158.08" y2="455.53"/><ellipse class="cls-37" cx="146.39" cy="534.71" rx="11.63" ry="11.57" transform="translate(-420.73 449.31) rotate(-66.87)"/></g></svg>