<svg id="PH" xmlns="http://www.w3.org/2000/svg" xmlns:xlink="http://www.w3.org/1999/xlink" viewBox="0 0 490.79 616.03"><defs><style>.cls-1{fill:#331330;}.cls-2{fill:#fff;}.cls-3{fill:#93becc;}.cls-4{fill:#1c75bc;}.cls-5{fill:#2e3192;}.cls-6{fill:url(#linear-gradient);}.cls-7{fill:url(#linear-gradient-2);}.cls-8{fill:url(#linear-gradient-3);}.cls-9{fill:url(#linear-gradient-4);}.cls-10{fill:url(#linear-gradient-5);}.cls-11,.cls-15{fill:#fdeff5;}.cls-11{stroke:#331330;stroke-miterlimit:10;stroke-width:3px;}.cls-12{fill:#b2e2f6;}.cls-13{fill:url(#linear-gradient-6);}.cls-14{fill:#fac951;}.cls-16{fill:url(#linear-gradient-7);}.cls-17{fill:#fbd2db;}.cls-18{fill:#2d1230;}.cls-19{fill:#ef524a;}.cls-20{fill:url(#linear-gradient-8);}.cls-21{fill:url(#linear-gradient-9);}.cls-22{fill:url(#linear-gradient-10);}.cls-23{fill:url(#linear-gradient-11);}.cls-24{fill:url(#linear-gradient-12);}.cls-25{fill:url(#linear-gradient-13);}.cls-26{fill:url(#linear-gradient-14);}.cls-27{fill:url(#linear-gradient-15);}.cls-28{fill:url(#linear-gradient-16);}.cls-29{fill:url(#linear-gradient-17);}.cls-30{fill:url(#linear-gradient-18);}.cls-31{fill:url(#linear-gradient-19);}.cls-32{fill:url(#linear-gradient-20);}</style><linearGradient id="linear-gradient" x1="111.91" y1="489.41" x2="199.66" y2="489.41" gradientUnits="userSpaceOnUse"><stop offset="0" stop-color="#2484c6" stop-opacity="0"/><stop offset="1" stop-color="#2484c6"/></linearGradient><linearGradient id="linear-gradient-2" x1="188.17" y1="502.91" x2="236.77" y2="502.91" xlink:href="#linear-gradient"/><linearGradient id="linear-gradient-3" x1="299.02" y1="488.72" x2="383.99" y2="488.72" xlink:href="#linear-gradient"/><linearGradient id="linear-gradient-4" x1="261.91" y1="502.91" x2="310.51" y2="502.91" xlink:href="#linear-gradient"/><linearGradient id="linear-gradient-5" x1="245.9" y1="490.21" x2="402.08" y2="490.21" gradientUnits="userSpaceOnUse"><stop offset="0" stop-color="#2484c6" stop-opacity="0"/><stop offset="1" stop-color="#2e3192"/></linearGradient><linearGradient id="linear-gradient-6" x1="217.12" y1="318.48" x2="379.18" y2="318.48" gradientUnits="userSpaceOnUse"><stop offset="0" stop-color="#b2e2f6" stop-opacity="0.5"/><stop offset="0.65" stop-color="#27aae1" stop-opacity="0.75"/><stop offset="1" stop-color="#1c75bc"/></linearGradient><linearGradient id="linear-gradient-7" x1="236.66" y1="332.53" x2="262.15" y2="332.53" gradientUnits="userSpaceOnUse"><stop offset="0" stop-color="#fff"/><stop offset="0.52" stop-color="#c02b31"/><stop offset="0.97" stop-color="#be1e2d"/></linearGradient><linearGradient id="linear-gradient-8" x1="163.48" y1="52.32" x2="178.37" y2="52.32" xlink:href="#linear-gradient-7"/><linearGradient id="linear-gradient-9" x1="175.49" y1="45.49" x2="190.38" y2="45.49" xlink:href="#linear-gradient-7"/><linearGradient id="linear-gradient-10" x1="188.86" y1="41.86" x2="203.74" y2="41.86" xlink:href="#linear-gradient-7"/><linearGradient id="linear-gradient-11" x1="202.32" y1="39.05" x2="217.2" y2="39.05" xlink:href="#linear-gradient-7"/><linearGradient id="linear-gradient-12" x1="214.27" y1="35.45" x2="229.16" y2="35.45" xlink:href="#linear-gradient-7"/><linearGradient id="linear-gradient-13" x1="282.87" y1="35.45" x2="297.76" y2="35.45" xlink:href="#linear-gradient-7"/><linearGradient id="linear-gradient-14" x1="295.52" y1="39.05" x2="310.41" y2="39.05" xlink:href="#linear-gradient-7"/><linearGradient id="linear-gradient-15" x1="307.04" y1="43.65" x2="321.93" y2="43.65" xlink:href="#linear-gradient-7"/><linearGradient id="linear-gradient-16" x1="319.47" y1="49.3" x2="334.36" y2="49.3" xlink:href="#linear-gradient-7"/><linearGradient id="linear-gradient-17" x1="329.92" y1="56.75" x2="344.8" y2="56.75" xlink:href="#linear-gradient-7"/><linearGradient id="linear-gradient-18" x1="264.8" y1="32.63" x2="286.85" y2="32.63" xlink:href="#linear-gradient-7"/><linearGradient id="linear-gradient-19" x1="224.67" y1="31.77" x2="246.72" y2="31.77" xlink:href="#linear-gradient-7"/><linearGradient id="linear-gradient-20" x1="242.49" y1="31.6" x2="267.98" y2="31.6" xlink:href="#linear-gradient-7"/></defs><g id="bg"><path class="cls-1" d="M208.34,225.52l-34-8a7,7,0,0,0-1.58-.18h-28.5a6.87,6.87,0,0,0-3.69,1.07l-16,10.07a6.87,6.87,0,0,0-2.28,2.36l-6.58,11.23L104.2,262.34c-.08.14-.15.28-.22.42l-3.71,7.68a6.89,6.89,0,0,0-.37,5.12l1.62,5.09a6.94,6.94,0,0,0,3.37,4l.45.24a6.92,6.92,0,0,1,3.45,8L102.38,316l-5.13,19.83A6.51,6.51,0,0,0,97,337.6l.18,18.84c0,.2,0,.41,0,.61l1.66,17.08a6.94,6.94,0,0,0,1,3l7.71,12.23a6.9,6.9,0,0,0,2.46,2.34L127,401.24a8.67,8.67,0,0,1,.81.53l6.32,4.85a7.05,7.05,0,0,1,1.28,1.28h0a6.93,6.93,0,0,1,.7,7.33l-.88,1.76c-.09.18-.19.35-.3.53l-10.24,16.63a6.91,6.91,0,0,0-1,4l.19,3.72a7.07,7.07,0,0,1-.47,2.91L108.69,482a5,5,0,0,0-.18.5l-14,45.29a7,7,0,0,0-.28,1.45l-2.84,32.9a7,7,0,0,0,.74,3.77l11,21.29a7,7,0,0,0,2.94,3L127.3,601.3a7.58,7.58,0,0,0,1.32.53l29.06,8.31a6.17,6.17,0,0,0,.95.2L198,615.81a6,6,0,0,0,1,.07h43.78c1.88,0,5.44,1.22,6.69,0s.24-5,.24-7l-1.1-373.23a6.92,6.92,0,0,0-6.27-6.87l-33-3.16A7.06,7.06,0,0,1,208.34,225.52Z"/><path class="cls-2" d="M164.59,329.4l15.2,38.3-3,3.49-4.37,4.12L165.48,366a21.31,21.31,0,0,1-3.68-8.07l-.92-4.21a16.27,16.27,0,0,1-.39-3.81l.1-6.17a11.28,11.28,0,0,1,.57-3.36l2.11-6.32Z"/><path class="cls-1" d="M290.69,225.52l34-8a7,7,0,0,1,1.58-.18h28.5a6.93,6.93,0,0,1,3.7,1.07l16,10.07a6.87,6.87,0,0,1,2.28,2.36l6.58,11.23,11.55,20.23c.08.14.15.28.22.42l3.72,7.68a6.93,6.93,0,0,1,.36,5.12l-1.62,5.09a6.94,6.94,0,0,1-3.37,4l-.45.24a6.92,6.92,0,0,0-3.44,8l6.4,23.06,5.14,19.83a7.35,7.35,0,0,1,.22,1.81l-.18,18.84c0,.2,0,.41,0,.61l-1.66,17.08a6.94,6.94,0,0,1-1,3l-7.71,12.23a6.9,6.9,0,0,1-2.46,2.34l-16.87,9.52a7.67,7.67,0,0,0-.82.53l-6.32,4.85a7.05,7.05,0,0,0-1.28,1.28h0a6.93,6.93,0,0,0-.7,7.33L390.35,482c.06.17.12.33.17.5l14,45.29a7,7,0,0,1,.28,1.45l.63,7.26-2.86,3.22,1,10.79s-1.28,16.86-1.88,18l-5.8,18.67a6.94,6.94,0,0,1-2.93,3L371.73,601.3a7.58,7.58,0,0,1-1.32.53l-29.06,8.31a6.17,6.17,0,0,1-1,.2l-39.34,5.47a6.2,6.2,0,0,1-1,.07H249.4c-1.78,0,0-5,0-7l1.09-373.23a6.92,6.92,0,0,1,6.27-6.87l33-3.16A7.06,7.06,0,0,0,290.69,225.52Z"/><path class="cls-2" d="M334.44,329.4l-15.19,38.3,3,3.49,4.37,4.12,6.93-9.31a21.31,21.31,0,0,0,3.68-8.07l.93-4.21a16.82,16.82,0,0,0,.38-3.81l-.1-6.17a11,11,0,0,0-.57-3.36l-2.11-6.32Z"/></g><polygon id="shawlBack" class="cls-3" points="172.7 224.76 209.76 232.48 290.31 231.98 332.19 224.16 249.66 328.61 172.7 224.76"/><g id="skirt"><path class="cls-4" d="M146,416.94c-19.13,34.15-28.66,67.4-29.81,72.87s-10.31,38.6-10.31,38.6-3.81,22.24-3.16,29.47a48,48,0,0,0,2.81,12.66c.73,2.24,5.06,14.07,15.07,19.24a190.37,190.37,0,0,0,28.92,12.15,245.77,245.77,0,0,0,29.84,7l42.18,5.28,26.62.63L245.82,372l-62.32.6S165.1,382.78,146,416.94Z"/><path class="cls-4" d="M394.15,525.12s-10.06-32.4-11.37-37.85-11.92-38.51-32.6-72.28-40.12-43.6-40.12-43.6l-65.17.62,2.31,242.83L275,613.69l44-6.11A266.1,266.1,0,0,0,350.12,600a203.75,203.75,0,0,0,30-12.7c10.37-5.37,14.67-17.28,15.38-19.54a45.59,45.59,0,0,0,2.69-12.71C398.74,547.82,394.15,525.12,394.15,525.12Z"/></g><path id="overlap" class="cls-5" d="M183.92,369.94l-10.15,9-21.7,23.54-21.26,35.38s6.64,27.24,34.78,43.91,41.75,24.4,64.69,27.22,40.21,12.38,57.33,22,37.69,24.22,61.91,23.09,52.56-20.4,52.56-20.4l-27-73.24-34.28-66.79-26.09-23.68Z"/><path id="pattern" class="cls-6" d="M185.79,378.23s-34.12,45-40.34,62.62-13,33.4-16.65,57.61-10.68,56.88-11.38,61.95c-.44,3.12-3.52,12.39-5.18,18.13a8.32,8.32,0,0,0,3.89,9.55c8.19,4.63,23.7,11.4,29.39,12.44,8.08,1.47,11.32-28.86,11.32-28.86l6.21-72.08,6.19-43.37a88.94,88.94,0,0,1,8.63-27.44l21.79-43.23Z"/><path id="pattern1" class="cls-7" d="M222.55,392l-12.06,30.81a113.91,113.91,0,0,0-12.67,40.49l-4.08,35.13.31,64.11a31.1,31.1,0,0,1-.27,4.09l-5.61,41a1.31,1.31,0,0,0,1.1,1.26c4.49.72,22.39,3.52,37.93,4.86,1,.09-1.73-12.43-4.83-25.34a143.81,143.81,0,0,1-2-57.33l4.9-29.16a17.74,17.74,0,0,0,.26-3.09V452.19a44.49,44.49,0,0,1,1.22-10.34l10-45.41Z"/><path id="pattern2" class="cls-8" d="M312.89,378.23s34.12,45,40.34,62.62,13,33.4,16.65,57.61,10.68,56.88,11.38,61.95c.44,3.12,4.84,23.09,1.48,25-8.19,4.63-24.32,12.72-30,13.75-8.09,1.48-10.89-27.48-10.89-27.48l-6.21-72.08-6.19-43.37a88.94,88.94,0,0,0-8.63-27.44L299,385.55Z"/><path id="pattern3" class="cls-9" d="M276.13,392l12.06,30.81a113.91,113.91,0,0,1,12.67,40.49l4.08,35.13-.31,64.11a31.1,31.1,0,0,0,.27,4.09l5.61,41a1.31,1.31,0,0,1-1.1,1.26c-4.49.72-22.39,3.52-37.93,4.86-1,.09,1.73-12.43,4.83-25.34a143.81,143.81,0,0,0,2-57.33L273.39,502a17.74,17.74,0,0,1-.26-3.09V452.19a44.49,44.49,0,0,0-1.22-10.34l-10-45.41Z"/><path class="cls-10" d="M314.68,369.94,245.9,382.67l10.2,18.41a109.36,109.36,0,0,1,13.3,43.77l5.18,61.52a95.28,95.28,0,0,1,.3,11l-1,32.19A74.14,74.14,0,0,0,288.45,596l10.77,14.53,19.82-2.9,15.46-3.26,18.23-5.17,17.82-7.34,12.19-6.41,8.23-8.3,5.85-13.57,1.42-14.92-1.89-11.38,5.73-3.58L379.4,472.21l-8.59-20.06L350.18,415Z"/><g id="body"><circle id="hand" class="cls-11" cx="249.85" cy="438.59" r="19.26"/><path id="Body-2" data-name="Body" class="cls-12" d="M393.19,342.91s-2.43-19.18-15.92-60.07c-9.14-27.7-61.41-36.9-82.52-38a3.25,3.25,0,0,1,2.49,1.87c1.22,3.63-8,13.72-8,13.72l-7.1,10.37a158.23,158.23,0,0,1-14.74,20.08c-10,11.83-17.74,11.08-17.74,11.08s-7.82.75-17.8-11.08a158.23,158.23,0,0,1-14.74-20.08L210,260.43s-9.22-10.09-8-13.72a3.25,3.25,0,0,1,2.49-1.87c-21.1,1.1-73.37,10.3-82.51,38-13.5,40.89-15.93,60.07-15.93,60.07s-3.11,31.8,14.2,48.81,88.43,42,88.43,42l12.43,23.48,23.27-48.08-32.28.75s-30.53-21.9-33-24.44c-5.55-5.76-15.54-16.45-18.62-21.84-2.53-4.42-3.2-13-3.32-19.42a25,25,0,0,1,4-14.09l4.36-6.74,18.13,48.58,45.56,15.39a68.08,68.08,0,0,0,40.82,0l46.12-15.4,17.51-48.58,4.46,6.9a24.19,24.19,0,0,1,3.91,13.54c-.1,6.44-.75,15.3-3.33,19.81-4.34,7.6-22.41,25.73-22.41,25.73l-36.08,20.55-27.07-.55,21.63,47.88,17.64-23.48s69.23-25,86.54-42S393.19,342.91,393.19,342.91Z"/><path class="cls-13" d="M249.49,389l8.83,2.08,32.64-10,25-7,16.89-49.95a35.77,35.77,0,0,1,17.66-19.92l.69-.34,27.95-15.15-73.43-42.84-45.86,52.87-4.23,2.92a12.72,12.72,0,0,1-15.93-1.19l-6-5.61L217.12,270.8,245.82,372Z"/><g id="hips"><circle class="cls-14" cx="183.92" cy="374.07" r="4.13"/><circle class="cls-14" cx="190.45" cy="377.07" r="4.13"/><circle class="cls-14" cx="196.97" cy="379.07" r="4.13"/><circle class="cls-14" cx="203.5" cy="381.08" r="4.13"/><circle class="cls-14" cx="210.03" cy="383.08" r="4.13"/><circle class="cls-14" cx="216.56" cy="385.08" r="4.13"/><circle class="cls-14" cx="223.09" cy="387.09" r="4.13"/><circle class="cls-14" cx="229.62" cy="389.09" r="4.13"/><circle class="cls-14" cx="236.15" cy="391.09" r="4.13"/><circle class="cls-14" cx="242.68" cy="393.1" r="4.13"/><circle class="cls-14" cx="314.68" cy="374.07" r="4.13"/><circle class="cls-14" cx="308.15" cy="377.07" r="4.13"/><circle class="cls-14" cx="301.62" cy="379.07" r="4.13"/><circle class="cls-14" cx="295.09" cy="381.08" r="4.13"/><circle class="cls-14" cx="288.56" cy="383.08" r="4.13"/><circle class="cls-14" cx="282.03" cy="385.08" r="4.13"/><circle class="cls-14" cx="275.5" cy="387.09" r="4.13"/><circle class="cls-14" cx="268.97" cy="389.09" r="4.13"/><circle class="cls-14" cx="262.45" cy="391.09" r="4.13"/><circle class="cls-14" cx="255.92" cy="393.1" r="4.13"/><circle class="cls-14" cx="249.49" cy="393.62" r="4.61"/></g><circle class="cls-14" cx="245.88" cy="409.34" r="4.13"/><circle class="cls-14" cx="243.24" cy="416.1" r="4.13"/><circle class="cls-14" cx="240.75" cy="421.54" r="4.13"/><circle class="cls-14" cx="236.66" cy="427.36" r="4.13"/><circle class="cls-14" cx="234.41" cy="433.74" r="4.13"/><circle class="cls-14" cx="231.03" cy="439.18" r="4.13"/><circle class="cls-14" cx="229.4" cy="445.01" r="4.13"/><circle class="cls-14" cx="226.9" cy="450.08" r="4.13"/><circle class="cls-14" cx="223.71" cy="456.28" r="4.13"/><circle class="cls-14" cx="253.71" cy="409.34" r="4.13"/><circle class="cls-14" cx="256.35" cy="416.1" r="4.13"/><circle class="cls-14" cx="258.84" cy="421.54" r="4.13"/><circle class="cls-14" cx="262.92" cy="427.36" r="4.13"/><circle class="cls-14" cx="265.17" cy="433.74" r="4.13"/><circle class="cls-14" cx="268.56" cy="439.18" r="4.13"/><circle class="cls-14" cx="270.18" cy="445.01" r="4.13"/><circle class="cls-14" cx="272.69" cy="450.08" r="4.13"/><circle class="cls-14" cx="275.88" cy="456.28" r="4.13"/><path id="neck" class="cls-15" d="M207.36,227l26.53,17.81-28.06-.12a4.47,4.47,0,0,0-3,7.73l21.65,29.07c10.06,17.18,18,22.61,24.61,22.33,8.78-.38,19.52-12.82,26.28-23.45l20.75-26.77a5,5,0,0,0-3.08-8.91l-26.5.12L293.29,227S267.28,225.14,207.36,227Z"/></g><g id="Shawl"><g id="ShawlR"><path class="cls-12" d="M249.52,341.19l45.14-96.35,9.42-10.27c10-9.42,23.34-10.43,32.84-10.41l5.12.5c14.06,1.36,26.12,8.81,31.53,19.48l12.88,26.76a8.05,8.05,0,0,1-4.19,11Z"/><g id="beads"><circle class="cls-14" cx="387.53" cy="278.33" r="4.13"/><circle class="cls-14" cx="380.27" cy="281.46" r="4.13"/><circle class="cls-14" cx="373.01" cy="284.58" r="4.13"/><circle class="cls-14" cx="365.75" cy="287.71" r="4.13"/><circle class="cls-14" cx="358.49" cy="290.84" r="4.13"/><circle class="cls-14" cx="351.23" cy="293.97" r="4.13"/><circle class="cls-14" cx="344.97" cy="298.1" r="4.13"/><circle class="cls-14" cx="337.71" cy="301.23" r="4.13"/><circle class="cls-14" cx="330.45" cy="304.36" r="4.13"/><circle class="cls-14" cx="323.25" cy="307.49" r="4.13"/><circle class="cls-14" cx="315.99" cy="310.62" r="4.13"/><circle class="cls-14" cx="308.73" cy="313.75" r="4.13"/><circle class="cls-14" cx="302.13" cy="316.88" r="4.13"/><circle class="cls-14" cx="294.87" cy="320.01" r="4.13"/><circle class="cls-14" cx="287.61" cy="323.14" r="4.13"/><circle class="cls-14" cx="281.05" cy="326.27" r="4.13"/><circle class="cls-14" cx="273.79" cy="329.4" r="4.13"/><circle class="cls-14" cx="266.53" cy="332.53" r="4.13"/><circle class="cls-14" cx="259.89" cy="335.4" r="4.13"/></g></g><g id="ShawlR-2" data-name="ShawlR"><path class="cls-12" d="M249.66,341.19l-45.15-96.35-9.41-10.27c-10-9.42-23.34-10.43-32.85-10.41l-5.12.5c-14,1.36-26.11,8.81-31.52,19.48L112.73,270.9a8.06,8.06,0,0,0,4.18,11Z"/><g id="beads-2" data-name="beads"><circle class="cls-14" cx="111.65" cy="278.33" r="4.13"/><circle class="cls-14" cx="118.91" cy="281.46" r="4.13"/><circle class="cls-14" cx="126.17" cy="284.58" r="4.13"/><circle class="cls-14" cx="133.43" cy="287.71" r="4.13"/><circle class="cls-14" cx="140.68" cy="290.84" r="4.13"/><circle class="cls-14" cx="147.94" cy="293.97" r="4.13"/><circle class="cls-14" cx="154.2" cy="298.1" r="4.13"/><circle class="cls-14" cx="161.46" cy="301.23" r="4.13"/><circle class="cls-14" cx="168.72" cy="304.36" r="4.13"/><circle class="cls-14" cx="175.93" cy="307.49" r="4.13"/><circle class="cls-14" cx="183.19" cy="310.62" r="4.13"/><circle class="cls-14" cx="190.45" cy="313.75" r="4.13"/><circle class="cls-14" cx="197.04" cy="316.88" r="4.13"/><circle class="cls-14" cx="204.3" cy="320.01" r="4.13"/><circle class="cls-14" cx="211.56" cy="323.14" r="4.13"/><circle class="cls-14" cx="218.12" cy="326.27" r="4.13"/><circle class="cls-14" cx="225.38" cy="329.4" r="4.13"/><circle class="cls-14" cx="232.64" cy="332.53" r="4.13"/><circle class="cls-14" cx="239.29" cy="335.4" r="4.13"/></g></g><ellipse class="cls-16" cx="249.4" cy="332.53" rx="12.74" ry="12.54"/></g><g id="head"><path class="cls-1" d="M182.62,223.37a84.58,84.58,0,0,1-43.23-24.77c-6-6.48-11.78-14.18-15.4-22.62-11.47-26.69-2-65.27,2.61-75.76C136.78,77.14,142.88,70,159,55.15c7.92-7.29,25.42-12.13,27.08-17.57,4.28-14,14-26.15,28.17-30.76,7.45-2.42,24.19-4.89,35.79-5.2,14.6-.39,45.46,2.23,59.64,16.41,15.4,15.39,5.21,20.43,17.79,27.83,17.31,10.19,41.31,29.47,49.88,52.51,8.07,21.68,8.26,44.85-6,77.33-6.6,15-17.27,31.64-38.67,39.42-9.41,3.42-27,9.85-42.39,13.94-10.14,2.7-43.86,5.63-59.63,3.53-1.23-.16-19.74-2.67-20.92-3Z"/><path id="face" class="cls-15" d="M162.64,101.49l9.64,7.28a62.28,62.28,0,0,0,27.38,11.74l82.49,13.62-33.6-18.75,69.26,19.15s36.13,9.15,32.05,20.9c0,0-4.09,32.77-14.7,55.66-17.35,10.53-85.27,41.87-167.48,4.09,0,0-10.73-2.56-14.81-17.88A134.91,134.91,0,0,1,150,182.23a140,140,0,0,1,10.36-75.52Z"/><g id="cheek"><path class="cls-17" d="M313.08,141.85s27,7.14,27,16.33-4.95,21.76-6.48,24.31c0,0-13.78-14.8-26,0s5.62,31.15,17.87,24c0,0-4.11,11.81-6.94,12.89s16.52-5.19,19.53-11,11.34-16.86,12.14-56.62c-1.37-3-2.48-8-22.13-14.09-10.45-3.26-33.18-10-45.49-12.92l-34-9.4,33.6,18.75-70.39-11.62-12.09-2.2a54.47,54.47,0,0,1-10.51-3l-5.95-2.4a40,40,0,0,1-8.21-4.51l-12.36-8.86-1.31,3,5.61,6.55a52.34,52.34,0,0,0,21.49,15,60.35,60.35,0,0,0,7.08,2.23l19.66,3.55a79,79,0,0,0,11.25,1.74l57.38,4.61Z"/><circle class="cls-17" cx="175.38" cy="192.75" r="14.81"/></g><path id="eyes" class="cls-18" d="M299.72,169.08c-13,.76-23.49-9.94-23.49-9.94-2-6.89,5.87-6.33,5.87-6.33,0,3.12,11.75,7.73,11.75,7.73,14.55,2.16,22.21-6.27,22.21-6.27s4.08-3.33,6.64,0-1.53,6.26-1.53,6.26A37.28,37.28,0,0,1,299.72,169.08ZM217,160.16s4.08-2.94,1.53-6.26-6.64,0-6.64,0-7.65,8.43-22.21,6.27c0,0-11.75-4.61-11.75-7.73,0,0-7.91-.56-5.87,6.33,0,0,10.47,10.7,23.49,9.94A37.28,37.28,0,0,0,217,160.16Z"/><path id="lips" class="cls-19" d="M268.85,202.24s3.86-3,1.45-6.44-6.28,0-6.28,0-7.25,8.68-21,6.44c0,0-11.12-4.75-11.12-8,0,0-7.49-.59-5.56,6.51,0,0,9.9,11,22.23,10.24A34,34,0,0,0,268.85,202.24Z"/><g id="hairdress"><circle class="cls-20" cx="170.92" cy="52.32" r="7.44"/><circle class="cls-21" cx="182.93" cy="45.49" r="7.44"/><circle class="cls-22" cx="196.3" cy="41.86" r="7.44"/><circle class="cls-23" cx="209.76" cy="39.05" r="7.44"/><circle class="cls-24" cx="221.72" cy="35.45" r="7.44"/><circle class="cls-25" cx="290.31" cy="35.45" r="7.44"/><circle class="cls-26" cx="302.97" cy="39.05" r="7.44"/><circle class="cls-27" cx="314.49" cy="43.65" r="7.44"/><circle class="cls-28" cx="326.91" cy="49.3" r="7.44"/><circle class="cls-29" cx="337.36" cy="56.75" r="7.44"/><ellipse class="cls-30" cx="275.83" cy="32.63" rx="11.03" ry="10.85"/><ellipse class="cls-31" cx="235.69" cy="31.77" rx="11.03" ry="10.85"/><ellipse class="cls-32" cx="255.23" cy="31.6" rx="12.74" ry="12.54"/></g></g></svg>