<svg xmlns="http://www.w3.org/2000/svg" viewBox="0 0 178.91 605.25"><defs><style>.cls-1{fill:#4b231b;}.cls-2{fill:#dcbe6e;}.cls-3{fill:#311414;}.cls-4{fill:#b46230;}.cls-14,.cls-15,.cls-4{stroke:#3b1513;}.cls-10,.cls-11,.cls-14,.cls-15,.cls-4,.cls-7,.cls-8,.cls-9{stroke-miterlimit:10;}.cls-4,.cls-8,.cls-9{stroke-width:2px;}.cls-5{fill:#e1cc81;}.cls-6{fill:#b35e27;}.cls-10,.cls-11,.cls-14,.cls-7,.cls-8,.cls-9{fill:none;}.cls-7{stroke:#331230;stroke-width:2.5px;opacity:0.57;}.cls-8{stroke:#f1f5cf;opacity:0.47;}.cls-9{stroke:#88181b;opacity:0.44;}.cls-10{stroke:#861f1a;}.cls-10,.cls-15{stroke-width:3px;}.cls-10,.cls-11{opacity:0.53;}.cls-11{stroke:#9c4e24;}.cls-11,.cls-14{stroke-width:4px;}.cls-12{fill:#4f3829;}.cls-13{fill:#f7f8f8;}.cls-15{fill:#dcbe6c;}</style></defs><title>pipa</title><g id="Layer_2" data-name="Layer 2"><path class="cls-1" d="M177.33,506.44s9.23,98-95.39,98.8S2.71,442.86,2.71,442.86,58.87,298.1,58.87,282c0,0,10-29.87,10.77-47.49H108.1c.19,19.61,31.5,113.73,36.37,121.27C178.88,419.88,181.68,484.59,177.33,506.44Z"/><path class="cls-2" d="M170.72,505.84s8.53,95.89-88.21,96.64S9.24,443.66,9.24,443.66s51.93-141.6,51.93-157.33c0,0,9.25-29.22,10-46.45H106.7c.17,19.18,29.12,111.24,33.63,118.61C172.14,421.18,174.74,484.47,170.72,505.84Z"/><rect class="cls-3" x="51.26" y="561.82" width="72" height="14.55" rx="7.28"/><polygon class="cls-4" points="76.89 96.9 17.04 94.86 17.04 108.65 74.4 105.78 76.89 96.9"/><polygon class="cls-4" points="95.55 74.36 17.97 72.9 17.97 82.71 92.33 80.67 95.55 74.36"/><polygon class="cls-4" points="80.62 87.93 162.12 83.02 162.45 90.03 84.22 92.28 80.62 87.93"/><polygon class="cls-4" points="90.7 107.23 156.49 102.28 157.07 114.58 93.81 115.02 90.7 107.23"/><path class="cls-5" d="M67,236.05h40.43s-16.34-112.59-7.1-136.34H74.09S80.54,207.71,67,236.05Z"/><rect class="cls-3" x="71.27" y="211.93" width="34.9" height="9.96"/><rect class="cls-6" x="70.17" y="216.9" width="37.94" height="9.96"/><rect class="cls-3" x="71.97" y="192.01" width="29.65" height="9.96"/><rect class="cls-6" x="71.04" y="196.99" width="32.23" height="9.96"/><rect class="cls-3" x="73.88" y="172.1" width="26.83" height="9.96"/><rect class="cls-6" x="73.04" y="177.07" width="29.17" height="9.96"/><rect class="cls-3" x="73.86" y="149.2" width="26.13" height="12.03"/><rect class="cls-6" x="73.04" y="155.22" width="28.4" height="12.03"/><rect class="cls-3" x="77.51" y="124.69" width="20.05" height="13.02"/><rect class="cls-6" x="76.88" y="131.2" width="21.8" height="13.02"/><rect class="cls-3" x="77.58" y="105.78" width="17.97" height="9.96"/><rect class="cls-6" x="77.02" y="110.76" width="19.53" height="9.96"/><line class="cls-7" x1="77.81" y1="236.05" x2="77.81" y2="552.69"/><line class="cls-7" x1="83.26" y1="236.05" x2="83.26" y2="552.69"/><line class="cls-7" x1="90.7" y1="236.05" x2="90.7" y2="552.69"/><line class="cls-7" x1="96.87" y1="236.05" x2="96.87" y2="552.69"/><rect class="cls-6" x="61.04" y="553.33" width="52.53" height="8.15"/><line class="cls-8" x1="70.17" y1="241.93" x2="106.11" y2="241.93"/><line class="cls-9" x1="68.04" y1="247.03" x2="106.11" y2="247.03"/><line class="cls-10" x1="64.19" y1="262.69" x2="111.85" y2="262.69"/><line class="cls-10" x1="63.79" y1="276.35" x2="111.45" y2="276.35"/><line class="cls-10" x1="64.12" y1="293.01" x2="111.78" y2="293.01"/><line class="cls-10" x1="64.46" y1="305.67" x2="112.12" y2="305.67"/><line class="cls-10" x1="65.35" y1="320.77" x2="113.01" y2="320.77"/><line class="cls-10" x1="65.25" y1="331.86" x2="112.91" y2="331.86"/><line class="cls-11" x1="61.47" y1="278.35" x2="114.57" y2="278.35"/><line class="cls-11" x1="58.74" y1="294.01" x2="117.98" y2="294.01"/><line class="cls-11" x1="57.39" y1="307.67" x2="120.98" y2="307.67"/><line class="cls-11" x1="57.32" y1="322.27" x2="120.91" y2="322.27"/><line class="cls-11" x1="55.25" y1="333.86" x2="118.84" y2="333.86"/><line class="cls-10" x1="55.39" y1="341.67" x2="118.98" y2="341.67"/><line class="cls-10" x1="55.82" y1="355.46" x2="119.41" y2="355.46"/><line class="cls-10" x1="56.26" y1="365.24" x2="119.84" y2="365.24"/><line class="cls-10" x1="55.57" y1="375.37" x2="119.16" y2="375.37"/><line class="cls-10" x1="55.88" y1="384.5" x2="119.47" y2="384.5"/><line class="cls-10" x1="55.57" y1="392.39" x2="119.16" y2="392.39"/><line class="cls-10" x1="55.57" y1="398.86" x2="119.16" y2="398.86"/><line class="cls-10" x1="54.39" y1="408.39" x2="117.98" y2="408.39"/><line class="cls-11" x1="55.25" y1="343.71" x2="118.84" y2="343.71"/><line class="cls-11" x1="55.51" y1="358.01" x2="119.1" y2="358.01"/><line class="cls-11" x1="56.46" y1="367.2" x2="120.05" y2="367.2"/><line class="cls-11" x1="55.83" y1="378.44" x2="119.42" y2="378.44"/><line class="cls-11" x1="55.51" y1="386.27" x2="119.1" y2="386.27"/><line class="cls-11" x1="55.51" y1="395.8" x2="119.1" y2="395.8"/><line class="cls-11" x1="55.13" y1="401.93" x2="118.72" y2="401.93"/><line class="cls-11" x1="54.39" y1="411.12" x2="117.98" y2="411.12"/><line class="cls-11" x1="67.02" y1="425.5" x2="117.57" y2="425.5"/><line class="cls-11" x1="67.02" y1="432.22" x2="117.57" y2="432.22"/><line class="cls-11" x1="71.97" y1="436.65" x2="117.57" y2="436.65"/><line class="cls-11" x1="72.5" y1="444.82" x2="118.1" y2="444.82"/><line class="cls-11" x1="72.5" y1="450.61" x2="118.1" y2="450.61"/><line class="cls-11" x1="72.5" y1="470.69" x2="118.1" y2="470.69"/><ellipse class="cls-12" cx="87.92" cy="43.82" rx="16.36" ry="28.09"/><rect class="cls-13" x="79.87" y="66.78" width="15.68" height="30.64"/><rect class="cls-14" x="77.81" y="62.69" width="19.76" height="37.02"/><ellipse class="cls-15" cx="87.31" cy="19.37" rx="23.27" ry="17.87"/></g></svg>