<?xml version="1.0" encoding="utf-8"?>
<!-- Generator: Adobe Illustrator 24.0.0, SVG Export Plug-In . SVG Version: 6.00 Build 0)  -->
<svg version="1.1" id="Layer_1" xmlns="http://www.w3.org/2000/svg" xmlns:xlink="http://www.w3.org/1999/xlink" x="0px" y="0px"
	 viewBox="0 0 695.3 895.4" style="enable-background:new 0 0 695.3 895.4;" xml:space="preserve">
<style type="text/css">
	.st0{fill:#2B102E;}
	.st1{fill:#C2996C;}
	.st2{fill:#FDEFD6;}
	.st3{fill:none;stroke:#8A6139;stroke-width:9;stroke-miterlimit:10;}
</style>
<g>
	
		<rect x="163.1" y="255" transform="matrix(0.4556 -0.8902 0.8902 0.4556 -12.1797 562.53)" class="st0" width="581.4" height="72.5"/>
	<path class="st1" d="M254.1,872.6l-155-79.3C53.5,769.9,35.4,714,58.8,668.4l79.3-155c23.3-45.6,79.2-63.7,124.9-40.3l155,79.3
		c45.6,23.3,63.7,79.2,40.3,124.9l-79.3,155C355.6,877.9,299.7,895.9,254.1,872.6z"/>
	<path class="st2" d="M254.6,852.6L115,781.2c-41-21-57.3-71.3-36.3-112.4l71.4-139.5c21-41,71.3-57.3,112.4-36.3L402,564.4
		c41,21,57.3,71.3,36.3,112.4l-71.4,139.5C345.9,857.4,295.6,873.6,254.6,852.6z"/>
	<polygon class="st0" points="524.6,73.3 433.8,35.2 447.5,8.5 531.5,59.9 	"/>
	<polygon class="st0" points="583.4,86.5 667.5,138 681.2,111.2 590.3,73.1 	"/>
	<polygon class="st0" points="558.9,134.4 643,185.8 656.7,159.1 565.8,121 	"/>
	
		<rect x="207.6" y="685.3" transform="matrix(0.4556 -0.8902 0.8902 0.4556 -550.7747 603.5073)" class="st1" width="20.9" height="133.6"/>
	<line class="st3" x1="557.7" y1="48" x2="191.5" y2="763.4"/>
	<line class="st3" x1="574" y1="56.4" x2="207.9" y2="771.8"/>
	<line class="st3" x1="590.4" y1="64.8" x2="224.2" y2="780.2"/>
</g>
<path class="st1" d="M34.2,390.7c-2.6-21.2-2.7-22.5-5.4-44.9c214-3.1,234.2-63,234.2-63l13.6,113.3
	C276.6,396.1,229,352.3,34.2,390.7z"/>
</svg>
